
    <svg width="600" height="300" xmlns="http://www.w3.org/2000/svg">
        <defs>
            <marker id="arrowhead" markerWidth="10" markerHeight="7" refX="0" refY="3.5" orient="auto">
                <polygon points="0 0, 10 3.5, 0 7" fill="#333"/>
            </marker>
        </defs>
        
        <!-- 坐标系 -->
        <line x1="40" y1="260" x2="560" y2="260" stroke="#333" stroke-width="2" marker-end="url(#arrowhead)"/>
        <line x1="40" y1="260" x2="40" y2="40" stroke="#333" stroke-width="2" marker-end="url(#arrowhead)"/>
        
        <!-- 坐标轴标签 -->
        <text x="570" y="265" font-size="14" text-anchor="start">z</text>
        <text x="35" y="30" font-size="14" text-anchor="end">σ(z)</text>
        
        <!-- 刻度 -->
        <line x1="40" y1="160" x2="35" y2="160" stroke="#333" stroke-width="1"/>
        <text x="30" y="165" font-size="12" text-anchor="end">0.5</text>
        
        <line x1="40" y1="60" x2="35" y2="60" stroke="#333" stroke-width="1"/>
        <text x="30" y="65" font-size="12" text-anchor="end">1.0</text>
        
        <!-- 绘制sigmoid函数 -->
        <path d="M 40 255 L 40.0 259.50547536867305 L 45.252525252525245 259.4419265975169 L 50.5050505050505 259.37023728446405 L 55.757575757575744 259.28937167735967 L 61.010101010100996 259.1981641646011 L 66.26262626262628 259.0953035190502 L 71.51515151515153 258.97931537435653 L 76.76767676767678 258.84854277561834 L 82.02020202020202 258.7011246440325 L 87.27272727272728 258.5349719971437 L 92.52525252525251 258.3477417741007 L 97.7777777777778 258.13680813098665 L 103.03030303030306 257.8992310973429 L 108.2828282828283 257.63172252457684 L 113.53535353535355 257.3306093138418 L 118.7878787878788 256.9917939897936 L 124.04040404040404 256.61071279279844 L 129.29292929292927 256.1822916020153 L 134.54545454545456 255.70090018249323 L 139.7979797979798 255.16030547895016 L 145.05050505050508 254.55362496565104 L 150.3030303030303 253.87328141420073 L 155.55555555555554 253.11096086675775 L 160.80808080808083 252.25757610684673 L 166.06060606060606 251.3032385056642 L 171.31313131313132 250.23724178465216 L 176.56565656565655 249.04806196232192 L 181.81818181818184 247.72337851930155 L 187.07070707070707 246.25012257766002 L 192.3232323232323 244.61455858408232 L 197.5757575757576 242.80240652015368 L 202.82828282828282 240.7990119153991 L 208.08080808080808 238.58957075716458 L 213.33333333333334 236.1594155955765 L 218.58585858585857 233.49436753407352 L 223.83838383838383 230.58115618146712 L 229.0909090909091 227.40790585953567 L 234.34343434343438 223.96468132846604 L 239.5959595959596 220.24408006139862 L 244.84848484848487 216.24185091066974 L 250.10101010101013 211.95751134679517 L 255.35353535353536 207.39492807209652 L 260.6060606060606 202.56281972349947 L 265.8585858585858 197.47513676698628 L 271.1111111111111 192.15127375316342 L 276.3636363636364 186.61607385096647 L 281.61616161616166 180.89959554342238 L 286.86868686868684 175.0366263874305 L 292.1212121212121 169.06594777770403 L 297.37373737373736 163.0293758217371 L 302.62626262626264 156.97062417826288 L 307.8787878787879 150.934052222296 L 313.1313131313131 144.96337361256954 L 318.3838383838384 139.10040445657756 L 323.6363636363637 133.38392614903347 L 328.8888888888889 127.84872624683655 L 334.14141414141415 122.52486323301372 L 339.39393939393943 117.4371802765005 L 344.6464646464646 112.60507192790348 L 349.8989898989899 108.04248865320483 L 355.1515151515152 103.75814908933023 L 360.4040404040404 99.75591993860138 L 365.65656565656565 96.03531867153396 L 370.90909090909093 92.59209414046433 L 376.16161616161617 89.41884381853288 L 381.4141414141414 86.50563246592651 L 386.6666666666667 83.84058440442354 L 391.9191919191919 81.41042924283542 L 397.17171717171715 79.20098808460091 L 402.42424242424244 77.19759347984632 L 407.67676767676767 75.38544141591771 L 412.9292929292929 73.74987742234 L 418.1818181818182 72.27662148069845 L 423.4343434343435 70.95193803767808 L 428.68686868686876 69.76275821534784 L 433.939393939394 68.69676149433579 L 439.1919191919192 67.74242389315327 L 444.4444444444445 66.88903913324222 L 449.69696969696975 66.12671858579924 L 454.949494949495 65.44637503434896 L 460.20202020202026 64.83969452104986 L 465.4545454545455 64.29909981750677 L 470.7070707070707 63.81770839798469 L 475.9595959595959 63.38928720720156 L 481.2121212121212 63.00820601020638 L 486.4646464646464 62.66939068615818 L 491.71717171717165 62.36827747542313 L 496.96969696969694 62.10076890265708 L 502.22222222222223 61.86319186901335 L 507.4747474747475 61.65225822589929 L 512.7272727272727 61.465028002856315 L 517.9797979797979 61.29887535596751 L 523.2323232323233 61.15145722438163 L 528.4848484848485 61.02068462564347 L 533.7373737373737 60.90469648094981 L 538.9898989898991 60.80183583539889 L 544.2424242424242 60.71062832264036 L 549.4949494949494 60.629762715535975 L 554.7474747474747 60.5580734024831 L 560.0 60.494524631326925 " stroke="#1E88E5" stroke-width="3" fill="none"/>
        
        <!-- 中心点 -->
        <circle cx="300.0" cy="160" r="4" fill="red"/>
        <text x="310.0" y="150" font-size="12" text-anchor="start">z=0, σ(z)=0.5</text>
        
        <!-- 公式 -->
        <text x="300.0" y="20.0" font-size="16" text-anchor="middle" font-style="italic">σ(z) = 1/(1+e^(-z))</text>
    </svg>
    