<svg xmlns:xlink="http://www.w3.org/1999/xlink" width="603.78125pt" height="392.300625pt" viewBox="0 0 603.78125 392.300625" xmlns="http://www.w3.org/2000/svg" version="1.1">
 <metadata>
  <rdf:RDF xmlns:dc="http://purl.org/dc/elements/1.1/" xmlns:cc="http://creativecommons.org/ns#" xmlns:rdf="http://www.w3.org/1999/02/22-rdf-syntax-ns#">
   <cc:Work>
    <dc:type rdf:resource="http://purl.org/dc/dcmitype/StillImage"/>
    <dc:date>2025-03-04T09:51:47.682461</dc:date>
    <dc:format>image/svg+xml</dc:format>
    <dc:creator>
     <cc:Agent>
      <dc:title>Matplotlib v3.8.2, https://matplotlib.org/</dc:title>
     </cc:Agent>
    </dc:creator>
   </cc:Work>
  </rdf:RDF>
 </metadata>
 <defs>
  <style type="text/css">*{stroke-linejoin: round; stroke-linecap: butt}</style>
 </defs>
 <g id="figure_1">
  <g id="patch_1">
   <path d="M 0 392.300625 
L 603.78125 392.300625 
L 603.78125 0 
L 0 0 
z
" style="fill: #ffffff"/>
  </g>
  <g id="axes_1">
   <g id="patch_2">
    <path d="M 38.58125 355.39125 
L 596.58125 355.39125 
L 596.58125 22.75125 
L 38.58125 22.75125 
z
" style="fill: #ffffff"/>
   </g>
   <g id="matplotlib.axis_1">
    <g id="xtick_1">
     <g id="line2d_1">
      <path d="M 120.308523 355.39125 
L 120.308523 22.75125 
" clip-path="url(#pb97051e4b7)" style="fill: none; stroke: #b0b0b0; stroke-opacity: 0.3; stroke-width: 0.8; stroke-linecap: square"/>
     </g>
     <g id="line2d_2">
      <defs>
       <path id="mff182a4359" d="M 0 0 
L 0 3.5 
" style="stroke: #000000; stroke-width: 0.8"/>
      </defs>
      <g>
       <use xlink:href="#mff182a4359" x="120.308523" y="355.39125" style="stroke: #000000; stroke-width: 0.8"/>
      </g>
     </g>
     <g id="text_1">
      <!-- 2 -->
      <g transform="translate(117.53821 370.350625) scale(0.1 -0.1)">
       <defs>
        <path id="STHeiti-32" d="M 742 3539 
L 301 3539 
Q 333 4243 768 4668 
Q 1203 5094 1820 5094 
Q 2438 5094 2844 4694 
Q 3251 4294 3251 3718 
Q 3251 3290 3024 2925 
Q 2797 2560 2336 2061 
L 1190 826 
L 3315 826 
L 3315 384 
L 192 384 
L 1946 2278 
Q 2406 2778 2604 3066 
Q 2803 3354 2803 3725 
Q 2803 4096 2512 4377 
Q 2221 4659 1789 4659 
Q 1357 4659 1072 4368 
Q 787 4077 742 3539 
z
" transform="scale(0.015625)"/>
       </defs>
       <use xlink:href="#STHeiti-32"/>
      </g>
     </g>
    </g>
    <g id="xtick_2">
     <g id="line2d_3">
      <path d="M 233.035795 355.39125 
L 233.035795 22.75125 
" clip-path="url(#pb97051e4b7)" style="fill: none; stroke: #b0b0b0; stroke-opacity: 0.3; stroke-width: 0.8; stroke-linecap: square"/>
     </g>
     <g id="line2d_4">
      <g>
       <use xlink:href="#mff182a4359" x="233.035795" y="355.39125" style="stroke: #000000; stroke-width: 0.8"/>
      </g>
     </g>
     <g id="text_2">
      <!-- 4 -->
      <g transform="translate(230.265483 370.350625) scale(0.1 -0.1)">
       <defs>
        <path id="STHeiti-34" d="M 2726 5094 
L 2816 5094 
L 2816 1894 
L 3373 1894 
L 3373 1453 
L 2816 1453 
L 2816 384 
L 2362 384 
L 2362 1453 
L 160 1453 
L 2726 5094 
z
M 2362 1894 
L 2362 3808 
L 1005 1894 
L 2362 1894 
z
" transform="scale(0.015625)"/>
       </defs>
       <use xlink:href="#STHeiti-34"/>
      </g>
     </g>
    </g>
    <g id="xtick_3">
     <g id="line2d_5">
      <path d="M 345.763068 355.39125 
L 345.763068 22.75125 
" clip-path="url(#pb97051e4b7)" style="fill: none; stroke: #b0b0b0; stroke-opacity: 0.3; stroke-width: 0.8; stroke-linecap: square"/>
     </g>
     <g id="line2d_6">
      <g>
       <use xlink:href="#mff182a4359" x="345.763068" y="355.39125" style="stroke: #000000; stroke-width: 0.8"/>
      </g>
     </g>
     <g id="text_3">
      <!-- 6 -->
      <g transform="translate(342.992756 370.350625) scale(0.1 -0.1)">
       <defs>
        <path id="STHeiti-36" d="M 2349 5094 
L 2726 4851 
L 1485 2970 
Q 1747 3059 1984 3059 
Q 2496 3059 2880 2652 
Q 3264 2246 3264 1660 
Q 3264 1075 2845 672 
Q 2426 269 1827 269 
Q 1229 269 829 678 
Q 429 1088 429 1677 
Q 429 1958 537 2256 
Q 646 2554 954 3014 
L 2349 5094 
z
M 2810 1683 
Q 2810 2086 2528 2368 
Q 2246 2650 1843 2650 
Q 1440 2650 1158 2368 
Q 877 2086 877 1683 
Q 877 1280 1161 998 
Q 1446 717 1843 717 
Q 2240 717 2525 998 
Q 2810 1280 2810 1683 
z
" transform="scale(0.015625)"/>
       </defs>
       <use xlink:href="#STHeiti-36"/>
      </g>
     </g>
    </g>
    <g id="xtick_4">
     <g id="line2d_7">
      <path d="M 458.490341 355.39125 
L 458.490341 22.75125 
" clip-path="url(#pb97051e4b7)" style="fill: none; stroke: #b0b0b0; stroke-opacity: 0.3; stroke-width: 0.8; stroke-linecap: square"/>
     </g>
     <g id="line2d_8">
      <g>
       <use xlink:href="#mff182a4359" x="458.490341" y="355.39125" style="stroke: #000000; stroke-width: 0.8"/>
      </g>
     </g>
     <g id="text_4">
      <!-- 8 -->
      <g transform="translate(455.720028 370.350625) scale(0.1 -0.1)">
       <defs>
        <path id="STHeiti-38" d="M 2458 2906 
Q 3328 2477 3328 1702 
Q 3328 1088 2896 678 
Q 2464 269 1763 269 
Q 1062 269 640 678 
Q 218 1088 218 1664 
Q 218 2470 1107 2906 
Q 435 3264 435 3898 
Q 435 4371 828 4732 
Q 1222 5094 1779 5094 
Q 2336 5094 2726 4742 
Q 3117 4390 3117 3885 
Q 3117 3270 2458 2906 
z
M 2656 3904 
Q 2656 4211 2416 4432 
Q 2176 4653 1789 4653 
Q 1402 4653 1152 4432 
Q 902 4211 902 3897 
Q 902 3584 1174 3337 
Q 1446 3091 1792 3091 
Q 2138 3091 2397 3334 
Q 2656 3578 2656 3904 
z
M 2867 1696 
Q 2867 2086 2550 2380 
Q 2234 2675 1782 2675 
Q 1331 2675 1004 2371 
Q 678 2067 678 1654 
Q 678 1242 979 973 
Q 1280 704 1766 704 
Q 2253 704 2560 992 
Q 2867 1280 2867 1696 
z
" transform="scale(0.015625)"/>
       </defs>
       <use xlink:href="#STHeiti-38"/>
      </g>
     </g>
    </g>
    <g id="xtick_5">
     <g id="line2d_9">
      <path d="M 571.217614 355.39125 
L 571.217614 22.75125 
" clip-path="url(#pb97051e4b7)" style="fill: none; stroke: #b0b0b0; stroke-opacity: 0.3; stroke-width: 0.8; stroke-linecap: square"/>
     </g>
     <g id="line2d_10">
      <g>
       <use xlink:href="#mff182a4359" x="571.217614" y="355.39125" style="stroke: #000000; stroke-width: 0.8"/>
      </g>
     </g>
     <g id="text_5">
      <!-- 10 -->
      <g transform="translate(565.676989 370.350625) scale(0.1 -0.1)">
       <defs>
        <path id="STHeiti-31" d="M 1184 4979 
L 2086 4979 
L 2086 384 
L 1632 384 
L 1632 4531 
L 909 4531 
L 1184 4979 
z
" transform="scale(0.015625)"/>
        <path id="STHeiti-30" d="M 1747 269 
Q 1005 269 605 880 
Q 205 1491 205 2681 
Q 205 3872 605 4483 
Q 1005 5094 1741 5094 
Q 2477 5094 2909 4470 
Q 3341 3846 3341 2681 
Q 3341 1517 2905 893 
Q 2470 269 1747 269 
z
M 1760 4659 
Q 1229 4659 934 4147 
Q 640 3635 640 2669 
Q 640 685 1760 685 
Q 2304 685 2608 1206 
Q 2912 1728 2912 2681 
Q 2912 3635 2598 4147 
Q 2285 4659 1760 4659 
z
" transform="scale(0.015625)"/>
       </defs>
       <use xlink:href="#STHeiti-31"/>
       <use xlink:href="#STHeiti-30" x="55.399994"/>
      </g>
     </g>
    </g>
    <g id="text_6">
     <!-- 模型复杂度 -->
     <g transform="translate(292.58125 383.76) scale(0.1 -0.1)">
      <defs>
       <path id="STHeiti-6a21" d="M 4909 4461 
Q 5683 4461 6048 4512 
L 6048 4019 
Q 5626 4077 4909 4077 
L 4909 3546 
Q 5376 3558 5600 3578 
Q 5574 3238 5574 2640 
Q 5574 2042 5600 1626 
Q 5165 1651 4218 1651 
Q 4198 1440 4147 1216 
Q 5440 1216 6035 1280 
L 6035 781 
Q 5523 845 4416 845 
Q 4941 102 6086 38 
Q 5798 -243 5786 -570 
Q 4461 -198 4038 826 
Q 3859 352 3449 32 
Q 3040 -288 2278 -550 
Q 2170 -275 1952 -51 
Q 2662 102 3036 310 
Q 3411 518 3565 845 
Q 2822 845 2157 781 
L 2157 1280 
Q 2605 1222 3674 1216 
Q 3706 1440 3706 1651 
Q 3085 1651 2682 1632 
Q 2701 2099 2701 2627 
Q 2701 3155 2682 3578 
Q 3053 3552 3315 3546 
L 3315 4077 
Q 2656 4051 2426 4019 
L 2426 4512 
Q 2714 4474 3315 4461 
Q 3315 4851 3277 5114 
Q 3610 5075 3808 5075 
Q 3872 5075 3872 5043 
Q 3872 5011 3817 4979 
Q 3763 4947 3763 4851 
L 3763 4461 
L 4461 4461 
Q 4461 4858 4422 5114 
Q 4755 5075 4954 5075 
Q 5018 5075 5018 5043 
Q 5018 5011 4963 4979 
Q 4909 4947 4909 4851 
L 4909 4461 
z
M 4461 4077 
L 3763 4077 
L 3763 3546 
L 4461 3546 
L 4461 4077 
z
M 5120 2784 
L 5120 3181 
L 3149 3181 
L 3149 2784 
L 5120 2784 
z
M 3149 2419 
L 3149 2016 
L 5120 2016 
L 5120 2419 
L 3149 2419 
z
M 1190 2317 
Q 934 1510 614 992 
Q 506 1248 218 1408 
Q 550 1760 768 2205 
Q 986 2650 1184 3373 
Q 800 3366 480 3322 
L 480 3814 
Q 723 3770 1190 3763 
Q 1190 4755 1139 5094 
Q 1338 5069 1485 5069 
L 1734 5082 
Q 1818 5082 1818 5037 
Q 1818 4992 1744 4925 
Q 1670 4858 1670 4749 
L 1670 3763 
Q 2157 3770 2400 3814 
L 2400 3322 
Q 2067 3366 1670 3366 
L 1670 659 
Q 1670 160 1734 -544 
L 1126 -544 
Q 1190 160 1190 659 
L 1190 2317 
z
M 2048 2771 
Q 2317 2304 2522 1850 
L 2106 1632 
Q 1984 2093 1690 2566 
L 2048 2771 
z
" transform="scale(0.015625)"/>
       <path id="STHeiti-578b" d="M 5114 5146 
Q 5267 5114 5414 5114 
L 5683 5114 
Q 5766 5114 5766 5069 
Q 5766 5024 5712 4969 
Q 5658 4915 5658 4787 
L 5658 2272 
Q 5658 2010 5584 1885 
Q 5510 1760 5318 1702 
Q 5126 1645 4710 1600 
Q 4698 1952 4474 2202 
Q 4659 2163 4794 2163 
Q 5165 2163 5165 2438 
L 5165 4102 
Q 5165 4742 5114 5146 
z
M 1421 4474 
Q 966 4480 723 4429 
L 723 4928 
Q 1062 4883 2240 4883 
Q 3418 4883 3622 4928 
L 3622 4429 
Q 3443 4454 3091 4467 
L 3091 3469 
Q 3590 3482 3744 3507 
L 3744 3014 
Q 3488 3040 3091 3040 
Q 3085 2586 3136 1965 
L 2573 1965 
Q 2630 2502 2618 3046 
L 1888 3046 
Q 1760 2086 723 1466 
Q 595 1734 371 1850 
Q 1306 2451 1402 3046 
Q 755 3046 493 3014 
L 493 3507 
Q 819 3469 1421 3469 
L 1421 4474 
z
M 2618 4474 
L 1907 4474 
L 1907 3469 
L 2618 3469 
L 2618 4474 
z
M 4013 4762 
Q 4250 4710 4557 4710 
Q 4627 4710 4627 4668 
Q 4627 4627 4579 4595 
Q 4531 4563 4531 4416 
L 4531 3290 
Q 4531 2842 4563 2483 
L 4032 2483 
Q 4064 2861 4064 3290 
L 4064 4058 
Q 4064 4506 4013 4762 
z
M 3021 832 
Q 1632 832 1133 787 
L 1133 1312 
Q 1645 1267 3021 1267 
Q 3008 1664 2982 1824 
Q 3258 1786 3571 1786 
Q 3667 1786 3667 1750 
Q 3667 1715 3619 1680 
Q 3571 1645 3542 1577 
Q 3514 1510 3514 1453 
L 3514 1267 
Q 4723 1267 5350 1312 
L 5350 787 
Q 4723 832 3514 832 
L 3514 122 
Q 5197 122 6048 166 
L 6048 -352 
Q 5139 -307 3388 -307 
Q 1638 -307 486 -352 
L 486 166 
Q 1299 122 3021 122 
L 3021 832 
z
" transform="scale(0.015625)"/>
       <path id="STHeiti-590d" d="M 2093 4563 
L 4666 4563 
Q 5536 4563 5754 4614 
L 5754 4109 
Q 5472 4160 4672 4160 
L 1747 4160 
Q 1363 3731 826 3277 
Q 666 3539 442 3629 
Q 1434 4192 2003 5178 
Q 2387 5050 2534 5018 
Q 2579 5011 2579 4976 
Q 2579 4941 2522 4928 
Q 2394 4896 2093 4563 
z
M 1971 1120 
Q 1613 883 934 544 
Q 781 774 512 915 
Q 1600 1242 2214 1862 
Q 1792 1843 1408 1837 
Q 1434 2106 1434 2330 
L 1434 3782 
L 3162 3782 
Q 4326 3763 5216 3814 
Q 5197 3430 5197 2758 
Q 5197 2086 5216 1837 
Q 4704 1875 2803 1875 
Q 2637 1670 2477 1517 
L 5293 1517 
Q 4659 704 3930 282 
Q 4704 19 5562 19 
Q 5798 19 6054 38 
Q 5830 -269 5830 -602 
Q 4365 -410 3418 26 
Q 2752 -269 2022 -435 
Q 1293 -602 762 -602 
Q 698 -320 454 -83 
Q 634 -102 832 -102 
Q 1837 -102 2918 275 
Q 2502 544 1971 1120 
z
M 4710 3027 
L 4710 3411 
L 1888 3411 
L 1888 3027 
L 4710 3027 
z
M 4710 2246 
L 4710 2669 
L 1888 2669 
L 1888 2246 
L 4710 2246 
z
M 3430 486 
Q 3923 736 4346 1139 
L 2464 1139 
Q 2963 710 3430 486 
z
" transform="scale(0.015625)"/>
       <path id="STHeiti-6742" d="M 3091 4102 
Q 2707 2694 934 2202 
Q 762 2496 525 2720 
Q 1382 2874 1868 3187 
Q 2355 3501 2528 4083 
Q 1600 4038 934 3955 
L 934 4512 
Q 1101 4499 1545 4499 
Q 1990 4499 2630 4525 
Q 2688 4813 2688 5030 
Q 2688 5248 2682 5363 
Q 3034 5274 3341 5274 
Q 3443 5274 3443 5222 
Q 3443 5171 3366 5120 
Q 3290 5069 3187 4544 
Q 4480 4621 4800 4685 
Q 4646 3859 4646 3360 
Q 4646 3053 4979 3053 
Q 5274 3053 5363 3158 
Q 5453 3264 5542 3699 
Q 5734 3411 6067 3322 
Q 5894 2829 5792 2739 
Q 5690 2650 5558 2608 
Q 5427 2566 4940 2566 
Q 4454 2566 4281 2665 
Q 4109 2765 4109 3027 
Q 4109 3354 4160 4134 
L 3091 4102 
z
M 2963 1485 
Q 1466 1485 538 1414 
L 538 2016 
Q 1376 1952 2963 1952 
Q 2963 2413 2925 2637 
Q 3142 2598 3603 2598 
Q 3680 2598 3680 2566 
Q 3680 2534 3629 2496 
Q 3501 2381 3501 2118 
L 3501 1952 
Q 5056 1965 5850 2016 
L 5850 1414 
Q 4941 1478 3501 1485 
L 3501 -58 
Q 3501 -275 3437 -377 
Q 3373 -480 3174 -541 
Q 2976 -602 2534 -659 
Q 2490 -320 2189 6 
Q 2547 -58 2697 -58 
Q 2848 -58 2905 -16 
Q 2963 26 2963 128 
L 2963 1485 
z
M 1920 1171 
Q 2125 998 2304 944 
Q 2483 890 2483 845 
Q 2483 800 2390 758 
Q 2298 717 2157 589 
Q 1530 0 992 -416 
Q 768 -179 506 -45 
Q 1344 416 1920 1171 
z
M 5862 166 
L 5357 -314 
Q 4819 301 4128 781 
L 4518 1139 
Q 5210 653 5862 166 
z
" transform="scale(0.015625)"/>
       <path id="STHeiti-5ea6" d="M 3661 4557 
Q 5344 4563 5779 4614 
L 5779 4090 
Q 5133 4147 4275 4147 
L 1510 4147 
Q 1542 3526 1542 2995 
Q 1542 1786 1379 931 
Q 1216 77 858 -557 
Q 608 -294 326 -160 
Q 685 352 851 1081 
Q 1018 1811 1018 2726 
Q 1018 3642 934 4614 
Q 1446 4563 3059 4557 
Q 3008 4806 2854 5101 
L 3437 5210 
Q 3533 4909 3661 4557 
z
M 2522 3430 
Q 2515 3840 2464 3987 
Q 2707 3923 2938 3923 
L 3053 3930 
Q 3091 3930 3091 3907 
Q 3091 3885 3059 3846 
Q 2989 3770 2982 3430 
L 4269 3430 
Q 4269 3898 4230 4045 
Q 4454 3974 4685 3974 
L 4845 3987 
Q 4877 3987 4877 3968 
Q 4877 3949 4838 3910 
Q 4774 3840 4768 3430 
Q 5472 3437 5888 3482 
L 5888 3014 
Q 5421 3066 4768 3072 
L 4768 2746 
Q 4768 2336 4813 2086 
Q 4538 2138 3658 2138 
Q 2778 2138 2477 2086 
Q 2522 2387 2522 2707 
L 2522 3066 
Q 2074 3059 1773 3014 
L 1773 3482 
Q 2080 3437 2522 3430 
z
M 2982 3072 
L 2982 2522 
L 4269 2522 
L 4269 3072 
L 2982 3072 
z
M 2336 1382 
Q 1997 1363 1843 1344 
L 1843 1824 
Q 2541 1766 3574 1766 
Q 4608 1766 5267 1824 
Q 4787 851 4090 365 
Q 4832 83 5760 83 
Q 5907 83 6067 90 
Q 5824 -192 5779 -557 
Q 4499 -422 3629 64 
Q 2976 -307 1869 -582 
Q 1773 -326 1459 -26 
Q 2278 13 3168 358 
Q 2707 723 2336 1382 
z
M 2880 1389 
Q 3162 877 3622 582 
Q 4147 928 4435 1389 
L 2880 1389 
z
" transform="scale(0.015625)"/>
      </defs>
      <use xlink:href="#STHeiti-6a21"/>
      <use xlink:href="#STHeiti-578b" x="99.999985"/>
      <use xlink:href="#STHeiti-590d" x="199.999969"/>
      <use xlink:href="#STHeiti-6742" x="299.999954"/>
      <use xlink:href="#STHeiti-5ea6" x="399.999939"/>
     </g>
    </g>
   </g>
   <g id="matplotlib.axis_2">
    <g id="ytick_1">
     <g id="line2d_11">
      <path d="M 38.58125 343.020341 
L 596.58125 343.020341 
" clip-path="url(#pb97051e4b7)" style="fill: none; stroke: #b0b0b0; stroke-opacity: 0.3; stroke-width: 0.8; stroke-linecap: square"/>
     </g>
     <g id="line2d_12">
      <defs>
       <path id="m454d5ddd83" d="M 0 0 
L -3.5 0 
" style="stroke: #000000; stroke-width: 0.8"/>
      </defs>
      <g>
       <use xlink:href="#m454d5ddd83" x="38.58125" y="343.020341" style="stroke: #000000; stroke-width: 0.8"/>
      </g>
     </g>
     <g id="text_7">
      <!-- 0 -->
      <g transform="translate(26.040625 347.000028) scale(0.1 -0.1)">
       <use xlink:href="#STHeiti-30"/>
      </g>
     </g>
    </g>
    <g id="ytick_2">
     <g id="line2d_13">
      <path d="M 38.58125 288.038523 
L 596.58125 288.038523 
" clip-path="url(#pb97051e4b7)" style="fill: none; stroke: #b0b0b0; stroke-opacity: 0.3; stroke-width: 0.8; stroke-linecap: square"/>
     </g>
     <g id="line2d_14">
      <g>
       <use xlink:href="#m454d5ddd83" x="38.58125" y="288.038523" style="stroke: #000000; stroke-width: 0.8"/>
      </g>
     </g>
     <g id="text_8">
      <!-- 2 -->
      <g transform="translate(26.040625 292.01821) scale(0.1 -0.1)">
       <use xlink:href="#STHeiti-32"/>
      </g>
     </g>
    </g>
    <g id="ytick_3">
     <g id="line2d_15">
      <path d="M 38.58125 233.056705 
L 596.58125 233.056705 
" clip-path="url(#pb97051e4b7)" style="fill: none; stroke: #b0b0b0; stroke-opacity: 0.3; stroke-width: 0.8; stroke-linecap: square"/>
     </g>
     <g id="line2d_16">
      <g>
       <use xlink:href="#m454d5ddd83" x="38.58125" y="233.056705" style="stroke: #000000; stroke-width: 0.8"/>
      </g>
     </g>
     <g id="text_9">
      <!-- 4 -->
      <g transform="translate(26.040625 237.036392) scale(0.1 -0.1)">
       <use xlink:href="#STHeiti-34"/>
      </g>
     </g>
    </g>
    <g id="ytick_4">
     <g id="line2d_17">
      <path d="M 38.58125 178.074886 
L 596.58125 178.074886 
" clip-path="url(#pb97051e4b7)" style="fill: none; stroke: #b0b0b0; stroke-opacity: 0.3; stroke-width: 0.8; stroke-linecap: square"/>
     </g>
     <g id="line2d_18">
      <g>
       <use xlink:href="#m454d5ddd83" x="38.58125" y="178.074886" style="stroke: #000000; stroke-width: 0.8"/>
      </g>
     </g>
     <g id="text_10">
      <!-- 6 -->
      <g transform="translate(26.040625 182.054574) scale(0.1 -0.1)">
       <use xlink:href="#STHeiti-36"/>
      </g>
     </g>
    </g>
    <g id="ytick_5">
     <g id="line2d_19">
      <path d="M 38.58125 123.093068 
L 596.58125 123.093068 
" clip-path="url(#pb97051e4b7)" style="fill: none; stroke: #b0b0b0; stroke-opacity: 0.3; stroke-width: 0.8; stroke-linecap: square"/>
     </g>
     <g id="line2d_20">
      <g>
       <use xlink:href="#m454d5ddd83" x="38.58125" y="123.093068" style="stroke: #000000; stroke-width: 0.8"/>
      </g>
     </g>
     <g id="text_11">
      <!-- 8 -->
      <g transform="translate(26.040625 127.072756) scale(0.1 -0.1)">
       <use xlink:href="#STHeiti-38"/>
      </g>
     </g>
    </g>
    <g id="ytick_6">
     <g id="line2d_21">
      <path d="M 38.58125 68.11125 
L 596.58125 68.11125 
" clip-path="url(#pb97051e4b7)" style="fill: none; stroke: #b0b0b0; stroke-opacity: 0.3; stroke-width: 0.8; stroke-linecap: square"/>
     </g>
     <g id="line2d_22">
      <g>
       <use xlink:href="#m454d5ddd83" x="38.58125" y="68.11125" style="stroke: #000000; stroke-width: 0.8"/>
      </g>
     </g>
     <g id="text_12">
      <!-- 10 -->
      <g transform="translate(20.5 72.090937) scale(0.1 -0.1)">
       <use xlink:href="#STHeiti-31"/>
       <use xlink:href="#STHeiti-30" x="55.399994"/>
      </g>
     </g>
    </g>
    <g id="text_13">
     <!-- 误差 -->
     <g transform="translate(15.159375 199.07125) rotate(-90) scale(0.1 -0.1)">
      <defs>
       <path id="STHeiti-8bef" d="M 1830 4077 
L 1261 3770 
Q 1088 4218 723 4762 
L 1254 5050 
Q 1536 4506 1830 4077 
z
M 5466 3104 
Q 5030 3136 4012 3136 
Q 2995 3136 2387 3104 
Q 2406 3456 2406 4025 
Q 2406 4595 2387 4922 
Q 2797 4883 3923 4883 
Q 5050 4883 5466 4922 
Q 5434 4410 5434 3942 
Q 5434 3475 5466 3104 
z
M 4896 3578 
L 4896 4429 
L 2938 4429 
L 2938 3578 
L 4896 3578 
z
M 2112 691 
L 1459 0 
Q 1178 -307 1107 -461 
Q 928 -173 717 32 
Q 832 128 880 240 
Q 928 352 928 813 
L 928 2861 
Q 570 2861 314 2829 
L 314 3354 
Q 595 3322 928 3322 
Q 1261 3322 1536 3354 
Q 1466 3053 1466 2586 
L 1466 678 
Q 1728 979 1869 1222 
Q 1952 877 2112 691 
z
M 3962 1318 
Q 3802 723 3376 272 
Q 2950 -179 2112 -621 
Q 1978 -397 1683 -198 
Q 3136 384 3437 1318 
Q 2541 1306 1984 1267 
L 1984 1805 
Q 2451 1773 3526 1760 
Q 3584 2163 3590 2310 
Q 2675 2298 2278 2266 
L 2278 2797 
Q 2784 2752 3974 2752 
Q 5165 2752 5651 2797 
L 5651 2266 
Q 5248 2298 4147 2310 
Q 4115 2010 4064 1760 
Q 5165 1741 6003 1805 
L 6003 1267 
Q 5446 1306 4358 1318 
Q 4896 333 6003 26 
Q 5747 -250 5658 -602 
Q 5043 -301 4585 217 
Q 4128 736 3962 1318 
z
" transform="scale(0.015625)"/>
       <path id="STHeiti-5dee" d="M 2848 3898 
Q 1523 3898 755 3840 
L 755 4352 
Q 1434 4288 3571 4288 
Q 3866 4698 4013 5190 
Q 4378 5062 4640 5011 
Q 4717 4998 4717 4966 
Q 4717 4934 4627 4902 
Q 4480 4851 4038 4294 
Q 4947 4301 5562 4352 
L 5562 3840 
Q 4896 3898 3360 3898 
Q 3322 3686 3238 3392 
Q 4666 3392 5344 3450 
L 5344 2938 
Q 4614 2995 3104 2995 
Q 2989 2682 2848 2432 
Q 5152 2432 5869 2490 
L 5869 1971 
Q 5197 2022 2611 2022 
Q 2259 1466 1849 1030 
Q 1440 595 736 83 
Q 608 339 333 493 
Q 1523 1165 2086 2016 
Q 1126 2010 550 1971 
L 550 2490 
Q 1350 2445 2336 2438 
Q 2483 2701 2598 2995 
Q 1651 2989 1056 2938 
L 1056 3450 
Q 1715 3398 2739 3392 
Q 2810 3648 2848 3898 
z
M 2765 4544 
L 2227 4333 
Q 2099 4614 1850 4896 
L 2394 5165 
Q 2528 4883 2765 4544 
z
M 3814 1075 
L 3814 115 
Q 5043 115 5747 173 
L 5747 -365 
Q 4979 -307 3587 -307 
Q 2195 -307 1427 -365 
L 1427 173 
Q 2144 122 3315 115 
L 3315 1069 
Q 2752 1069 2291 1018 
L 2291 1478 
L 3776 1478 
Q 4723 1478 5267 1536 
L 5267 1018 
Q 4730 1075 3814 1075 
z
" transform="scale(0.015625)"/>
      </defs>
      <use xlink:href="#STHeiti-8bef"/>
      <use xlink:href="#STHeiti-5dee" x="99.999985"/>
     </g>
    </g>
   </g>
   <g id="line2d_23">
    <path d="M 63.944886 68.11125 
L 69.068853 91.020341 
L 74.19282 110.404956 
L 79.316787 127.020341 
L 84.440754 141.420341 
L 89.564721 154.020341 
L 94.688688 165.137988 
L 99.812655 175.020341 
L 104.936622 183.862446 
L 110.060589 191.820341 
L 115.184556 199.020341 
L 120.308523 205.565795 
L 125.43249 211.54208 
L 130.556457 217.020341 
L 135.680424 222.060341 
L 140.80439 226.712649 
L 145.928357 231.020341 
L 151.052324 235.020341 
L 156.176291 238.744479 
L 161.300258 242.220341 
L 166.424225 245.471954 
L 171.548192 248.520341 
L 176.672159 251.383977 
L 181.796126 254.079164 
L 186.920093 256.620341 
L 192.04406 259.020341 
L 197.168027 261.290611 
L 202.291994 263.441394 
L 207.415961 265.481879 
L 212.539928 267.420341 
L 217.663895 269.264243 
L 222.787862 271.020341 
L 227.911829 272.69476 
L 233.035795 274.293068 
L 238.159762 275.820341 
L 243.283729 277.28121 
L 248.407696 278.679915 
L 253.531663 280.020341 
L 258.65563 281.306055 
L 263.779597 282.540341 
L 268.903564 283.726223 
L 274.027531 284.866495 
L 279.151498 285.963737 
L 284.275465 287.020341 
L 289.399432 288.038523 
L 294.523399 289.020341 
L 299.647366 289.967709 
L 304.771333 290.88241 
L 309.8953 291.766104 
L 315.019267 292.620341 
L 320.143233 293.44657 
L 325.2672 294.246147 
L 330.391167 295.020341 
L 335.515134 295.770341 
L 340.639101 296.497264 
L 345.763068 297.202159 
L 350.887035 297.886013 
L 356.011002 298.549753 
L 361.134969 299.194254 
L 366.258936 299.820341 
L 371.382903 300.428792 
L 376.50687 301.020341 
L 381.630837 301.595683 
L 386.754804 302.155476 
L 391.878771 302.700341 
L 397.002738 303.230867 
L 402.126705 303.747614 
L 407.250671 304.25111 
L 412.374638 304.74186 
L 417.498605 305.220341 
L 422.622572 305.687008 
L 427.746539 306.142292 
L 432.870506 306.586606 
L 437.994473 307.020341 
L 443.11844 307.44387 
L 448.242407 307.85755 
L 453.366374 308.26172 
L 458.490341 308.656705 
L 463.614308 309.042813 
L 468.738275 309.420341 
L 473.862242 309.789572 
L 478.986209 310.150776 
L 484.110176 310.504212 
L 489.234143 310.850128 
L 494.35811 311.188762 
L 499.482076 311.520341 
L 504.606043 311.845083 
L 509.73001 312.163198 
L 514.853977 312.474886 
L 519.977944 312.780341 
L 525.101911 313.079747 
L 530.225878 313.373282 
L 535.349845 313.661118 
L 540.473812 313.943418 
L 545.597779 314.220341 
L 550.721746 314.492039 
L 555.845713 314.758659 
L 560.96968 315.020341 
L 566.093647 315.277222 
L 571.217614 315.529432 
" clip-path="url(#pb97051e4b7)" style="fill: none; stroke: #0000ff; stroke-width: 1.5; stroke-linecap: square"/>
   </g>
   <g id="line2d_24">
    <path d="M 63.944886 340.27125 
L 69.068853 340.021333 
L 74.19282 339.771415 
L 79.316787 339.521498 
L 84.440754 339.271581 
L 89.564721 339.021663 
L 94.688688 338.771746 
L 99.812655 338.521829 
L 104.936622 338.271911 
L 110.060589 338.021994 
L 115.184556 337.772076 
L 120.308523 337.522159 
L 125.43249 337.272242 
L 130.556457 337.022324 
L 135.680424 336.772407 
L 140.80439 336.52249 
L 145.928357 336.272572 
L 151.052324 336.022655 
L 156.176291 335.772738 
L 161.300258 335.52282 
L 166.424225 335.272903 
L 171.548192 335.022986 
L 176.672159 334.773068 
L 181.796126 334.523151 
L 186.920093 334.273233 
L 192.04406 334.023316 
L 197.168027 333.773399 
L 202.291994 333.523481 
L 207.415961 333.273564 
L 212.539928 333.023647 
L 217.663895 332.773729 
L 222.787862 332.523812 
L 227.911829 332.273895 
L 233.035795 332.023977 
L 238.159762 331.77406 
L 243.283729 331.524143 
L 248.407696 331.274225 
L 253.531663 331.024308 
L 258.65563 330.77439 
L 263.779597 330.524473 
L 268.903564 330.274556 
L 274.027531 330.024638 
L 279.151498 329.774721 
L 284.275465 329.524804 
L 289.399432 329.274886 
L 294.523399 329.024969 
L 299.647366 328.775052 
L 304.771333 328.525134 
L 309.8953 328.275217 
L 315.019267 328.0253 
L 320.143233 327.775382 
L 325.2672 327.525465 
L 330.391167 327.275548 
L 335.515134 327.02563 
L 340.639101 326.775713 
L 345.763068 326.525795 
L 350.887035 326.275878 
L 356.011002 326.025961 
L 361.134969 325.776043 
L 366.258936 325.526126 
L 371.382903 325.276209 
L 376.50687 325.026291 
L 381.630837 324.776374 
L 386.754804 324.526457 
L 391.878771 324.276539 
L 397.002738 324.026622 
L 402.126705 323.776705 
L 407.250671 323.526787 
L 412.374638 323.27687 
L 417.498605 323.026952 
L 422.622572 322.777035 
L 427.746539 322.527118 
L 432.870506 322.2772 
L 437.994473 322.027283 
L 443.11844 321.777366 
L 448.242407 321.527448 
L 453.366374 321.277531 
L 458.490341 321.027614 
L 463.614308 320.777696 
L 468.738275 320.527779 
L 473.862242 320.277862 
L 478.986209 320.027944 
L 484.110176 319.778027 
L 489.234143 319.52811 
L 494.35811 319.278192 
L 499.482076 319.028275 
L 504.606043 318.778357 
L 509.73001 318.52844 
L 514.853977 318.278523 
L 519.977944 318.028605 
L 525.101911 317.778688 
L 530.225878 317.528771 
L 535.349845 317.278853 
L 540.473812 317.028936 
L 545.597779 316.779019 
L 550.721746 316.529101 
L 555.845713 316.279184 
L 560.96968 316.029267 
L 566.093647 315.779349 
L 571.217614 315.529432 
" clip-path="url(#pb97051e4b7)" style="fill: none; stroke: #ff0000; stroke-width: 1.5; stroke-linecap: square"/>
   </g>
   <g id="line2d_25">
    <path d="M 63.944886 37.87125 
L 69.068853 60.530424 
L 74.19282 79.665122 
L 79.316787 96.030589 
L 84.440754 110.180671 
L 89.564721 122.530754 
L 94.688688 133.398484 
L 99.812655 143.030919 
L 104.936622 151.623107 
L 110.060589 159.331085 
L 115.184556 166.281167 
L 120.308523 172.576705 
L 125.43249 178.303072 
L 130.556457 183.531415 
L 135.680424 188.321498 
L 140.80439 192.723888 
L 145.928357 196.781663 
L 151.052324 200.531746 
L 156.176291 204.005966 
L 161.300258 207.231911 
L 166.424225 210.233607 
L 171.548192 213.032076 
L 176.672159 215.645795 
L 181.796126 218.091065 
L 186.920093 220.382324 
L 192.04406 222.532407 
L 197.168027 224.55276 
L 202.291994 226.453625 
L 207.415961 228.244193 
L 212.539928 229.932738 
L 217.663895 231.526723 
L 222.787862 233.032903 
L 227.911829 234.457404 
L 233.035795 235.805795 
L 238.159762 237.083151 
L 243.283729 238.294103 
L 248.407696 239.442891 
L 253.531663 240.533399 
L 258.65563 241.569196 
L 263.779597 242.553564 
L 268.903564 243.489529 
L 274.027531 244.379883 
L 279.151498 245.227208 
L 284.275465 246.033895 
L 289.399432 246.802159 
L 294.523399 247.53406 
L 299.647366 248.231511 
L 304.771333 248.896294 
L 309.8953 249.530071 
L 315.019267 250.13439 
L 320.143233 250.710703 
L 325.2672 251.260362 
L 330.391167 251.784638 
L 335.515134 252.284721 
L 340.639101 252.761727 
L 345.763068 253.216705 
L 350.887035 253.650641 
L 356.011002 254.064463 
L 361.134969 254.459047 
L 366.258936 254.835217 
L 371.382903 255.19375 
L 376.50687 255.535382 
L 381.630837 255.860807 
L 386.754804 256.170683 
L 391.878771 256.46563 
L 397.002738 256.746239 
L 402.126705 257.013068 
L 407.250671 257.266647 
L 412.374638 257.50748 
L 417.498605 257.736043 
L 422.622572 257.952793 
L 427.746539 258.15816 
L 432.870506 258.352556 
L 437.994473 258.536374 
L 443.11844 258.709986 
L 448.242407 258.873749 
L 453.366374 259.028001 
L 458.490341 259.173068 
L 463.614308 259.309259 
L 468.738275 259.43687 
L 473.862242 259.556183 
L 478.986209 259.66747 
L 484.110176 259.770989 
L 489.234143 259.866988 
L 494.35811 259.955704 
L 499.482076 260.037366 
L 504.606043 260.112191 
L 509.73001 260.180388 
L 514.853977 260.242159 
L 519.977944 260.297696 
L 525.101911 260.347185 
L 530.225878 260.390803 
L 535.349845 260.428721 
L 540.473812 260.461104 
L 545.597779 260.48811 
L 550.721746 260.50989 
L 555.845713 260.526593 
L 560.96968 260.538357 
L 566.093647 260.545321 
L 571.217614 260.547614 
" clip-path="url(#pb97051e4b7)" style="fill: none; stroke: #008000; stroke-width: 1.5; stroke-linecap: square"/>
   </g>
   <g id="line2d_26">
    <path d="M 571.217614 355.39125 
L 571.217614 22.75125 
" clip-path="url(#pb97051e4b7)" style="fill: none; stroke-dasharray: 5.55,2.4; stroke-dashoffset: 0; stroke: #000000; stroke-width: 1.5"/>
   </g>
   <g id="patch_3">
    <path d="M 38.58125 355.39125 
L 38.58125 22.75125 
" style="fill: none; stroke: #000000; stroke-width: 0.8; stroke-linejoin: miter; stroke-linecap: square"/>
   </g>
   <g id="patch_4">
    <path d="M 596.58125 355.39125 
L 596.58125 22.75125 
" style="fill: none; stroke: #000000; stroke-width: 0.8; stroke-linejoin: miter; stroke-linecap: square"/>
   </g>
   <g id="patch_5">
    <path d="M 38.58125 355.39125 
L 596.58125 355.39125 
" style="fill: none; stroke: #000000; stroke-width: 0.8; stroke-linejoin: miter; stroke-linecap: square"/>
   </g>
   <g id="patch_6">
    <path d="M 38.58125 22.75125 
L 596.58125 22.75125 
" style="fill: none; stroke: #000000; stroke-width: 0.8; stroke-linejoin: miter; stroke-linecap: square"/>
   </g>
   <g id="text_14">
    <!-- 偏差-方差权衡 -->
    <g transform="translate(279.589063 16.75125) scale(0.12 -0.12)">
     <defs>
      <path id="STHeiti-504f" d="M 4378 1037 
L 3891 1037 
Q 3891 448 3923 -13 
L 3405 -13 
Q 3450 416 3450 1037 
L 2886 1037 
L 2886 -544 
L 2381 -544 
Q 2445 -83 2445 339 
L 2445 1786 
Q 2266 1286 1907 646 
Q 1811 890 1619 1101 
Q 1997 1626 2160 2314 
Q 2323 3002 2323 3584 
Q 2323 4166 2272 4576 
Q 2502 4531 3840 4531 
Q 3770 4826 3648 5101 
L 4173 5248 
Q 4282 4915 4371 4531 
Q 5331 4531 5626 4576 
Q 5594 4160 5594 3817 
Q 5594 3475 5626 3066 
Q 5434 3104 4454 3104 
L 2752 3104 
Q 2726 2880 2662 2586 
L 4230 2586 
Q 5235 2586 5850 2624 
L 5850 179 
Q 5850 -173 5802 -313 
Q 5754 -454 5603 -508 
Q 5453 -563 5043 -614 
Q 5018 -333 4813 -77 
Q 4998 -90 5136 -90 
Q 5274 -90 5341 -45 
Q 5408 0 5408 173 
L 5408 1037 
L 4819 1037 
Q 4819 474 4851 6 
L 4339 6 
Q 4378 582 4378 1037 
z
M 5152 3507 
L 5152 4128 
L 2765 4128 
L 2765 3507 
L 5152 3507 
z
M 4819 1421 
L 5408 1421 
L 5408 2202 
L 4819 2202 
L 4819 1421 
z
M 3891 1421 
L 4378 1421 
L 4378 2202 
L 3891 2202 
L 3891 1421 
z
M 2886 1421 
L 3450 1421 
L 3450 2202 
L 2886 2202 
L 2886 1421 
z
M 1146 2970 
Q 838 2387 627 2086 
Q 506 2310 243 2490 
Q 589 2874 944 3597 
Q 1299 4320 1549 5094 
Q 1824 4979 2074 4941 
Q 2176 4928 2176 4889 
Q 2176 4851 2067 4742 
Q 1958 4634 1581 3859 
L 1581 -595 
L 1075 -595 
Q 1146 96 1146 762 
L 1146 2970 
z
" transform="scale(0.015625)"/>
      <path id="STHeiti-2d" d="M 205 2304 
L 1920 2304 
L 1920 1920 
L 205 1920 
L 205 2304 
z
" transform="scale(0.015625)"/>
      <path id="STHeiti-65b9" d="M 3654 4378 
L 2982 4134 
Q 2874 4563 2630 5005 
L 3322 5222 
Q 3424 4800 3654 4378 
z
M 2854 2758 
L 4499 2758 
Q 4890 2758 5152 2790 
L 4947 454 
Q 4915 83 4825 -89 
Q 4736 -262 4493 -364 
Q 4250 -467 3699 -550 
Q 3642 -141 3283 224 
Q 3597 154 3814 154 
Q 4307 154 4358 563 
L 4557 2259 
L 2797 2259 
Q 2688 1363 2365 784 
Q 2042 205 1210 -525 
Q 1018 -198 589 -77 
Q 1043 147 1388 496 
Q 1734 845 1952 1286 
Q 2170 1728 2246 2227 
Q 2323 2726 2342 3571 
Q 1184 3565 461 3526 
L 461 4102 
Q 1370 4058 3226 4058 
Q 5082 4058 5958 4102 
L 5958 3526 
Q 5050 3571 2938 3571 
Q 2899 3123 2854 2758 
z
" transform="scale(0.015625)"/>
      <path id="STHeiti-6743" d="M 1414 2406 
Q 1146 1491 589 762 
Q 454 1133 301 1331 
Q 634 1683 864 2156 
Q 1094 2630 1312 3398 
Q 730 3379 467 3347 
L 467 3891 
Q 851 3840 1414 3840 
Q 1414 4768 1338 5242 
Q 1542 5216 1715 5216 
L 1997 5229 
Q 2067 5229 2067 5197 
Q 2067 5165 1993 5097 
Q 1920 5030 1920 4896 
L 1920 3840 
Q 2330 3846 2662 3891 
L 2662 3347 
Q 2394 3386 1920 3392 
L 1920 614 
Q 1920 115 1984 -589 
L 1357 -589 
Q 1414 45 1414 614 
L 1414 2406 
z
M 3174 4109 
Q 3046 4102 2816 4083 
L 2816 4640 
Q 3392 4589 4339 4589 
Q 5286 4589 5709 4640 
Q 5517 3322 5248 2506 
Q 4979 1690 4570 1133 
Q 5114 557 6170 339 
Q 5926 58 5786 -365 
Q 4723 128 4211 704 
Q 3571 64 2630 -454 
Q 2515 -179 2240 19 
Q 3315 506 3910 1114 
Q 3514 1747 3366 2403 
Q 3219 3059 3174 4109 
z
M 3680 4128 
Q 3686 3194 3811 2643 
Q 3936 2093 4262 1549 
Q 4870 2502 5050 4128 
L 3680 4128 
z
M 2861 1760 
L 2368 1517 
Q 2221 2003 1965 2477 
L 2362 2669 
Q 2637 2234 2861 1760 
z
" transform="scale(0.015625)"/>
      <path id="STHeiti-8861" d="M 2624 4211 
Q 2515 4077 2291 3846 
Q 2112 4000 1869 4045 
Q 2586 4685 2778 5203 
Q 3123 5024 3228 5005 
Q 3334 4986 3334 4960 
Q 3334 4934 3225 4870 
Q 3117 4806 2899 4550 
L 3674 4550 
Q 3981 4550 4186 4570 
L 3578 3706 
Q 4006 3706 4390 3725 
Q 4371 3526 4371 3302 
L 4371 2208 
Q 4371 1926 4390 1734 
Q 3955 1754 3244 1754 
Q 2534 1754 2074 1734 
Q 2093 1933 2093 2214 
L 2093 3296 
Q 2093 3514 2074 3725 
Q 2509 3706 3104 3706 
L 3424 4211 
L 2624 4211 
z
M 3046 2880 
L 3046 3366 
L 2502 3366 
L 2502 2880 
L 3046 2880 
z
M 3981 2880 
L 3981 3366 
L 3424 3366 
L 3424 2880 
L 3981 2880 
z
M 3046 2093 
L 3046 2573 
L 2502 2573 
L 2502 2093 
L 3046 2093 
z
M 3981 2093 
L 3981 2573 
L 3424 2573 
L 3424 2093 
L 3981 2093 
z
M 1523 5126 
Q 1645 5024 1785 4928 
Q 1926 4832 1990 4819 
Q 2054 4806 2054 4764 
Q 2054 4723 1971 4697 
Q 1888 4672 1507 4237 
Q 1126 3802 768 3424 
Q 614 3597 333 3763 
Q 723 4045 1001 4349 
Q 1280 4653 1523 5126 
z
M 5971 4192 
Q 5882 4205 5373 4205 
Q 4864 4205 4570 4192 
L 4570 4659 
Q 4774 4640 5283 4640 
Q 5792 4640 5971 4659 
L 5971 4192 
z
M 1427 2675 
L 1427 -582 
L 870 -582 
Q 928 -58 928 448 
L 928 2029 
Q 723 1792 531 1600 
Q 454 1824 250 2048 
Q 730 2419 989 2790 
Q 1248 3162 1453 3622 
Q 1741 3386 1856 3341 
Q 1971 3296 1971 3257 
Q 1971 3219 1875 3200 
Q 1805 3181 1427 2675 
z
M 5133 2816 
Q 4704 2822 4512 2803 
L 4512 3290 
Q 4717 3270 5325 3270 
Q 5933 3270 6118 3290 
L 6118 2803 
Q 6048 2816 5632 2816 
L 5632 109 
Q 5632 -205 5577 -342 
Q 5523 -480 5350 -537 
Q 5178 -595 4768 -614 
Q 4742 -326 4525 -26 
Q 4755 -64 4886 -64 
Q 5018 -64 5075 -3 
Q 5133 58 5133 275 
L 5133 2816 
z
M 2816 928 
Q 1990 922 1741 883 
L 1741 1325 
Q 2086 1286 2899 1280 
Q 2944 1453 2950 1638 
Q 3258 1530 3494 1530 
Q 3558 1530 3558 1501 
Q 3558 1472 3500 1427 
Q 3443 1382 3398 1280 
Q 4390 1280 4672 1325 
L 4672 883 
Q 4294 928 3283 928 
Q 3277 870 3238 787 
Q 3859 403 4307 90 
L 3994 -333 
Q 3622 -6 3046 422 
Q 2790 51 2144 -416 
Q 2042 -256 1690 -109 
Q 2624 352 2816 928 
z
" transform="scale(0.015625)"/>
     </defs>
     <use xlink:href="#STHeiti-504f"/>
     <use xlink:href="#STHeiti-5dee" x="99.999985"/>
     <use xlink:href="#STHeiti-2d" x="199.999969"/>
     <use xlink:href="#STHeiti-65b9" x="233.199966"/>
     <use xlink:href="#STHeiti-5dee" x="333.199951"/>
     <use xlink:href="#STHeiti-6743" x="433.199936"/>
     <use xlink:href="#STHeiti-8861" x="533.199921"/>
    </g>
   </g>
   <g id="legend_1">
    <g id="patch_7">
     <path d="M 276.58125 88.071562 
L 358.58125 88.071562 
Q 360.58125 88.071562 360.58125 86.071562 
L 360.58125 29.75125 
Q 360.58125 27.75125 358.58125 27.75125 
L 276.58125 27.75125 
Q 274.58125 27.75125 274.58125 29.75125 
L 274.58125 86.071562 
Q 274.58125 88.071562 276.58125 88.071562 
z
" style="fill: #ffffff; opacity: 0.8; stroke: #cccccc; stroke-linejoin: miter"/>
    </g>
    <g id="line2d_27">
     <path d="M 278.58125 36.210625 
L 288.58125 36.210625 
L 298.58125 36.210625 
" style="fill: none; stroke: #0000ff; stroke-width: 1.5; stroke-linecap: square"/>
    </g>
    <g id="text_15">
     <!-- 偏差 -->
     <g transform="translate(306.58125 39.710625) scale(0.1 -0.1)">
      <use xlink:href="#STHeiti-504f"/>
      <use xlink:href="#STHeiti-5dee" x="99.999985"/>
     </g>
    </g>
    <g id="line2d_28">
     <path d="M 278.58125 50.510625 
L 288.58125 50.510625 
L 298.58125 50.510625 
" style="fill: none; stroke: #ff0000; stroke-width: 1.5; stroke-linecap: square"/>
    </g>
    <g id="text_16">
     <!-- 方差 -->
     <g transform="translate(306.58125 54.010625) scale(0.1 -0.1)">
      <use xlink:href="#STHeiti-65b9"/>
      <use xlink:href="#STHeiti-5dee" x="99.999985"/>
     </g>
    </g>
    <g id="line2d_29">
     <path d="M 278.58125 64.810625 
L 288.58125 64.810625 
L 298.58125 64.810625 
" style="fill: none; stroke: #008000; stroke-width: 1.5; stroke-linecap: square"/>
    </g>
    <g id="text_17">
     <!-- 总误差 -->
     <g transform="translate(306.58125 68.310625) scale(0.1 -0.1)">
      <defs>
       <path id="STHeiti-603b" d="M 3411 3968 
Q 3885 4666 4102 5254 
Q 4454 5037 4794 4973 
Q 4877 4960 4877 4928 
Q 4877 4896 4806 4858 
Q 4595 4749 4451 4601 
Q 4307 4454 3962 3968 
Q 4838 3974 5120 4000 
Q 5088 3514 5088 3142 
Q 5088 2771 5120 2029 
Q 4960 2042 3155 2042 
Q 1350 2042 1210 2029 
Q 1242 2374 1242 3020 
Q 1242 3667 1210 4000 
Q 1734 3962 3411 3968 
z
M 1760 3584 
L 1760 2451 
L 4570 2451 
L 4570 3584 
L 1760 3584 
z
M 2701 4422 
L 2234 4038 
Q 1978 4397 1498 4838 
L 1882 5146 
Q 2355 4698 2701 4422 
z
M 3994 954 
L 3469 659 
Q 3264 1178 2925 1626 
L 3443 1850 
Q 3718 1363 3994 954 
z
M 6176 467 
L 5594 115 
Q 5357 640 4794 1325 
L 5286 1581 
Q 5664 1146 6176 467 
z
M 5056 435 
Q 4922 64 4832 -93 
Q 4742 -250 4620 -317 
Q 4499 -384 4176 -416 
Q 3853 -448 3152 -448 
Q 2451 -448 2198 -345 
Q 1946 -243 1946 160 
L 1946 845 
Q 1946 1274 1888 1517 
Q 2170 1459 2406 1459 
L 2554 1466 
Q 2624 1466 2624 1437 
Q 2624 1408 2550 1347 
Q 2477 1286 2477 1165 
L 2477 358 
Q 2477 179 2614 115 
Q 2752 51 3107 51 
Q 3462 51 3811 80 
Q 4160 109 4243 147 
Q 4326 186 4380 326 
Q 4435 467 4499 819 
Q 4762 493 5056 435 
z
M 1427 1389 
Q 1261 672 1101 -205 
L 448 -134 
Q 806 621 858 1434 
L 1427 1389 
z
" transform="scale(0.015625)"/>
      </defs>
      <use xlink:href="#STHeiti-603b"/>
      <use xlink:href="#STHeiti-8bef" x="99.999985"/>
      <use xlink:href="#STHeiti-5dee" x="199.999969"/>
     </g>
    </g>
    <g id="line2d_30">
     <path d="M 278.58125 79.230937 
L 288.58125 79.230937 
L 298.58125 79.230937 
" style="fill: none; stroke-dasharray: 5.55,2.4; stroke-dashoffset: 0; stroke: #000000; stroke-width: 1.5"/>
    </g>
    <g id="text_18">
     <!-- 最优复杂度 -->
     <g transform="translate(306.58125 82.730937) scale(0.1 -0.1)">
      <defs>
       <path id="STHeiti-6700" d="M 5190 3117 
Q 4710 3162 3219 3162 
Q 1728 3162 1254 3117 
Q 1299 3232 1299 3520 
L 1299 4570 
Q 1299 4877 1254 4986 
Q 1779 4947 3225 4947 
Q 4672 4947 5190 4986 
Q 5152 4877 5152 4570 
L 5152 3520 
Q 5152 3219 5190 3117 
z
M 4634 4205 
L 4634 4563 
L 1792 4563 
L 1792 4205 
L 4634 4205 
z
M 4634 3514 
L 4634 3853 
L 1792 3853 
L 1792 3514 
L 4634 3514 
z
M 1056 2406 
Q 838 2400 403 2362 
L 403 2880 
Q 960 2816 3161 2816 
Q 5363 2816 5907 2880 
L 5907 2362 
Q 5568 2413 3040 2413 
L 3040 570 
L 3398 634 
Q 3373 390 3379 205 
L 3040 179 
Q 3053 -358 3085 -666 
L 2554 -666 
Q 2592 -224 2592 128 
Q 1894 38 634 -211 
Q 602 38 506 320 
Q 730 326 1056 346 
L 1056 2406 
z
M 2598 2413 
L 1498 2413 
L 1498 2003 
L 2598 2003 
L 2598 2413 
z
M 2598 1216 
L 2598 1664 
L 1498 1664 
L 1498 1216 
L 2598 1216 
z
M 2598 506 
L 2598 890 
L 1498 890 
L 1498 390 
L 2598 506 
z
M 4723 307 
Q 5216 19 5894 0 
Q 5709 -288 5645 -589 
Q 4858 -352 4416 -26 
Q 4109 -314 3616 -653 
Q 3456 -429 3187 -282 
Q 3718 -45 4077 269 
Q 3731 646 3462 1235 
L 3853 1363 
Q 4058 883 4371 576 
Q 4723 1011 4870 1613 
Q 3674 1613 3360 1574 
L 3360 2048 
Q 3725 2003 4425 2003 
Q 5126 2003 5478 2048 
Q 5216 883 4723 307 
z
" transform="scale(0.015625)"/>
       <path id="STHeiti-4f18" d="M 4013 3027 
L 3763 3027 
Q 3654 1811 3324 1001 
Q 2995 192 2330 -461 
Q 2106 -224 1792 -109 
Q 2490 422 2822 1161 
Q 3155 1901 3258 3027 
Q 2566 3021 2003 2963 
L 2003 3578 
Q 2451 3520 3290 3507 
Q 3309 3827 3309 4291 
Q 3309 4755 3245 5197 
Q 3494 5133 3981 5133 
Q 4051 5133 4051 5085 
Q 4051 5037 3994 5005 
Q 3885 4947 3878 4672 
L 3795 3507 
L 4339 3507 
Q 5254 3501 5856 3578 
L 5856 2963 
Q 5267 3027 4518 3027 
L 4518 518 
Q 4518 333 4544 259 
Q 4570 186 4659 160 
Q 4749 134 4966 134 
Q 5184 134 5280 182 
Q 5376 230 5427 400 
Q 5478 570 5530 979 
Q 5786 685 6112 659 
Q 5965 147 5856 -48 
Q 5747 -243 5555 -300 
Q 5363 -358 4912 -358 
Q 4461 -358 4288 -316 
Q 4115 -275 4064 -150 
Q 4013 -26 4013 307 
L 4013 3027 
z
M 1722 4064 
L 1722 -627 
L 1133 -627 
Q 1210 45 1210 781 
L 1210 2963 
Q 973 2522 634 2016 
Q 499 2304 269 2477 
Q 736 3014 1059 3731 
Q 1382 4448 1504 5178 
Q 1843 5030 2067 4979 
Q 2170 4947 2170 4912 
Q 2170 4877 2067 4793 
Q 1965 4710 1722 4064 
z
M 5434 4211 
L 5050 3757 
Q 4621 4230 4198 4531 
L 4576 4890 
Q 5024 4582 5434 4211 
z
" transform="scale(0.015625)"/>
      </defs>
      <use xlink:href="#STHeiti-6700"/>
      <use xlink:href="#STHeiti-4f18" x="99.999985"/>
      <use xlink:href="#STHeiti-590d" x="199.999969"/>
      <use xlink:href="#STHeiti-6742" x="299.999954"/>
      <use xlink:href="#STHeiti-5ea6" x="399.999939"/>
     </g>
    </g>
   </g>
  </g>
 </g>
 <defs>
  <clipPath id="pb97051e4b7">
   <rect x="38.58125" y="22.75125" width="558" height="332.64"/>
  </clipPath>
 </defs>
</svg>
