<svg xmlns:xlink="http://www.w3.org/1999/xlink" width="572.4pt" height="308.758438pt" viewBox="0 0 572.4 308.758438" xmlns="http://www.w3.org/2000/svg" version="1.1">
 <metadata>
  <rdf:RDF xmlns:dc="http://purl.org/dc/elements/1.1/" xmlns:cc="http://creativecommons.org/ns#" xmlns:rdf="http://www.w3.org/1999/02/22-rdf-syntax-ns#">
   <cc:Work>
    <dc:type rdf:resource="http://purl.org/dc/dcmitype/StillImage"/>
    <dc:date>2025-03-04T09:51:55.378492</dc:date>
    <dc:format>image/svg+xml</dc:format>
    <dc:creator>
     <cc:Agent>
      <dc:title>Matplotlib v3.8.2, https://matplotlib.org/</dc:title>
     </cc:Agent>
    </dc:creator>
   </cc:Work>
  </rdf:RDF>
 </metadata>
 <defs>
  <style type="text/css">*{stroke-linejoin: round; stroke-linecap: butt}</style>
 </defs>
 <g id="figure_1">
  <g id="patch_1">
   <path d="M 0 308.758438 
L 572.4 308.758438 
L 572.4 0 
L 0 0 
z
" style="fill: #ffffff"/>
  </g>
  <g id="axes_1">
   <g id="patch_2">
    <path d="M 7.2 301.558438 
L 565.2 301.558438 
L 565.2 24.358437 
L 7.2 24.358437 
z
" style="fill: #ffffff"/>
   </g>
   <g id="patch_3">
    <path d="M 7.2 301.558438 
L 565.2 301.558438 
L 565.2 24.358437 
L 7.2 24.358437 
z
" clip-path="url(#pc0a35f50ce)" style="fill: #d3d3d3; stroke: #000000; stroke-linejoin: miter"/>
   </g>
   <g id="patch_4">
    <path d="M 7.2 301.558438 
L 397.8 301.558438 
L 397.8 24.358437 
L 7.2 24.358437 
z
" clip-path="url(#pc0a35f50ce)" style="fill: #add8e6; stroke: #000000; stroke-linejoin: miter"/>
   </g>
   <g id="patch_5">
    <path d="M 397.8 301.558438 
L 481.5 301.558438 
L 481.5 24.358437 
L 397.8 24.358437 
z
" clip-path="url(#pc0a35f50ce)" style="fill: #90ee90; stroke: #000000; stroke-linejoin: miter"/>
   </g>
   <g id="patch_6">
    <path d="M 481.5 301.558438 
L 565.2 301.558438 
L 565.2 24.358437 
L 481.5 24.358437 
z
" clip-path="url(#pc0a35f50ce)" style="fill: #fa8072; stroke: #000000; stroke-linejoin: miter"/>
   </g>
   <g id="matplotlib.axis_1"/>
   <g id="matplotlib.axis_2"/>
   <g id="patch_7">
    <path d="M 7.2 301.558438 
L 7.2 24.358437 
" style="fill: none; stroke: #000000; stroke-width: 0.8; stroke-linejoin: miter; stroke-linecap: square"/>
   </g>
   <g id="patch_8">
    <path d="M 565.2 301.558438 
L 565.2 24.358437 
" style="fill: none; stroke: #000000; stroke-width: 0.8; stroke-linejoin: miter; stroke-linecap: square"/>
   </g>
   <g id="patch_9">
    <path d="M 7.2 301.558438 
L 565.2 301.558438 
" style="fill: none; stroke: #000000; stroke-width: 0.8; stroke-linejoin: miter; stroke-linecap: square"/>
   </g>
   <g id="patch_10">
    <path d="M 7.2 24.358437 
L 565.2 24.358437 
" style="fill: none; stroke: #000000; stroke-width: 0.8; stroke-linejoin: miter; stroke-linecap: square"/>
   </g>
   <g id="text_1">
    <!-- 训练集 (70%) -->
    <g transform="translate(167.2725 167.098437) scale(0.12 -0.12)">
     <defs>
      <path id="STHeiti-8bad" d="M 2016 4256 
L 1434 3942 
Q 1203 4474 896 4883 
L 1414 5203 
Q 1760 4614 2016 4256 
z
M 5120 5171 
Q 5363 5120 5728 5120 
Q 5850 5120 5850 5088 
Q 5850 5056 5792 5008 
Q 5734 4960 5715 4921 
Q 5696 4883 5696 4794 
L 5696 595 
Q 5696 -192 5747 -608 
L 5120 -608 
Q 5171 -192 5171 595 
L 5171 4301 
Q 5171 4858 5120 5171 
z
M 2643 5043 
Q 2790 5018 2944 5008 
Q 3098 4998 3162 4998 
L 3264 5005 
Q 3322 5005 3322 4973 
Q 3322 4941 3286 4896 
Q 3251 4851 3235 4665 
Q 3219 4480 3206 3424 
Q 3194 2368 3146 1597 
Q 3098 826 2973 352 
Q 2848 -122 2566 -659 
Q 2362 -499 1978 -397 
Q 2336 154 2470 547 
Q 2605 941 2649 1760 
Q 2694 2579 2694 4058 
Q 2694 4685 2643 5043 
z
M 3878 4634 
Q 4045 4589 4448 4589 
Q 4570 4589 4570 4557 
Q 4570 4525 4502 4486 
Q 4435 4448 4435 4269 
L 4435 1139 
Q 4435 358 4486 -64 
L 3878 -64 
Q 3936 326 3936 1139 
L 3936 3776 
Q 3936 4358 3878 4634 
z
M 2464 896 
Q 1664 58 1280 -525 
Q 1126 -243 896 6 
Q 1062 141 1104 269 
Q 1146 397 1146 710 
L 1146 2848 
Q 531 2848 358 2816 
L 358 3379 
Q 570 3347 1043 3347 
Q 1517 3347 1734 3379 
Q 1664 3053 1664 2541 
L 1664 736 
L 2189 1376 
Q 2291 1062 2464 896 
z
" transform="scale(0.015625)"/>
      <path id="STHeiti-7ec3" d="M 4698 2272 
Q 5619 2278 5939 2323 
L 5939 1792 
Q 5651 1830 4698 1837 
L 4698 422 
Q 4698 0 4643 -173 
Q 4589 -346 4419 -422 
Q 4250 -499 3808 -576 
Q 3744 -275 3526 45 
Q 3776 13 3923 13 
Q 4070 13 4137 67 
Q 4205 122 4205 314 
L 4205 1837 
Q 3200 1811 2726 1715 
Q 2688 1984 2560 2202 
Q 2835 2349 3104 2906 
Q 2797 2893 2618 2867 
L 2618 3366 
Q 2989 3334 3296 3328 
Q 3411 3590 3546 3942 
Q 2976 3942 2464 3910 
L 2464 4422 
Q 2874 4371 3706 4365 
Q 3872 4832 3898 5254 
Q 4294 5094 4589 5043 
Q 4672 5030 4672 4982 
Q 4672 4934 4595 4896 
Q 4448 4826 4237 4365 
Q 5542 4365 5958 4429 
L 5958 3904 
Q 5485 3949 4064 3949 
Q 3898 3558 3789 3328 
Q 4499 3341 4736 3366 
Q 4698 3130 4698 2771 
L 4698 2272 
z
M 3584 2912 
Q 3405 2547 3200 2272 
L 4205 2272 
L 4205 2912 
L 3584 2912 
z
M 1427 3014 
L 1037 2976 
Q 730 2950 493 2886 
Q 448 3104 346 3373 
Q 506 3462 778 3974 
Q 1050 4486 1325 5242 
Q 1626 5056 1869 4973 
Q 1952 4941 1952 4905 
Q 1952 4870 1882 4845 
Q 1747 4800 896 3366 
L 1664 3424 
Q 1888 3814 2022 4122 
Q 2240 3930 2515 3821 
Q 2605 3789 2605 3757 
Q 2605 3725 2528 3705 
Q 2451 3686 2192 3340 
Q 1933 2995 1184 1888 
Q 1664 1920 2298 2003 
Q 2246 1811 2259 1542 
L 1229 1478 
Q 781 1446 595 1376 
Q 614 1677 467 1907 
Q 826 2003 1427 3014 
z
M 3258 1485 
Q 3475 1357 3821 1235 
Q 3878 1216 3878 1184 
Q 3878 1152 3814 1133 
Q 3680 1088 3514 851 
L 2688 -250 
Q 2496 -90 2221 13 
Q 2944 723 3258 1485 
z
M 6170 186 
L 5632 -96 
Q 5318 602 4896 1203 
L 5338 1421 
Q 5766 864 6170 186 
z
M 2387 973 
Q 2342 851 2342 707 
Q 2342 563 2362 467 
Q 922 186 442 -64 
Q 422 237 333 627 
Q 1043 640 2387 973 
z
" transform="scale(0.015625)"/>
      <path id="STHeiti-96c6" d="M 3949 4730 
L 3450 4410 
Q 3258 4666 2963 4902 
L 3437 5229 
Q 3661 4966 3949 4730 
z
M 1216 3322 
Q 1005 3027 800 2797 
Q 640 2963 333 3078 
Q 1382 3994 1734 5158 
Q 2029 5005 2240 4966 
Q 2349 4947 2349 4912 
Q 2349 4877 2246 4803 
Q 2144 4730 1901 4358 
L 3469 4358 
Q 5280 4358 5626 4390 
L 5626 3981 
Q 5050 4013 3584 4013 
L 3584 3590 
Q 4979 3590 5274 3622 
L 5274 3226 
Q 4774 3258 3584 3258 
L 3584 2861 
Q 5024 2861 5338 2893 
L 5338 2496 
Q 5024 2528 3584 2528 
L 3584 2099 
Q 5267 2099 5626 2131 
L 5626 1709 
Q 5030 1741 3450 1741 
L 1677 1741 
L 1677 1466 
L 1178 1466 
Q 1216 1747 1216 2138 
L 1216 3322 
z
M 1677 3590 
L 3130 3590 
L 3130 4013 
L 1677 4013 
L 1677 3590 
z
M 1677 3258 
L 1677 2861 
L 3130 2861 
L 3130 3258 
L 1677 3258 
z
M 1677 2528 
L 1677 2099 
L 3130 2099 
L 3130 2528 
L 1677 2528 
z
M 2502 826 
Q 1331 838 525 787 
L 525 1242 
Q 1421 1184 3040 1184 
Q 3040 1421 3014 1606 
Q 3238 1587 3597 1587 
Q 3686 1587 3686 1548 
Q 3686 1510 3606 1475 
Q 3526 1440 3526 1338 
L 3526 1184 
Q 5242 1184 5939 1216 
L 5939 787 
Q 5056 826 4006 826 
Q 4339 474 4860 272 
Q 5382 70 5971 64 
Q 5786 -160 5715 -499 
Q 4262 -218 3654 826 
L 3526 826 
L 3526 -83 
Q 3526 -320 3558 -614 
L 3008 -614 
Q 3046 -333 3046 -83 
L 3046 826 
L 2899 826 
Q 2310 45 858 -563 
Q 691 -262 416 -96 
Q 992 58 1593 320 
Q 2195 582 2502 826 
z
" transform="scale(0.015625)"/>
      <path id="STHeiti-20" transform="scale(0.015625)"/>
      <path id="STHeiti-28" d="M 1466 5370 
L 1978 5370 
Q 1651 4704 1475 3865 
Q 1299 3027 1299 2176 
Q 1299 506 1824 -762 
L 1338 -762 
Q 832 480 832 2118 
Q 832 3891 1466 5370 
z
" transform="scale(0.015625)"/>
      <path id="STHeiti-37" d="M 461 4979 
L 3373 4979 
L 915 269 
L 538 461 
L 2662 4544 
L 461 4544 
L 461 4979 
z
" transform="scale(0.015625)"/>
      <path id="STHeiti-30" d="M 1747 269 
Q 1005 269 605 880 
Q 205 1491 205 2681 
Q 205 3872 605 4483 
Q 1005 5094 1741 5094 
Q 2477 5094 2909 4470 
Q 3341 3846 3341 2681 
Q 3341 1517 2905 893 
Q 2470 269 1747 269 
z
M 1760 4659 
Q 1229 4659 934 4147 
Q 640 3635 640 2669 
Q 640 685 1760 685 
Q 2304 685 2608 1206 
Q 2912 1728 2912 2681 
Q 2912 3635 2598 4147 
Q 2285 4659 1760 4659 
z
" transform="scale(0.015625)"/>
      <path id="STHeiti-25" d="M 4314 5184 
L 966 64 
L 550 64 
L 3603 4730 
Q 3232 4640 2845 4614 
Q 2458 4589 2278 4595 
L 2112 4602 
Q 2304 4333 2304 4032 
Q 2304 3571 1993 3248 
Q 1683 2925 1225 2925 
Q 768 2925 454 3238 
Q 141 3552 141 4006 
Q 141 4461 464 4774 
Q 787 5088 1210 5088 
Q 1382 5088 1702 5021 
Q 2022 4954 2490 4954 
Q 3232 4954 3949 5184 
L 4314 5184 
z
M 1914 4013 
Q 1914 4301 1712 4499 
Q 1510 4698 1225 4698 
Q 941 4698 739 4496 
Q 538 4294 538 4012 
Q 538 3731 739 3529 
Q 941 3328 1225 3328 
Q 1510 3328 1712 3526 
Q 1914 3725 1914 4013 
z
M 2656 1331 
Q 2656 1773 2973 2093 
Q 3290 2413 3734 2413 
Q 4179 2413 4496 2096 
Q 4813 1779 4813 1331 
Q 4813 883 4496 566 
Q 4179 250 3734 250 
Q 3290 250 2973 566 
Q 2656 883 2656 1331 
z
M 4422 1331 
Q 4422 1613 4220 1814 
Q 4019 2016 3734 2016 
Q 3450 2016 3251 1814 
Q 3053 1613 3053 1331 
Q 3053 1050 3251 848 
Q 3450 646 3734 646 
Q 4019 646 4220 844 
Q 4422 1043 4422 1331 
z
" transform="scale(0.015625)"/>
      <path id="STHeiti-29" d="M 896 5370 
Q 1530 3891 1530 2118 
Q 1530 480 1024 -762 
L 538 -762 
Q 1062 506 1062 2176 
Q 1062 3027 886 3865 
Q 710 4704 384 5370 
L 896 5370 
z
" transform="scale(0.015625)"/>
     </defs>
     <use xlink:href="#STHeiti-8bad"/>
     <use xlink:href="#STHeiti-7ec3" x="99.999985"/>
     <use xlink:href="#STHeiti-96c6" x="199.999969"/>
     <use xlink:href="#STHeiti-20" x="299.999954"/>
     <use xlink:href="#STHeiti-28" x="324.999939"/>
     <use xlink:href="#STHeiti-37" x="361.899933"/>
     <use xlink:href="#STHeiti-30" x="417.299927"/>
     <use xlink:href="#STHeiti-25" x="472.699921"/>
     <use xlink:href="#STHeiti-29" x="550.199905"/>
    </g>
   </g>
   <g id="text_2">
    <!-- 验证集 -->
    <g transform="translate(421.65 160.192062) scale(0.12 -0.12)">
     <defs>
      <path id="STHeiti-9a8c" d="M 4250 4723 
Q 3776 3827 3341 3315 
Q 3642 3264 4269 3264 
Q 4896 3264 5146 3315 
L 5146 2797 
Q 4851 2835 4249 2835 
Q 3648 2835 3328 2771 
L 3328 3296 
Q 3155 3091 2816 2765 
Q 2630 2970 2400 3072 
Q 2861 3366 3305 4057 
Q 3750 4749 3872 5299 
Q 4307 5139 4550 5107 
Q 4627 5094 4627 5056 
Q 4627 5018 4556 4986 
Q 4486 4954 4474 4947 
Q 5088 3770 6189 3450 
Q 5907 3168 5798 2880 
Q 4589 3565 4250 4723 
z
M 2170 2298 
Q 2458 2304 2624 2349 
Q 2554 1318 2496 739 
Q 2438 160 2361 -41 
Q 2285 -243 2067 -332 
Q 1850 -422 1254 -506 
Q 1203 -205 1043 83 
Q 1312 58 1507 58 
Q 1702 58 1804 118 
Q 1907 179 1945 323 
Q 1984 467 2038 966 
Q 2093 1466 2112 1843 
Q 902 1843 634 1786 
Q 672 2182 713 2950 
Q 755 3718 749 3962 
Q 998 3891 1312 3891 
Q 1395 3891 1395 3862 
Q 1395 3834 1328 3786 
Q 1261 3738 1248 3584 
L 1114 2278 
L 1709 2278 
L 1965 4384 
Q 902 4384 486 4314 
L 486 4909 
Q 973 4858 1497 4858 
Q 2022 4858 2490 4909 
L 2170 2298 
z
M 4429 941 
L 3955 864 
Q 3885 1696 3763 2323 
L 4224 2400 
Q 4326 1517 4429 941 
z
M 4397 147 
Q 4813 1197 4998 2400 
Q 5312 2266 5626 2195 
Q 5683 2182 5683 2156 
Q 5683 2131 5606 2086 
Q 5498 2022 5408 1734 
Q 5107 806 4838 147 
Q 5421 147 5760 205 
L 5760 -358 
Q 5370 -301 4189 -301 
Q 3008 -301 2669 -358 
L 2669 205 
Q 3053 147 3654 147 
L 4397 147 
z
M 3622 678 
L 3149 576 
Q 3066 1485 2867 2195 
L 3290 2278 
Q 3430 1530 3622 678 
z
M 1805 1306 
Q 1760 1139 1760 1020 
Q 1760 902 1766 838 
Q 781 704 390 582 
Q 371 851 294 1152 
Q 1056 1165 1805 1306 
z
" transform="scale(0.015625)"/>
      <path id="STHeiti-8bc1" d="M 1914 4192 
L 1370 3872 
Q 1158 4429 768 4902 
L 1274 5203 
Q 1638 4595 1914 4192 
z
M 2637 262 
L 2637 2451 
Q 2637 2925 2592 3168 
Q 2970 3110 3258 3110 
Q 3328 3110 3328 3065 
Q 3328 3021 3251 2966 
Q 3174 2912 3174 2739 
L 3174 256 
L 3904 256 
L 3904 4243 
Q 2925 4237 2413 4179 
L 2413 4768 
Q 3021 4710 4064 4710 
Q 5107 4710 5837 4768 
L 5837 4179 
Q 5350 4237 4442 4243 
L 4442 2746 
L 4966 2746 
Q 5389 2746 5760 2803 
L 5760 2221 
Q 5453 2253 4966 2253 
L 4442 2253 
L 4442 256 
Q 5786 256 6093 333 
L 6093 -294 
Q 5824 -237 4080 -237 
Q 2336 -237 2010 -294 
L 2010 333 
Q 2240 282 2637 262 
z
M 2400 954 
L 1670 122 
Q 1459 -141 1280 -442 
Q 1024 -122 819 19 
Q 960 141 1005 262 
Q 1050 384 1050 717 
L 1050 2797 
Q 557 2797 282 2765 
L 282 3347 
Q 486 3315 947 3315 
Q 1408 3315 1626 3347 
Q 1562 3117 1562 2445 
L 1562 717 
Q 1869 1082 2106 1408 
Q 2208 1094 2400 954 
z
" transform="scale(0.015625)"/>
     </defs>
     <use xlink:href="#STHeiti-9a8c"/>
     <use xlink:href="#STHeiti-8bc1" x="99.999985"/>
     <use xlink:href="#STHeiti-96c6" x="199.999969"/>
    </g>
    <!-- (15%) -->
    <g transform="translate(423.9225 173.667313) scale(0.12 -0.12)">
     <defs>
      <path id="STHeiti-31" d="M 1184 4979 
L 2086 4979 
L 2086 384 
L 1632 384 
L 1632 4531 
L 909 4531 
L 1184 4979 
z
" transform="scale(0.015625)"/>
      <path id="STHeiti-35" d="M 3149 4979 
L 3149 4544 
L 1510 4544 
L 1280 3290 
Q 1587 3379 1856 3379 
Q 2458 3379 2861 2953 
Q 3264 2528 3264 1862 
Q 3264 1197 2825 733 
Q 2387 269 1664 269 
Q 1114 269 726 598 
Q 339 928 262 1498 
L 730 1498 
Q 813 1114 1075 909 
Q 1338 704 1683 704 
Q 2138 704 2467 1043 
Q 2797 1382 2797 1888 
Q 2797 2349 2509 2646 
Q 2221 2944 1757 2944 
Q 1293 2944 730 2701 
L 1158 4979 
L 3149 4979 
z
" transform="scale(0.015625)"/>
     </defs>
     <use xlink:href="#STHeiti-28"/>
     <use xlink:href="#STHeiti-31" x="36.899994"/>
     <use xlink:href="#STHeiti-35" x="92.299988"/>
     <use xlink:href="#STHeiti-25" x="147.699982"/>
     <use xlink:href="#STHeiti-29" x="225.199966"/>
    </g>
   </g>
   <g id="text_3">
    <!-- 测试集 -->
    <g transform="translate(505.35 160.192062) scale(0.12 -0.12)">
     <defs>
      <path id="STHeiti-6d4b" d="M 5254 5158 
Q 5370 5126 5766 5126 
Q 5862 5126 5862 5078 
Q 5862 5030 5801 4985 
Q 5741 4941 5741 4800 
L 5741 141 
Q 5741 -147 5693 -262 
Q 5645 -378 5462 -448 
Q 5280 -518 4794 -608 
Q 4736 -282 4538 51 
Q 4768 26 4950 26 
Q 5133 26 5219 102 
Q 5306 179 5306 435 
L 5306 4166 
Q 5306 4723 5254 5158 
z
M 1664 4525 
L 1338 4077 
Q 992 4403 544 4646 
L 845 5037 
Q 1267 4794 1664 4525 
z
M 3974 1235 
L 3482 1235 
L 3482 4282 
L 2227 4282 
L 2227 1152 
L 1741 1152 
Q 1792 1619 1792 2163 
L 1792 3834 
Q 1792 4288 1754 4794 
Q 2022 4723 2832 4723 
Q 3642 4723 3962 4794 
Q 3923 4352 3923 3834 
L 3923 2195 
Q 3923 1715 3974 1235 
z
M 4813 1005 
L 4269 1005 
Q 4333 1491 4333 1990 
L 4333 3584 
Q 4333 4006 4262 4499 
Q 4403 4467 4570 4467 
L 4806 4480 
Q 4851 4480 4851 4448 
Q 4851 4416 4809 4377 
Q 4768 4339 4768 4186 
L 4768 1997 
Q 4768 1530 4813 1005 
z
M 2605 3789 
Q 2739 3757 2944 3757 
L 3110 3770 
Q 3168 3770 3168 3731 
Q 3168 3693 3123 3638 
Q 3078 3584 3078 2854 
Q 3078 2125 3046 1680 
Q 3014 1235 2921 931 
Q 2829 627 2595 272 
Q 2362 -83 1958 -486 
Q 1741 -262 1427 -141 
Q 1965 230 2227 614 
Q 2490 998 2563 1408 
Q 2637 1818 2637 2362 
Q 2637 2906 2605 3789 
z
M 1510 2976 
L 1210 2464 
Q 832 2752 307 2976 
L 602 3469 
Q 1152 3181 1510 2976 
z
M 1485 1632 
L 1190 538 
Q 1030 -45 934 -538 
Q 685 -339 346 -192 
Q 819 659 1043 1875 
Q 1210 1690 1485 1632 
z
M 4346 166 
L 3949 -230 
Q 3482 435 3072 749 
L 3418 1094 
Q 3962 634 4346 166 
z
" transform="scale(0.015625)"/>
      <path id="STHeiti-8bd5" d="M 3981 3898 
Q 3904 4947 3898 5203 
Q 4045 5165 4253 5165 
Q 4461 5165 4528 5181 
Q 4595 5197 4636 5197 
Q 4678 5197 4678 5158 
Q 4678 5120 4592 5040 
Q 4506 4960 4506 4403 
Q 4506 4186 4518 3910 
Q 5395 3930 5901 4006 
L 5914 3398 
Q 5696 3430 5347 3430 
Q 4998 3430 4550 3424 
Q 4659 1830 4998 1024 
Q 5338 218 5504 218 
Q 5670 218 5741 947 
Q 5946 621 6234 435 
Q 6093 -70 5942 -320 
Q 5792 -570 5613 -570 
Q 5485 -570 5273 -410 
Q 5062 -250 4822 137 
Q 4582 525 4435 976 
Q 4288 1427 4185 2057 
Q 4083 2688 4019 3418 
L 3526 3405 
Q 2547 3373 2099 3309 
L 2086 3917 
Q 2342 3885 2656 3885 
Q 2970 3885 3520 3891 
L 3981 3898 
z
M 1875 4070 
L 1370 3699 
Q 1094 4224 704 4710 
L 1210 5024 
Q 1645 4429 1875 4070 
z
M 5741 4378 
L 5197 4115 
Q 5082 4474 4851 4774 
L 5357 5005 
Q 5574 4736 5741 4378 
z
M 2330 781 
L 1587 -83 
Q 1331 -378 1261 -570 
Q 1088 -326 787 -122 
Q 1024 102 1024 493 
L 1024 2682 
Q 570 2682 314 2650 
L 314 3232 
Q 595 3200 953 3200 
Q 1312 3200 1600 3232 
Q 1530 2861 1530 2432 
L 1530 595 
Q 1792 890 2029 1267 
Q 2112 979 2330 781 
z
M 3360 717 
Q 3782 813 4154 922 
Q 4109 608 4128 403 
Q 3130 230 2362 -115 
Q 2317 243 2234 525 
Q 2541 570 2861 621 
L 2861 2227 
Q 2432 2221 2285 2176 
L 2285 2739 
Q 2528 2688 3081 2688 
Q 3635 2688 3827 2739 
L 3827 2176 
Q 3654 2221 3360 2221 
L 3360 717 
z
" transform="scale(0.015625)"/>
     </defs>
     <use xlink:href="#STHeiti-6d4b"/>
     <use xlink:href="#STHeiti-8bd5" x="99.999985"/>
     <use xlink:href="#STHeiti-96c6" x="199.999969"/>
    </g>
    <!-- (15%) -->
    <g transform="translate(507.6225 173.667313) scale(0.12 -0.12)">
     <use xlink:href="#STHeiti-28"/>
     <use xlink:href="#STHeiti-31" x="36.899994"/>
     <use xlink:href="#STHeiti-35" x="92.299988"/>
     <use xlink:href="#STHeiti-25" x="147.699982"/>
     <use xlink:href="#STHeiti-29" x="225.199966"/>
    </g>
   </g>
   <g id="text_4">
    <!-- 数据集划分示意图 -->
    <g transform="translate(230.2 18.358437) scale(0.14 -0.14)">
     <defs>
      <path id="STHeiti-6570" d="M 4640 480 
Q 4173 -51 3194 -467 
Q 3059 -237 2803 -26 
Q 3238 70 3673 323 
Q 4109 576 4365 890 
Q 3994 1549 3962 2835 
Q 3744 2458 3520 2176 
Q 3366 2419 3206 2522 
Q 3584 3040 3837 3747 
Q 4090 4454 4147 5171 
Q 4486 5062 4800 5037 
Q 4877 5030 4877 4988 
Q 4877 4947 4781 4896 
Q 4704 4858 4480 4128 
L 5216 4128 
Q 5747 4128 6003 4179 
L 6003 3661 
Q 5850 3680 5562 3699 
Q 5440 1773 4934 896 
Q 5254 518 6112 250 
Q 5856 6 5754 -365 
Q 4902 141 4640 480 
z
M 4627 1363 
Q 5018 2253 5088 3706 
L 4352 3706 
Q 4237 3328 3981 2874 
L 4384 2886 
Q 4384 1907 4627 1363 
z
M 1549 3526 
Q 1222 3520 589 3488 
L 589 3942 
Q 1158 3898 1850 3898 
L 1850 4499 
Q 1850 4800 1786 5165 
Q 2042 5139 2362 5139 
Q 2458 5139 2458 5094 
Q 2458 5050 2406 5030 
Q 2355 5011 2336 4976 
Q 2317 4941 2317 4845 
L 2317 3898 
Q 2758 3904 3507 3942 
L 3507 3488 
Q 2810 3526 2317 3533 
Q 2317 2970 2362 2515 
L 1805 2515 
Q 1850 3034 1850 3456 
Q 1632 3014 1401 2745 
Q 1171 2477 755 2189 
Q 608 2406 282 2573 
Q 1030 2816 1549 3526 
z
M 2861 4922 
Q 3155 4826 3386 4794 
Q 3462 4781 3462 4755 
Q 3462 4730 3388 4701 
Q 3315 4672 3228 4521 
Q 3142 4371 3014 4122 
Q 2835 4166 2560 4186 
Q 2746 4461 2861 4922 
z
M 1510 4230 
L 973 4154 
Q 966 4461 883 4806 
L 1389 4870 
Q 1459 4595 1510 4230 
z
M 3360 2790 
L 3046 2477 
Q 2765 2816 2464 3078 
L 2790 3328 
Q 3034 3117 3360 2790 
z
M 2899 755 
Q 3168 666 3450 525 
Q 3251 314 3168 128 
Q 2886 288 2637 390 
Q 2394 128 1984 -51 
Q 1574 -230 781 -410 
Q 627 -115 346 109 
Q 1619 134 2157 557 
Q 1709 691 1030 781 
Q 1248 1165 1408 1555 
Q 800 1549 531 1504 
L 531 1965 
Q 858 1939 1536 1926 
Q 1600 2118 1696 2458 
Q 1946 2355 2214 2336 
Q 2342 2323 2342 2294 
Q 2342 2266 2243 2198 
Q 2144 2131 2035 1926 
L 2899 1926 
Q 3162 1926 3341 1971 
Q 3123 1158 2899 755 
z
M 1862 1555 
L 1626 1043 
Q 2118 966 2470 883 
Q 2662 1165 2726 1555 
L 1862 1555 
z
" transform="scale(0.015625)"/>
      <path id="STHeiti-636e" d="M 1229 2176 
L 1229 3245 
Q 730 3245 448 3187 
L 448 3731 
Q 691 3680 1229 3680 
Q 1229 4454 1216 4681 
Q 1203 4909 1152 5114 
Q 1376 5069 1734 5069 
Q 1888 5069 1888 5021 
Q 1888 4973 1811 4915 
Q 1734 4858 1712 4810 
Q 1690 4762 1690 4678 
L 1690 3686 
Q 2016 3693 2208 3731 
L 2208 3187 
Q 1971 3232 1690 3238 
L 1690 2355 
Q 1971 2477 2240 2624 
Q 2234 2323 2310 2106 
Q 1990 2010 1690 1894 
L 1690 186 
Q 1690 -102 1635 -224 
Q 1581 -346 1395 -419 
Q 1210 -493 736 -576 
Q 723 -243 467 90 
Q 704 51 858 51 
Q 1229 51 1229 269 
L 1229 1696 
Q 794 1485 480 1242 
Q 454 1587 365 1920 
Q 838 2042 1229 2176 
z
M 4627 2214 
L 4627 1523 
Q 5510 1523 5722 1568 
Q 5683 1408 5683 1030 
L 5683 160 
Q 5683 -179 5728 -480 
L 5190 -480 
L 5190 -218 
L 3738 -218 
L 3738 -550 
L 3200 -550 
Q 3245 -307 3245 96 
L 3245 1030 
Q 3245 1357 3206 1568 
Q 3469 1530 4166 1523 
L 4166 2214 
Q 3494 2208 3098 2150 
L 3098 2669 
Q 3533 2618 4166 2611 
L 4166 3302 
L 3027 3302 
Q 3027 1690 2851 986 
Q 2675 282 2253 -474 
Q 2048 -307 1741 -282 
Q 2195 384 2368 1091 
Q 2541 1798 2541 2848 
Q 2541 3898 2496 4838 
Q 2778 4768 4067 4768 
Q 5357 4768 5741 4838 
Q 5696 4461 5696 4051 
Q 5696 3642 5741 3238 
Q 5434 3302 4627 3302 
L 4627 2611 
Q 5542 2611 6042 2669 
L 6042 2150 
Q 5574 2214 4627 2214 
z
M 3027 4378 
L 3027 3712 
L 5235 3712 
L 5235 4378 
L 3027 4378 
z
M 5190 205 
L 5190 1146 
L 3738 1146 
L 3738 205 
L 5190 205 
z
" transform="scale(0.015625)"/>
      <path id="STHeiti-5212" d="M 2170 1606 
Q 2778 2253 3002 2835 
Q 3309 2605 3488 2560 
Q 3565 2541 3565 2509 
Q 3565 2477 3520 2445 
Q 3392 2362 3181 2032 
Q 2970 1702 2394 1114 
Q 2714 614 2909 374 
Q 3104 134 3200 134 
Q 3296 134 3341 294 
Q 3386 454 3398 800 
Q 3571 467 3910 365 
Q 3814 -58 3705 -269 
Q 3597 -480 3430 -480 
Q 3059 -480 2739 -160 
Q 2419 160 2054 774 
Q 1440 166 838 -186 
Q 659 96 320 237 
Q 1018 448 1818 1242 
Q 1510 1965 1402 2854 
Q 934 2765 538 2637 
L 410 3200 
Q 800 3226 1357 3315 
Q 1293 4102 1248 5229 
Q 1446 5184 1734 5184 
L 1952 5190 
Q 2016 5190 2016 5161 
Q 2016 5133 1939 5043 
Q 1824 4896 1824 4441 
Q 1824 3987 1856 3398 
L 2874 3571 
Q 3334 3642 3699 3770 
L 3814 3226 
Q 3245 3174 2944 3123 
L 1894 2944 
Q 1978 2170 2170 1606 
z
M 5082 5088 
Q 5190 5062 5315 5049 
Q 5440 5037 5530 5037 
L 5696 5043 
Q 5779 5043 5779 5014 
Q 5779 4986 5718 4918 
Q 5658 4851 5658 4736 
L 5658 141 
Q 5658 -122 5597 -246 
Q 5536 -371 5325 -448 
Q 5114 -525 4634 -589 
Q 4589 -166 4307 90 
Q 4608 58 4790 58 
Q 4973 58 5059 102 
Q 5146 147 5146 307 
L 5146 4058 
Q 5146 4877 5082 5088 
z
M 3315 4166 
L 2790 3878 
Q 2586 4307 2272 4659 
L 2771 4909 
Q 3040 4467 3315 4166 
z
M 4026 4378 
Q 4237 4314 4602 4314 
Q 4685 4314 4685 4269 
Q 4685 4224 4627 4189 
Q 4570 4154 4570 4019 
L 4570 1491 
Q 4570 1043 4608 698 
L 4038 698 
Q 4077 1069 4077 1491 
L 4077 3667 
Q 4077 4122 4026 4378 
z
" transform="scale(0.015625)"/>
      <path id="STHeiti-5206" d="M 6150 2784 
Q 5894 2554 5677 2150 
Q 4877 2707 4384 3318 
Q 3891 3930 3590 5075 
L 4128 5184 
Q 4307 4512 4547 4089 
Q 4787 3667 5216 3328 
Q 5645 2989 6150 2784 
z
M 2246 5094 
Q 2675 4877 2899 4858 
Q 2982 4845 2982 4800 
Q 2982 4755 2876 4713 
Q 2771 4672 2704 4589 
Q 2637 4506 2566 4346 
Q 2330 3840 1830 3165 
Q 1331 2490 787 1971 
Q 614 2195 288 2413 
Q 960 2874 1462 3581 
Q 1965 4288 2246 5094 
z
M 2400 2138 
Q 1818 2138 1542 2093 
L 1542 2688 
Q 1882 2637 3066 2637 
Q 4250 2637 4973 2662 
L 4755 173 
Q 4723 -218 4496 -368 
Q 4269 -518 3584 -614 
Q 3520 -237 3290 70 
Q 3501 51 3642 51 
Q 3962 51 4083 179 
Q 4205 307 4237 653 
L 4365 2138 
L 2931 2138 
Q 2867 1120 2374 451 
Q 1882 -218 1184 -602 
Q 934 -314 595 -179 
Q 1530 211 1939 777 
Q 2349 1344 2400 2138 
z
" transform="scale(0.015625)"/>
      <path id="STHeiti-793a" d="M 5312 4205 
Q 4640 4250 3264 4250 
Q 1888 4250 1203 4205 
L 1203 4813 
Q 1907 4768 3273 4768 
Q 4640 4768 5312 4813 
L 5312 4205 
z
M 2995 2726 
Q 1286 2726 435 2682 
L 435 3277 
Q 1344 3232 3203 3232 
Q 5062 3232 5965 3277 
L 5965 2682 
Q 4934 2726 3578 2726 
L 3578 32 
Q 3578 -179 3501 -291 
Q 3424 -403 3174 -483 
Q 2925 -563 2374 -653 
Q 2330 -250 2080 77 
Q 2355 26 2554 26 
Q 2995 26 2995 269 
L 2995 2726 
z
M 1690 2163 
Q 1952 1958 2330 1843 
Q 2406 1818 2406 1779 
Q 2406 1741 2266 1702 
Q 2170 1670 1952 1331 
Q 1824 1152 1523 761 
Q 1222 371 941 38 
Q 749 262 365 333 
Q 742 634 1104 1139 
Q 1466 1645 1690 2163 
z
M 6035 397 
L 5491 6 
Q 4941 877 4154 1722 
L 4627 2022 
Q 5446 1222 6035 397 
z
" transform="scale(0.015625)"/>
      <path id="STHeiti-610f" d="M 2970 4723 
Q 2906 4992 2803 5197 
L 3469 5306 
Q 3597 4794 3622 4723 
Q 4851 4730 5536 4768 
L 5536 4288 
Q 4627 4339 3177 4339 
Q 1728 4339 819 4288 
L 819 4768 
Q 1510 4723 2970 4723 
z
M 2150 3731 
Q 2067 3910 1888 4096 
L 2522 4275 
Q 2618 4058 2758 3878 
Q 2413 3789 2259 3731 
L 3725 3731 
Q 3917 4013 3994 4275 
Q 4326 4186 4685 4134 
Q 4749 4122 4749 4109 
Q 4749 4096 4704 4083 
Q 4493 4019 4288 3731 
Q 5248 3731 5888 3770 
L 5888 3290 
Q 5274 3341 3261 3341 
Q 1248 3341 557 3290 
L 557 3770 
Q 1133 3731 2150 3731 
z
M 5178 1069 
Q 4774 1101 3248 1101 
Q 1722 1101 1325 1069 
Q 1382 1229 1382 1510 
L 1382 2541 
Q 1382 2829 1325 2989 
Q 1722 2957 3248 2957 
Q 4774 2957 5178 2989 
Q 5114 2842 5114 2541 
L 5114 1510 
Q 5114 1216 5178 1069 
z
M 4634 2208 
L 4634 2566 
L 1862 2566 
L 1862 2208 
L 4634 2208 
z
M 1862 1830 
L 1862 1485 
L 4634 1485 
L 4634 1830 
L 1862 1830 
z
M 3846 461 
L 3226 256 
Q 3130 602 2906 890 
L 3494 1056 
Q 3757 582 3846 461 
z
M 6048 134 
L 5542 -224 
Q 5216 314 4851 666 
L 5293 909 
L 6048 134 
z
M 4902 339 
Q 4678 -294 4444 -390 
Q 4211 -486 2957 -486 
Q 2349 -486 2211 -451 
Q 2074 -416 2006 -374 
Q 1939 -333 1939 -70 
L 1939 461 
Q 1939 672 1901 838 
Q 2086 781 2195 768 
Q 2304 755 2435 755 
Q 2566 755 2566 732 
Q 2566 710 2499 665 
Q 2432 621 2432 525 
L 2432 282 
Q 2432 154 2464 77 
Q 2496 0 2573 -35 
Q 2650 -70 3002 -70 
Q 3354 -70 3696 -41 
Q 4038 -13 4124 22 
Q 4211 58 4256 173 
Q 4301 288 4339 582 
Q 4550 378 4902 339 
z
M 1568 621 
Q 1318 38 1056 -435 
L 518 -218 
Q 877 192 998 768 
L 1568 621 
z
" transform="scale(0.015625)"/>
      <path id="STHeiti-56fe" d="M 1299 -237 
L 1299 -538 
L 742 -538 
Q 794 26 794 518 
L 794 4134 
Q 794 4640 755 4934 
Q 1094 4864 3180 4864 
Q 5267 4864 5722 4934 
Q 5677 4602 5677 4134 
L 5677 563 
Q 5677 51 5728 -493 
L 5146 -493 
L 5146 -237 
L 1299 -237 
z
M 5146 186 
L 5146 4422 
L 1299 4422 
L 1299 186 
L 5146 186 
z
M 3328 2342 
Q 2560 1824 1734 1651 
Q 1619 1875 1466 2093 
Q 2323 2157 3002 2586 
Q 2669 2867 2477 3168 
Q 2195 2810 2067 2669 
Q 1901 2797 1645 2912 
Q 2362 3456 2733 4333 
Q 2957 4205 3126 4179 
Q 3296 4154 3296 4118 
Q 3296 4083 3209 4032 
Q 3123 3981 2989 3846 
L 4621 3846 
Q 4230 3072 3654 2598 
Q 4237 2304 5069 2208 
Q 4858 1952 4768 1677 
Q 3974 1907 3328 2342 
z
M 3309 2810 
Q 3661 3110 3904 3475 
L 2701 3475 
Q 2701 3469 2688 3456 
Q 2675 3443 2675 3437 
Q 2938 3072 3309 2810 
z
M 4064 1581 
L 3872 1184 
Q 3424 1395 2739 1613 
L 2938 1939 
Q 3443 1824 4064 1581 
z
M 4147 678 
L 3885 275 
Q 3130 666 2298 864 
L 2502 1242 
Q 3501 979 4147 678 
z
" transform="scale(0.015625)"/>
     </defs>
     <use xlink:href="#STHeiti-6570"/>
     <use xlink:href="#STHeiti-636e" x="99.999985"/>
     <use xlink:href="#STHeiti-96c6" x="199.999969"/>
     <use xlink:href="#STHeiti-5212" x="299.999954"/>
     <use xlink:href="#STHeiti-5206" x="399.999939"/>
     <use xlink:href="#STHeiti-793a" x="499.999924"/>
     <use xlink:href="#STHeiti-610f" x="599.999908"/>
     <use xlink:href="#STHeiti-56fe" x="699.999893"/>
    </g>
   </g>
  </g>
 </g>
 <defs>
  <clipPath id="pc0a35f50ce">
   <rect x="7.2" y="24.358437" width="558" height="277.2"/>
  </clipPath>
 </defs>
</svg>
