<svg xmlns:xlink="http://www.w3.org/1999/xlink" width="856.011562pt" height="351.04875pt" viewBox="0 0 856.011562 351.04875" xmlns="http://www.w3.org/2000/svg" version="1.1">
 <metadata>
  <rdf:RDF xmlns:dc="http://purl.org/dc/elements/1.1/" xmlns:cc="http://creativecommons.org/ns#" xmlns:rdf="http://www.w3.org/1999/02/22-rdf-syntax-ns#">
   <cc:Work>
    <dc:type rdf:resource="http://purl.org/dc/dcmitype/StillImage"/>
    <dc:date>2025-03-04T10:49:41.007369</dc:date>
    <dc:format>image/svg+xml</dc:format>
    <dc:creator>
     <cc:Agent>
      <dc:title>Matplotlib v3.7.1, https://matplotlib.org/</dc:title>
     </cc:Agent>
    </dc:creator>
   </cc:Work>
  </rdf:RDF>
 </metadata>
 <defs>
  <style type="text/css">*{stroke-linejoin: round; stroke-linecap: butt}</style>
 </defs>
 <g id="figure_1">
  <g id="patch_1">
   <path d="M 0 351.04875 
L 856.011562 351.04875 
L 856.011562 0 
L 0 0 
z
" style="fill: #ffffff"/>
  </g>
  <g id="axes_1">
   <g id="patch_2">
    <path d="M 41.351562 314.24875 
L 422.211562 314.24875 
L 422.211562 23.08875 
L 41.351562 23.08875 
z
" style="fill: #ffffff"/>
   </g>
   <g id="matplotlib.axis_1">
    <g id="xtick_1">
     <g id="line2d_1">
      <path d="M 97.134088 314.24875 
L 97.134088 23.08875 
" clip-path="url(#p9db51a763d)" style="fill: none; stroke: #b0b0b0; stroke-opacity: 0.3; stroke-width: 0.8; stroke-linecap: square"/>
     </g>
     <g id="line2d_2">
      <defs>
       <path id="m5c941f5a8e" d="M 0 0 
L 0 3.5 
" style="stroke: #000000; stroke-width: 0.8"/>
      </defs>
      <g>
       <use xlink:href="#m5c941f5a8e" x="97.134088" y="314.24875" style="stroke: #000000; stroke-width: 0.8"/>
      </g>
     </g>
     <g id="text_1">
      <!-- 0.2 -->
      <g transform="translate(90.208307 329.208125) scale(0.1 -0.1)">
       <defs>
        <path id="STHeiti-30" d="M 1747 269 
Q 1005 269 605 880 
Q 205 1491 205 2681 
Q 205 3872 605 4483 
Q 1005 5094 1741 5094 
Q 2477 5094 2909 4470 
Q 3341 3846 3341 2681 
Q 3341 1517 2905 893 
Q 2470 269 1747 269 
z
M 1760 4659 
Q 1229 4659 934 4147 
Q 640 3635 640 2669 
Q 640 685 1760 685 
Q 2304 685 2608 1206 
Q 2912 1728 2912 2681 
Q 2912 3635 2598 4147 
Q 2285 4659 1760 4659 
z
" transform="scale(0.015625)"/>
        <path id="STHeiti-2e" d="M 582 685 
Q 582 845 697 957 
Q 813 1069 969 1069 
Q 1126 1069 1238 957 
Q 1350 845 1350 681 
Q 1350 518 1238 406 
Q 1126 294 969 294 
Q 813 294 697 409 
Q 582 525 582 685 
z
" transform="scale(0.015625)"/>
        <path id="STHeiti-32" d="M 742 3539 
L 301 3539 
Q 333 4243 768 4668 
Q 1203 5094 1820 5094 
Q 2438 5094 2844 4694 
Q 3251 4294 3251 3718 
Q 3251 3290 3024 2925 
Q 2797 2560 2336 2061 
L 1190 826 
L 3315 826 
L 3315 384 
L 192 384 
L 1946 2278 
Q 2406 2778 2604 3066 
Q 2803 3354 2803 3725 
Q 2803 4096 2512 4377 
Q 2221 4659 1789 4659 
Q 1357 4659 1072 4368 
Q 787 4077 742 3539 
z
" transform="scale(0.015625)"/>
       </defs>
       <use xlink:href="#STHeiti-30"/>
       <use xlink:href="#STHeiti-2e" x="55.399994"/>
       <use xlink:href="#STHeiti-32" x="83.099991"/>
      </g>
     </g>
    </g>
    <g id="xtick_2">
     <g id="line2d_3">
      <path d="M 174.075502 314.24875 
L 174.075502 23.08875 
" clip-path="url(#p9db51a763d)" style="fill: none; stroke: #b0b0b0; stroke-opacity: 0.3; stroke-width: 0.8; stroke-linecap: square"/>
     </g>
     <g id="line2d_4">
      <g>
       <use xlink:href="#m5c941f5a8e" x="174.075502" y="314.24875" style="stroke: #000000; stroke-width: 0.8"/>
      </g>
     </g>
     <g id="text_2">
      <!-- 0.4 -->
      <g transform="translate(167.149721 329.208125) scale(0.1 -0.1)">
       <defs>
        <path id="STHeiti-34" d="M 2726 5094 
L 2816 5094 
L 2816 1894 
L 3373 1894 
L 3373 1453 
L 2816 1453 
L 2816 384 
L 2362 384 
L 2362 1453 
L 160 1453 
L 2726 5094 
z
M 2362 1894 
L 2362 3808 
L 1005 1894 
L 2362 1894 
z
" transform="scale(0.015625)"/>
       </defs>
       <use xlink:href="#STHeiti-30"/>
       <use xlink:href="#STHeiti-2e" x="55.399994"/>
       <use xlink:href="#STHeiti-34" x="83.099991"/>
      </g>
     </g>
    </g>
    <g id="xtick_3">
     <g id="line2d_5">
      <path d="M 251.016916 314.24875 
L 251.016916 23.08875 
" clip-path="url(#p9db51a763d)" style="fill: none; stroke: #b0b0b0; stroke-opacity: 0.3; stroke-width: 0.8; stroke-linecap: square"/>
     </g>
     <g id="line2d_6">
      <g>
       <use xlink:href="#m5c941f5a8e" x="251.016916" y="314.24875" style="stroke: #000000; stroke-width: 0.8"/>
      </g>
     </g>
     <g id="text_3">
      <!-- 0.6 -->
      <g transform="translate(244.091135 329.208125) scale(0.1 -0.1)">
       <defs>
        <path id="STHeiti-36" d="M 2349 5094 
L 2726 4851 
L 1485 2970 
Q 1747 3059 1984 3059 
Q 2496 3059 2880 2652 
Q 3264 2246 3264 1660 
Q 3264 1075 2845 672 
Q 2426 269 1827 269 
Q 1229 269 829 678 
Q 429 1088 429 1677 
Q 429 1958 537 2256 
Q 646 2554 954 3014 
L 2349 5094 
z
M 2810 1683 
Q 2810 2086 2528 2368 
Q 2246 2650 1843 2650 
Q 1440 2650 1158 2368 
Q 877 2086 877 1683 
Q 877 1280 1161 998 
Q 1446 717 1843 717 
Q 2240 717 2525 998 
Q 2810 1280 2810 1683 
z
" transform="scale(0.015625)"/>
       </defs>
       <use xlink:href="#STHeiti-30"/>
       <use xlink:href="#STHeiti-2e" x="55.399994"/>
       <use xlink:href="#STHeiti-36" x="83.099991"/>
      </g>
     </g>
    </g>
    <g id="xtick_4">
     <g id="line2d_7">
      <path d="M 327.95833 314.24875 
L 327.95833 23.08875 
" clip-path="url(#p9db51a763d)" style="fill: none; stroke: #b0b0b0; stroke-opacity: 0.3; stroke-width: 0.8; stroke-linecap: square"/>
     </g>
     <g id="line2d_8">
      <g>
       <use xlink:href="#m5c941f5a8e" x="327.95833" y="314.24875" style="stroke: #000000; stroke-width: 0.8"/>
      </g>
     </g>
     <g id="text_4">
      <!-- 0.8 -->
      <g transform="translate(321.032549 329.208125) scale(0.1 -0.1)">
       <defs>
        <path id="STHeiti-38" d="M 2458 2906 
Q 3328 2477 3328 1702 
Q 3328 1088 2896 678 
Q 2464 269 1763 269 
Q 1062 269 640 678 
Q 218 1088 218 1664 
Q 218 2470 1107 2906 
Q 435 3264 435 3898 
Q 435 4371 828 4732 
Q 1222 5094 1779 5094 
Q 2336 5094 2726 4742 
Q 3117 4390 3117 3885 
Q 3117 3270 2458 2906 
z
M 2656 3904 
Q 2656 4211 2416 4432 
Q 2176 4653 1789 4653 
Q 1402 4653 1152 4432 
Q 902 4211 902 3897 
Q 902 3584 1174 3337 
Q 1446 3091 1792 3091 
Q 2138 3091 2397 3334 
Q 2656 3578 2656 3904 
z
M 2867 1696 
Q 2867 2086 2550 2380 
Q 2234 2675 1782 2675 
Q 1331 2675 1004 2371 
Q 678 2067 678 1654 
Q 678 1242 979 973 
Q 1280 704 1766 704 
Q 2253 704 2560 992 
Q 2867 1280 2867 1696 
z
" transform="scale(0.015625)"/>
       </defs>
       <use xlink:href="#STHeiti-30"/>
       <use xlink:href="#STHeiti-2e" x="55.399994"/>
       <use xlink:href="#STHeiti-38" x="83.099991"/>
      </g>
     </g>
    </g>
    <g id="xtick_5">
     <g id="line2d_9">
      <path d="M 404.899744 314.24875 
L 404.899744 23.08875 
" clip-path="url(#p9db51a763d)" style="fill: none; stroke: #b0b0b0; stroke-opacity: 0.3; stroke-width: 0.8; stroke-linecap: square"/>
     </g>
     <g id="line2d_10">
      <g>
       <use xlink:href="#m5c941f5a8e" x="404.899744" y="314.24875" style="stroke: #000000; stroke-width: 0.8"/>
      </g>
     </g>
     <g id="text_5">
      <!-- 1.0 -->
      <g transform="translate(397.973963 329.208125) scale(0.1 -0.1)">
       <defs>
        <path id="STHeiti-31" d="M 1184 4979 
L 2086 4979 
L 2086 384 
L 1632 384 
L 1632 4531 
L 909 4531 
L 1184 4979 
z
" transform="scale(0.015625)"/>
       </defs>
       <use xlink:href="#STHeiti-31"/>
       <use xlink:href="#STHeiti-2e" x="55.399994"/>
       <use xlink:href="#STHeiti-30" x="83.099991"/>
      </g>
     </g>
    </g>
    <g id="text_6">
     <!-- 训练集大小 -->
     <g transform="translate(206.781562 342.508125) scale(0.1 -0.1)">
      <defs>
       <path id="STHeiti-8bad" d="M 2016 4256 
L 1434 3942 
Q 1203 4474 896 4883 
L 1414 5203 
Q 1760 4614 2016 4256 
z
M 5120 5171 
Q 5363 5120 5728 5120 
Q 5850 5120 5850 5088 
Q 5850 5056 5792 5008 
Q 5734 4960 5715 4921 
Q 5696 4883 5696 4794 
L 5696 595 
Q 5696 -192 5747 -608 
L 5120 -608 
Q 5171 -192 5171 595 
L 5171 4301 
Q 5171 4858 5120 5171 
z
M 2643 5043 
Q 2790 5018 2944 5008 
Q 3098 4998 3162 4998 
L 3264 5005 
Q 3322 5005 3322 4973 
Q 3322 4941 3286 4896 
Q 3251 4851 3235 4665 
Q 3219 4480 3206 3424 
Q 3194 2368 3146 1597 
Q 3098 826 2973 352 
Q 2848 -122 2566 -659 
Q 2362 -499 1978 -397 
Q 2336 154 2470 547 
Q 2605 941 2649 1760 
Q 2694 2579 2694 4058 
Q 2694 4685 2643 5043 
z
M 3878 4634 
Q 4045 4589 4448 4589 
Q 4570 4589 4570 4557 
Q 4570 4525 4502 4486 
Q 4435 4448 4435 4269 
L 4435 1139 
Q 4435 358 4486 -64 
L 3878 -64 
Q 3936 326 3936 1139 
L 3936 3776 
Q 3936 4358 3878 4634 
z
M 2464 896 
Q 1664 58 1280 -525 
Q 1126 -243 896 6 
Q 1062 141 1104 269 
Q 1146 397 1146 710 
L 1146 2848 
Q 531 2848 358 2816 
L 358 3379 
Q 570 3347 1043 3347 
Q 1517 3347 1734 3379 
Q 1664 3053 1664 2541 
L 1664 736 
L 2189 1376 
Q 2291 1062 2464 896 
z
" transform="scale(0.015625)"/>
       <path id="STHeiti-7ec3" d="M 4698 2272 
Q 5619 2278 5939 2323 
L 5939 1792 
Q 5651 1830 4698 1837 
L 4698 422 
Q 4698 0 4643 -173 
Q 4589 -346 4419 -422 
Q 4250 -499 3808 -576 
Q 3744 -275 3526 45 
Q 3776 13 3923 13 
Q 4070 13 4137 67 
Q 4205 122 4205 314 
L 4205 1837 
Q 3200 1811 2726 1715 
Q 2688 1984 2560 2202 
Q 2835 2349 3104 2906 
Q 2797 2893 2618 2867 
L 2618 3366 
Q 2989 3334 3296 3328 
Q 3411 3590 3546 3942 
Q 2976 3942 2464 3910 
L 2464 4422 
Q 2874 4371 3706 4365 
Q 3872 4832 3898 5254 
Q 4294 5094 4589 5043 
Q 4672 5030 4672 4982 
Q 4672 4934 4595 4896 
Q 4448 4826 4237 4365 
Q 5542 4365 5958 4429 
L 5958 3904 
Q 5485 3949 4064 3949 
Q 3898 3558 3789 3328 
Q 4499 3341 4736 3366 
Q 4698 3130 4698 2771 
L 4698 2272 
z
M 3584 2912 
Q 3405 2547 3200 2272 
L 4205 2272 
L 4205 2912 
L 3584 2912 
z
M 1427 3014 
L 1037 2976 
Q 730 2950 493 2886 
Q 448 3104 346 3373 
Q 506 3462 778 3974 
Q 1050 4486 1325 5242 
Q 1626 5056 1869 4973 
Q 1952 4941 1952 4905 
Q 1952 4870 1882 4845 
Q 1747 4800 896 3366 
L 1664 3424 
Q 1888 3814 2022 4122 
Q 2240 3930 2515 3821 
Q 2605 3789 2605 3757 
Q 2605 3725 2528 3705 
Q 2451 3686 2192 3340 
Q 1933 2995 1184 1888 
Q 1664 1920 2298 2003 
Q 2246 1811 2259 1542 
L 1229 1478 
Q 781 1446 595 1376 
Q 614 1677 467 1907 
Q 826 2003 1427 3014 
z
M 3258 1485 
Q 3475 1357 3821 1235 
Q 3878 1216 3878 1184 
Q 3878 1152 3814 1133 
Q 3680 1088 3514 851 
L 2688 -250 
Q 2496 -90 2221 13 
Q 2944 723 3258 1485 
z
M 6170 186 
L 5632 -96 
Q 5318 602 4896 1203 
L 5338 1421 
Q 5766 864 6170 186 
z
M 2387 973 
Q 2342 851 2342 707 
Q 2342 563 2362 467 
Q 922 186 442 -64 
Q 422 237 333 627 
Q 1043 640 2387 973 
z
" transform="scale(0.015625)"/>
       <path id="STHeiti-96c6" d="M 3949 4730 
L 3450 4410 
Q 3258 4666 2963 4902 
L 3437 5229 
Q 3661 4966 3949 4730 
z
M 1216 3322 
Q 1005 3027 800 2797 
Q 640 2963 333 3078 
Q 1382 3994 1734 5158 
Q 2029 5005 2240 4966 
Q 2349 4947 2349 4912 
Q 2349 4877 2246 4803 
Q 2144 4730 1901 4358 
L 3469 4358 
Q 5280 4358 5626 4390 
L 5626 3981 
Q 5050 4013 3584 4013 
L 3584 3590 
Q 4979 3590 5274 3622 
L 5274 3226 
Q 4774 3258 3584 3258 
L 3584 2861 
Q 5024 2861 5338 2893 
L 5338 2496 
Q 5024 2528 3584 2528 
L 3584 2099 
Q 5267 2099 5626 2131 
L 5626 1709 
Q 5030 1741 3450 1741 
L 1677 1741 
L 1677 1466 
L 1178 1466 
Q 1216 1747 1216 2138 
L 1216 3322 
z
M 1677 3590 
L 3130 3590 
L 3130 4013 
L 1677 4013 
L 1677 3590 
z
M 1677 3258 
L 1677 2861 
L 3130 2861 
L 3130 3258 
L 1677 3258 
z
M 1677 2528 
L 1677 2099 
L 3130 2099 
L 3130 2528 
L 1677 2528 
z
M 2502 826 
Q 1331 838 525 787 
L 525 1242 
Q 1421 1184 3040 1184 
Q 3040 1421 3014 1606 
Q 3238 1587 3597 1587 
Q 3686 1587 3686 1548 
Q 3686 1510 3606 1475 
Q 3526 1440 3526 1338 
L 3526 1184 
Q 5242 1184 5939 1216 
L 5939 787 
Q 5056 826 4006 826 
Q 4339 474 4860 272 
Q 5382 70 5971 64 
Q 5786 -160 5715 -499 
Q 4262 -218 3654 826 
L 3526 826 
L 3526 -83 
Q 3526 -320 3558 -614 
L 3008 -614 
Q 3046 -333 3046 -83 
L 3046 826 
L 2899 826 
Q 2310 45 858 -563 
Q 691 -262 416 -96 
Q 992 58 1593 320 
Q 2195 582 2502 826 
z
" transform="scale(0.015625)"/>
       <path id="STHeiti-5927" d="M 3264 2304 
Q 3078 1402 2560 739 
Q 2042 77 909 -486 
Q 723 -192 365 6 
Q 1370 275 2051 963 
Q 2733 1651 2829 3027 
Q 1427 3021 621 2970 
L 621 3584 
Q 1389 3533 2854 3520 
Q 2880 4051 2880 4454 
Q 2880 4858 2848 5158 
Q 3117 5120 3296 5120 
Q 3661 5120 3661 5094 
Q 3661 5069 3603 5024 
Q 3501 4947 3488 4659 
L 3411 3520 
Q 4973 3520 5773 3584 
L 5773 2970 
Q 4915 3027 3379 3027 
Q 3629 1946 4333 1171 
Q 5037 397 5997 237 
Q 5645 -6 5459 -448 
Q 4787 -115 4179 521 
Q 3571 1158 3264 2304 
z
" transform="scale(0.015625)"/>
       <path id="STHeiti-5c0f" d="M 2931 5114 
Q 3066 5094 3283 5094 
L 3667 5107 
Q 3757 5107 3757 5046 
Q 3757 4986 3683 4941 
Q 3610 4896 3584 4800 
Q 3558 4704 3558 4518 
L 3558 269 
Q 3558 -19 3491 -147 
Q 3424 -275 3200 -345 
Q 2976 -416 2432 -486 
Q 2381 -147 2176 166 
Q 2342 160 2464 160 
Q 2797 160 2889 217 
Q 2982 275 2982 435 
L 2982 4083 
Q 2982 4813 2931 5114 
z
M 1453 3571 
Q 1792 3450 1997 3424 
Q 2202 3398 2202 3344 
Q 2202 3290 2099 3232 
Q 1997 3174 1882 2835 
Q 1517 1715 1011 966 
Q 742 1101 442 1146 
Q 1235 2259 1453 3571 
z
M 6112 1306 
L 5504 1037 
Q 5056 2253 4352 3334 
L 4864 3552 
Q 5574 2451 6112 1306 
z
" transform="scale(0.015625)"/>
      </defs>
      <use xlink:href="#STHeiti-8bad"/>
      <use xlink:href="#STHeiti-7ec3" x="99.999985"/>
      <use xlink:href="#STHeiti-96c6" x="199.999969"/>
      <use xlink:href="#STHeiti-5927" x="299.999954"/>
      <use xlink:href="#STHeiti-5c0f" x="399.999939"/>
     </g>
    </g>
   </g>
   <g id="matplotlib.axis_2">
    <g id="ytick_1">
     <g id="line2d_11">
      <path d="M 41.351562 314.24875 
L 422.211562 314.24875 
" clip-path="url(#p9db51a763d)" style="fill: none; stroke: #b0b0b0; stroke-opacity: 0.3; stroke-width: 0.8; stroke-linecap: square"/>
     </g>
     <g id="line2d_12">
      <defs>
       <path id="m81cc559121" d="M 0 0 
L -3.5 0 
" style="stroke: #000000; stroke-width: 0.8"/>
      </defs>
      <g>
       <use xlink:href="#m81cc559121" x="41.351562" y="314.24875" style="stroke: #000000; stroke-width: 0.8"/>
      </g>
     </g>
     <g id="text_7">
      <!-- 0.0 -->
      <g transform="translate(20.5 318.228438) scale(0.1 -0.1)">
       <use xlink:href="#STHeiti-30"/>
       <use xlink:href="#STHeiti-2e" x="55.399994"/>
       <use xlink:href="#STHeiti-30" x="83.099991"/>
      </g>
     </g>
    </g>
    <g id="ytick_2">
     <g id="line2d_13">
      <path d="M 41.351562 256.01675 
L 422.211562 256.01675 
" clip-path="url(#p9db51a763d)" style="fill: none; stroke: #b0b0b0; stroke-opacity: 0.3; stroke-width: 0.8; stroke-linecap: square"/>
     </g>
     <g id="line2d_14">
      <g>
       <use xlink:href="#m81cc559121" x="41.351562" y="256.01675" style="stroke: #000000; stroke-width: 0.8"/>
      </g>
     </g>
     <g id="text_8">
      <!-- 0.2 -->
      <g transform="translate(20.5 259.996438) scale(0.1 -0.1)">
       <use xlink:href="#STHeiti-30"/>
       <use xlink:href="#STHeiti-2e" x="55.399994"/>
       <use xlink:href="#STHeiti-32" x="83.099991"/>
      </g>
     </g>
    </g>
    <g id="ytick_3">
     <g id="line2d_15">
      <path d="M 41.351562 197.78475 
L 422.211562 197.78475 
" clip-path="url(#p9db51a763d)" style="fill: none; stroke: #b0b0b0; stroke-opacity: 0.3; stroke-width: 0.8; stroke-linecap: square"/>
     </g>
     <g id="line2d_16">
      <g>
       <use xlink:href="#m81cc559121" x="41.351562" y="197.78475" style="stroke: #000000; stroke-width: 0.8"/>
      </g>
     </g>
     <g id="text_9">
      <!-- 0.4 -->
      <g transform="translate(20.5 201.764438) scale(0.1 -0.1)">
       <use xlink:href="#STHeiti-30"/>
       <use xlink:href="#STHeiti-2e" x="55.399994"/>
       <use xlink:href="#STHeiti-34" x="83.099991"/>
      </g>
     </g>
    </g>
    <g id="ytick_4">
     <g id="line2d_17">
      <path d="M 41.351562 139.55275 
L 422.211562 139.55275 
" clip-path="url(#p9db51a763d)" style="fill: none; stroke: #b0b0b0; stroke-opacity: 0.3; stroke-width: 0.8; stroke-linecap: square"/>
     </g>
     <g id="line2d_18">
      <g>
       <use xlink:href="#m81cc559121" x="41.351562" y="139.55275" style="stroke: #000000; stroke-width: 0.8"/>
      </g>
     </g>
     <g id="text_10">
      <!-- 0.6 -->
      <g transform="translate(20.5 143.532437) scale(0.1 -0.1)">
       <use xlink:href="#STHeiti-30"/>
       <use xlink:href="#STHeiti-2e" x="55.399994"/>
       <use xlink:href="#STHeiti-36" x="83.099991"/>
      </g>
     </g>
    </g>
    <g id="ytick_5">
     <g id="line2d_19">
      <path d="M 41.351562 81.32075 
L 422.211562 81.32075 
" clip-path="url(#p9db51a763d)" style="fill: none; stroke: #b0b0b0; stroke-opacity: 0.3; stroke-width: 0.8; stroke-linecap: square"/>
     </g>
     <g id="line2d_20">
      <g>
       <use xlink:href="#m81cc559121" x="41.351562" y="81.32075" style="stroke: #000000; stroke-width: 0.8"/>
      </g>
     </g>
     <g id="text_11">
      <!-- 0.8 -->
      <g transform="translate(20.5 85.300438) scale(0.1 -0.1)">
       <use xlink:href="#STHeiti-30"/>
       <use xlink:href="#STHeiti-2e" x="55.399994"/>
       <use xlink:href="#STHeiti-38" x="83.099991"/>
      </g>
     </g>
    </g>
    <g id="ytick_6">
     <g id="line2d_21">
      <path d="M 41.351562 23.08875 
L 422.211562 23.08875 
" clip-path="url(#p9db51a763d)" style="fill: none; stroke: #b0b0b0; stroke-opacity: 0.3; stroke-width: 0.8; stroke-linecap: square"/>
     </g>
     <g id="line2d_22">
      <g>
       <use xlink:href="#m81cc559121" x="41.351562" y="23.08875" style="stroke: #000000; stroke-width: 0.8"/>
      </g>
     </g>
     <g id="text_12">
      <!-- 1.0 -->
      <g transform="translate(20.5 27.068438) scale(0.1 -0.1)">
       <use xlink:href="#STHeiti-31"/>
       <use xlink:href="#STHeiti-2e" x="55.399994"/>
       <use xlink:href="#STHeiti-30" x="83.099991"/>
      </g>
     </g>
    </g>
    <g id="text_13">
     <!-- 错误率 -->
     <g transform="translate(15.159375 183.66875) rotate(-90) scale(0.1 -0.1)">
      <defs>
       <path id="STHeiti-9519" d="M 1210 3795 
Q 864 3296 544 2918 
Q 429 3187 269 3360 
Q 576 3635 899 4166 
Q 1222 4698 1395 5222 
Q 1664 5050 1827 5005 
Q 1990 4960 1990 4912 
Q 1990 4864 1916 4809 
Q 1843 4755 1491 4218 
Q 2099 4218 2413 4250 
L 2413 3763 
Q 1958 3795 1210 3795 
z
M 3802 4224 
L 4602 4224 
Q 4602 4832 4538 5152 
Q 4730 5094 5139 5094 
Q 5197 5094 5197 5065 
Q 5197 5037 5158 5005 
Q 5120 4973 5097 4873 
Q 5075 4774 5075 4698 
L 5075 4230 
Q 5606 4243 5811 4282 
L 5811 3763 
Q 5594 3802 5075 3814 
L 5075 2995 
Q 5850 2995 6106 3053 
L 6106 2541 
Q 5824 2598 4397 2598 
Q 2970 2598 2630 2541 
L 2630 3053 
Q 2938 3008 3328 3002 
L 3328 3814 
Q 3085 3802 2726 3763 
L 2726 4282 
Q 2906 4256 3328 4230 
Q 3328 4832 3264 5146 
Q 3514 5088 3891 5088 
Q 3942 5088 3942 5059 
Q 3942 5030 3900 4992 
Q 3859 4954 3830 4858 
Q 3802 4762 3802 4691 
L 3802 4224 
z
M 4602 3821 
L 3802 3821 
L 3802 2995 
L 4602 2995 
L 4602 3821 
z
M 1677 1638 
L 1677 371 
Q 2163 691 2502 1069 
Q 2522 755 2605 525 
L 1747 -166 
Q 1421 -435 1344 -589 
Q 1184 -269 954 -134 
Q 1069 -32 1126 115 
Q 1184 262 1184 582 
L 1184 1632 
Q 730 1619 486 1587 
L 486 2080 
Q 781 2035 1184 2029 
L 1184 2746 
Q 966 2739 819 2707 
L 819 3200 
Q 1062 3155 1571 3155 
Q 2080 3155 2323 3200 
L 2323 2707 
Q 2054 2752 1677 2752 
L 1677 2029 
Q 2227 2035 2586 2080 
L 2586 1587 
Q 2227 1632 1677 1638 
z
M 3405 -166 
L 3405 -595 
L 2912 -595 
Q 2957 -269 2957 262 
L 2957 1427 
Q 2957 1888 2925 2144 
Q 3168 2099 4240 2099 
Q 5312 2099 5555 2144 
Q 5523 1907 5523 1427 
L 5523 307 
Q 5523 -154 5568 -550 
L 5069 -550 
L 5069 -166 
L 3405 -166 
z
M 5069 1184 
L 5069 1696 
L 3405 1696 
L 3405 1184 
L 5069 1184 
z
M 3405 768 
L 3405 250 
L 5069 250 
L 5069 768 
L 3405 768 
z
" transform="scale(0.015625)"/>
       <path id="STHeiti-8bef" d="M 1830 4077 
L 1261 3770 
Q 1088 4218 723 4762 
L 1254 5050 
Q 1536 4506 1830 4077 
z
M 5466 3104 
Q 5030 3136 4012 3136 
Q 2995 3136 2387 3104 
Q 2406 3456 2406 4025 
Q 2406 4595 2387 4922 
Q 2797 4883 3923 4883 
Q 5050 4883 5466 4922 
Q 5434 4410 5434 3942 
Q 5434 3475 5466 3104 
z
M 4896 3578 
L 4896 4429 
L 2938 4429 
L 2938 3578 
L 4896 3578 
z
M 2112 691 
L 1459 0 
Q 1178 -307 1107 -461 
Q 928 -173 717 32 
Q 832 128 880 240 
Q 928 352 928 813 
L 928 2861 
Q 570 2861 314 2829 
L 314 3354 
Q 595 3322 928 3322 
Q 1261 3322 1536 3354 
Q 1466 3053 1466 2586 
L 1466 678 
Q 1728 979 1869 1222 
Q 1952 877 2112 691 
z
M 3962 1318 
Q 3802 723 3376 272 
Q 2950 -179 2112 -621 
Q 1978 -397 1683 -198 
Q 3136 384 3437 1318 
Q 2541 1306 1984 1267 
L 1984 1805 
Q 2451 1773 3526 1760 
Q 3584 2163 3590 2310 
Q 2675 2298 2278 2266 
L 2278 2797 
Q 2784 2752 3974 2752 
Q 5165 2752 5651 2797 
L 5651 2266 
Q 5248 2298 4147 2310 
Q 4115 2010 4064 1760 
Q 5165 1741 6003 1805 
L 6003 1267 
Q 5446 1306 4358 1318 
Q 4896 333 6003 26 
Q 5747 -250 5658 -602 
Q 5043 -301 4585 217 
Q 4128 736 3962 1318 
z
" transform="scale(0.015625)"/>
       <path id="STHeiti-7387" d="M 3066 4621 
Q 2970 4934 2867 5152 
L 3526 5254 
Q 3546 4902 3616 4621 
Q 5018 4627 5837 4685 
L 5837 4115 
Q 4941 4179 3277 4179 
Q 1613 4179 678 4115 
L 678 4685 
Q 1568 4621 3066 4621 
z
M 3046 2790 
L 2662 2739 
Q 2195 2675 2106 2637 
Q 2106 2854 2010 3059 
Q 2336 3155 2842 4128 
Q 3110 3955 3251 3913 
Q 3392 3872 3392 3846 
Q 3392 3821 3251 3769 
Q 3110 3718 2944 3497 
Q 2778 3277 2573 3085 
L 3373 3142 
Q 3686 3501 3859 3770 
Q 4077 3546 4307 3443 
Q 4397 3405 4397 3360 
Q 4397 3315 4307 3308 
Q 4218 3302 3965 3126 
Q 3712 2950 3411 2636 
Q 3110 2323 2624 1952 
L 3808 2035 
Q 3661 2278 3552 2413 
L 3942 2656 
Q 4211 2176 4595 1600 
L 4141 1389 
Q 4109 1466 4000 1683 
L 3456 1651 
L 3456 1018 
Q 5126 1018 5990 1075 
L 5990 518 
Q 5126 576 3456 576 
Q 3469 -160 3520 -691 
L 2886 -691 
Q 2944 -70 2944 576 
Q 1325 563 506 518 
L 506 1075 
Q 1331 1030 2950 1018 
L 2950 1613 
Q 2419 1574 2093 1491 
Q 2048 1786 1933 1965 
Q 2157 1965 2377 2147 
Q 2598 2330 3046 2790 
z
M 5248 3898 
Q 5453 3629 5709 3475 
Q 5760 3443 5760 3414 
Q 5760 3386 5677 3386 
Q 5594 3386 5389 3296 
Q 5184 3206 4755 2803 
Q 4595 3002 4384 3117 
Q 4934 3482 5248 3898 
z
M 1958 3238 
L 1587 2848 
Q 1261 3219 877 3507 
L 1222 3859 
Q 1517 3558 1958 3238 
z
M 5811 1933 
L 5414 1485 
Q 5030 1920 4461 2291 
L 4826 2675 
Q 5242 2317 5811 1933 
z
M 2003 2170 
Q 1824 2099 1024 1350 
Q 890 1645 704 1888 
Q 1018 2003 1357 2272 
Q 1696 2541 1798 2662 
Q 1830 2413 2003 2170 
z
" transform="scale(0.015625)"/>
      </defs>
      <use xlink:href="#STHeiti-9519"/>
      <use xlink:href="#STHeiti-8bef" x="99.999985"/>
      <use xlink:href="#STHeiti-7387" x="199.999969"/>
     </g>
    </g>
   </g>
   <g id="line2d_23">
    <path d="M 58.663381 119.644038 
L 97.134088 123.457821 
L 135.604795 126.38424 
L 174.075502 128.851325 
L 212.546209 131.024871 
L 251.016916 132.989907 
L 289.487623 134.796943 
L 327.95833 136.478892 
L 366.429037 138.058613 
L 404.899744 139.55275 
" clip-path="url(#p9db51a763d)" style="fill: none; stroke: #0000ff; stroke-width: 1.5; stroke-linecap: square"/>
    <defs>
     <path id="md2583c2ca2" d="M 0 3 
C 0.795609 3 1.55874 2.683901 2.12132 2.12132 
C 2.683901 1.55874 3 0.795609 3 0 
C 3 -0.795609 2.683901 -1.55874 2.12132 -2.12132 
C 1.55874 -2.683901 0.795609 -3 0 -3 
C -0.795609 -3 -1.55874 -2.683901 -2.12132 -2.12132 
C -2.683901 -1.55874 -3 -0.795609 -3 0 
C -3 0.795609 -2.683901 1.55874 -2.12132 2.12132 
C -1.55874 2.683901 -0.795609 3 0 3 
z
" style="stroke: #0000ff"/>
    </defs>
    <g clip-path="url(#p9db51a763d)">
     <use xlink:href="#md2583c2ca2" x="58.663381" y="119.644038" style="fill: #0000ff; stroke: #0000ff"/>
     <use xlink:href="#md2583c2ca2" x="97.134088" y="123.457821" style="fill: #0000ff; stroke: #0000ff"/>
     <use xlink:href="#md2583c2ca2" x="135.604795" y="126.38424" style="fill: #0000ff; stroke: #0000ff"/>
     <use xlink:href="#md2583c2ca2" x="174.075502" y="128.851325" style="fill: #0000ff; stroke: #0000ff"/>
     <use xlink:href="#md2583c2ca2" x="212.546209" y="131.024871" style="fill: #0000ff; stroke: #0000ff"/>
     <use xlink:href="#md2583c2ca2" x="251.016916" y="132.989907" style="fill: #0000ff; stroke: #0000ff"/>
     <use xlink:href="#md2583c2ca2" x="289.487623" y="134.796943" style="fill: #0000ff; stroke: #0000ff"/>
     <use xlink:href="#md2583c2ca2" x="327.95833" y="136.478892" style="fill: #0000ff; stroke: #0000ff"/>
     <use xlink:href="#md2583c2ca2" x="366.429037" y="138.058613" style="fill: #0000ff; stroke: #0000ff"/>
     <use xlink:href="#md2583c2ca2" x="404.899744" y="139.55275" style="fill: #0000ff; stroke: #0000ff"/>
    </g>
   </g>
   <g id="line2d_24">
    <path d="M 58.663381 134.202038 
L 97.134088 138.015821 
L 135.604795 140.94224 
L 174.075502 143.409325 
L 212.546209 145.582871 
L 251.016916 147.547907 
L 289.487623 149.354943 
L 327.95833 151.036892 
L 366.429037 152.616613 
L 404.899744 154.11075 
" clip-path="url(#p9db51a763d)" style="fill: none; stroke: #ff0000; stroke-width: 1.5; stroke-linecap: square"/>
    <defs>
     <path id="mb25e9c4a88" d="M 0 3 
C 0.795609 3 1.55874 2.683901 2.12132 2.12132 
C 2.683901 1.55874 3 0.795609 3 0 
C 3 -0.795609 2.683901 -1.55874 2.12132 -2.12132 
C 1.55874 -2.683901 0.795609 -3 0 -3 
C -0.795609 -3 -1.55874 -2.683901 -2.12132 -2.12132 
C -2.683901 -1.55874 -3 -0.795609 -3 0 
C -3 0.795609 -2.683901 1.55874 -2.12132 2.12132 
C -1.55874 2.683901 -0.795609 3 0 3 
z
" style="stroke: #ff0000"/>
    </defs>
    <g clip-path="url(#p9db51a763d)">
     <use xlink:href="#mb25e9c4a88" x="58.663381" y="134.202038" style="fill: #ff0000; stroke: #ff0000"/>
     <use xlink:href="#mb25e9c4a88" x="97.134088" y="138.015821" style="fill: #ff0000; stroke: #ff0000"/>
     <use xlink:href="#mb25e9c4a88" x="135.604795" y="140.94224" style="fill: #ff0000; stroke: #ff0000"/>
     <use xlink:href="#mb25e9c4a88" x="174.075502" y="143.409325" style="fill: #ff0000; stroke: #ff0000"/>
     <use xlink:href="#mb25e9c4a88" x="212.546209" y="145.582871" style="fill: #ff0000; stroke: #ff0000"/>
     <use xlink:href="#mb25e9c4a88" x="251.016916" y="147.547907" style="fill: #ff0000; stroke: #ff0000"/>
     <use xlink:href="#mb25e9c4a88" x="289.487623" y="149.354943" style="fill: #ff0000; stroke: #ff0000"/>
     <use xlink:href="#mb25e9c4a88" x="327.95833" y="151.036892" style="fill: #ff0000; stroke: #ff0000"/>
     <use xlink:href="#mb25e9c4a88" x="366.429037" y="152.616613" style="fill: #ff0000; stroke: #ff0000"/>
     <use xlink:href="#mb25e9c4a88" x="404.899744" y="154.11075" style="fill: #ff0000; stroke: #ff0000"/>
    </g>
   </g>
   <g id="patch_3">
    <path d="M 41.351562 314.24875 
L 41.351562 23.08875 
" style="fill: none; stroke: #000000; stroke-width: 0.8; stroke-linejoin: miter; stroke-linecap: square"/>
   </g>
   <g id="patch_4">
    <path d="M 422.211562 314.24875 
L 422.211562 23.08875 
" style="fill: none; stroke: #000000; stroke-width: 0.8; stroke-linejoin: miter; stroke-linecap: square"/>
   </g>
   <g id="patch_5">
    <path d="M 41.351562 314.24875 
L 422.211562 314.24875 
" style="fill: none; stroke: #000000; stroke-width: 0.8; stroke-linejoin: miter; stroke-linecap: square"/>
   </g>
   <g id="patch_6">
    <path d="M 41.351562 23.08875 
L 422.211562 23.08875 
" style="fill: none; stroke: #000000; stroke-width: 0.8; stroke-linejoin: miter; stroke-linecap: square"/>
   </g>
   <g id="text_14">
    <!-- 高偏差模型(欠拟合) -->
    <g transform="translate(179.352812 17.08875) scale(0.12 -0.12)">
     <defs>
      <path id="STHeiti-9ad8" d="M 3558 4621 
Q 5421 4634 5843 4672 
L 5843 4147 
Q 5440 4186 3414 4186 
Q 1389 4186 493 4122 
L 493 4672 
Q 1274 4621 2944 4621 
Q 2842 4979 2720 5165 
L 3507 5254 
Q 3507 5018 3558 4621 
z
M 4909 3846 
Q 4870 3584 4870 3257 
Q 4870 2931 4915 2573 
Q 4314 2611 3232 2611 
Q 2150 2611 1434 2560 
Q 1485 2835 1485 3187 
Q 1485 3539 1446 3834 
Q 2074 3776 3088 3776 
Q 4102 3776 4909 3846 
z
M 1997 3418 
L 1997 3002 
L 4378 3002 
L 4378 3418 
L 1997 3418 
z
M 4442 -621 
Q 4461 -550 4461 -486 
Q 4461 -301 4262 -45 
Q 4506 -64 4691 -64 
Q 4877 -64 4941 -6 
Q 5005 51 5005 205 
L 5005 1811 
L 1350 1811 
L 1350 -576 
L 774 -576 
Q 832 -109 832 320 
L 832 1664 
Q 832 1990 781 2278 
Q 1632 2214 3254 2214 
Q 4877 2214 5606 2285 
Q 5549 2042 5549 1664 
L 5549 147 
Q 5549 -166 5488 -304 
Q 5427 -442 5203 -512 
Q 4979 -582 4442 -621 
z
M 4416 1440 
Q 4384 1120 4384 784 
Q 4384 448 4422 109 
Q 4096 134 3267 134 
Q 2438 134 1920 96 
Q 1952 429 1952 761 
Q 1952 1094 1926 1427 
Q 2227 1376 3126 1376 
Q 4026 1376 4416 1440 
z
M 2438 992 
L 2438 525 
L 3898 525 
L 3898 992 
L 2438 992 
z
" transform="scale(0.015625)"/>
      <path id="STHeiti-504f" d="M 4378 1037 
L 3891 1037 
Q 3891 448 3923 -13 
L 3405 -13 
Q 3450 416 3450 1037 
L 2886 1037 
L 2886 -544 
L 2381 -544 
Q 2445 -83 2445 339 
L 2445 1786 
Q 2266 1286 1907 646 
Q 1811 890 1619 1101 
Q 1997 1626 2160 2314 
Q 2323 3002 2323 3584 
Q 2323 4166 2272 4576 
Q 2502 4531 3840 4531 
Q 3770 4826 3648 5101 
L 4173 5248 
Q 4282 4915 4371 4531 
Q 5331 4531 5626 4576 
Q 5594 4160 5594 3817 
Q 5594 3475 5626 3066 
Q 5434 3104 4454 3104 
L 2752 3104 
Q 2726 2880 2662 2586 
L 4230 2586 
Q 5235 2586 5850 2624 
L 5850 179 
Q 5850 -173 5802 -313 
Q 5754 -454 5603 -508 
Q 5453 -563 5043 -614 
Q 5018 -333 4813 -77 
Q 4998 -90 5136 -90 
Q 5274 -90 5341 -45 
Q 5408 0 5408 173 
L 5408 1037 
L 4819 1037 
Q 4819 474 4851 6 
L 4339 6 
Q 4378 582 4378 1037 
z
M 5152 3507 
L 5152 4128 
L 2765 4128 
L 2765 3507 
L 5152 3507 
z
M 4819 1421 
L 5408 1421 
L 5408 2202 
L 4819 2202 
L 4819 1421 
z
M 3891 1421 
L 4378 1421 
L 4378 2202 
L 3891 2202 
L 3891 1421 
z
M 2886 1421 
L 3450 1421 
L 3450 2202 
L 2886 2202 
L 2886 1421 
z
M 1146 2970 
Q 838 2387 627 2086 
Q 506 2310 243 2490 
Q 589 2874 944 3597 
Q 1299 4320 1549 5094 
Q 1824 4979 2074 4941 
Q 2176 4928 2176 4889 
Q 2176 4851 2067 4742 
Q 1958 4634 1581 3859 
L 1581 -595 
L 1075 -595 
Q 1146 96 1146 762 
L 1146 2970 
z
" transform="scale(0.015625)"/>
      <path id="STHeiti-5dee" d="M 2848 3898 
Q 1523 3898 755 3840 
L 755 4352 
Q 1434 4288 3571 4288 
Q 3866 4698 4013 5190 
Q 4378 5062 4640 5011 
Q 4717 4998 4717 4966 
Q 4717 4934 4627 4902 
Q 4480 4851 4038 4294 
Q 4947 4301 5562 4352 
L 5562 3840 
Q 4896 3898 3360 3898 
Q 3322 3686 3238 3392 
Q 4666 3392 5344 3450 
L 5344 2938 
Q 4614 2995 3104 2995 
Q 2989 2682 2848 2432 
Q 5152 2432 5869 2490 
L 5869 1971 
Q 5197 2022 2611 2022 
Q 2259 1466 1849 1030 
Q 1440 595 736 83 
Q 608 339 333 493 
Q 1523 1165 2086 2016 
Q 1126 2010 550 1971 
L 550 2490 
Q 1350 2445 2336 2438 
Q 2483 2701 2598 2995 
Q 1651 2989 1056 2938 
L 1056 3450 
Q 1715 3398 2739 3392 
Q 2810 3648 2848 3898 
z
M 2765 4544 
L 2227 4333 
Q 2099 4614 1850 4896 
L 2394 5165 
Q 2528 4883 2765 4544 
z
M 3814 1075 
L 3814 115 
Q 5043 115 5747 173 
L 5747 -365 
Q 4979 -307 3587 -307 
Q 2195 -307 1427 -365 
L 1427 173 
Q 2144 122 3315 115 
L 3315 1069 
Q 2752 1069 2291 1018 
L 2291 1478 
L 3776 1478 
Q 4723 1478 5267 1536 
L 5267 1018 
Q 4730 1075 3814 1075 
z
" transform="scale(0.015625)"/>
      <path id="STHeiti-6a21" d="M 4909 4461 
Q 5683 4461 6048 4512 
L 6048 4019 
Q 5626 4077 4909 4077 
L 4909 3546 
Q 5376 3558 5600 3578 
Q 5574 3238 5574 2640 
Q 5574 2042 5600 1626 
Q 5165 1651 4218 1651 
Q 4198 1440 4147 1216 
Q 5440 1216 6035 1280 
L 6035 781 
Q 5523 845 4416 845 
Q 4941 102 6086 38 
Q 5798 -243 5786 -570 
Q 4461 -198 4038 826 
Q 3859 352 3449 32 
Q 3040 -288 2278 -550 
Q 2170 -275 1952 -51 
Q 2662 102 3036 310 
Q 3411 518 3565 845 
Q 2822 845 2157 781 
L 2157 1280 
Q 2605 1222 3674 1216 
Q 3706 1440 3706 1651 
Q 3085 1651 2682 1632 
Q 2701 2099 2701 2627 
Q 2701 3155 2682 3578 
Q 3053 3552 3315 3546 
L 3315 4077 
Q 2656 4051 2426 4019 
L 2426 4512 
Q 2714 4474 3315 4461 
Q 3315 4851 3277 5114 
Q 3610 5075 3808 5075 
Q 3872 5075 3872 5043 
Q 3872 5011 3817 4979 
Q 3763 4947 3763 4851 
L 3763 4461 
L 4461 4461 
Q 4461 4858 4422 5114 
Q 4755 5075 4954 5075 
Q 5018 5075 5018 5043 
Q 5018 5011 4963 4979 
Q 4909 4947 4909 4851 
L 4909 4461 
z
M 4461 4077 
L 3763 4077 
L 3763 3546 
L 4461 3546 
L 4461 4077 
z
M 5120 2784 
L 5120 3181 
L 3149 3181 
L 3149 2784 
L 5120 2784 
z
M 3149 2419 
L 3149 2016 
L 5120 2016 
L 5120 2419 
L 3149 2419 
z
M 1190 2317 
Q 934 1510 614 992 
Q 506 1248 218 1408 
Q 550 1760 768 2205 
Q 986 2650 1184 3373 
Q 800 3366 480 3322 
L 480 3814 
Q 723 3770 1190 3763 
Q 1190 4755 1139 5094 
Q 1338 5069 1485 5069 
L 1734 5082 
Q 1818 5082 1818 5037 
Q 1818 4992 1744 4925 
Q 1670 4858 1670 4749 
L 1670 3763 
Q 2157 3770 2400 3814 
L 2400 3322 
Q 2067 3366 1670 3366 
L 1670 659 
Q 1670 160 1734 -544 
L 1126 -544 
Q 1190 160 1190 659 
L 1190 2317 
z
M 2048 2771 
Q 2317 2304 2522 1850 
L 2106 1632 
Q 1984 2093 1690 2566 
L 2048 2771 
z
" transform="scale(0.015625)"/>
      <path id="STHeiti-578b" d="M 5114 5146 
Q 5267 5114 5414 5114 
L 5683 5114 
Q 5766 5114 5766 5069 
Q 5766 5024 5712 4969 
Q 5658 4915 5658 4787 
L 5658 2272 
Q 5658 2010 5584 1885 
Q 5510 1760 5318 1702 
Q 5126 1645 4710 1600 
Q 4698 1952 4474 2202 
Q 4659 2163 4794 2163 
Q 5165 2163 5165 2438 
L 5165 4102 
Q 5165 4742 5114 5146 
z
M 1421 4474 
Q 966 4480 723 4429 
L 723 4928 
Q 1062 4883 2240 4883 
Q 3418 4883 3622 4928 
L 3622 4429 
Q 3443 4454 3091 4467 
L 3091 3469 
Q 3590 3482 3744 3507 
L 3744 3014 
Q 3488 3040 3091 3040 
Q 3085 2586 3136 1965 
L 2573 1965 
Q 2630 2502 2618 3046 
L 1888 3046 
Q 1760 2086 723 1466 
Q 595 1734 371 1850 
Q 1306 2451 1402 3046 
Q 755 3046 493 3014 
L 493 3507 
Q 819 3469 1421 3469 
L 1421 4474 
z
M 2618 4474 
L 1907 4474 
L 1907 3469 
L 2618 3469 
L 2618 4474 
z
M 4013 4762 
Q 4250 4710 4557 4710 
Q 4627 4710 4627 4668 
Q 4627 4627 4579 4595 
Q 4531 4563 4531 4416 
L 4531 3290 
Q 4531 2842 4563 2483 
L 4032 2483 
Q 4064 2861 4064 3290 
L 4064 4058 
Q 4064 4506 4013 4762 
z
M 3021 832 
Q 1632 832 1133 787 
L 1133 1312 
Q 1645 1267 3021 1267 
Q 3008 1664 2982 1824 
Q 3258 1786 3571 1786 
Q 3667 1786 3667 1750 
Q 3667 1715 3619 1680 
Q 3571 1645 3542 1577 
Q 3514 1510 3514 1453 
L 3514 1267 
Q 4723 1267 5350 1312 
L 5350 787 
Q 4723 832 3514 832 
L 3514 122 
Q 5197 122 6048 166 
L 6048 -352 
Q 5139 -307 3388 -307 
Q 1638 -307 486 -352 
L 486 166 
Q 1299 122 3021 122 
L 3021 832 
z
" transform="scale(0.015625)"/>
      <path id="STHeiti-28" d="M 1466 5370 
L 1978 5370 
Q 1651 4704 1475 3865 
Q 1299 3027 1299 2176 
Q 1299 506 1824 -762 
L 1338 -762 
Q 832 480 832 2118 
Q 832 3891 1466 5370 
z
" transform="scale(0.015625)"/>
      <path id="STHeiti-6b20" d="M 2266 3962 
L 4506 3962 
Q 5235 3962 5606 4013 
L 5178 2656 
L 4570 2656 
L 4819 3482 
L 1984 3482 
Q 1568 2829 1171 2330 
Q 966 2509 666 2662 
Q 1683 3616 2150 5197 
Q 2534 5030 2822 4986 
Q 2906 4973 2906 4934 
Q 2906 4896 2835 4851 
Q 2682 4755 2266 3962 
z
M 3443 2765 
Q 3443 1734 4118 1059 
Q 4794 384 5971 218 
Q 5696 -83 5549 -474 
Q 3603 173 3238 1754 
Q 3040 947 2509 416 
Q 1978 -115 896 -589 
Q 819 -333 467 -83 
Q 1523 237 2028 694 
Q 2534 1152 2694 1805 
Q 2854 2458 2854 2976 
Q 2854 3091 2848 3219 
Q 3117 3162 3392 3162 
L 3571 3168 
Q 3635 3168 3635 3126 
Q 3635 3085 3571 3037 
Q 3507 2989 3443 2765 
z
" transform="scale(0.015625)"/>
      <path id="STHeiti-62df" d="M 1818 2355 
Q 2125 2477 2470 2637 
Q 2458 2554 2458 2435 
Q 2458 2317 2541 2157 
Q 2272 2074 1818 1875 
L 1818 -45 
Q 1818 -205 1754 -288 
Q 1690 -371 1501 -422 
Q 1312 -474 909 -518 
Q 890 -230 646 115 
Q 947 64 1084 64 
Q 1222 64 1280 102 
Q 1338 141 1338 288 
L 1338 1658 
Q 813 1402 595 1261 
Q 531 1568 378 1869 
Q 877 2016 1338 2176 
L 1338 3398 
Q 781 3386 474 3341 
L 474 3885 
Q 730 3846 1338 3834 
Q 1338 4890 1274 5133 
Q 1504 5088 1862 5088 
Q 1997 5088 1997 5043 
Q 1997 5011 1907 4944 
Q 1818 4877 1818 4685 
L 1818 3834 
Q 2214 3840 2490 3885 
L 2490 3341 
Q 2214 3386 1818 3392 
L 1818 2355 
z
M 5043 794 
Q 4646 179 3258 -627 
Q 3110 -384 2816 -186 
Q 3770 141 4250 601 
Q 4730 1062 4864 1833 
Q 4998 2605 4998 3587 
Q 4998 4570 4947 5056 
Q 5158 4992 5606 4992 
Q 5715 4992 5715 4944 
Q 5715 4896 5648 4854 
Q 5581 4813 5523 3680 
Q 5466 2547 5411 2028 
Q 5357 1510 5274 1274 
Q 5619 845 6144 109 
L 5574 -224 
Q 5389 192 5043 794 
z
M 4499 3315 
L 4019 3117 
Q 3757 4243 3494 4883 
L 3968 5043 
Q 4256 4314 4499 3315 
z
M 4320 1664 
L 3456 768 
Q 3238 550 3002 218 
Q 2842 525 2656 736 
Q 2733 832 2768 934 
Q 2803 1037 2803 1254 
L 2803 3533 
Q 2803 4077 2771 4301 
Q 2976 4256 3379 4256 
Q 3475 4256 3475 4221 
Q 3475 4186 3424 4147 
Q 3296 4058 3296 3917 
L 3296 1254 
Q 3795 1766 4077 2093 
Q 4141 1818 4320 1664 
z
" transform="scale(0.015625)"/>
      <path id="STHeiti-5408" d="M 3174 4582 
Q 2298 3482 774 2362 
Q 634 2573 288 2784 
Q 755 2982 1408 3497 
Q 2061 4013 2473 4544 
Q 2886 5075 2906 5267 
Q 3392 5094 3565 5075 
Q 3642 5062 3642 5024 
Q 3642 4986 3578 4966 
Q 3514 4947 3456 4902 
Q 3872 4250 4649 3763 
Q 5427 3277 6157 3168 
Q 5894 2899 5773 2560 
Q 3923 3373 3174 4582 
z
M 4640 2566 
Q 4262 2611 3203 2611 
Q 2144 2611 1766 2566 
L 1766 3110 
Q 2266 3066 3267 3066 
Q 4269 3066 4640 3110 
L 4640 2566 
z
M 4576 -19 
L 1869 -19 
L 1869 -595 
L 1261 -595 
Q 1318 -166 1318 205 
L 1318 1414 
Q 1318 1754 1293 1926 
Q 1568 1901 3225 1901 
Q 4883 1901 5152 1926 
Q 5126 1792 5126 1434 
L 5126 224 
Q 5126 -173 5184 -576 
L 4576 -576 
L 4576 -19 
z
M 1869 422 
L 4576 422 
L 4576 1440 
L 1869 1440 
L 1869 422 
z
" transform="scale(0.015625)"/>
      <path id="STHeiti-29" d="M 896 5370 
Q 1530 3891 1530 2118 
Q 1530 480 1024 -762 
L 538 -762 
Q 1062 506 1062 2176 
Q 1062 3027 886 3865 
Q 710 4704 384 5370 
L 896 5370 
z
" transform="scale(0.015625)"/>
     </defs>
     <use xlink:href="#STHeiti-9ad8"/>
     <use xlink:href="#STHeiti-504f" x="99.999985"/>
     <use xlink:href="#STHeiti-5dee" x="199.999969"/>
     <use xlink:href="#STHeiti-6a21" x="299.999954"/>
     <use xlink:href="#STHeiti-578b" x="399.999939"/>
     <use xlink:href="#STHeiti-28" x="499.999924"/>
     <use xlink:href="#STHeiti-6b20" x="536.899918"/>
     <use xlink:href="#STHeiti-62df" x="636.899902"/>
     <use xlink:href="#STHeiti-5408" x="736.899887"/>
     <use xlink:href="#STHeiti-29" x="836.899872"/>
    </g>
   </g>
   <g id="legend_1">
    <g id="patch_7">
     <path d="M 343.211562 59.68875 
L 415.211562 59.68875 
Q 417.211562 59.68875 417.211562 57.68875 
L 417.211562 30.08875 
Q 417.211562 28.08875 415.211562 28.08875 
L 343.211562 28.08875 
Q 341.211562 28.08875 341.211562 30.08875 
L 341.211562 57.68875 
Q 341.211562 59.68875 343.211562 59.68875 
z
" style="fill: #ffffff; opacity: 0.8; stroke: #cccccc; stroke-linejoin: miter"/>
    </g>
    <g id="line2d_25">
     <path d="M 345.211562 36.548125 
L 355.211562 36.548125 
L 365.211562 36.548125 
" style="fill: none; stroke: #0000ff; stroke-width: 1.5; stroke-linecap: square"/>
     <g>
      <use xlink:href="#md2583c2ca2" x="355.211562" y="36.548125" style="fill: #0000ff; stroke: #0000ff"/>
     </g>
    </g>
    <g id="text_15">
     <!-- 训练误差 -->
     <g transform="translate(373.211562 40.048125) scale(0.1 -0.1)">
      <use xlink:href="#STHeiti-8bad"/>
      <use xlink:href="#STHeiti-7ec3" x="99.999985"/>
      <use xlink:href="#STHeiti-8bef" x="199.999969"/>
      <use xlink:href="#STHeiti-5dee" x="299.999954"/>
     </g>
    </g>
    <g id="line2d_26">
     <path d="M 345.211562 50.848125 
L 355.211562 50.848125 
L 365.211562 50.848125 
" style="fill: none; stroke: #ff0000; stroke-width: 1.5; stroke-linecap: square"/>
     <g>
      <use xlink:href="#mb25e9c4a88" x="355.211562" y="50.848125" style="fill: #ff0000; stroke: #ff0000"/>
     </g>
    </g>
    <g id="text_16">
     <!-- 验证误差 -->
     <g transform="translate(373.211562 54.348125) scale(0.1 -0.1)">
      <defs>
       <path id="STHeiti-9a8c" d="M 4250 4723 
Q 3776 3827 3341 3315 
Q 3642 3264 4269 3264 
Q 4896 3264 5146 3315 
L 5146 2797 
Q 4851 2835 4249 2835 
Q 3648 2835 3328 2771 
L 3328 3296 
Q 3155 3091 2816 2765 
Q 2630 2970 2400 3072 
Q 2861 3366 3305 4057 
Q 3750 4749 3872 5299 
Q 4307 5139 4550 5107 
Q 4627 5094 4627 5056 
Q 4627 5018 4556 4986 
Q 4486 4954 4474 4947 
Q 5088 3770 6189 3450 
Q 5907 3168 5798 2880 
Q 4589 3565 4250 4723 
z
M 2170 2298 
Q 2458 2304 2624 2349 
Q 2554 1318 2496 739 
Q 2438 160 2361 -41 
Q 2285 -243 2067 -332 
Q 1850 -422 1254 -506 
Q 1203 -205 1043 83 
Q 1312 58 1507 58 
Q 1702 58 1804 118 
Q 1907 179 1945 323 
Q 1984 467 2038 966 
Q 2093 1466 2112 1843 
Q 902 1843 634 1786 
Q 672 2182 713 2950 
Q 755 3718 749 3962 
Q 998 3891 1312 3891 
Q 1395 3891 1395 3862 
Q 1395 3834 1328 3786 
Q 1261 3738 1248 3584 
L 1114 2278 
L 1709 2278 
L 1965 4384 
Q 902 4384 486 4314 
L 486 4909 
Q 973 4858 1497 4858 
Q 2022 4858 2490 4909 
L 2170 2298 
z
M 4429 941 
L 3955 864 
Q 3885 1696 3763 2323 
L 4224 2400 
Q 4326 1517 4429 941 
z
M 4397 147 
Q 4813 1197 4998 2400 
Q 5312 2266 5626 2195 
Q 5683 2182 5683 2156 
Q 5683 2131 5606 2086 
Q 5498 2022 5408 1734 
Q 5107 806 4838 147 
Q 5421 147 5760 205 
L 5760 -358 
Q 5370 -301 4189 -301 
Q 3008 -301 2669 -358 
L 2669 205 
Q 3053 147 3654 147 
L 4397 147 
z
M 3622 678 
L 3149 576 
Q 3066 1485 2867 2195 
L 3290 2278 
Q 3430 1530 3622 678 
z
M 1805 1306 
Q 1760 1139 1760 1020 
Q 1760 902 1766 838 
Q 781 704 390 582 
Q 371 851 294 1152 
Q 1056 1165 1805 1306 
z
" transform="scale(0.015625)"/>
       <path id="STHeiti-8bc1" d="M 1914 4192 
L 1370 3872 
Q 1158 4429 768 4902 
L 1274 5203 
Q 1638 4595 1914 4192 
z
M 2637 262 
L 2637 2451 
Q 2637 2925 2592 3168 
Q 2970 3110 3258 3110 
Q 3328 3110 3328 3065 
Q 3328 3021 3251 2966 
Q 3174 2912 3174 2739 
L 3174 256 
L 3904 256 
L 3904 4243 
Q 2925 4237 2413 4179 
L 2413 4768 
Q 3021 4710 4064 4710 
Q 5107 4710 5837 4768 
L 5837 4179 
Q 5350 4237 4442 4243 
L 4442 2746 
L 4966 2746 
Q 5389 2746 5760 2803 
L 5760 2221 
Q 5453 2253 4966 2253 
L 4442 2253 
L 4442 256 
Q 5786 256 6093 333 
L 6093 -294 
Q 5824 -237 4080 -237 
Q 2336 -237 2010 -294 
L 2010 333 
Q 2240 282 2637 262 
z
M 2400 954 
L 1670 122 
Q 1459 -141 1280 -442 
Q 1024 -122 819 19 
Q 960 141 1005 262 
Q 1050 384 1050 717 
L 1050 2797 
Q 557 2797 282 2765 
L 282 3347 
Q 486 3315 947 3315 
Q 1408 3315 1626 3347 
Q 1562 3117 1562 2445 
L 1562 717 
Q 1869 1082 2106 1408 
Q 2208 1094 2400 954 
z
" transform="scale(0.015625)"/>
      </defs>
      <use xlink:href="#STHeiti-9a8c"/>
      <use xlink:href="#STHeiti-8bc1" x="99.999985"/>
      <use xlink:href="#STHeiti-8bef" x="199.999969"/>
      <use xlink:href="#STHeiti-5dee" x="299.999954"/>
     </g>
    </g>
   </g>
  </g>
  <g id="axes_2">
   <g id="patch_8">
    <path d="M 467.951562 314.24875 
L 848.811562 314.24875 
L 848.811562 23.08875 
L 467.951562 23.08875 
z
" style="fill: #ffffff"/>
   </g>
   <g id="matplotlib.axis_3">
    <g id="xtick_6">
     <g id="line2d_27">
      <path d="M 523.734088 314.24875 
L 523.734088 23.08875 
" clip-path="url(#p36e6b781b6)" style="fill: none; stroke: #b0b0b0; stroke-opacity: 0.3; stroke-width: 0.8; stroke-linecap: square"/>
     </g>
     <g id="line2d_28">
      <g>
       <use xlink:href="#m5c941f5a8e" x="523.734088" y="314.24875" style="stroke: #000000; stroke-width: 0.8"/>
      </g>
     </g>
     <g id="text_17">
      <!-- 0.2 -->
      <g transform="translate(516.808307 329.208125) scale(0.1 -0.1)">
       <use xlink:href="#STHeiti-30"/>
       <use xlink:href="#STHeiti-2e" x="55.399994"/>
       <use xlink:href="#STHeiti-32" x="83.099991"/>
      </g>
     </g>
    </g>
    <g id="xtick_7">
     <g id="line2d_29">
      <path d="M 600.675502 314.24875 
L 600.675502 23.08875 
" clip-path="url(#p36e6b781b6)" style="fill: none; stroke: #b0b0b0; stroke-opacity: 0.3; stroke-width: 0.8; stroke-linecap: square"/>
     </g>
     <g id="line2d_30">
      <g>
       <use xlink:href="#m5c941f5a8e" x="600.675502" y="314.24875" style="stroke: #000000; stroke-width: 0.8"/>
      </g>
     </g>
     <g id="text_18">
      <!-- 0.4 -->
      <g transform="translate(593.749721 329.208125) scale(0.1 -0.1)">
       <use xlink:href="#STHeiti-30"/>
       <use xlink:href="#STHeiti-2e" x="55.399994"/>
       <use xlink:href="#STHeiti-34" x="83.099991"/>
      </g>
     </g>
    </g>
    <g id="xtick_8">
     <g id="line2d_31">
      <path d="M 677.616916 314.24875 
L 677.616916 23.08875 
" clip-path="url(#p36e6b781b6)" style="fill: none; stroke: #b0b0b0; stroke-opacity: 0.3; stroke-width: 0.8; stroke-linecap: square"/>
     </g>
     <g id="line2d_32">
      <g>
       <use xlink:href="#m5c941f5a8e" x="677.616916" y="314.24875" style="stroke: #000000; stroke-width: 0.8"/>
      </g>
     </g>
     <g id="text_19">
      <!-- 0.6 -->
      <g transform="translate(670.691135 329.208125) scale(0.1 -0.1)">
       <use xlink:href="#STHeiti-30"/>
       <use xlink:href="#STHeiti-2e" x="55.399994"/>
       <use xlink:href="#STHeiti-36" x="83.099991"/>
      </g>
     </g>
    </g>
    <g id="xtick_9">
     <g id="line2d_33">
      <path d="M 754.55833 314.24875 
L 754.55833 23.08875 
" clip-path="url(#p36e6b781b6)" style="fill: none; stroke: #b0b0b0; stroke-opacity: 0.3; stroke-width: 0.8; stroke-linecap: square"/>
     </g>
     <g id="line2d_34">
      <g>
       <use xlink:href="#m5c941f5a8e" x="754.55833" y="314.24875" style="stroke: #000000; stroke-width: 0.8"/>
      </g>
     </g>
     <g id="text_20">
      <!-- 0.8 -->
      <g transform="translate(747.632549 329.208125) scale(0.1 -0.1)">
       <use xlink:href="#STHeiti-30"/>
       <use xlink:href="#STHeiti-2e" x="55.399994"/>
       <use xlink:href="#STHeiti-38" x="83.099991"/>
      </g>
     </g>
    </g>
    <g id="xtick_10">
     <g id="line2d_35">
      <path d="M 831.499744 314.24875 
L 831.499744 23.08875 
" clip-path="url(#p36e6b781b6)" style="fill: none; stroke: #b0b0b0; stroke-opacity: 0.3; stroke-width: 0.8; stroke-linecap: square"/>
     </g>
     <g id="line2d_36">
      <g>
       <use xlink:href="#m5c941f5a8e" x="831.499744" y="314.24875" style="stroke: #000000; stroke-width: 0.8"/>
      </g>
     </g>
     <g id="text_21">
      <!-- 1.0 -->
      <g transform="translate(824.573963 329.208125) scale(0.1 -0.1)">
       <use xlink:href="#STHeiti-31"/>
       <use xlink:href="#STHeiti-2e" x="55.399994"/>
       <use xlink:href="#STHeiti-30" x="83.099991"/>
      </g>
     </g>
    </g>
    <g id="text_22">
     <!-- 训练集大小 -->
     <g transform="translate(633.381562 342.508125) scale(0.1 -0.1)">
      <use xlink:href="#STHeiti-8bad"/>
      <use xlink:href="#STHeiti-7ec3" x="99.999985"/>
      <use xlink:href="#STHeiti-96c6" x="199.999969"/>
      <use xlink:href="#STHeiti-5927" x="299.999954"/>
      <use xlink:href="#STHeiti-5c0f" x="399.999939"/>
     </g>
    </g>
   </g>
   <g id="matplotlib.axis_4">
    <g id="ytick_7">
     <g id="line2d_37">
      <path d="M 467.951562 314.24875 
L 848.811562 314.24875 
" clip-path="url(#p36e6b781b6)" style="fill: none; stroke: #b0b0b0; stroke-opacity: 0.3; stroke-width: 0.8; stroke-linecap: square"/>
     </g>
     <g id="line2d_38">
      <g>
       <use xlink:href="#m81cc559121" x="467.951562" y="314.24875" style="stroke: #000000; stroke-width: 0.8"/>
      </g>
     </g>
     <g id="text_23">
      <!-- 0.0 -->
      <g transform="translate(447.1 318.228438) scale(0.1 -0.1)">
       <use xlink:href="#STHeiti-30"/>
       <use xlink:href="#STHeiti-2e" x="55.399994"/>
       <use xlink:href="#STHeiti-30" x="83.099991"/>
      </g>
     </g>
    </g>
    <g id="ytick_8">
     <g id="line2d_39">
      <path d="M 467.951562 256.01675 
L 848.811562 256.01675 
" clip-path="url(#p36e6b781b6)" style="fill: none; stroke: #b0b0b0; stroke-opacity: 0.3; stroke-width: 0.8; stroke-linecap: square"/>
     </g>
     <g id="line2d_40">
      <g>
       <use xlink:href="#m81cc559121" x="467.951562" y="256.01675" style="stroke: #000000; stroke-width: 0.8"/>
      </g>
     </g>
     <g id="text_24">
      <!-- 0.2 -->
      <g transform="translate(447.1 259.996438) scale(0.1 -0.1)">
       <use xlink:href="#STHeiti-30"/>
       <use xlink:href="#STHeiti-2e" x="55.399994"/>
       <use xlink:href="#STHeiti-32" x="83.099991"/>
      </g>
     </g>
    </g>
    <g id="ytick_9">
     <g id="line2d_41">
      <path d="M 467.951562 197.78475 
L 848.811562 197.78475 
" clip-path="url(#p36e6b781b6)" style="fill: none; stroke: #b0b0b0; stroke-opacity: 0.3; stroke-width: 0.8; stroke-linecap: square"/>
     </g>
     <g id="line2d_42">
      <g>
       <use xlink:href="#m81cc559121" x="467.951562" y="197.78475" style="stroke: #000000; stroke-width: 0.8"/>
      </g>
     </g>
     <g id="text_25">
      <!-- 0.4 -->
      <g transform="translate(447.1 201.764438) scale(0.1 -0.1)">
       <use xlink:href="#STHeiti-30"/>
       <use xlink:href="#STHeiti-2e" x="55.399994"/>
       <use xlink:href="#STHeiti-34" x="83.099991"/>
      </g>
     </g>
    </g>
    <g id="ytick_10">
     <g id="line2d_43">
      <path d="M 467.951562 139.55275 
L 848.811562 139.55275 
" clip-path="url(#p36e6b781b6)" style="fill: none; stroke: #b0b0b0; stroke-opacity: 0.3; stroke-width: 0.8; stroke-linecap: square"/>
     </g>
     <g id="line2d_44">
      <g>
       <use xlink:href="#m81cc559121" x="467.951562" y="139.55275" style="stroke: #000000; stroke-width: 0.8"/>
      </g>
     </g>
     <g id="text_26">
      <!-- 0.6 -->
      <g transform="translate(447.1 143.532437) scale(0.1 -0.1)">
       <use xlink:href="#STHeiti-30"/>
       <use xlink:href="#STHeiti-2e" x="55.399994"/>
       <use xlink:href="#STHeiti-36" x="83.099991"/>
      </g>
     </g>
    </g>
    <g id="ytick_11">
     <g id="line2d_45">
      <path d="M 467.951562 81.32075 
L 848.811562 81.32075 
" clip-path="url(#p36e6b781b6)" style="fill: none; stroke: #b0b0b0; stroke-opacity: 0.3; stroke-width: 0.8; stroke-linecap: square"/>
     </g>
     <g id="line2d_46">
      <g>
       <use xlink:href="#m81cc559121" x="467.951562" y="81.32075" style="stroke: #000000; stroke-width: 0.8"/>
      </g>
     </g>
     <g id="text_27">
      <!-- 0.8 -->
      <g transform="translate(447.1 85.300438) scale(0.1 -0.1)">
       <use xlink:href="#STHeiti-30"/>
       <use xlink:href="#STHeiti-2e" x="55.399994"/>
       <use xlink:href="#STHeiti-38" x="83.099991"/>
      </g>
     </g>
    </g>
    <g id="ytick_12">
     <g id="line2d_47">
      <path d="M 467.951562 23.08875 
L 848.811562 23.08875 
" clip-path="url(#p36e6b781b6)" style="fill: none; stroke: #b0b0b0; stroke-opacity: 0.3; stroke-width: 0.8; stroke-linecap: square"/>
     </g>
     <g id="line2d_48">
      <g>
       <use xlink:href="#m81cc559121" x="467.951562" y="23.08875" style="stroke: #000000; stroke-width: 0.8"/>
      </g>
     </g>
     <g id="text_28">
      <!-- 1.0 -->
      <g transform="translate(447.1 27.068438) scale(0.1 -0.1)">
       <use xlink:href="#STHeiti-31"/>
       <use xlink:href="#STHeiti-2e" x="55.399994"/>
       <use xlink:href="#STHeiti-30" x="83.099991"/>
      </g>
     </g>
    </g>
    <g id="text_29">
     <!-- 错误率 -->
     <g transform="translate(441.759375 183.66875) rotate(-90) scale(0.1 -0.1)">
      <use xlink:href="#STHeiti-9519"/>
      <use xlink:href="#STHeiti-8bef" x="99.999985"/>
      <use xlink:href="#STHeiti-7387" x="199.999969"/>
     </g>
    </g>
   </g>
   <g id="line2d_49">
    <path d="M 485.263381 246.809462 
L 523.734088 242.995679 
L 562.204795 240.06926 
L 600.675502 237.602175 
L 639.146209 235.428629 
L 677.616916 233.463593 
L 716.087623 231.656557 
L 754.55833 229.974608 
L 793.029037 228.394887 
L 831.499744 226.90075 
" clip-path="url(#p36e6b781b6)" style="fill: none; stroke: #0000ff; stroke-width: 1.5; stroke-linecap: square"/>
    <g clip-path="url(#p36e6b781b6)">
     <use xlink:href="#md2583c2ca2" x="485.263381" y="246.809462" style="fill: #0000ff; stroke: #0000ff"/>
     <use xlink:href="#md2583c2ca2" x="523.734088" y="242.995679" style="fill: #0000ff; stroke: #0000ff"/>
     <use xlink:href="#md2583c2ca2" x="562.204795" y="240.06926" style="fill: #0000ff; stroke: #0000ff"/>
     <use xlink:href="#md2583c2ca2" x="600.675502" y="237.602175" style="fill: #0000ff; stroke: #0000ff"/>
     <use xlink:href="#md2583c2ca2" x="639.146209" y="235.428629" style="fill: #0000ff; stroke: #0000ff"/>
     <use xlink:href="#md2583c2ca2" x="677.616916" y="233.463593" style="fill: #0000ff; stroke: #0000ff"/>
     <use xlink:href="#md2583c2ca2" x="716.087623" y="231.656557" style="fill: #0000ff; stroke: #0000ff"/>
     <use xlink:href="#md2583c2ca2" x="754.55833" y="229.974608" style="fill: #0000ff; stroke: #0000ff"/>
     <use xlink:href="#md2583c2ca2" x="793.029037" y="228.394887" style="fill: #0000ff; stroke: #0000ff"/>
     <use xlink:href="#md2583c2ca2" x="831.499744" y="226.90075" style="fill: #0000ff; stroke: #0000ff"/>
    </g>
   </g>
   <g id="line2d_50">
    <path d="M 485.263381 99.735325 
L 523.734088 107.362892 
L 562.204795 113.21573 
L 600.675502 118.149901 
L 639.146209 122.496992 
L 677.616916 126.427063 
L 716.087623 130.041137 
L 754.55833 133.405034 
L 793.029037 136.564476 
L 831.499744 139.55275 
" clip-path="url(#p36e6b781b6)" style="fill: none; stroke: #ff0000; stroke-width: 1.5; stroke-linecap: square"/>
    <g clip-path="url(#p36e6b781b6)">
     <use xlink:href="#mb25e9c4a88" x="485.263381" y="99.735325" style="fill: #ff0000; stroke: #ff0000"/>
     <use xlink:href="#mb25e9c4a88" x="523.734088" y="107.362892" style="fill: #ff0000; stroke: #ff0000"/>
     <use xlink:href="#mb25e9c4a88" x="562.204795" y="113.21573" style="fill: #ff0000; stroke: #ff0000"/>
     <use xlink:href="#mb25e9c4a88" x="600.675502" y="118.149901" style="fill: #ff0000; stroke: #ff0000"/>
     <use xlink:href="#mb25e9c4a88" x="639.146209" y="122.496992" style="fill: #ff0000; stroke: #ff0000"/>
     <use xlink:href="#mb25e9c4a88" x="677.616916" y="126.427063" style="fill: #ff0000; stroke: #ff0000"/>
     <use xlink:href="#mb25e9c4a88" x="716.087623" y="130.041137" style="fill: #ff0000; stroke: #ff0000"/>
     <use xlink:href="#mb25e9c4a88" x="754.55833" y="133.405034" style="fill: #ff0000; stroke: #ff0000"/>
     <use xlink:href="#mb25e9c4a88" x="793.029037" y="136.564476" style="fill: #ff0000; stroke: #ff0000"/>
     <use xlink:href="#mb25e9c4a88" x="831.499744" y="139.55275" style="fill: #ff0000; stroke: #ff0000"/>
    </g>
   </g>
   <g id="patch_9">
    <path d="M 467.951562 314.24875 
L 467.951562 23.08875 
" style="fill: none; stroke: #000000; stroke-width: 0.8; stroke-linejoin: miter; stroke-linecap: square"/>
   </g>
   <g id="patch_10">
    <path d="M 848.811562 314.24875 
L 848.811562 23.08875 
" style="fill: none; stroke: #000000; stroke-width: 0.8; stroke-linejoin: miter; stroke-linecap: square"/>
   </g>
   <g id="patch_11">
    <path d="M 467.951562 314.24875 
L 848.811562 314.24875 
" style="fill: none; stroke: #000000; stroke-width: 0.8; stroke-linejoin: miter; stroke-linecap: square"/>
   </g>
   <g id="patch_12">
    <path d="M 467.951562 23.08875 
L 848.811562 23.08875 
" style="fill: none; stroke: #000000; stroke-width: 0.8; stroke-linejoin: miter; stroke-linecap: square"/>
   </g>
   <g id="text_30">
    <!-- 高方差模型(过拟合) -->
    <g transform="translate(605.952812 17.08875) scale(0.12 -0.12)">
     <defs>
      <path id="STHeiti-65b9" d="M 3654 4378 
L 2982 4134 
Q 2874 4563 2630 5005 
L 3322 5222 
Q 3424 4800 3654 4378 
z
M 2854 2758 
L 4499 2758 
Q 4890 2758 5152 2790 
L 4947 454 
Q 4915 83 4825 -89 
Q 4736 -262 4493 -364 
Q 4250 -467 3699 -550 
Q 3642 -141 3283 224 
Q 3597 154 3814 154 
Q 4307 154 4358 563 
L 4557 2259 
L 2797 2259 
Q 2688 1363 2365 784 
Q 2042 205 1210 -525 
Q 1018 -198 589 -77 
Q 1043 147 1388 496 
Q 1734 845 1952 1286 
Q 2170 1728 2246 2227 
Q 2323 2726 2342 3571 
Q 1184 3565 461 3526 
L 461 4102 
Q 1370 4058 3226 4058 
Q 5082 4058 5958 4102 
L 5958 3526 
Q 5050 3571 2938 3571 
Q 2899 3123 2854 2758 
z
" transform="scale(0.015625)"/>
      <path id="STHeiti-8fc7" d="M 5133 4224 
Q 5690 4224 6022 4269 
L 6022 3712 
Q 5677 3750 5133 3750 
L 5133 1075 
Q 5133 826 5062 707 
Q 4992 589 4745 515 
Q 4499 442 3942 384 
Q 3878 698 3712 1030 
Q 3898 1018 4106 1018 
Q 4314 1018 4448 1062 
Q 4582 1107 4582 1254 
L 4582 3750 
L 3213 3750 
Q 2579 3750 2163 3718 
L 2163 4269 
Q 2515 4224 3213 4224 
L 4582 4224 
Q 4582 5088 4557 5267 
Q 4787 5229 5024 5229 
L 5190 5235 
Q 5286 5235 5286 5171 
Q 5286 5133 5248 5107 
Q 5133 5037 5133 4864 
L 5133 4224 
z
M 1222 5088 
Q 1632 4544 1907 4070 
L 1363 3731 
Q 1024 4346 717 4781 
L 1222 5088 
z
M 3731 2042 
L 3181 1798 
Q 2957 2394 2637 2970 
L 3149 3181 
Q 3520 2573 3731 2042 
z
M 1741 666 
Q 1882 621 2259 422 
Q 2803 141 4192 141 
Q 5056 141 6189 256 
Q 6029 -115 6003 -403 
Q 4544 -422 3811 -380 
Q 3078 -339 2700 -243 
Q 2323 -147 1914 58 
Q 1645 192 1510 192 
Q 1395 192 1248 67 
Q 1101 -58 832 -480 
Q 646 -256 339 -58 
Q 909 563 1178 672 
L 1178 2624 
Q 582 2624 384 2586 
L 384 3104 
Q 742 3066 1132 3066 
Q 1523 3066 1798 3104 
Q 1741 2790 1741 2368 
L 1741 666 
z
" transform="scale(0.015625)"/>
     </defs>
     <use xlink:href="#STHeiti-9ad8"/>
     <use xlink:href="#STHeiti-65b9" x="99.999985"/>
     <use xlink:href="#STHeiti-5dee" x="199.999969"/>
     <use xlink:href="#STHeiti-6a21" x="299.999954"/>
     <use xlink:href="#STHeiti-578b" x="399.999939"/>
     <use xlink:href="#STHeiti-28" x="499.999924"/>
     <use xlink:href="#STHeiti-8fc7" x="536.899918"/>
     <use xlink:href="#STHeiti-62df" x="636.899902"/>
     <use xlink:href="#STHeiti-5408" x="736.899887"/>
     <use xlink:href="#STHeiti-29" x="836.899872"/>
    </g>
   </g>
   <g id="legend_2">
    <g id="patch_13">
     <path d="M 769.811562 59.68875 
L 841.811562 59.68875 
Q 843.811562 59.68875 843.811562 57.68875 
L 843.811562 30.08875 
Q 843.811562 28.08875 841.811562 28.08875 
L 769.811562 28.08875 
Q 767.811562 28.08875 767.811562 30.08875 
L 767.811562 57.68875 
Q 767.811562 59.68875 769.811562 59.68875 
z
" style="fill: #ffffff; opacity: 0.8; stroke: #cccccc; stroke-linejoin: miter"/>
    </g>
    <g id="line2d_51">
     <path d="M 771.811562 36.548125 
L 781.811562 36.548125 
L 791.811562 36.548125 
" style="fill: none; stroke: #0000ff; stroke-width: 1.5; stroke-linecap: square"/>
     <g>
      <use xlink:href="#md2583c2ca2" x="781.811562" y="36.548125" style="fill: #0000ff; stroke: #0000ff"/>
     </g>
    </g>
    <g id="text_31">
     <!-- 训练误差 -->
     <g transform="translate(799.811562 40.048125) scale(0.1 -0.1)">
      <use xlink:href="#STHeiti-8bad"/>
      <use xlink:href="#STHeiti-7ec3" x="99.999985"/>
      <use xlink:href="#STHeiti-8bef" x="199.999969"/>
      <use xlink:href="#STHeiti-5dee" x="299.999954"/>
     </g>
    </g>
    <g id="line2d_52">
     <path d="M 771.811562 50.848125 
L 781.811562 50.848125 
L 791.811562 50.848125 
" style="fill: none; stroke: #ff0000; stroke-width: 1.5; stroke-linecap: square"/>
     <g>
      <use xlink:href="#mb25e9c4a88" x="781.811562" y="50.848125" style="fill: #ff0000; stroke: #ff0000"/>
     </g>
    </g>
    <g id="text_32">
     <!-- 验证误差 -->
     <g transform="translate(799.811562 54.348125) scale(0.1 -0.1)">
      <use xlink:href="#STHeiti-9a8c"/>
      <use xlink:href="#STHeiti-8bc1" x="99.999985"/>
      <use xlink:href="#STHeiti-8bef" x="199.999969"/>
      <use xlink:href="#STHeiti-5dee" x="299.999954"/>
     </g>
    </g>
   </g>
  </g>
 </g>
 <defs>
  <clipPath id="p9db51a763d">
   <rect x="41.351562" y="23.08875" width="380.86" height="291.16"/>
  </clipPath>
  <clipPath id="p36e6b781b6">
   <rect x="467.951562" y="23.08875" width="380.86" height="291.16"/>
  </clipPath>
 </defs>
</svg>
