<svg xmlns:xlink="http://www.w3.org/1999/xlink" width="1072.781875pt" height="351.55875pt" viewBox="0 0 1072.781875 351.55875" xmlns="http://www.w3.org/2000/svg" version="1.1">
 <metadata>
  <rdf:RDF xmlns:dc="http://purl.org/dc/elements/1.1/" xmlns:cc="http://creativecommons.org/ns#" xmlns:rdf="http://www.w3.org/1999/02/22-rdf-syntax-ns#">
   <cc:Work>
    <dc:type rdf:resource="http://purl.org/dc/dcmitype/StillImage"/>
    <dc:date>2025-03-04T09:51:42.660562</dc:date>
    <dc:format>image/svg+xml</dc:format>
    <dc:creator>
     <cc:Agent>
      <dc:title>Matplotlib v3.8.2, https://matplotlib.org/</dc:title>
     </cc:Agent>
    </dc:creator>
   </cc:Work>
  </rdf:RDF>
 </metadata>
 <defs>
  <style type="text/css">*{stroke-linejoin: round; stroke-linecap: butt}</style>
 </defs>
 <g id="figure_1">
  <g id="patch_1">
   <path d="M 0 351.55875 
L 1072.781875 351.55875 
L 1072.781875 0 
L 0 0 
z
" style="fill: #ffffff"/>
  </g>
  <g id="axes_1">
   <g id="patch_2">
    <path d="M 31.371875 328.05875 
L 352.781875 328.05875 
L 352.781875 22.75125 
L 31.371875 22.75125 
z
" style="fill: #ffffff"/>
   </g>
   <g id="PathCollection_1">
    <defs>
     <path id="mef1518c36e" d="M 0 3 
C 0.795609 3 1.55874 2.683901 2.12132 2.12132 
C 2.683901 1.55874 3 0.795609 3 0 
C 3 -0.795609 2.683901 -1.55874 2.12132 -2.12132 
C 1.55874 -2.683901 0.795609 -3 0 -3 
C -0.795609 -3 -1.55874 -2.683901 -2.12132 -2.12132 
C -2.683901 -1.55874 -3 -0.795609 -3 0 
C -3 0.795609 -2.683901 1.55874 -2.12132 2.12132 
C -1.55874 2.683901 -0.795609 3 0 3 
z
" style="stroke: #0000ff"/>
    </defs>
    <g clip-path="url(#p826a32cb4c)">
     <use xlink:href="#mef1518c36e" x="45.98142" y="165.294963" style="fill: #0000ff; stroke: #0000ff"/>
     <use xlink:href="#mef1518c36e" x="56.056969" y="156.341846" style="fill: #0000ff; stroke: #0000ff"/>
     <use xlink:href="#mef1518c36e" x="66.132518" y="119.490291" style="fill: #0000ff; stroke: #0000ff"/>
     <use xlink:href="#mef1518c36e" x="76.208066" y="82.817429" style="fill: #0000ff; stroke: #0000ff"/>
     <use xlink:href="#mef1518c36e" x="86.283615" y="102.606322" style="fill: #0000ff; stroke: #0000ff"/>
     <use xlink:href="#mef1518c36e" x="96.359163" y="90.2563" style="fill: #0000ff; stroke: #0000ff"/>
     <use xlink:href="#mef1518c36e" x="106.434712" y="45.202286" style="fill: #0000ff; stroke: #0000ff"/>
     <use xlink:href="#mef1518c36e" x="116.510261" y="58.164848" style="fill: #0000ff; stroke: #0000ff"/>
     <use xlink:href="#mef1518c36e" x="126.585809" y="84.532091" style="fill: #0000ff; stroke: #0000ff"/>
     <use xlink:href="#mef1518c36e" x="136.661358" y="69.820637" style="fill: #0000ff; stroke: #0000ff"/>
     <use xlink:href="#mef1518c36e" x="146.736906" y="100.604107" style="fill: #0000ff; stroke: #0000ff"/>
     <use xlink:href="#mef1518c36e" x="156.812455" y="114.897785" style="fill: #0000ff; stroke: #0000ff"/>
     <use xlink:href="#mef1518c36e" x="166.888004" y="118.012654" style="fill: #0000ff; stroke: #0000ff"/>
     <use xlink:href="#mef1518c36e" x="176.963552" y="181.852537" style="fill: #0000ff; stroke: #0000ff"/>
     <use xlink:href="#mef1518c36e" x="187.039101" y="199.510508" style="fill: #0000ff; stroke: #0000ff"/>
     <use xlink:href="#mef1518c36e" x="197.114649" y="197.852889" style="fill: #0000ff; stroke: #0000ff"/>
     <use xlink:href="#mef1518c36e" x="207.190198" y="228.515046" style="fill: #0000ff; stroke: #0000ff"/>
     <use xlink:href="#mef1518c36e" x="217.265746" y="221.476349" style="fill: #0000ff; stroke: #0000ff"/>
     <use xlink:href="#mef1518c36e" x="227.341295" y="263.873372" style="fill: #0000ff; stroke: #0000ff"/>
     <use xlink:href="#mef1518c36e" x="237.416844" y="288.384014" style="fill: #0000ff; stroke: #0000ff"/>
     <use xlink:href="#mef1518c36e" x="247.492392" y="240.114616" style="fill: #0000ff; stroke: #0000ff"/>
     <use xlink:href="#mef1518c36e" x="257.567941" y="280.428926" style="fill: #0000ff; stroke: #0000ff"/>
     <use xlink:href="#mef1518c36e" x="267.643489" y="275.650456" style="fill: #0000ff; stroke: #0000ff"/>
     <use xlink:href="#mef1518c36e" x="277.719038" y="302.463767" style="fill: #0000ff; stroke: #0000ff"/>
     <use xlink:href="#mef1518c36e" x="287.794587" y="276.39956" style="fill: #0000ff; stroke: #0000ff"/>
     <use xlink:href="#mef1518c36e" x="297.870135" y="250.711897" style="fill: #0000ff; stroke: #0000ff"/>
     <use xlink:href="#mef1518c36e" x="307.945684" y="260.420207" style="fill: #0000ff; stroke: #0000ff"/>
     <use xlink:href="#mef1518c36e" x="318.021232" y="210.489869" style="fill: #0000ff; stroke: #0000ff"/>
     <use xlink:href="#mef1518c36e" x="328.096781" y="209.507662" style="fill: #0000ff; stroke: #0000ff"/>
     <use xlink:href="#mef1518c36e" x="338.17233" y="181.342086" style="fill: #0000ff; stroke: #0000ff"/>
    </g>
   </g>
   <g id="matplotlib.axis_1">
    <g id="xtick_1">
     <g id="line2d_1">
      <defs>
       <path id="m940d7ef762" d="M 0 0 
L 0 3.5 
" style="stroke: #000000; stroke-width: 0.8"/>
      </defs>
      <g>
       <use xlink:href="#m940d7ef762" x="45.98142" y="328.05875" style="stroke: #000000; stroke-width: 0.8"/>
      </g>
     </g>
     <g id="text_1">
      <!-- 0.0 -->
      <g transform="translate(39.055639 343.018125) scale(0.1 -0.1)">
       <defs>
        <path id="STHeiti-30" d="M 1747 269 
Q 1005 269 605 880 
Q 205 1491 205 2681 
Q 205 3872 605 4483 
Q 1005 5094 1741 5094 
Q 2477 5094 2909 4470 
Q 3341 3846 3341 2681 
Q 3341 1517 2905 893 
Q 2470 269 1747 269 
z
M 1760 4659 
Q 1229 4659 934 4147 
Q 640 3635 640 2669 
Q 640 685 1760 685 
Q 2304 685 2608 1206 
Q 2912 1728 2912 2681 
Q 2912 3635 2598 4147 
Q 2285 4659 1760 4659 
z
" transform="scale(0.015625)"/>
        <path id="STHeiti-2e" d="M 582 685 
Q 582 845 697 957 
Q 813 1069 969 1069 
Q 1126 1069 1238 957 
Q 1350 845 1350 681 
Q 1350 518 1238 406 
Q 1126 294 969 294 
Q 813 294 697 409 
Q 582 525 582 685 
z
" transform="scale(0.015625)"/>
       </defs>
       <use xlink:href="#STHeiti-30"/>
       <use xlink:href="#STHeiti-2e" x="55.399994"/>
       <use xlink:href="#STHeiti-30" x="83.099991"/>
      </g>
     </g>
    </g>
    <g id="xtick_2">
     <g id="line2d_2">
      <g>
       <use xlink:href="#m940d7ef762" x="104.419602" y="328.05875" style="stroke: #000000; stroke-width: 0.8"/>
      </g>
     </g>
     <g id="text_2">
      <!-- 0.2 -->
      <g transform="translate(97.493821 343.018125) scale(0.1 -0.1)">
       <defs>
        <path id="STHeiti-32" d="M 742 3539 
L 301 3539 
Q 333 4243 768 4668 
Q 1203 5094 1820 5094 
Q 2438 5094 2844 4694 
Q 3251 4294 3251 3718 
Q 3251 3290 3024 2925 
Q 2797 2560 2336 2061 
L 1190 826 
L 3315 826 
L 3315 384 
L 192 384 
L 1946 2278 
Q 2406 2778 2604 3066 
Q 2803 3354 2803 3725 
Q 2803 4096 2512 4377 
Q 2221 4659 1789 4659 
Q 1357 4659 1072 4368 
Q 787 4077 742 3539 
z
" transform="scale(0.015625)"/>
       </defs>
       <use xlink:href="#STHeiti-30"/>
       <use xlink:href="#STHeiti-2e" x="55.399994"/>
       <use xlink:href="#STHeiti-32" x="83.099991"/>
      </g>
     </g>
    </g>
    <g id="xtick_3">
     <g id="line2d_3">
      <g>
       <use xlink:href="#m940d7ef762" x="162.857784" y="328.05875" style="stroke: #000000; stroke-width: 0.8"/>
      </g>
     </g>
     <g id="text_3">
      <!-- 0.4 -->
      <g transform="translate(155.932003 343.018125) scale(0.1 -0.1)">
       <defs>
        <path id="STHeiti-34" d="M 2726 5094 
L 2816 5094 
L 2816 1894 
L 3373 1894 
L 3373 1453 
L 2816 1453 
L 2816 384 
L 2362 384 
L 2362 1453 
L 160 1453 
L 2726 5094 
z
M 2362 1894 
L 2362 3808 
L 1005 1894 
L 2362 1894 
z
" transform="scale(0.015625)"/>
       </defs>
       <use xlink:href="#STHeiti-30"/>
       <use xlink:href="#STHeiti-2e" x="55.399994"/>
       <use xlink:href="#STHeiti-34" x="83.099991"/>
      </g>
     </g>
    </g>
    <g id="xtick_4">
     <g id="line2d_4">
      <g>
       <use xlink:href="#m940d7ef762" x="221.295966" y="328.05875" style="stroke: #000000; stroke-width: 0.8"/>
      </g>
     </g>
     <g id="text_4">
      <!-- 0.6 -->
      <g transform="translate(214.370185 343.018125) scale(0.1 -0.1)">
       <defs>
        <path id="STHeiti-36" d="M 2349 5094 
L 2726 4851 
L 1485 2970 
Q 1747 3059 1984 3059 
Q 2496 3059 2880 2652 
Q 3264 2246 3264 1660 
Q 3264 1075 2845 672 
Q 2426 269 1827 269 
Q 1229 269 829 678 
Q 429 1088 429 1677 
Q 429 1958 537 2256 
Q 646 2554 954 3014 
L 2349 5094 
z
M 2810 1683 
Q 2810 2086 2528 2368 
Q 2246 2650 1843 2650 
Q 1440 2650 1158 2368 
Q 877 2086 877 1683 
Q 877 1280 1161 998 
Q 1446 717 1843 717 
Q 2240 717 2525 998 
Q 2810 1280 2810 1683 
z
" transform="scale(0.015625)"/>
       </defs>
       <use xlink:href="#STHeiti-30"/>
       <use xlink:href="#STHeiti-2e" x="55.399994"/>
       <use xlink:href="#STHeiti-36" x="83.099991"/>
      </g>
     </g>
    </g>
    <g id="xtick_5">
     <g id="line2d_5">
      <g>
       <use xlink:href="#m940d7ef762" x="279.734148" y="328.05875" style="stroke: #000000; stroke-width: 0.8"/>
      </g>
     </g>
     <g id="text_5">
      <!-- 0.8 -->
      <g transform="translate(272.808366 343.018125) scale(0.1 -0.1)">
       <defs>
        <path id="STHeiti-38" d="M 2458 2906 
Q 3328 2477 3328 1702 
Q 3328 1088 2896 678 
Q 2464 269 1763 269 
Q 1062 269 640 678 
Q 218 1088 218 1664 
Q 218 2470 1107 2906 
Q 435 3264 435 3898 
Q 435 4371 828 4732 
Q 1222 5094 1779 5094 
Q 2336 5094 2726 4742 
Q 3117 4390 3117 3885 
Q 3117 3270 2458 2906 
z
M 2656 3904 
Q 2656 4211 2416 4432 
Q 2176 4653 1789 4653 
Q 1402 4653 1152 4432 
Q 902 4211 902 3897 
Q 902 3584 1174 3337 
Q 1446 3091 1792 3091 
Q 2138 3091 2397 3334 
Q 2656 3578 2656 3904 
z
M 2867 1696 
Q 2867 2086 2550 2380 
Q 2234 2675 1782 2675 
Q 1331 2675 1004 2371 
Q 678 2067 678 1654 
Q 678 1242 979 973 
Q 1280 704 1766 704 
Q 2253 704 2560 992 
Q 2867 1280 2867 1696 
z
" transform="scale(0.015625)"/>
       </defs>
       <use xlink:href="#STHeiti-30"/>
       <use xlink:href="#STHeiti-2e" x="55.399994"/>
       <use xlink:href="#STHeiti-38" x="83.099991"/>
      </g>
     </g>
    </g>
    <g id="xtick_6">
     <g id="line2d_6">
      <g>
       <use xlink:href="#m940d7ef762" x="338.17233" y="328.05875" style="stroke: #000000; stroke-width: 0.8"/>
      </g>
     </g>
     <g id="text_6">
      <!-- 1.0 -->
      <g transform="translate(331.246548 343.018125) scale(0.1 -0.1)">
       <defs>
        <path id="STHeiti-31" d="M 1184 4979 
L 2086 4979 
L 2086 384 
L 1632 384 
L 1632 4531 
L 909 4531 
L 1184 4979 
z
" transform="scale(0.015625)"/>
       </defs>
       <use xlink:href="#STHeiti-31"/>
       <use xlink:href="#STHeiti-2e" x="55.399994"/>
       <use xlink:href="#STHeiti-30" x="83.099991"/>
      </g>
     </g>
    </g>
   </g>
   <g id="matplotlib.axis_2">
    <g id="ytick_1">
     <g id="line2d_7">
      <defs>
       <path id="m8ac0aa3835" d="M 0 0 
L -3.5 0 
" style="stroke: #000000; stroke-width: 0.8"/>
      </defs>
      <g>
       <use xlink:href="#m8ac0aa3835" x="31.371875" y="328.05875" style="stroke: #000000; stroke-width: 0.8"/>
      </g>
     </g>
     <g id="text_7">
      <!-- -1.5 -->
      <g transform="translate(7.2 332.038437) scale(0.1 -0.1)">
       <defs>
        <path id="STHeiti-2d" d="M 205 2304 
L 1920 2304 
L 1920 1920 
L 205 1920 
L 205 2304 
z
" transform="scale(0.015625)"/>
        <path id="STHeiti-35" d="M 3149 4979 
L 3149 4544 
L 1510 4544 
L 1280 3290 
Q 1587 3379 1856 3379 
Q 2458 3379 2861 2953 
Q 3264 2528 3264 1862 
Q 3264 1197 2825 733 
Q 2387 269 1664 269 
Q 1114 269 726 598 
Q 339 928 262 1498 
L 730 1498 
Q 813 1114 1075 909 
Q 1338 704 1683 704 
Q 2138 704 2467 1043 
Q 2797 1382 2797 1888 
Q 2797 2349 2509 2646 
Q 2221 2944 1757 2944 
Q 1293 2944 730 2701 
L 1158 4979 
L 3149 4979 
z
" transform="scale(0.015625)"/>
       </defs>
       <use xlink:href="#STHeiti-2d"/>
       <use xlink:href="#STHeiti-31" x="33.199997"/>
       <use xlink:href="#STHeiti-2e" x="88.599991"/>
       <use xlink:href="#STHeiti-35" x="116.299988"/>
      </g>
     </g>
    </g>
    <g id="ytick_2">
     <g id="line2d_8">
      <g>
       <use xlink:href="#m8ac0aa3835" x="31.371875" y="277.174167" style="stroke: #000000; stroke-width: 0.8"/>
      </g>
     </g>
     <g id="text_8">
      <!-- -1.0 -->
      <g transform="translate(7.2 281.153854) scale(0.1 -0.1)">
       <use xlink:href="#STHeiti-2d"/>
       <use xlink:href="#STHeiti-31" x="33.199997"/>
       <use xlink:href="#STHeiti-2e" x="88.599991"/>
       <use xlink:href="#STHeiti-30" x="116.299988"/>
      </g>
     </g>
    </g>
    <g id="ytick_3">
     <g id="line2d_9">
      <g>
       <use xlink:href="#m8ac0aa3835" x="31.371875" y="226.289583" style="stroke: #000000; stroke-width: 0.8"/>
      </g>
     </g>
     <g id="text_9">
      <!-- -0.5 -->
      <g transform="translate(7.2 230.269271) scale(0.1 -0.1)">
       <use xlink:href="#STHeiti-2d"/>
       <use xlink:href="#STHeiti-30" x="33.199997"/>
       <use xlink:href="#STHeiti-2e" x="88.599991"/>
       <use xlink:href="#STHeiti-35" x="116.299988"/>
      </g>
     </g>
    </g>
    <g id="ytick_4">
     <g id="line2d_10">
      <g>
       <use xlink:href="#m8ac0aa3835" x="31.371875" y="175.405" style="stroke: #000000; stroke-width: 0.8"/>
      </g>
     </g>
     <g id="text_10">
      <!-- 0.0 -->
      <g transform="translate(10.520313 179.384687) scale(0.1 -0.1)">
       <use xlink:href="#STHeiti-30"/>
       <use xlink:href="#STHeiti-2e" x="55.399994"/>
       <use xlink:href="#STHeiti-30" x="83.099991"/>
      </g>
     </g>
    </g>
    <g id="ytick_5">
     <g id="line2d_11">
      <g>
       <use xlink:href="#m8ac0aa3835" x="31.371875" y="124.520417" style="stroke: #000000; stroke-width: 0.8"/>
      </g>
     </g>
     <g id="text_11">
      <!-- 0.5 -->
      <g transform="translate(10.520313 128.500104) scale(0.1 -0.1)">
       <use xlink:href="#STHeiti-30"/>
       <use xlink:href="#STHeiti-2e" x="55.399994"/>
       <use xlink:href="#STHeiti-35" x="83.099991"/>
      </g>
     </g>
    </g>
    <g id="ytick_6">
     <g id="line2d_12">
      <g>
       <use xlink:href="#m8ac0aa3835" x="31.371875" y="73.635833" style="stroke: #000000; stroke-width: 0.8"/>
      </g>
     </g>
     <g id="text_12">
      <!-- 1.0 -->
      <g transform="translate(10.520313 77.615521) scale(0.1 -0.1)">
       <use xlink:href="#STHeiti-31"/>
       <use xlink:href="#STHeiti-2e" x="55.399994"/>
       <use xlink:href="#STHeiti-30" x="83.099991"/>
      </g>
     </g>
    </g>
    <g id="ytick_7">
     <g id="line2d_13">
      <g>
       <use xlink:href="#m8ac0aa3835" x="31.371875" y="22.75125" style="stroke: #000000; stroke-width: 0.8"/>
      </g>
     </g>
     <g id="text_13">
      <!-- 1.5 -->
      <g transform="translate(10.520313 26.730937) scale(0.1 -0.1)">
       <use xlink:href="#STHeiti-31"/>
       <use xlink:href="#STHeiti-2e" x="55.399994"/>
       <use xlink:href="#STHeiti-35" x="83.099991"/>
      </g>
     </g>
    </g>
   </g>
   <g id="line2d_14">
    <path d="M 45.98142 175.405 
L 48.932844 168.950401 
L 51.884267 162.521791 
L 54.83569 156.145059 
L 57.787114 149.845879 
L 60.738537 143.649616 
L 63.68996 137.581222 
L 66.641384 131.66513 
L 69.592807 125.925163 
L 72.54423 120.384435 
L 75.495654 115.065254 
L 78.447077 109.989041 
L 81.3985 105.176234 
L 84.349924 100.646214 
L 87.301347 96.417221 
L 90.25277 92.506284 
L 93.204194 88.929151 
L 96.155617 85.700226 
L 99.10704 82.83251 
L 102.058464 80.337551 
L 105.009887 78.225395 
L 107.96131 76.504547 
L 110.912734 75.181936 
L 113.864157 74.262888 
L 116.81558 73.751103 
L 119.767004 73.648643 
L 122.718427 73.95592 
L 125.66985 74.671697 
L 128.621274 75.793091 
L 131.572697 77.315587 
L 134.52412 79.233054 
L 137.475544 81.537772 
L 140.426967 84.22046 
L 143.37839 87.270316 
L 146.329813 90.67506 
L 149.281237 94.420981 
L 152.23266 98.492996 
L 155.184083 102.874708 
L 158.135507 107.548474 
L 161.08693 112.495475 
L 164.038353 117.69579 
L 166.989777 123.12848 
L 169.9412 128.771669 
L 172.892623 134.602634 
L 175.844047 140.597895 
L 178.79547 146.733312 
L 181.746893 152.984181 
L 184.698317 159.32533 
L 187.64974 165.731226 
L 190.601163 172.176075 
L 193.552587 178.633925 
L 196.50401 185.078774 
L 199.455433 191.48467 
L 202.406857 197.825819 
L 205.35828 204.076688 
L 208.309703 210.212105 
L 211.261127 216.207366 
L 214.21255 222.038331 
L 217.163973 227.68152 
L 220.115397 233.11421 
L 223.06682 238.314525 
L 226.018243 243.261526 
L 228.969667 247.935292 
L 231.92109 252.317004 
L 234.872513 256.389019 
L 237.823937 260.13494 
L 240.77536 263.539684 
L 243.726783 266.58954 
L 246.678206 269.272228 
L 249.62963 271.576946 
L 252.581053 273.494413 
L 255.532476 275.016909 
L 258.4839 276.138303 
L 261.435323 276.85408 
L 264.386746 277.161357 
L 267.33817 277.058897 
L 270.289593 276.547112 
L 273.241016 275.628064 
L 276.19244 274.305453 
L 279.143863 272.584605 
L 282.095286 270.472449 
L 285.04671 267.97749 
L 287.998133 265.109774 
L 290.949556 261.880849 
L 293.90098 258.303716 
L 296.852403 254.392779 
L 299.803826 250.163786 
L 302.75525 245.633766 
L 305.706673 240.820959 
L 308.658096 235.744746 
L 311.60952 230.425565 
L 314.560943 224.884837 
L 317.512366 219.14487 
L 320.46379 213.228778 
L 323.415213 207.160384 
L 326.366636 200.964121 
L 329.31806 194.664941 
L 332.269483 188.288209 
L 335.220906 181.859599 
L 338.17233 175.405 
" clip-path="url(#p826a32cb4c)" style="fill: none; stroke-dasharray: 5.55,2.4; stroke-dashoffset: 0; stroke: #008000; stroke-width: 1.5"/>
   </g>
   <g id="line2d_15">
    <path d="M 45.98142 81.325625 
L 48.932844 83.303582 
L 51.884267 85.281539 
L 54.83569 87.259497 
L 57.787114 89.237454 
L 60.738537 91.215411 
L 63.68996 93.193369 
L 66.641384 95.171326 
L 69.592807 97.149283 
L 72.54423 99.12724 
L 75.495654 101.105198 
L 78.447077 103.083155 
L 81.3985 105.061112 
L 84.349924 107.03907 
L 87.301347 109.017027 
L 90.25277 110.994984 
L 93.204194 112.972941 
L 96.155617 114.950899 
L 99.10704 116.928856 
L 102.058464 118.906813 
L 105.009887 120.884771 
L 107.96131 122.862728 
L 110.912734 124.840685 
L 113.864157 126.818642 
L 116.81558 128.7966 
L 119.767004 130.774557 
L 122.718427 132.752514 
L 125.66985 134.730472 
L 128.621274 136.708429 
L 131.572697 138.686386 
L 134.52412 140.664343 
L 137.475544 142.642301 
L 140.426967 144.620258 
L 143.37839 146.598215 
L 146.329813 148.576173 
L 149.281237 150.55413 
L 152.23266 152.532087 
L 155.184083 154.510044 
L 158.135507 156.488002 
L 161.08693 158.465959 
L 164.038353 160.443916 
L 166.989777 162.421874 
L 169.9412 164.399831 
L 172.892623 166.377788 
L 175.844047 168.355745 
L 178.79547 170.333703 
L 181.746893 172.31166 
L 184.698317 174.289617 
L 187.64974 176.267575 
L 190.601163 178.245532 
L 193.552587 180.223489 
L 196.50401 182.201446 
L 199.455433 184.179404 
L 202.406857 186.157361 
L 205.35828 188.135318 
L 208.309703 190.113276 
L 211.261127 192.091233 
L 214.21255 194.06919 
L 217.163973 196.047147 
L 220.115397 198.025105 
L 223.06682 200.003062 
L 226.018243 201.981019 
L 228.969667 203.958977 
L 231.92109 205.936934 
L 234.872513 207.914891 
L 237.823937 209.892848 
L 240.77536 211.870806 
L 243.726783 213.848763 
L 246.678206 215.82672 
L 249.62963 217.804678 
L 252.581053 219.782635 
L 255.532476 221.760592 
L 258.4839 223.73855 
L 261.435323 225.716507 
L 264.386746 227.694464 
L 267.33817 229.672421 
L 270.289593 231.650379 
L 273.241016 233.628336 
L 276.19244 235.606293 
L 279.143863 237.584251 
L 282.095286 239.562208 
L 285.04671 241.540165 
L 287.998133 243.518122 
L 290.949556 245.49608 
L 293.90098 247.474037 
L 296.852403 249.451994 
L 299.803826 251.429952 
L 302.75525 253.407909 
L 305.706673 255.385866 
L 308.658096 257.363823 
L 311.60952 259.341781 
L 314.560943 261.319738 
L 317.512366 263.297695 
L 320.46379 265.275653 
L 323.415213 267.25361 
L 326.366636 269.231567 
L 329.31806 271.209524 
L 332.269483 273.187482 
L 335.220906 275.165439 
L 338.17233 277.143396 
" clip-path="url(#p826a32cb4c)" style="fill: none; stroke: #ff0000; stroke-width: 1.5; stroke-linecap: square"/>
   </g>
   <g id="patch_3">
    <path d="M 31.371875 328.05875 
L 31.371875 22.75125 
" style="fill: none; stroke: #000000; stroke-width: 0.8; stroke-linejoin: miter; stroke-linecap: square"/>
   </g>
   <g id="patch_4">
    <path d="M 352.781875 328.05875 
L 352.781875 22.75125 
" style="fill: none; stroke: #000000; stroke-width: 0.8; stroke-linejoin: miter; stroke-linecap: square"/>
   </g>
   <g id="patch_5">
    <path d="M 31.371875 328.05875 
L 352.781875 328.05875 
" style="fill: none; stroke: #000000; stroke-width: 0.8; stroke-linejoin: miter; stroke-linecap: square"/>
   </g>
   <g id="patch_6">
    <path d="M 31.371875 22.75125 
L 352.781875 22.75125 
" style="fill: none; stroke: #000000; stroke-width: 0.8; stroke-linejoin: miter; stroke-linecap: square"/>
   </g>
   <g id="text_14">
    <!-- 欠拟合 -->
    <g transform="translate(174.076875 16.75125) scale(0.12 -0.12)">
     <defs>
      <path id="STHeiti-6b20" d="M 2266 3962 
L 4506 3962 
Q 5235 3962 5606 4013 
L 5178 2656 
L 4570 2656 
L 4819 3482 
L 1984 3482 
Q 1568 2829 1171 2330 
Q 966 2509 666 2662 
Q 1683 3616 2150 5197 
Q 2534 5030 2822 4986 
Q 2906 4973 2906 4934 
Q 2906 4896 2835 4851 
Q 2682 4755 2266 3962 
z
M 3443 2765 
Q 3443 1734 4118 1059 
Q 4794 384 5971 218 
Q 5696 -83 5549 -474 
Q 3603 173 3238 1754 
Q 3040 947 2509 416 
Q 1978 -115 896 -589 
Q 819 -333 467 -83 
Q 1523 237 2028 694 
Q 2534 1152 2694 1805 
Q 2854 2458 2854 2976 
Q 2854 3091 2848 3219 
Q 3117 3162 3392 3162 
L 3571 3168 
Q 3635 3168 3635 3126 
Q 3635 3085 3571 3037 
Q 3507 2989 3443 2765 
z
" transform="scale(0.015625)"/>
      <path id="STHeiti-62df" d="M 1818 2355 
Q 2125 2477 2470 2637 
Q 2458 2554 2458 2435 
Q 2458 2317 2541 2157 
Q 2272 2074 1818 1875 
L 1818 -45 
Q 1818 -205 1754 -288 
Q 1690 -371 1501 -422 
Q 1312 -474 909 -518 
Q 890 -230 646 115 
Q 947 64 1084 64 
Q 1222 64 1280 102 
Q 1338 141 1338 288 
L 1338 1658 
Q 813 1402 595 1261 
Q 531 1568 378 1869 
Q 877 2016 1338 2176 
L 1338 3398 
Q 781 3386 474 3341 
L 474 3885 
Q 730 3846 1338 3834 
Q 1338 4890 1274 5133 
Q 1504 5088 1862 5088 
Q 1997 5088 1997 5043 
Q 1997 5011 1907 4944 
Q 1818 4877 1818 4685 
L 1818 3834 
Q 2214 3840 2490 3885 
L 2490 3341 
Q 2214 3386 1818 3392 
L 1818 2355 
z
M 5043 794 
Q 4646 179 3258 -627 
Q 3110 -384 2816 -186 
Q 3770 141 4250 601 
Q 4730 1062 4864 1833 
Q 4998 2605 4998 3587 
Q 4998 4570 4947 5056 
Q 5158 4992 5606 4992 
Q 5715 4992 5715 4944 
Q 5715 4896 5648 4854 
Q 5581 4813 5523 3680 
Q 5466 2547 5411 2028 
Q 5357 1510 5274 1274 
Q 5619 845 6144 109 
L 5574 -224 
Q 5389 192 5043 794 
z
M 4499 3315 
L 4019 3117 
Q 3757 4243 3494 4883 
L 3968 5043 
Q 4256 4314 4499 3315 
z
M 4320 1664 
L 3456 768 
Q 3238 550 3002 218 
Q 2842 525 2656 736 
Q 2733 832 2768 934 
Q 2803 1037 2803 1254 
L 2803 3533 
Q 2803 4077 2771 4301 
Q 2976 4256 3379 4256 
Q 3475 4256 3475 4221 
Q 3475 4186 3424 4147 
Q 3296 4058 3296 3917 
L 3296 1254 
Q 3795 1766 4077 2093 
Q 4141 1818 4320 1664 
z
" transform="scale(0.015625)"/>
      <path id="STHeiti-5408" d="M 3174 4582 
Q 2298 3482 774 2362 
Q 634 2573 288 2784 
Q 755 2982 1408 3497 
Q 2061 4013 2473 4544 
Q 2886 5075 2906 5267 
Q 3392 5094 3565 5075 
Q 3642 5062 3642 5024 
Q 3642 4986 3578 4966 
Q 3514 4947 3456 4902 
Q 3872 4250 4649 3763 
Q 5427 3277 6157 3168 
Q 5894 2899 5773 2560 
Q 3923 3373 3174 4582 
z
M 4640 2566 
Q 4262 2611 3203 2611 
Q 2144 2611 1766 2566 
L 1766 3110 
Q 2266 3066 3267 3066 
Q 4269 3066 4640 3110 
L 4640 2566 
z
M 4576 -19 
L 1869 -19 
L 1869 -595 
L 1261 -595 
Q 1318 -166 1318 205 
L 1318 1414 
Q 1318 1754 1293 1926 
Q 1568 1901 3225 1901 
Q 4883 1901 5152 1926 
Q 5126 1792 5126 1434 
L 5126 224 
Q 5126 -173 5184 -576 
L 4576 -576 
L 4576 -19 
z
M 1869 422 
L 4576 422 
L 4576 1440 
L 1869 1440 
L 1869 422 
z
" transform="scale(0.015625)"/>
     </defs>
     <use xlink:href="#STHeiti-6b20"/>
     <use xlink:href="#STHeiti-62df" x="99.999985"/>
     <use xlink:href="#STHeiti-5408" x="199.999969"/>
    </g>
   </g>
   <g id="legend_1">
    <g id="patch_7">
     <path d="M 268.24125 73.70125 
L 345.781875 73.70125 
Q 347.781875 73.70125 347.781875 71.70125 
L 347.781875 29.75125 
Q 347.781875 27.75125 345.781875 27.75125 
L 268.24125 27.75125 
Q 266.24125 27.75125 266.24125 29.75125 
L 266.24125 71.70125 
Q 266.24125 73.70125 268.24125 73.70125 
z
" style="fill: #ffffff; opacity: 0.8; stroke: #cccccc; stroke-linejoin: miter"/>
    </g>
    <g id="PathCollection_2">
     <g>
      <use xlink:href="#mef1518c36e" x="280.24125" y="37.085625" style="fill: #0000ff; stroke: #0000ff"/>
     </g>
    </g>
    <g id="text_15">
     <!-- 数据点 -->
     <g transform="translate(298.24125 39.710625) scale(0.1 -0.1)">
      <defs>
       <path id="STHeiti-6570" d="M 4640 480 
Q 4173 -51 3194 -467 
Q 3059 -237 2803 -26 
Q 3238 70 3673 323 
Q 4109 576 4365 890 
Q 3994 1549 3962 2835 
Q 3744 2458 3520 2176 
Q 3366 2419 3206 2522 
Q 3584 3040 3837 3747 
Q 4090 4454 4147 5171 
Q 4486 5062 4800 5037 
Q 4877 5030 4877 4988 
Q 4877 4947 4781 4896 
Q 4704 4858 4480 4128 
L 5216 4128 
Q 5747 4128 6003 4179 
L 6003 3661 
Q 5850 3680 5562 3699 
Q 5440 1773 4934 896 
Q 5254 518 6112 250 
Q 5856 6 5754 -365 
Q 4902 141 4640 480 
z
M 4627 1363 
Q 5018 2253 5088 3706 
L 4352 3706 
Q 4237 3328 3981 2874 
L 4384 2886 
Q 4384 1907 4627 1363 
z
M 1549 3526 
Q 1222 3520 589 3488 
L 589 3942 
Q 1158 3898 1850 3898 
L 1850 4499 
Q 1850 4800 1786 5165 
Q 2042 5139 2362 5139 
Q 2458 5139 2458 5094 
Q 2458 5050 2406 5030 
Q 2355 5011 2336 4976 
Q 2317 4941 2317 4845 
L 2317 3898 
Q 2758 3904 3507 3942 
L 3507 3488 
Q 2810 3526 2317 3533 
Q 2317 2970 2362 2515 
L 1805 2515 
Q 1850 3034 1850 3456 
Q 1632 3014 1401 2745 
Q 1171 2477 755 2189 
Q 608 2406 282 2573 
Q 1030 2816 1549 3526 
z
M 2861 4922 
Q 3155 4826 3386 4794 
Q 3462 4781 3462 4755 
Q 3462 4730 3388 4701 
Q 3315 4672 3228 4521 
Q 3142 4371 3014 4122 
Q 2835 4166 2560 4186 
Q 2746 4461 2861 4922 
z
M 1510 4230 
L 973 4154 
Q 966 4461 883 4806 
L 1389 4870 
Q 1459 4595 1510 4230 
z
M 3360 2790 
L 3046 2477 
Q 2765 2816 2464 3078 
L 2790 3328 
Q 3034 3117 3360 2790 
z
M 2899 755 
Q 3168 666 3450 525 
Q 3251 314 3168 128 
Q 2886 288 2637 390 
Q 2394 128 1984 -51 
Q 1574 -230 781 -410 
Q 627 -115 346 109 
Q 1619 134 2157 557 
Q 1709 691 1030 781 
Q 1248 1165 1408 1555 
Q 800 1549 531 1504 
L 531 1965 
Q 858 1939 1536 1926 
Q 1600 2118 1696 2458 
Q 1946 2355 2214 2336 
Q 2342 2323 2342 2294 
Q 2342 2266 2243 2198 
Q 2144 2131 2035 1926 
L 2899 1926 
Q 3162 1926 3341 1971 
Q 3123 1158 2899 755 
z
M 1862 1555 
L 1626 1043 
Q 2118 966 2470 883 
Q 2662 1165 2726 1555 
L 1862 1555 
z
" transform="scale(0.015625)"/>
       <path id="STHeiti-636e" d="M 1229 2176 
L 1229 3245 
Q 730 3245 448 3187 
L 448 3731 
Q 691 3680 1229 3680 
Q 1229 4454 1216 4681 
Q 1203 4909 1152 5114 
Q 1376 5069 1734 5069 
Q 1888 5069 1888 5021 
Q 1888 4973 1811 4915 
Q 1734 4858 1712 4810 
Q 1690 4762 1690 4678 
L 1690 3686 
Q 2016 3693 2208 3731 
L 2208 3187 
Q 1971 3232 1690 3238 
L 1690 2355 
Q 1971 2477 2240 2624 
Q 2234 2323 2310 2106 
Q 1990 2010 1690 1894 
L 1690 186 
Q 1690 -102 1635 -224 
Q 1581 -346 1395 -419 
Q 1210 -493 736 -576 
Q 723 -243 467 90 
Q 704 51 858 51 
Q 1229 51 1229 269 
L 1229 1696 
Q 794 1485 480 1242 
Q 454 1587 365 1920 
Q 838 2042 1229 2176 
z
M 4627 2214 
L 4627 1523 
Q 5510 1523 5722 1568 
Q 5683 1408 5683 1030 
L 5683 160 
Q 5683 -179 5728 -480 
L 5190 -480 
L 5190 -218 
L 3738 -218 
L 3738 -550 
L 3200 -550 
Q 3245 -307 3245 96 
L 3245 1030 
Q 3245 1357 3206 1568 
Q 3469 1530 4166 1523 
L 4166 2214 
Q 3494 2208 3098 2150 
L 3098 2669 
Q 3533 2618 4166 2611 
L 4166 3302 
L 3027 3302 
Q 3027 1690 2851 986 
Q 2675 282 2253 -474 
Q 2048 -307 1741 -282 
Q 2195 384 2368 1091 
Q 2541 1798 2541 2848 
Q 2541 3898 2496 4838 
Q 2778 4768 4067 4768 
Q 5357 4768 5741 4838 
Q 5696 4461 5696 4051 
Q 5696 3642 5741 3238 
Q 5434 3302 4627 3302 
L 4627 2611 
Q 5542 2611 6042 2669 
L 6042 2150 
Q 5574 2214 4627 2214 
z
M 3027 4378 
L 3027 3712 
L 5235 3712 
L 5235 4378 
L 3027 4378 
z
M 5190 205 
L 5190 1146 
L 3738 1146 
L 3738 205 
L 5190 205 
z
" transform="scale(0.015625)"/>
       <path id="STHeiti-70b9" d="M 3238 3962 
L 3238 3206 
Q 4749 3206 5120 3270 
Q 5082 2893 5082 2217 
Q 5082 1542 5120 1248 
Q 4621 1299 3136 1299 
Q 1651 1299 1216 1235 
Q 1280 1734 1280 2268 
Q 1280 2803 1216 3270 
Q 1658 3213 2662 3206 
L 2662 4224 
Q 2662 4922 2598 5229 
Q 3040 5133 3354 5133 
Q 3450 5133 3450 5104 
Q 3450 5075 3376 5030 
Q 3302 4986 3270 4934 
Q 3238 4883 3238 4755 
L 3238 4429 
L 4358 4429 
Q 4998 4429 5594 4486 
L 5594 3904 
Q 5114 3962 4365 3962 
L 3238 3962 
z
M 4557 1754 
L 4557 2752 
L 1779 2752 
L 1779 1754 
L 4557 1754 
z
M 6022 -141 
L 5389 -397 
Q 5184 230 4781 813 
L 5267 998 
Q 5613 435 6022 -141 
z
M 1478 704 
Q 1107 -83 909 -538 
L 275 -294 
Q 800 250 1005 896 
L 1478 704 
z
M 4320 -250 
L 3706 -333 
Q 3584 314 3405 762 
L 3923 890 
Q 4083 352 4320 -250 
z
M 2835 -358 
L 2214 -422 
Q 2227 154 2080 653 
L 2605 710 
Q 2714 64 2835 -358 
z
" transform="scale(0.015625)"/>
      </defs>
      <use xlink:href="#STHeiti-6570"/>
      <use xlink:href="#STHeiti-636e" x="99.999985"/>
      <use xlink:href="#STHeiti-70b9" x="199.999969"/>
     </g>
    </g>
    <g id="line2d_16">
     <path d="M 270.24125 50.510625 
L 280.24125 50.510625 
L 290.24125 50.510625 
" style="fill: none; stroke-dasharray: 5.55,2.4; stroke-dashoffset: 0; stroke: #008000; stroke-width: 1.5"/>
    </g>
    <g id="text_16">
     <!-- 真实函数 -->
     <g transform="translate(298.24125 54.010625) scale(0.1 -0.1)">
      <defs>
       <path id="STHeiti-771f" d="M 1555 922 
L 1555 3085 
Q 1555 3578 1510 3846 
Q 2080 3802 3002 3802 
Q 3034 4026 3040 4230 
Q 1427 4230 819 4186 
L 819 4685 
Q 1664 4627 3046 4627 
Q 3046 4890 3027 5216 
Q 3334 5146 3680 5146 
Q 3731 5146 3731 5123 
Q 3731 5101 3686 5065 
Q 3642 5030 3578 4627 
Q 4941 4627 5773 4685 
L 5773 4186 
Q 5165 4230 3533 4230 
Q 3501 3904 3488 3802 
Q 4486 3802 5075 3846 
Q 5043 3507 5043 3085 
L 5043 922 
Q 5677 922 6080 960 
L 6080 506 
Q 5779 550 3276 550 
Q 774 550 486 506 
L 486 960 
Q 928 922 1555 922 
z
M 4570 3059 
L 4570 3443 
L 2022 3443 
L 2022 3059 
L 4570 3059 
z
M 2022 2733 
L 2022 2342 
L 4570 2342 
L 4570 2733 
L 2022 2733 
z
M 2022 2016 
L 2022 1632 
L 4570 1632 
L 4570 2016 
L 2022 2016 
z
M 4570 922 
L 4570 1312 
L 2022 1312 
L 2022 922 
L 4570 922 
z
M 5709 -147 
L 5402 -614 
Q 4557 -96 3757 109 
L 4051 512 
Q 4806 262 5709 -147 
z
M 2470 480 
Q 2694 314 2800 259 
Q 2906 205 2906 169 
Q 2906 134 2803 102 
Q 2656 58 1082 -634 
Q 998 -333 774 -166 
Q 1261 -77 1587 54 
Q 1914 186 2470 480 
z
" transform="scale(0.015625)"/>
       <path id="STHeiti-5b9e" d="M 3027 4544 
Q 2931 4909 2810 5171 
L 3494 5293 
Q 3590 4928 3744 4544 
Q 5139 4550 5722 4582 
L 5722 3347 
L 5139 3347 
L 5139 4070 
L 1171 4070 
L 1171 3309 
L 634 3309 
L 634 4582 
Q 1222 4544 3027 4544 
z
M 3642 1261 
Q 3405 646 2768 185 
Q 2131 -275 1005 -659 
Q 806 -326 544 -83 
Q 1555 102 2153 422 
Q 2752 742 3040 1261 
Q 1344 1261 474 1197 
L 474 1811 
Q 1357 1747 3226 1747 
Q 3315 2278 3315 3315 
Q 3315 3590 3309 3757 
Q 3590 3718 3757 3718 
L 4013 3725 
Q 4058 3725 4058 3705 
Q 4058 3686 4016 3657 
Q 3974 3629 3942 3510 
Q 3910 3392 3898 3245 
Q 3846 2253 3776 1747 
Q 5101 1760 5843 1811 
L 5843 1184 
Q 4864 1254 3642 1261 
z
M 3008 3021 
L 2675 2592 
Q 2176 3034 1677 3302 
L 1990 3648 
Q 2566 3309 3008 3021 
z
M 2515 2208 
L 2067 1850 
Q 1715 2150 1082 2458 
L 1472 2816 
Q 2182 2438 2515 2208 
z
M 5734 -70 
L 5306 -602 
Q 4493 58 3584 512 
L 3891 928 
Q 4947 429 5734 -70 
z
" transform="scale(0.015625)"/>
       <path id="STHeiti-51fd" d="M 5498 4422 
Q 5120 4346 4864 4211 
L 3526 3526 
L 3526 1037 
Q 3526 851 3459 748 
Q 3392 646 3197 576 
Q 3002 506 2598 435 
Q 2554 749 2426 1024 
Q 2554 1005 2650 1005 
Q 3008 1005 3008 1248 
L 3008 3795 
L 4326 4416 
L 2355 4416 
Q 1510 4416 1024 4339 
L 1024 4845 
Q 1766 4832 3427 4832 
Q 5088 4832 5498 4858 
L 5498 4422 
z
M 2758 2886 
L 2304 2534 
Q 1888 3046 1459 3334 
L 1856 3642 
Q 2368 3264 2758 2886 
z
M 4640 3597 
Q 4864 3328 5082 3194 
Q 5146 3155 5146 3132 
Q 5146 3110 5123 3107 
Q 5101 3104 5021 3104 
Q 4941 3104 4752 2985 
Q 4563 2867 4045 2483 
Q 3910 2707 3674 2848 
Q 4262 3187 4640 3597 
z
M 5133 -154 
L 1907 -250 
Q 1043 -282 691 -326 
Q 749 77 749 595 
L 749 2374 
Q 749 2797 710 3142 
Q 1043 3091 1350 3091 
Q 1453 3091 1453 3056 
Q 1453 3021 1395 2982 
Q 1261 2886 1261 2694 
L 1261 205 
L 5133 301 
L 5133 2413 
Q 5133 2912 5101 3072 
Q 5478 3002 5766 3002 
Q 5862 3002 5862 2970 
Q 5862 2938 5818 2912 
Q 5651 2803 5651 2662 
L 5651 205 
Q 5651 -218 5677 -544 
L 5133 -544 
L 5133 -154 
z
M 2726 1792 
Q 2042 1293 1632 947 
Q 1498 1216 1331 1446 
Q 1933 1786 2560 2234 
Q 2618 1990 2726 1792 
z
M 5005 1427 
L 4614 986 
Q 4192 1427 3686 1811 
L 4000 2150 
Q 4506 1811 5005 1427 
z
" transform="scale(0.015625)"/>
      </defs>
      <use xlink:href="#STHeiti-771f"/>
      <use xlink:href="#STHeiti-5b9e" x="99.999985"/>
      <use xlink:href="#STHeiti-51fd" x="199.999969"/>
      <use xlink:href="#STHeiti-6570" x="299.999954"/>
     </g>
    </g>
    <g id="line2d_17">
     <path d="M 270.24125 64.860625 
L 280.24125 64.860625 
L 290.24125 64.860625 
" style="fill: none; stroke: #ff0000; stroke-width: 1.5; stroke-linecap: square"/>
    </g>
    <g id="text_17">
     <!-- 1次多项式 -->
     <g transform="translate(298.24125 68.360625) scale(0.1 -0.1)">
      <defs>
       <path id="STHeiti-6b21" d="M 3008 3571 
Q 2733 3021 2426 2509 
Q 2208 2650 1901 2688 
Q 2797 3840 3008 5203 
Q 3424 5062 3699 5024 
Q 3814 5011 3814 4954 
Q 3814 4928 3763 4896 
Q 3610 4806 3533 4636 
Q 3456 4467 3232 4019 
L 4736 4019 
Q 5510 4019 5952 4070 
L 5395 2522 
L 4858 2618 
L 5210 3571 
L 3008 3571 
z
M 1888 3366 
L 1395 3040 
Q 966 3878 576 4384 
L 1005 4659 
Q 1523 4019 1888 3366 
z
M 3840 1600 
Q 3648 813 3193 278 
Q 2739 -256 1933 -646 
Q 1670 -352 1395 -205 
Q 1888 -58 2262 185 
Q 2637 429 2896 742 
Q 3155 1056 3299 1421 
Q 3443 1786 3465 2013 
Q 3488 2240 3488 2496 
Q 3488 2752 3469 3117 
Q 3802 3066 4003 3066 
Q 4205 3066 4205 3008 
Q 4205 2976 4160 2931 
Q 4077 2848 4006 2496 
Q 4019 1555 4537 963 
Q 5056 371 6150 45 
Q 5882 -243 5754 -570 
Q 4787 -83 4380 397 
Q 3974 877 3840 1600 
z
M 2003 1882 
Q 1485 998 934 -179 
Q 659 154 403 339 
Q 1050 1120 1549 2323 
Q 1734 2054 2003 1882 
z
" transform="scale(0.015625)"/>
       <path id="STHeiti-591a" d="M 2016 3450 
Q 1747 3206 1453 2989 
Q 1376 3200 1005 3360 
Q 1587 3667 2041 4179 
Q 2496 4691 2656 5210 
Q 3066 5037 3315 4998 
Q 3405 4986 3405 4947 
Q 3405 4909 3289 4861 
Q 3174 4813 2912 4506 
L 3994 4506 
Q 5171 4506 5626 4557 
Q 5139 3840 4684 3440 
Q 4230 3040 3328 2573 
Q 3597 2464 3834 2438 
Q 3904 2432 3904 2400 
Q 3904 2368 3805 2310 
Q 3706 2253 3565 2138 
L 4557 2138 
Q 5542 2138 5926 2189 
Q 5504 1229 4979 675 
Q 4454 122 3372 -211 
Q 2291 -544 1050 -550 
Q 973 -211 736 45 
Q 902 -6 1324 -6 
Q 1747 -6 2435 106 
Q 3123 218 3635 397 
Q 3219 800 2598 1229 
Q 2144 864 1613 589 
Q 1478 819 1114 992 
Q 1702 1203 2320 1648 
Q 2938 2093 3277 2547 
Q 2400 2067 1197 1786 
Q 1126 2074 858 2291 
Q 1805 2451 2771 2842 
Q 2374 3206 2016 3450 
z
M 2605 4102 
Q 2502 3955 2323 3757 
Q 2758 3469 3258 3059 
Q 3667 3270 4060 3577 
Q 4454 3885 4595 4102 
L 2605 4102 
z
M 3136 1709 
Q 3078 1651 2950 1536 
Q 3469 1171 4109 627 
Q 4826 1088 5069 1709 
L 3136 1709 
z
" transform="scale(0.015625)"/>
       <path id="STHeiti-9879" d="M 3962 4454 
Q 3034 4448 2586 4403 
L 2560 4928 
Q 3104 4877 4294 4877 
Q 5485 4877 6010 4928 
L 6010 4403 
Q 5517 4454 4512 4454 
Q 4397 3994 4314 3706 
Q 5197 3706 5594 3731 
Q 5581 3635 5581 2963 
L 5581 1696 
Q 5581 1114 5619 813 
L 5024 813 
L 5024 3270 
L 3302 3270 
L 3302 678 
L 2765 678 
Q 2803 979 2803 1562 
L 2803 2963 
Q 2803 3642 2797 3731 
Q 3123 3712 3846 3706 
Q 3930 4179 3962 4454 
z
M 1651 1523 
Q 2182 1645 2438 1741 
Q 2400 1594 2400 1472 
Q 2400 1350 2438 1210 
Q 1062 883 486 640 
Q 486 966 333 1286 
Q 768 1350 1139 1421 
L 1139 4147 
Q 659 4141 371 4090 
L 371 4672 
Q 691 4614 1347 4614 
Q 2003 4614 2342 4672 
L 2342 4090 
Q 2106 4128 1651 4141 
L 1651 1523 
z
M 3962 2778 
Q 4397 2694 4502 2691 
Q 4608 2688 4608 2678 
Q 4608 2669 4557 2640 
Q 4506 2611 4493 2406 
Q 4442 1632 4352 1222 
Q 4262 813 4057 496 
Q 3853 179 3478 -80 
Q 3104 -339 2374 -704 
Q 2246 -442 1907 -224 
Q 2618 -6 3037 230 
Q 3456 467 3654 812 
Q 3853 1158 3917 1548 
Q 3981 1939 3962 2778 
z
M 6010 -192 
L 5600 -640 
Q 4941 64 4269 589 
L 4602 915 
Q 5440 333 6010 -192 
z
" transform="scale(0.015625)"/>
       <path id="STHeiti-5f0f" d="M 3437 4032 
Q 3328 5248 3322 5280 
Q 3635 5210 4000 5210 
Q 4122 5210 4122 5171 
Q 4122 5133 4051 5062 
Q 3936 4954 3936 4333 
Q 3936 4198 3942 4045 
Q 5197 4083 5869 4166 
L 5882 3533 
Q 5536 3558 5062 3558 
Q 4589 3558 3987 3546 
Q 4109 2182 4384 1561 
Q 4659 941 4940 601 
Q 5222 262 5372 262 
Q 5523 262 5574 457 
Q 5626 653 5658 986 
Q 5933 678 6227 576 
Q 6093 19 5939 -265 
Q 5786 -550 5581 -550 
Q 5325 -550 4816 -70 
Q 4307 410 3945 1277 
Q 3584 2144 3475 3533 
L 2464 3507 
Q 1069 3475 454 3392 
L 448 4019 
Q 922 4000 1498 4000 
Q 2074 4000 2445 4006 
L 3437 4032 
z
M 5357 4563 
L 4915 4186 
Q 4710 4467 4378 4710 
L 4794 5056 
Q 4992 4902 5357 4563 
z
M 2298 659 
Q 3091 838 3475 998 
Q 3456 832 3456 710 
Q 3456 589 3462 461 
Q 1939 109 774 -333 
Q 717 83 582 365 
Q 1043 403 1792 550 
L 1792 2086 
Q 1171 2080 806 2022 
L 806 2624 
Q 1210 2560 1984 2560 
Q 2758 2560 3155 2624 
L 3155 2022 
Q 2842 2080 2298 2086 
L 2298 659 
z
" transform="scale(0.015625)"/>
      </defs>
      <use xlink:href="#STHeiti-31"/>
      <use xlink:href="#STHeiti-6b21" x="55.399994"/>
      <use xlink:href="#STHeiti-591a" x="155.399979"/>
      <use xlink:href="#STHeiti-9879" x="255.399963"/>
      <use xlink:href="#STHeiti-5f0f" x="355.399948"/>
     </g>
    </g>
   </g>
  </g>
  <g id="axes_2">
   <g id="patch_8">
    <path d="M 387.771875 328.05875 
L 709.181875 328.05875 
L 709.181875 22.75125 
L 387.771875 22.75125 
z
" style="fill: #ffffff"/>
   </g>
   <g id="PathCollection_3">
    <g clip-path="url(#p2428d351b4)">
     <use xlink:href="#mef1518c36e" x="402.38142" y="165.294963" style="fill: #0000ff; stroke: #0000ff"/>
     <use xlink:href="#mef1518c36e" x="412.456969" y="156.341846" style="fill: #0000ff; stroke: #0000ff"/>
     <use xlink:href="#mef1518c36e" x="422.532518" y="119.490291" style="fill: #0000ff; stroke: #0000ff"/>
     <use xlink:href="#mef1518c36e" x="432.608066" y="82.817429" style="fill: #0000ff; stroke: #0000ff"/>
     <use xlink:href="#mef1518c36e" x="442.683615" y="102.606322" style="fill: #0000ff; stroke: #0000ff"/>
     <use xlink:href="#mef1518c36e" x="452.759163" y="90.2563" style="fill: #0000ff; stroke: #0000ff"/>
     <use xlink:href="#mef1518c36e" x="462.834712" y="45.202286" style="fill: #0000ff; stroke: #0000ff"/>
     <use xlink:href="#mef1518c36e" x="472.910261" y="58.164848" style="fill: #0000ff; stroke: #0000ff"/>
     <use xlink:href="#mef1518c36e" x="482.985809" y="84.532091" style="fill: #0000ff; stroke: #0000ff"/>
     <use xlink:href="#mef1518c36e" x="493.061358" y="69.820637" style="fill: #0000ff; stroke: #0000ff"/>
     <use xlink:href="#mef1518c36e" x="503.136906" y="100.604107" style="fill: #0000ff; stroke: #0000ff"/>
     <use xlink:href="#mef1518c36e" x="513.212455" y="114.897785" style="fill: #0000ff; stroke: #0000ff"/>
     <use xlink:href="#mef1518c36e" x="523.288004" y="118.012654" style="fill: #0000ff; stroke: #0000ff"/>
     <use xlink:href="#mef1518c36e" x="533.363552" y="181.852537" style="fill: #0000ff; stroke: #0000ff"/>
     <use xlink:href="#mef1518c36e" x="543.439101" y="199.510508" style="fill: #0000ff; stroke: #0000ff"/>
     <use xlink:href="#mef1518c36e" x="553.514649" y="197.852889" style="fill: #0000ff; stroke: #0000ff"/>
     <use xlink:href="#mef1518c36e" x="563.590198" y="228.515046" style="fill: #0000ff; stroke: #0000ff"/>
     <use xlink:href="#mef1518c36e" x="573.665746" y="221.476349" style="fill: #0000ff; stroke: #0000ff"/>
     <use xlink:href="#mef1518c36e" x="583.741295" y="263.873372" style="fill: #0000ff; stroke: #0000ff"/>
     <use xlink:href="#mef1518c36e" x="593.816844" y="288.384014" style="fill: #0000ff; stroke: #0000ff"/>
     <use xlink:href="#mef1518c36e" x="603.892392" y="240.114616" style="fill: #0000ff; stroke: #0000ff"/>
     <use xlink:href="#mef1518c36e" x="613.967941" y="280.428926" style="fill: #0000ff; stroke: #0000ff"/>
     <use xlink:href="#mef1518c36e" x="624.043489" y="275.650456" style="fill: #0000ff; stroke: #0000ff"/>
     <use xlink:href="#mef1518c36e" x="634.119038" y="302.463767" style="fill: #0000ff; stroke: #0000ff"/>
     <use xlink:href="#mef1518c36e" x="644.194587" y="276.39956" style="fill: #0000ff; stroke: #0000ff"/>
     <use xlink:href="#mef1518c36e" x="654.270135" y="250.711897" style="fill: #0000ff; stroke: #0000ff"/>
     <use xlink:href="#mef1518c36e" x="664.345684" y="260.420207" style="fill: #0000ff; stroke: #0000ff"/>
     <use xlink:href="#mef1518c36e" x="674.421232" y="210.489869" style="fill: #0000ff; stroke: #0000ff"/>
     <use xlink:href="#mef1518c36e" x="684.496781" y="209.507662" style="fill: #0000ff; stroke: #0000ff"/>
     <use xlink:href="#mef1518c36e" x="694.57233" y="181.342086" style="fill: #0000ff; stroke: #0000ff"/>
    </g>
   </g>
   <g id="matplotlib.axis_3">
    <g id="xtick_7">
     <g id="line2d_18">
      <g>
       <use xlink:href="#m940d7ef762" x="402.38142" y="328.05875" style="stroke: #000000; stroke-width: 0.8"/>
      </g>
     </g>
     <g id="text_18">
      <!-- 0.0 -->
      <g transform="translate(395.455639 343.018125) scale(0.1 -0.1)">
       <use xlink:href="#STHeiti-30"/>
       <use xlink:href="#STHeiti-2e" x="55.399994"/>
       <use xlink:href="#STHeiti-30" x="83.099991"/>
      </g>
     </g>
    </g>
    <g id="xtick_8">
     <g id="line2d_19">
      <g>
       <use xlink:href="#m940d7ef762" x="460.819602" y="328.05875" style="stroke: #000000; stroke-width: 0.8"/>
      </g>
     </g>
     <g id="text_19">
      <!-- 0.2 -->
      <g transform="translate(453.893821 343.018125) scale(0.1 -0.1)">
       <use xlink:href="#STHeiti-30"/>
       <use xlink:href="#STHeiti-2e" x="55.399994"/>
       <use xlink:href="#STHeiti-32" x="83.099991"/>
      </g>
     </g>
    </g>
    <g id="xtick_9">
     <g id="line2d_20">
      <g>
       <use xlink:href="#m940d7ef762" x="519.257784" y="328.05875" style="stroke: #000000; stroke-width: 0.8"/>
      </g>
     </g>
     <g id="text_20">
      <!-- 0.4 -->
      <g transform="translate(512.332003 343.018125) scale(0.1 -0.1)">
       <use xlink:href="#STHeiti-30"/>
       <use xlink:href="#STHeiti-2e" x="55.399994"/>
       <use xlink:href="#STHeiti-34" x="83.099991"/>
      </g>
     </g>
    </g>
    <g id="xtick_10">
     <g id="line2d_21">
      <g>
       <use xlink:href="#m940d7ef762" x="577.695966" y="328.05875" style="stroke: #000000; stroke-width: 0.8"/>
      </g>
     </g>
     <g id="text_21">
      <!-- 0.6 -->
      <g transform="translate(570.770185 343.018125) scale(0.1 -0.1)">
       <use xlink:href="#STHeiti-30"/>
       <use xlink:href="#STHeiti-2e" x="55.399994"/>
       <use xlink:href="#STHeiti-36" x="83.099991"/>
      </g>
     </g>
    </g>
    <g id="xtick_11">
     <g id="line2d_22">
      <g>
       <use xlink:href="#m940d7ef762" x="636.134148" y="328.05875" style="stroke: #000000; stroke-width: 0.8"/>
      </g>
     </g>
     <g id="text_22">
      <!-- 0.8 -->
      <g transform="translate(629.208366 343.018125) scale(0.1 -0.1)">
       <use xlink:href="#STHeiti-30"/>
       <use xlink:href="#STHeiti-2e" x="55.399994"/>
       <use xlink:href="#STHeiti-38" x="83.099991"/>
      </g>
     </g>
    </g>
    <g id="xtick_12">
     <g id="line2d_23">
      <g>
       <use xlink:href="#m940d7ef762" x="694.57233" y="328.05875" style="stroke: #000000; stroke-width: 0.8"/>
      </g>
     </g>
     <g id="text_23">
      <!-- 1.0 -->
      <g transform="translate(687.646548 343.018125) scale(0.1 -0.1)">
       <use xlink:href="#STHeiti-31"/>
       <use xlink:href="#STHeiti-2e" x="55.399994"/>
       <use xlink:href="#STHeiti-30" x="83.099991"/>
      </g>
     </g>
    </g>
   </g>
   <g id="matplotlib.axis_4">
    <g id="ytick_8">
     <g id="line2d_24">
      <g>
       <use xlink:href="#m8ac0aa3835" x="387.771875" y="328.05875" style="stroke: #000000; stroke-width: 0.8"/>
      </g>
     </g>
     <g id="text_24">
      <!-- -1.5 -->
      <g transform="translate(363.6 332.038437) scale(0.1 -0.1)">
       <use xlink:href="#STHeiti-2d"/>
       <use xlink:href="#STHeiti-31" x="33.199997"/>
       <use xlink:href="#STHeiti-2e" x="88.599991"/>
       <use xlink:href="#STHeiti-35" x="116.299988"/>
      </g>
     </g>
    </g>
    <g id="ytick_9">
     <g id="line2d_25">
      <g>
       <use xlink:href="#m8ac0aa3835" x="387.771875" y="277.174167" style="stroke: #000000; stroke-width: 0.8"/>
      </g>
     </g>
     <g id="text_25">
      <!-- -1.0 -->
      <g transform="translate(363.6 281.153854) scale(0.1 -0.1)">
       <use xlink:href="#STHeiti-2d"/>
       <use xlink:href="#STHeiti-31" x="33.199997"/>
       <use xlink:href="#STHeiti-2e" x="88.599991"/>
       <use xlink:href="#STHeiti-30" x="116.299988"/>
      </g>
     </g>
    </g>
    <g id="ytick_10">
     <g id="line2d_26">
      <g>
       <use xlink:href="#m8ac0aa3835" x="387.771875" y="226.289583" style="stroke: #000000; stroke-width: 0.8"/>
      </g>
     </g>
     <g id="text_26">
      <!-- -0.5 -->
      <g transform="translate(363.6 230.269271) scale(0.1 -0.1)">
       <use xlink:href="#STHeiti-2d"/>
       <use xlink:href="#STHeiti-30" x="33.199997"/>
       <use xlink:href="#STHeiti-2e" x="88.599991"/>
       <use xlink:href="#STHeiti-35" x="116.299988"/>
      </g>
     </g>
    </g>
    <g id="ytick_11">
     <g id="line2d_27">
      <g>
       <use xlink:href="#m8ac0aa3835" x="387.771875" y="175.405" style="stroke: #000000; stroke-width: 0.8"/>
      </g>
     </g>
     <g id="text_27">
      <!-- 0.0 -->
      <g transform="translate(366.920313 179.384687) scale(0.1 -0.1)">
       <use xlink:href="#STHeiti-30"/>
       <use xlink:href="#STHeiti-2e" x="55.399994"/>
       <use xlink:href="#STHeiti-30" x="83.099991"/>
      </g>
     </g>
    </g>
    <g id="ytick_12">
     <g id="line2d_28">
      <g>
       <use xlink:href="#m8ac0aa3835" x="387.771875" y="124.520417" style="stroke: #000000; stroke-width: 0.8"/>
      </g>
     </g>
     <g id="text_28">
      <!-- 0.5 -->
      <g transform="translate(366.920313 128.500104) scale(0.1 -0.1)">
       <use xlink:href="#STHeiti-30"/>
       <use xlink:href="#STHeiti-2e" x="55.399994"/>
       <use xlink:href="#STHeiti-35" x="83.099991"/>
      </g>
     </g>
    </g>
    <g id="ytick_13">
     <g id="line2d_29">
      <g>
       <use xlink:href="#m8ac0aa3835" x="387.771875" y="73.635833" style="stroke: #000000; stroke-width: 0.8"/>
      </g>
     </g>
     <g id="text_29">
      <!-- 1.0 -->
      <g transform="translate(366.920313 77.615521) scale(0.1 -0.1)">
       <use xlink:href="#STHeiti-31"/>
       <use xlink:href="#STHeiti-2e" x="55.399994"/>
       <use xlink:href="#STHeiti-30" x="83.099991"/>
      </g>
     </g>
    </g>
    <g id="ytick_14">
     <g id="line2d_30">
      <g>
       <use xlink:href="#m8ac0aa3835" x="387.771875" y="22.75125" style="stroke: #000000; stroke-width: 0.8"/>
      </g>
     </g>
     <g id="text_30">
      <!-- 1.5 -->
      <g transform="translate(366.920313 26.730937) scale(0.1 -0.1)">
       <use xlink:href="#STHeiti-31"/>
       <use xlink:href="#STHeiti-2e" x="55.399994"/>
       <use xlink:href="#STHeiti-35" x="83.099991"/>
      </g>
     </g>
    </g>
   </g>
   <g id="line2d_31">
    <path d="M 402.38142 175.405 
L 405.332844 168.950401 
L 408.284267 162.521791 
L 411.23569 156.145059 
L 414.187114 149.845879 
L 417.138537 143.649616 
L 420.08996 137.581222 
L 423.041384 131.66513 
L 425.992807 125.925163 
L 428.94423 120.384435 
L 431.895654 115.065254 
L 434.847077 109.989041 
L 437.7985 105.176234 
L 440.749924 100.646214 
L 443.701347 96.417221 
L 446.65277 92.506284 
L 449.604194 88.929151 
L 452.555617 85.700226 
L 455.50704 82.83251 
L 458.458464 80.337551 
L 461.409887 78.225395 
L 464.36131 76.504547 
L 467.312734 75.181936 
L 470.264157 74.262888 
L 473.21558 73.751103 
L 476.167004 73.648643 
L 479.118427 73.95592 
L 482.06985 74.671697 
L 485.021274 75.793091 
L 487.972697 77.315587 
L 490.92412 79.233054 
L 493.875544 81.537772 
L 496.826967 84.22046 
L 499.77839 87.270316 
L 502.729813 90.67506 
L 505.681237 94.420981 
L 508.63266 98.492996 
L 511.584083 102.874708 
L 514.535507 107.548474 
L 517.48693 112.495475 
L 520.438353 117.69579 
L 523.389777 123.12848 
L 526.3412 128.771669 
L 529.292623 134.602634 
L 532.244047 140.597895 
L 535.19547 146.733312 
L 538.146893 152.984181 
L 541.098317 159.32533 
L 544.04974 165.731226 
L 547.001163 172.176075 
L 549.952587 178.633925 
L 552.90401 185.078774 
L 555.855433 191.48467 
L 558.806857 197.825819 
L 561.75828 204.076688 
L 564.709703 210.212105 
L 567.661127 216.207366 
L 570.61255 222.038331 
L 573.563973 227.68152 
L 576.515397 233.11421 
L 579.46682 238.314525 
L 582.418243 243.261526 
L 585.369667 247.935292 
L 588.32109 252.317004 
L 591.272513 256.389019 
L 594.223937 260.13494 
L 597.17536 263.539684 
L 600.126783 266.58954 
L 603.078206 269.272228 
L 606.02963 271.576946 
L 608.981053 273.494413 
L 611.932476 275.016909 
L 614.8839 276.138303 
L 617.835323 276.85408 
L 620.786746 277.161357 
L 623.73817 277.058897 
L 626.689593 276.547112 
L 629.641016 275.628064 
L 632.59244 274.305453 
L 635.543863 272.584605 
L 638.495286 270.472449 
L 641.44671 267.97749 
L 644.398133 265.109774 
L 647.349556 261.880849 
L 650.30098 258.303716 
L 653.252403 254.392779 
L 656.203826 250.163786 
L 659.15525 245.633766 
L 662.106673 240.820959 
L 665.058096 235.744746 
L 668.00952 230.425565 
L 670.960943 224.884837 
L 673.912366 219.14487 
L 676.86379 213.228778 
L 679.815213 207.160384 
L 682.766636 200.964121 
L 685.71806 194.664941 
L 688.669483 188.288209 
L 691.620906 181.859599 
L 694.57233 175.405 
" clip-path="url(#p2428d351b4)" style="fill: none; stroke-dasharray: 5.55,2.4; stroke-dashoffset: 0; stroke: #008000; stroke-width: 1.5"/>
   </g>
   <g id="line2d_32">
    <path d="M 402.38142 175.053816 
L 405.332844 164.252548 
L 408.284267 154.130751 
L 411.23569 144.674154 
L 414.187114 135.868485 
L 417.138537 127.699475 
L 420.08996 120.152851 
L 423.041384 113.214342 
L 425.992807 106.869676 
L 428.94423 101.104583 
L 431.895654 95.904791 
L 434.847077 91.256029 
L 437.7985 87.144026 
L 440.749924 83.55451 
L 443.701347 80.473209 
L 446.65277 77.885854 
L 449.604194 75.778172 
L 452.555617 74.135892 
L 455.50704 72.944744 
L 458.458464 72.190454 
L 461.409887 71.858753 
L 464.36131 71.935369 
L 467.312734 72.406031 
L 470.264157 73.256467 
L 473.21558 74.472407 
L 476.167004 76.039578 
L 479.118427 77.94371 
L 482.06985 80.170531 
L 485.021274 82.70577 
L 487.972697 85.535156 
L 490.92412 88.644417 
L 493.875544 92.019283 
L 496.826967 95.645481 
L 499.77839 99.508741 
L 502.729813 103.594791 
L 505.681237 107.889361 
L 508.63266 112.378178 
L 511.584083 117.046971 
L 514.535507 121.88147 
L 517.48693 126.867403 
L 520.438353 131.990498 
L 523.389777 137.236484 
L 526.3412 142.591091 
L 529.292623 148.040046 
L 532.244047 153.569079 
L 535.19547 159.163918 
L 538.146893 164.810292 
L 541.098317 170.493929 
L 544.04974 176.200559 
L 547.001163 181.91591 
L 549.952587 187.62571 
L 552.90401 193.315689 
L 555.855433 198.971575 
L 558.806857 204.579097 
L 561.75828 210.123984 
L 564.709703 215.591964 
L 567.661127 220.968766 
L 570.61255 226.240119 
L 573.563973 231.391751 
L 576.515397 236.409391 
L 579.46682 241.278769 
L 582.418243 245.985612 
L 585.369667 250.515649 
L 588.32109 254.854609 
L 591.272513 258.988221 
L 594.223937 262.902214 
L 597.17536 266.582315 
L 600.126783 270.014255 
L 603.078206 273.183761 
L 606.02963 276.076563 
L 608.981053 278.678388 
L 611.932476 280.974967 
L 614.8839 282.952026 
L 617.835323 284.595296 
L 620.786746 285.890505 
L 623.73817 286.823382 
L 626.689593 287.379655 
L 629.641016 287.545053 
L 632.59244 287.305304 
L 635.543863 286.646138 
L 638.495286 285.553284 
L 641.44671 284.012469 
L 644.398133 282.009423 
L 647.349556 279.529874 
L 650.30098 276.559551 
L 653.252403 273.084183 
L 656.203826 269.089499 
L 659.15525 264.561227 
L 662.106673 259.485095 
L 665.058096 253.846833 
L 668.00952 247.63217 
L 670.960943 240.826834 
L 673.912366 233.416553 
L 676.86379 225.387057 
L 679.815213 216.724074 
L 682.766636 207.413333 
L 685.71806 197.440563 
L 688.669483 186.791491 
L 691.620906 175.451849 
L 694.57233 163.407362 
" clip-path="url(#p2428d351b4)" style="fill: none; stroke: #ff0000; stroke-width: 1.5; stroke-linecap: square"/>
   </g>
   <g id="patch_9">
    <path d="M 387.771875 328.05875 
L 387.771875 22.75125 
" style="fill: none; stroke: #000000; stroke-width: 0.8; stroke-linejoin: miter; stroke-linecap: square"/>
   </g>
   <g id="patch_10">
    <path d="M 709.181875 328.05875 
L 709.181875 22.75125 
" style="fill: none; stroke: #000000; stroke-width: 0.8; stroke-linejoin: miter; stroke-linecap: square"/>
   </g>
   <g id="patch_11">
    <path d="M 387.771875 328.05875 
L 709.181875 328.05875 
" style="fill: none; stroke: #000000; stroke-width: 0.8; stroke-linejoin: miter; stroke-linecap: square"/>
   </g>
   <g id="patch_12">
    <path d="M 387.771875 22.75125 
L 709.181875 22.75125 
" style="fill: none; stroke: #000000; stroke-width: 0.8; stroke-linejoin: miter; stroke-linecap: square"/>
   </g>
   <g id="text_31">
    <!-- 适当拟合 -->
    <g transform="translate(524.476875 16.75125) scale(0.12 -0.12)">
     <defs>
      <path id="STHeiti-9002" d="M 3661 4390 
Q 2906 4294 2458 4262 
Q 2438 4538 2221 4730 
Q 2957 4704 3817 4841 
Q 4678 4979 5210 5190 
Q 5306 4960 5536 4710 
Q 5606 4634 5606 4595 
Q 5606 4557 5526 4576 
Q 5446 4595 5283 4595 
Q 5120 4595 4954 4570 
L 4154 4454 
L 4154 3686 
Q 5210 3693 5875 3744 
L 5875 3200 
Q 5171 3251 4154 3251 
L 4154 2528 
Q 5152 2534 5440 2579 
Q 5402 2355 5402 2054 
L 5402 1094 
Q 5402 813 5446 538 
L 4909 538 
L 4909 838 
L 2931 838 
L 2931 422 
L 2406 422 
Q 2451 723 2451 986 
L 2451 2054 
Q 2451 2349 2406 2579 
Q 2784 2534 3661 2528 
L 3661 3251 
Q 2656 3245 1997 3194 
L 1997 3744 
Q 2637 3693 3661 3686 
L 3661 4390 
z
M 4909 1254 
L 4909 2106 
L 2931 2106 
L 2931 1254 
L 4909 1254 
z
M 1818 3955 
L 1286 3635 
Q 1030 4192 640 4608 
L 1133 4928 
Q 1421 4486 1818 3955 
z
M 1581 614 
Q 1805 570 2374 275 
Q 2714 102 3786 102 
Q 4858 102 6016 269 
Q 5811 -19 5811 -403 
Q 4749 -435 3977 -435 
Q 3206 -435 2768 -342 
Q 2330 -250 1894 6 
Q 1562 205 1430 205 
Q 1299 205 1174 70 
Q 1050 -64 826 -410 
Q 608 -141 371 13 
Q 813 454 1069 557 
L 1069 2496 
Q 512 2496 403 2470 
L 403 3008 
Q 723 2957 1052 2957 
Q 1382 2957 1638 3008 
Q 1581 2746 1581 2253 
L 1581 614 
z
" transform="scale(0.015625)"/>
      <path id="STHeiti-5f53" d="M 4890 1568 
L 4890 2438 
L 1939 2438 
Q 1389 2438 813 2368 
L 813 2918 
Q 1408 2854 2893 2848 
L 2893 4102 
Q 2893 4710 2854 5152 
Q 3066 5114 3558 5114 
Q 3629 5114 3629 5088 
Q 3629 5062 3581 5017 
Q 3533 4973 3494 4848 
Q 3456 4723 3456 4576 
L 3456 2848 
Q 4838 2854 5459 2918 
Q 5434 2611 5434 1920 
L 5434 474 
Q 5434 -282 5472 -672 
L 4890 -672 
L 4890 -224 
L 1690 -224 
Q 1088 -224 742 -269 
L 742 282 
Q 1088 237 1690 237 
L 4890 237 
L 4890 1133 
L 1926 1133 
Q 1402 1133 979 1101 
L 979 1600 
Q 1402 1568 1926 1568 
L 4890 1568 
z
M 4960 4794 
Q 5069 4691 5264 4572 
Q 5459 4454 5562 4410 
Q 5600 4390 5600 4364 
Q 5600 4339 5510 4307 
Q 5344 4250 4429 3200 
Q 4262 3379 4032 3501 
Q 4781 4314 4960 4794 
z
M 2317 3533 
L 1830 3206 
Q 1331 4006 934 4403 
L 1370 4678 
Q 1875 4102 2317 3533 
z
" transform="scale(0.015625)"/>
     </defs>
     <use xlink:href="#STHeiti-9002"/>
     <use xlink:href="#STHeiti-5f53" x="99.999985"/>
     <use xlink:href="#STHeiti-62df" x="199.999969"/>
     <use xlink:href="#STHeiti-5408" x="299.999954"/>
    </g>
   </g>
   <g id="legend_2">
    <g id="patch_13">
     <path d="M 624.64125 73.70125 
L 702.181875 73.70125 
Q 704.181875 73.70125 704.181875 71.70125 
L 704.181875 29.75125 
Q 704.181875 27.75125 702.181875 27.75125 
L 624.64125 27.75125 
Q 622.64125 27.75125 622.64125 29.75125 
L 622.64125 71.70125 
Q 622.64125 73.70125 624.64125 73.70125 
z
" style="fill: #ffffff; opacity: 0.8; stroke: #cccccc; stroke-linejoin: miter"/>
    </g>
    <g id="PathCollection_4">
     <g>
      <use xlink:href="#mef1518c36e" x="636.64125" y="37.085625" style="fill: #0000ff; stroke: #0000ff"/>
     </g>
    </g>
    <g id="text_32">
     <!-- 数据点 -->
     <g transform="translate(654.64125 39.710625) scale(0.1 -0.1)">
      <use xlink:href="#STHeiti-6570"/>
      <use xlink:href="#STHeiti-636e" x="99.999985"/>
      <use xlink:href="#STHeiti-70b9" x="199.999969"/>
     </g>
    </g>
    <g id="line2d_33">
     <path d="M 626.64125 50.510625 
L 636.64125 50.510625 
L 646.64125 50.510625 
" style="fill: none; stroke-dasharray: 5.55,2.4; stroke-dashoffset: 0; stroke: #008000; stroke-width: 1.5"/>
    </g>
    <g id="text_33">
     <!-- 真实函数 -->
     <g transform="translate(654.64125 54.010625) scale(0.1 -0.1)">
      <use xlink:href="#STHeiti-771f"/>
      <use xlink:href="#STHeiti-5b9e" x="99.999985"/>
      <use xlink:href="#STHeiti-51fd" x="199.999969"/>
      <use xlink:href="#STHeiti-6570" x="299.999954"/>
     </g>
    </g>
    <g id="line2d_34">
     <path d="M 626.64125 64.860625 
L 636.64125 64.860625 
L 646.64125 64.860625 
" style="fill: none; stroke: #ff0000; stroke-width: 1.5; stroke-linecap: square"/>
    </g>
    <g id="text_34">
     <!-- 3次多项式 -->
     <g transform="translate(654.64125 68.360625) scale(0.1 -0.1)">
      <defs>
       <path id="STHeiti-33" d="M 845 3917 
L 378 3917 
Q 506 4486 867 4790 
Q 1229 5094 1750 5094 
Q 2272 5094 2659 4748 
Q 3046 4403 3046 3910 
Q 3046 3315 2458 2970 
Q 2861 2803 3081 2473 
Q 3302 2144 3302 1754 
Q 3302 1146 2857 707 
Q 2413 269 1734 269 
Q 1133 269 742 611 
Q 352 954 224 1613 
L 672 1613 
Q 794 1158 1046 937 
Q 1299 717 1760 717 
Q 2221 717 2534 1011 
Q 2848 1306 2848 1741 
Q 2848 2176 2502 2441 
Q 2157 2707 1498 2720 
L 1498 3142 
Q 1971 3142 2268 3360 
Q 2566 3578 2566 3901 
Q 2566 4224 2326 4438 
Q 2086 4653 1747 4653 
Q 1408 4653 1200 4470 
Q 992 4288 845 3917 
z
" transform="scale(0.015625)"/>
      </defs>
      <use xlink:href="#STHeiti-33"/>
      <use xlink:href="#STHeiti-6b21" x="55.399994"/>
      <use xlink:href="#STHeiti-591a" x="155.399979"/>
      <use xlink:href="#STHeiti-9879" x="255.399963"/>
      <use xlink:href="#STHeiti-5f0f" x="355.399948"/>
     </g>
    </g>
   </g>
  </g>
  <g id="axes_3">
   <g id="patch_14">
    <path d="M 744.171875 328.05875 
L 1065.581875 328.05875 
L 1065.581875 22.75125 
L 744.171875 22.75125 
z
" style="fill: #ffffff"/>
   </g>
   <g id="PathCollection_5">
    <g clip-path="url(#p148e1f27c2)">
     <use xlink:href="#mef1518c36e" x="758.78142" y="165.294963" style="fill: #0000ff; stroke: #0000ff"/>
     <use xlink:href="#mef1518c36e" x="768.856969" y="156.341846" style="fill: #0000ff; stroke: #0000ff"/>
     <use xlink:href="#mef1518c36e" x="778.932518" y="119.490291" style="fill: #0000ff; stroke: #0000ff"/>
     <use xlink:href="#mef1518c36e" x="789.008066" y="82.817429" style="fill: #0000ff; stroke: #0000ff"/>
     <use xlink:href="#mef1518c36e" x="799.083615" y="102.606322" style="fill: #0000ff; stroke: #0000ff"/>
     <use xlink:href="#mef1518c36e" x="809.159163" y="90.2563" style="fill: #0000ff; stroke: #0000ff"/>
     <use xlink:href="#mef1518c36e" x="819.234712" y="45.202286" style="fill: #0000ff; stroke: #0000ff"/>
     <use xlink:href="#mef1518c36e" x="829.310261" y="58.164848" style="fill: #0000ff; stroke: #0000ff"/>
     <use xlink:href="#mef1518c36e" x="839.385809" y="84.532091" style="fill: #0000ff; stroke: #0000ff"/>
     <use xlink:href="#mef1518c36e" x="849.461358" y="69.820637" style="fill: #0000ff; stroke: #0000ff"/>
     <use xlink:href="#mef1518c36e" x="859.536906" y="100.604107" style="fill: #0000ff; stroke: #0000ff"/>
     <use xlink:href="#mef1518c36e" x="869.612455" y="114.897785" style="fill: #0000ff; stroke: #0000ff"/>
     <use xlink:href="#mef1518c36e" x="879.688004" y="118.012654" style="fill: #0000ff; stroke: #0000ff"/>
     <use xlink:href="#mef1518c36e" x="889.763552" y="181.852537" style="fill: #0000ff; stroke: #0000ff"/>
     <use xlink:href="#mef1518c36e" x="899.839101" y="199.510508" style="fill: #0000ff; stroke: #0000ff"/>
     <use xlink:href="#mef1518c36e" x="909.914649" y="197.852889" style="fill: #0000ff; stroke: #0000ff"/>
     <use xlink:href="#mef1518c36e" x="919.990198" y="228.515046" style="fill: #0000ff; stroke: #0000ff"/>
     <use xlink:href="#mef1518c36e" x="930.065746" y="221.476349" style="fill: #0000ff; stroke: #0000ff"/>
     <use xlink:href="#mef1518c36e" x="940.141295" y="263.873372" style="fill: #0000ff; stroke: #0000ff"/>
     <use xlink:href="#mef1518c36e" x="950.216844" y="288.384014" style="fill: #0000ff; stroke: #0000ff"/>
     <use xlink:href="#mef1518c36e" x="960.292392" y="240.114616" style="fill: #0000ff; stroke: #0000ff"/>
     <use xlink:href="#mef1518c36e" x="970.367941" y="280.428926" style="fill: #0000ff; stroke: #0000ff"/>
     <use xlink:href="#mef1518c36e" x="980.443489" y="275.650456" style="fill: #0000ff; stroke: #0000ff"/>
     <use xlink:href="#mef1518c36e" x="990.519038" y="302.463767" style="fill: #0000ff; stroke: #0000ff"/>
     <use xlink:href="#mef1518c36e" x="1000.594587" y="276.39956" style="fill: #0000ff; stroke: #0000ff"/>
     <use xlink:href="#mef1518c36e" x="1010.670135" y="250.711897" style="fill: #0000ff; stroke: #0000ff"/>
     <use xlink:href="#mef1518c36e" x="1020.745684" y="260.420207" style="fill: #0000ff; stroke: #0000ff"/>
     <use xlink:href="#mef1518c36e" x="1030.821232" y="210.489869" style="fill: #0000ff; stroke: #0000ff"/>
     <use xlink:href="#mef1518c36e" x="1040.896781" y="209.507662" style="fill: #0000ff; stroke: #0000ff"/>
     <use xlink:href="#mef1518c36e" x="1050.97233" y="181.342086" style="fill: #0000ff; stroke: #0000ff"/>
    </g>
   </g>
   <g id="matplotlib.axis_5">
    <g id="xtick_13">
     <g id="line2d_35">
      <g>
       <use xlink:href="#m940d7ef762" x="758.78142" y="328.05875" style="stroke: #000000; stroke-width: 0.8"/>
      </g>
     </g>
     <g id="text_35">
      <!-- 0.0 -->
      <g transform="translate(751.855639 343.018125) scale(0.1 -0.1)">
       <use xlink:href="#STHeiti-30"/>
       <use xlink:href="#STHeiti-2e" x="55.399994"/>
       <use xlink:href="#STHeiti-30" x="83.099991"/>
      </g>
     </g>
    </g>
    <g id="xtick_14">
     <g id="line2d_36">
      <g>
       <use xlink:href="#m940d7ef762" x="817.219602" y="328.05875" style="stroke: #000000; stroke-width: 0.8"/>
      </g>
     </g>
     <g id="text_36">
      <!-- 0.2 -->
      <g transform="translate(810.293821 343.018125) scale(0.1 -0.1)">
       <use xlink:href="#STHeiti-30"/>
       <use xlink:href="#STHeiti-2e" x="55.399994"/>
       <use xlink:href="#STHeiti-32" x="83.099991"/>
      </g>
     </g>
    </g>
    <g id="xtick_15">
     <g id="line2d_37">
      <g>
       <use xlink:href="#m940d7ef762" x="875.657784" y="328.05875" style="stroke: #000000; stroke-width: 0.8"/>
      </g>
     </g>
     <g id="text_37">
      <!-- 0.4 -->
      <g transform="translate(868.732003 343.018125) scale(0.1 -0.1)">
       <use xlink:href="#STHeiti-30"/>
       <use xlink:href="#STHeiti-2e" x="55.399994"/>
       <use xlink:href="#STHeiti-34" x="83.099991"/>
      </g>
     </g>
    </g>
    <g id="xtick_16">
     <g id="line2d_38">
      <g>
       <use xlink:href="#m940d7ef762" x="934.095966" y="328.05875" style="stroke: #000000; stroke-width: 0.8"/>
      </g>
     </g>
     <g id="text_38">
      <!-- 0.6 -->
      <g transform="translate(927.170185 343.018125) scale(0.1 -0.1)">
       <use xlink:href="#STHeiti-30"/>
       <use xlink:href="#STHeiti-2e" x="55.399994"/>
       <use xlink:href="#STHeiti-36" x="83.099991"/>
      </g>
     </g>
    </g>
    <g id="xtick_17">
     <g id="line2d_39">
      <g>
       <use xlink:href="#m940d7ef762" x="992.534148" y="328.05875" style="stroke: #000000; stroke-width: 0.8"/>
      </g>
     </g>
     <g id="text_39">
      <!-- 0.8 -->
      <g transform="translate(985.608366 343.018125) scale(0.1 -0.1)">
       <use xlink:href="#STHeiti-30"/>
       <use xlink:href="#STHeiti-2e" x="55.399994"/>
       <use xlink:href="#STHeiti-38" x="83.099991"/>
      </g>
     </g>
    </g>
    <g id="xtick_18">
     <g id="line2d_40">
      <g>
       <use xlink:href="#m940d7ef762" x="1050.97233" y="328.05875" style="stroke: #000000; stroke-width: 0.8"/>
      </g>
     </g>
     <g id="text_40">
      <!-- 1.0 -->
      <g transform="translate(1044.046548 343.018125) scale(0.1 -0.1)">
       <use xlink:href="#STHeiti-31"/>
       <use xlink:href="#STHeiti-2e" x="55.399994"/>
       <use xlink:href="#STHeiti-30" x="83.099991"/>
      </g>
     </g>
    </g>
   </g>
   <g id="matplotlib.axis_6">
    <g id="ytick_15">
     <g id="line2d_41">
      <g>
       <use xlink:href="#m8ac0aa3835" x="744.171875" y="328.05875" style="stroke: #000000; stroke-width: 0.8"/>
      </g>
     </g>
     <g id="text_41">
      <!-- -1.5 -->
      <g transform="translate(720 332.038437) scale(0.1 -0.1)">
       <use xlink:href="#STHeiti-2d"/>
       <use xlink:href="#STHeiti-31" x="33.199997"/>
       <use xlink:href="#STHeiti-2e" x="88.599991"/>
       <use xlink:href="#STHeiti-35" x="116.299988"/>
      </g>
     </g>
    </g>
    <g id="ytick_16">
     <g id="line2d_42">
      <g>
       <use xlink:href="#m8ac0aa3835" x="744.171875" y="277.174167" style="stroke: #000000; stroke-width: 0.8"/>
      </g>
     </g>
     <g id="text_42">
      <!-- -1.0 -->
      <g transform="translate(720 281.153854) scale(0.1 -0.1)">
       <use xlink:href="#STHeiti-2d"/>
       <use xlink:href="#STHeiti-31" x="33.199997"/>
       <use xlink:href="#STHeiti-2e" x="88.599991"/>
       <use xlink:href="#STHeiti-30" x="116.299988"/>
      </g>
     </g>
    </g>
    <g id="ytick_17">
     <g id="line2d_43">
      <g>
       <use xlink:href="#m8ac0aa3835" x="744.171875" y="226.289583" style="stroke: #000000; stroke-width: 0.8"/>
      </g>
     </g>
     <g id="text_43">
      <!-- -0.5 -->
      <g transform="translate(720 230.269271) scale(0.1 -0.1)">
       <use xlink:href="#STHeiti-2d"/>
       <use xlink:href="#STHeiti-30" x="33.199997"/>
       <use xlink:href="#STHeiti-2e" x="88.599991"/>
       <use xlink:href="#STHeiti-35" x="116.299988"/>
      </g>
     </g>
    </g>
    <g id="ytick_18">
     <g id="line2d_44">
      <g>
       <use xlink:href="#m8ac0aa3835" x="744.171875" y="175.405" style="stroke: #000000; stroke-width: 0.8"/>
      </g>
     </g>
     <g id="text_44">
      <!-- 0.0 -->
      <g transform="translate(723.320313 179.384687) scale(0.1 -0.1)">
       <use xlink:href="#STHeiti-30"/>
       <use xlink:href="#STHeiti-2e" x="55.399994"/>
       <use xlink:href="#STHeiti-30" x="83.099991"/>
      </g>
     </g>
    </g>
    <g id="ytick_19">
     <g id="line2d_45">
      <g>
       <use xlink:href="#m8ac0aa3835" x="744.171875" y="124.520417" style="stroke: #000000; stroke-width: 0.8"/>
      </g>
     </g>
     <g id="text_45">
      <!-- 0.5 -->
      <g transform="translate(723.320313 128.500104) scale(0.1 -0.1)">
       <use xlink:href="#STHeiti-30"/>
       <use xlink:href="#STHeiti-2e" x="55.399994"/>
       <use xlink:href="#STHeiti-35" x="83.099991"/>
      </g>
     </g>
    </g>
    <g id="ytick_20">
     <g id="line2d_46">
      <g>
       <use xlink:href="#m8ac0aa3835" x="744.171875" y="73.635833" style="stroke: #000000; stroke-width: 0.8"/>
      </g>
     </g>
     <g id="text_46">
      <!-- 1.0 -->
      <g transform="translate(723.320313 77.615521) scale(0.1 -0.1)">
       <use xlink:href="#STHeiti-31"/>
       <use xlink:href="#STHeiti-2e" x="55.399994"/>
       <use xlink:href="#STHeiti-30" x="83.099991"/>
      </g>
     </g>
    </g>
    <g id="ytick_21">
     <g id="line2d_47">
      <g>
       <use xlink:href="#m8ac0aa3835" x="744.171875" y="22.75125" style="stroke: #000000; stroke-width: 0.8"/>
      </g>
     </g>
     <g id="text_47">
      <!-- 1.5 -->
      <g transform="translate(723.320313 26.730937) scale(0.1 -0.1)">
       <use xlink:href="#STHeiti-31"/>
       <use xlink:href="#STHeiti-2e" x="55.399994"/>
       <use xlink:href="#STHeiti-35" x="83.099991"/>
      </g>
     </g>
    </g>
   </g>
   <g id="line2d_48">
    <path d="M 758.78142 175.405 
L 761.732844 168.950401 
L 764.684267 162.521791 
L 767.63569 156.145059 
L 770.587114 149.845879 
L 773.538537 143.649616 
L 776.48996 137.581222 
L 779.441384 131.66513 
L 782.392807 125.925163 
L 785.34423 120.384435 
L 788.295654 115.065254 
L 791.247077 109.989041 
L 794.1985 105.176234 
L 797.149924 100.646214 
L 800.101347 96.417221 
L 803.05277 92.506284 
L 806.004194 88.929151 
L 808.955617 85.700226 
L 811.90704 82.83251 
L 814.858464 80.337551 
L 817.809887 78.225395 
L 820.76131 76.504547 
L 823.712734 75.181936 
L 826.664157 74.262888 
L 829.61558 73.751103 
L 832.567004 73.648643 
L 835.518427 73.95592 
L 838.46985 74.671697 
L 841.421274 75.793091 
L 844.372697 77.315587 
L 847.32412 79.233054 
L 850.275544 81.537772 
L 853.226967 84.22046 
L 856.17839 87.270316 
L 859.129813 90.67506 
L 862.081237 94.420981 
L 865.03266 98.492996 
L 867.984083 102.874708 
L 870.935507 107.548474 
L 873.88693 112.495475 
L 876.838353 117.69579 
L 879.789777 123.12848 
L 882.7412 128.771669 
L 885.692623 134.602634 
L 888.644047 140.597895 
L 891.59547 146.733312 
L 894.546893 152.984181 
L 897.498317 159.32533 
L 900.44974 165.731226 
L 903.401163 172.176075 
L 906.352587 178.633925 
L 909.30401 185.078774 
L 912.255433 191.48467 
L 915.206857 197.825819 
L 918.15828 204.076688 
L 921.109703 210.212105 
L 924.061127 216.207366 
L 927.01255 222.038331 
L 929.963973 227.68152 
L 932.915397 233.11421 
L 935.86682 238.314525 
L 938.818243 243.261526 
L 941.769667 247.935292 
L 944.72109 252.317004 
L 947.672513 256.389019 
L 950.623937 260.13494 
L 953.57536 263.539684 
L 956.526783 266.58954 
L 959.478206 269.272228 
L 962.42963 271.576946 
L 965.381053 273.494413 
L 968.332476 275.016909 
L 971.2839 276.138303 
L 974.235323 276.85408 
L 977.186746 277.161357 
L 980.13817 277.058897 
L 983.089593 276.547112 
L 986.041016 275.628064 
L 988.99244 274.305453 
L 991.943863 272.584605 
L 994.895286 270.472449 
L 997.84671 267.97749 
L 1000.798133 265.109774 
L 1003.749556 261.880849 
L 1006.70098 258.303716 
L 1009.652403 254.392779 
L 1012.603826 250.163786 
L 1015.55525 245.633766 
L 1018.506673 240.820959 
L 1021.458096 235.744746 
L 1024.40952 230.425565 
L 1027.360943 224.884837 
L 1030.312366 219.14487 
L 1033.26379 213.228778 
L 1036.215213 207.160384 
L 1039.166636 200.964121 
L 1042.11806 194.664941 
L 1045.069483 188.288209 
L 1048.020906 181.859599 
L 1050.97233 175.405 
" clip-path="url(#p148e1f27c2)" style="fill: none; stroke-dasharray: 5.55,2.4; stroke-dashoffset: 0; stroke: #008000; stroke-width: 1.5"/>
   </g>
   <g id="line2d_49">
    <path d="M 758.78142 165.014592 
L 761.732844 192.63619 
L 764.684267 186.690064 
L 767.63569 167.734678 
L 770.587114 146.892327 
L 773.538537 129.331115 
L 776.48996 116.684182 
L 779.441384 108.677957 
L 782.392807 104.182843 
L 785.34423 101.8518 
L 788.295654 100.47332 
L 791.247077 99.1339 
L 794.1985 97.260025 
L 797.149924 94.590003 
L 800.101347 91.11064 
L 803.05277 86.982059 
L 806.004194 82.465211 
L 808.955617 77.860261 
L 811.90704 73.459516 
L 814.858464 69.515533 
L 817.809887 66.223137 
L 820.76131 63.713026 
L 823.712734 62.054159 
L 826.664157 61.262109 
L 829.61558 61.310818 
L 832.567004 62.145566 
L 835.518427 63.695483 
L 838.46985 65.884416 
L 841.421274 68.639427 
L 844.372697 71.896615 
L 847.32412 75.604275 
L 850.275544 79.72367 
L 853.226967 84.227839 
L 856.17839 89.098996 
L 859.129813 94.32506 
L 862.081237 99.895869 
L 865.03266 105.799536 
L 867.984083 112.019346 
L 870.935507 118.531452 
L 873.88693 125.303532 
L 876.838353 132.294467 
L 879.789777 139.454975 
L 882.7412 146.729088 
L 885.692623 154.056277 
L 888.644047 161.373995 
L 891.59547 168.620401 
L 894.546893 175.737024 
L 897.498317 182.671155 
L 900.44974 189.377792 
L 903.401163 195.821006 
L 906.352587 201.974668 
L 909.30401 207.822514 
L 912.255433 213.357596 
L 915.206857 218.581208 
L 918.15828 223.501407 
L 921.109703 228.131298 
L 924.061127 232.487237 
L 927.01255 236.587122 
L 929.963973 240.448916 
L 932.915397 244.089512 
L 935.86682 247.524034 
L 938.818243 250.765581 
L 941.769667 253.825393 
L 944.72109 256.713379 
L 947.672513 259.438856 
L 950.623937 262.011363 
L 953.57536 264.441341 
L 956.526783 266.740507 
L 959.478206 268.921732 
L 962.42963 270.998269 
L 965.381053 272.982263 
L 968.332476 274.882507 
L 971.2839 276.701542 
L 974.235323 278.432271 
L 977.186746 280.054395 
L 980.13817 281.531058 
L 983.089593 282.806197 
L 986.041016 283.803155 
L 988.99244 284.425111 
L 991.943863 284.557877 
L 994.895286 284.075522 
L 997.84671 282.84902 
L 1000.798133 280.757997 
L 1003.749556 277.705125 
L 1006.70098 273.632422 
L 1009.652403 268.53806 
L 1012.603826 262.49178 
L 1015.55525 255.646405 
L 1018.506673 248.242337 
L 1021.458096 240.601514 
L 1024.40952 233.107051 
L 1027.360943 226.1649 
L 1030.312366 220.144493 
L 1033.26379 215.296703 
L 1036.215213 211.649777 
L 1039.166636 208.887701 
L 1042.11806 206.220545 
L 1045.069483 202.264198 
L 1048.020906 194.956933 
L 1050.97233 181.553793 
" clip-path="url(#p148e1f27c2)" style="fill: none; stroke: #ff0000; stroke-width: 1.5; stroke-linecap: square"/>
   </g>
   <g id="patch_15">
    <path d="M 744.171875 328.05875 
L 744.171875 22.75125 
" style="fill: none; stroke: #000000; stroke-width: 0.8; stroke-linejoin: miter; stroke-linecap: square"/>
   </g>
   <g id="patch_16">
    <path d="M 1065.581875 328.05875 
L 1065.581875 22.75125 
" style="fill: none; stroke: #000000; stroke-width: 0.8; stroke-linejoin: miter; stroke-linecap: square"/>
   </g>
   <g id="patch_17">
    <path d="M 744.171875 328.05875 
L 1065.581875 328.05875 
" style="fill: none; stroke: #000000; stroke-width: 0.8; stroke-linejoin: miter; stroke-linecap: square"/>
   </g>
   <g id="patch_18">
    <path d="M 744.171875 22.75125 
L 1065.581875 22.75125 
" style="fill: none; stroke: #000000; stroke-width: 0.8; stroke-linejoin: miter; stroke-linecap: square"/>
   </g>
   <g id="text_48">
    <!-- 过拟合 -->
    <g transform="translate(886.876875 16.75125) scale(0.12 -0.12)">
     <defs>
      <path id="STHeiti-8fc7" d="M 5133 4224 
Q 5690 4224 6022 4269 
L 6022 3712 
Q 5677 3750 5133 3750 
L 5133 1075 
Q 5133 826 5062 707 
Q 4992 589 4745 515 
Q 4499 442 3942 384 
Q 3878 698 3712 1030 
Q 3898 1018 4106 1018 
Q 4314 1018 4448 1062 
Q 4582 1107 4582 1254 
L 4582 3750 
L 3213 3750 
Q 2579 3750 2163 3718 
L 2163 4269 
Q 2515 4224 3213 4224 
L 4582 4224 
Q 4582 5088 4557 5267 
Q 4787 5229 5024 5229 
L 5190 5235 
Q 5286 5235 5286 5171 
Q 5286 5133 5248 5107 
Q 5133 5037 5133 4864 
L 5133 4224 
z
M 1222 5088 
Q 1632 4544 1907 4070 
L 1363 3731 
Q 1024 4346 717 4781 
L 1222 5088 
z
M 3731 2042 
L 3181 1798 
Q 2957 2394 2637 2970 
L 3149 3181 
Q 3520 2573 3731 2042 
z
M 1741 666 
Q 1882 621 2259 422 
Q 2803 141 4192 141 
Q 5056 141 6189 256 
Q 6029 -115 6003 -403 
Q 4544 -422 3811 -380 
Q 3078 -339 2700 -243 
Q 2323 -147 1914 58 
Q 1645 192 1510 192 
Q 1395 192 1248 67 
Q 1101 -58 832 -480 
Q 646 -256 339 -58 
Q 909 563 1178 672 
L 1178 2624 
Q 582 2624 384 2586 
L 384 3104 
Q 742 3066 1132 3066 
Q 1523 3066 1798 3104 
Q 1741 2790 1741 2368 
L 1741 666 
z
" transform="scale(0.015625)"/>
     </defs>
     <use xlink:href="#STHeiti-8fc7"/>
     <use xlink:href="#STHeiti-62df" x="99.999985"/>
     <use xlink:href="#STHeiti-5408" x="199.999969"/>
    </g>
   </g>
   <g id="legend_3">
    <g id="patch_19">
     <path d="M 975.500625 73.70125 
L 1058.581875 73.70125 
Q 1060.581875 73.70125 1060.581875 71.70125 
L 1060.581875 29.75125 
Q 1060.581875 27.75125 1058.581875 27.75125 
L 975.500625 27.75125 
Q 973.500625 27.75125 973.500625 29.75125 
L 973.500625 71.70125 
Q 973.500625 73.70125 975.500625 73.70125 
z
" style="fill: #ffffff; opacity: 0.8; stroke: #cccccc; stroke-linejoin: miter"/>
    </g>
    <g id="PathCollection_6">
     <g>
      <use xlink:href="#mef1518c36e" x="987.500625" y="37.085625" style="fill: #0000ff; stroke: #0000ff"/>
     </g>
    </g>
    <g id="text_49">
     <!-- 数据点 -->
     <g transform="translate(1005.500625 39.710625) scale(0.1 -0.1)">
      <use xlink:href="#STHeiti-6570"/>
      <use xlink:href="#STHeiti-636e" x="99.999985"/>
      <use xlink:href="#STHeiti-70b9" x="199.999969"/>
     </g>
    </g>
    <g id="line2d_50">
     <path d="M 977.500625 50.510625 
L 987.500625 50.510625 
L 997.500625 50.510625 
" style="fill: none; stroke-dasharray: 5.55,2.4; stroke-dashoffset: 0; stroke: #008000; stroke-width: 1.5"/>
    </g>
    <g id="text_50">
     <!-- 真实函数 -->
     <g transform="translate(1005.500625 54.010625) scale(0.1 -0.1)">
      <use xlink:href="#STHeiti-771f"/>
      <use xlink:href="#STHeiti-5b9e" x="99.999985"/>
      <use xlink:href="#STHeiti-51fd" x="199.999969"/>
      <use xlink:href="#STHeiti-6570" x="299.999954"/>
     </g>
    </g>
    <g id="line2d_51">
     <path d="M 977.500625 64.860625 
L 987.500625 64.860625 
L 997.500625 64.860625 
" style="fill: none; stroke: #ff0000; stroke-width: 1.5; stroke-linecap: square"/>
    </g>
    <g id="text_51">
     <!-- 15次多项式 -->
     <g transform="translate(1005.500625 68.360625) scale(0.1 -0.1)">
      <use xlink:href="#STHeiti-31"/>
      <use xlink:href="#STHeiti-35" x="55.399994"/>
      <use xlink:href="#STHeiti-6b21" x="110.799988"/>
      <use xlink:href="#STHeiti-591a" x="210.799973"/>
      <use xlink:href="#STHeiti-9879" x="310.799957"/>
      <use xlink:href="#STHeiti-5f0f" x="410.799942"/>
     </g>
    </g>
   </g>
  </g>
 </g>
 <defs>
  <clipPath id="p826a32cb4c">
   <rect x="31.371875" y="22.75125" width="321.41" height="305.3075"/>
  </clipPath>
  <clipPath id="p2428d351b4">
   <rect x="387.771875" y="22.75125" width="321.41" height="305.3075"/>
  </clipPath>
  <clipPath id="p148e1f27c2">
   <rect x="744.171875" y="22.75125" width="321.41" height="305.3075"/>
  </clipPath>
 </defs>
</svg>
