<svg xmlns:xlink="http://www.w3.org/1999/xlink" width="596.571875pt" height="378.964375pt" viewBox="0 0 596.571875 378.964375" xmlns="http://www.w3.org/2000/svg" version="1.1">
 <metadata>
  <rdf:RDF xmlns:dc="http://purl.org/dc/elements/1.1/" xmlns:cc="http://creativecommons.org/ns#" xmlns:rdf="http://www.w3.org/1999/02/22-rdf-syntax-ns#">
   <cc:Work>
    <dc:type rdf:resource="http://purl.org/dc/dcmitype/StillImage"/>
    <dc:date>2025-03-04T11:05:13.870540</dc:date>
    <dc:format>image/svg+xml</dc:format>
    <dc:creator>
     <cc:Agent>
      <dc:title>Matplotlib v3.7.1, https://matplotlib.org/</dc:title>
     </cc:Agent>
    </dc:creator>
   </cc:Work>
  </rdf:RDF>
 </metadata>
 <defs>
  <style type="text/css">*{stroke-linejoin: round; stroke-linecap: butt}</style>
 </defs>
 <g id="figure_1">
  <g id="patch_1">
   <path d="M 0 378.964375 
L 596.571875 378.964375 
L 596.571875 0 
L 0 0 
L 0 378.964375 
z
" style="fill: none"/>
  </g>
  <g id="axes_1">
   <g id="patch_2">
    <path d="M 31.371875 355.464375 
L 589.371875 355.464375 
L 589.371875 22.824375 
L 31.371875 22.824375 
L 31.371875 355.464375 
z
" style="fill: none"/>
   </g>
   <g id="PathCollection_1">
    <defs>
     <path id="maab0d3e6f2" d="M 0 3 
C 0.795609 3 1.55874 2.683901 2.12132 2.12132 
C 2.683901 1.55874 3 0.795609 3 0 
C 3 -0.795609 2.683901 -1.55874 2.12132 -2.12132 
C 1.55874 -2.683901 0.795609 -3 0 -3 
C -0.795609 -3 -1.55874 -2.683901 -2.12132 -2.12132 
C -2.683901 -1.55874 -3 -0.795609 -3 0 
C -3 0.795609 -2.683901 1.55874 -2.12132 2.12132 
C -1.55874 2.683901 -0.795609 3 0 3 
z
" style="stroke: #0000ff"/>
    </defs>
    <g clip-path="url(#p6578faed22)">
     <use xlink:href="#maab0d3e6f2" x="56.735511" y="178.129242" style="fill: #0000ff; stroke: #0000ff"/>
     <use xlink:href="#maab0d3e6f2" x="74.227674" y="168.374602" style="fill: #0000ff; stroke: #0000ff"/>
     <use xlink:href="#maab0d3e6f2" x="91.719837" y="128.22393" style="fill: #0000ff; stroke: #0000ff"/>
     <use xlink:href="#maab0d3e6f2" x="109.212" y="88.267948" style="fill: #0000ff; stroke: #0000ff"/>
     <use xlink:href="#maab0d3e6f2" x="126.704163" y="109.828432" style="fill: #0000ff; stroke: #0000ff"/>
     <use xlink:href="#maab0d3e6f2" x="144.196326" y="96.372781" style="fill: #0000ff; stroke: #0000ff"/>
     <use xlink:href="#maab0d3e6f2" x="161.688489" y="47.285328" style="fill: #0000ff; stroke: #0000ff"/>
     <use xlink:href="#maab0d3e6f2" x="179.180652" y="61.408358" style="fill: #0000ff; stroke: #0000ff"/>
     <use xlink:href="#maab0d3e6f2" x="196.672815" y="90.136114" style="fill: #0000ff; stroke: #0000ff"/>
     <use xlink:href="#maab0d3e6f2" x="214.164978" y="74.107625" style="fill: #0000ff; stroke: #0000ff"/>
     <use xlink:href="#maab0d3e6f2" x="231.657141" y="107.64697" style="fill: #0000ff; stroke: #0000ff"/>
     <use xlink:href="#maab0d3e6f2" x="249.149304" y="123.220282" style="fill: #0000ff; stroke: #0000ff"/>
     <use xlink:href="#maab0d3e6f2" x="266.641467" y="126.614008" style="fill: #0000ff; stroke: #0000ff"/>
     <use xlink:href="#maab0d3e6f2" x="284.13363" y="196.169124" style="fill: #0000ff; stroke: #0000ff"/>
     <use xlink:href="#maab0d3e6f2" x="301.625793" y="215.407916" style="fill: #0000ff; stroke: #0000ff"/>
     <use xlink:href="#maab0d3e6f2" x="319.117957" y="213.6019" style="fill: #0000ff; stroke: #0000ff"/>
     <use xlink:href="#maab0d3e6f2" x="336.61012" y="247.009072" style="fill: #0000ff; stroke: #0000ff"/>
     <use xlink:href="#maab0d3e6f2" x="354.102283" y="239.340238" style="fill: #0000ff; stroke: #0000ff"/>
     <use xlink:href="#maab0d3e6f2" x="371.594446" y="285.532833" style="fill: #0000ff; stroke: #0000ff"/>
     <use xlink:href="#maab0d3e6f2" x="389.086609" y="312.237778" style="fill: #0000ff; stroke: #0000ff"/>
     <use xlink:href="#maab0d3e6f2" x="406.578772" y="259.647087" style="fill: #0000ff; stroke: #0000ff"/>
     <use xlink:href="#maab0d3e6f2" x="424.070935" y="303.570515" style="fill: #0000ff; stroke: #0000ff"/>
     <use xlink:href="#maab0d3e6f2" x="441.563098" y="298.364254" style="fill: #0000ff; stroke: #0000ff"/>
     <use xlink:href="#maab0d3e6f2" x="459.055261" y="327.578014" style="fill: #0000ff; stroke: #0000ff"/>
     <use xlink:href="#maab0d3e6f2" x="476.547424" y="299.180422" style="fill: #0000ff; stroke: #0000ff"/>
     <use xlink:href="#maab0d3e6f2" x="494.039587" y="271.193084" style="fill: #0000ff; stroke: #0000ff"/>
     <use xlink:href="#maab0d3e6f2" x="511.53175" y="281.770526" style="fill: #0000ff; stroke: #0000ff"/>
     <use xlink:href="#maab0d3e6f2" x="529.023913" y="227.370199" style="fill: #0000ff; stroke: #0000ff"/>
     <use xlink:href="#maab0d3e6f2" x="546.516076" y="226.300061" style="fill: #0000ff; stroke: #0000ff"/>
     <use xlink:href="#maab0d3e6f2" x="564.008239" y="195.612976" style="fill: #0000ff; stroke: #0000ff"/>
    </g>
   </g>
   <g id="matplotlib.axis_1">
    <g id="xtick_1">
     <g id="line2d_1">
      <path d="M 56.735511 355.464375 
L 56.735511 22.824375 
" clip-path="url(#p6578faed22)" style="fill: none; stroke: #b0b0b0; stroke-opacity: 0.3; stroke-width: 0.8; stroke-linecap: square"/>
     </g>
     <g id="line2d_2">
      <defs>
       <path id="m542ba5f27a" d="M 0 0 
L 0 3.5 
" style="stroke: #000000; stroke-width: 0.8"/>
      </defs>
      <g>
       <use xlink:href="#m542ba5f27a" x="56.735511" y="355.464375" style="stroke: #000000; stroke-width: 0.8"/>
      </g>
     </g>
     <g id="text_1">
      <text style="font: 10px 'STHeiti', 'DejaVu Sans', 'Arial Unicode MS', sans-serif; text-anchor: middle" x="56.735511" y="370.42375" transform="rotate(-0 56.735511 370.42375)">0.0</text>
     </g>
    </g>
    <g id="xtick_2">
     <g id="line2d_3">
      <path d="M 158.190057 355.464375 
L 158.190057 22.824375 
" clip-path="url(#p6578faed22)" style="fill: none; stroke: #b0b0b0; stroke-opacity: 0.3; stroke-width: 0.8; stroke-linecap: square"/>
     </g>
     <g id="line2d_4">
      <g>
       <use xlink:href="#m542ba5f27a" x="158.190057" y="355.464375" style="stroke: #000000; stroke-width: 0.8"/>
      </g>
     </g>
     <g id="text_2">
      <text style="font: 10px 'STHeiti', 'DejaVu Sans', 'Arial Unicode MS', sans-serif; text-anchor: middle" x="158.190057" y="370.42375" transform="rotate(-0 158.190057 370.42375)">0.2</text>
     </g>
    </g>
    <g id="xtick_3">
     <g id="line2d_5">
      <path d="M 259.644602 355.464375 
L 259.644602 22.824375 
" clip-path="url(#p6578faed22)" style="fill: none; stroke: #b0b0b0; stroke-opacity: 0.3; stroke-width: 0.8; stroke-linecap: square"/>
     </g>
     <g id="line2d_6">
      <g>
       <use xlink:href="#m542ba5f27a" x="259.644602" y="355.464375" style="stroke: #000000; stroke-width: 0.8"/>
      </g>
     </g>
     <g id="text_3">
      <text style="font: 10px 'STHeiti', 'DejaVu Sans', 'Arial Unicode MS', sans-serif; text-anchor: middle" x="259.644602" y="370.42375" transform="rotate(-0 259.644602 370.42375)">0.4</text>
     </g>
    </g>
    <g id="xtick_4">
     <g id="line2d_7">
      <path d="M 361.099148 355.464375 
L 361.099148 22.824375 
" clip-path="url(#p6578faed22)" style="fill: none; stroke: #b0b0b0; stroke-opacity: 0.3; stroke-width: 0.8; stroke-linecap: square"/>
     </g>
     <g id="line2d_8">
      <g>
       <use xlink:href="#m542ba5f27a" x="361.099148" y="355.464375" style="stroke: #000000; stroke-width: 0.8"/>
      </g>
     </g>
     <g id="text_4">
      <text style="font: 10px 'STHeiti', 'DejaVu Sans', 'Arial Unicode MS', sans-serif; text-anchor: middle" x="361.099148" y="370.42375" transform="rotate(-0 361.099148 370.42375)">0.6</text>
     </g>
    </g>
    <g id="xtick_5">
     <g id="line2d_9">
      <path d="M 462.553693 355.464375 
L 462.553693 22.824375 
" clip-path="url(#p6578faed22)" style="fill: none; stroke: #b0b0b0; stroke-opacity: 0.3; stroke-width: 0.8; stroke-linecap: square"/>
     </g>
     <g id="line2d_10">
      <g>
       <use xlink:href="#m542ba5f27a" x="462.553693" y="355.464375" style="stroke: #000000; stroke-width: 0.8"/>
      </g>
     </g>
     <g id="text_5">
      <text style="font: 10px 'STHeiti', 'DejaVu Sans', 'Arial Unicode MS', sans-serif; text-anchor: middle" x="462.553693" y="370.42375" transform="rotate(-0 462.553693 370.42375)">0.8</text>
     </g>
    </g>
    <g id="xtick_6">
     <g id="line2d_11">
      <path d="M 564.008239 355.464375 
L 564.008239 22.824375 
" clip-path="url(#p6578faed22)" style="fill: none; stroke: #b0b0b0; stroke-opacity: 0.3; stroke-width: 0.8; stroke-linecap: square"/>
     </g>
     <g id="line2d_12">
      <g>
       <use xlink:href="#m542ba5f27a" x="564.008239" y="355.464375" style="stroke: #000000; stroke-width: 0.8"/>
      </g>
     </g>
     <g id="text_6">
      <text style="font: 10px 'STHeiti', 'DejaVu Sans', 'Arial Unicode MS', sans-serif; text-anchor: middle" x="564.008239" y="370.42375" transform="rotate(-0 564.008239 370.42375)">1.0</text>
     </g>
    </g>
   </g>
   <g id="matplotlib.axis_2">
    <g id="ytick_1">
     <g id="line2d_13">
      <path d="M 31.371875 355.464375 
L 589.371875 355.464375 
" clip-path="url(#p6578faed22)" style="fill: none; stroke: #b0b0b0; stroke-opacity: 0.3; stroke-width: 0.8; stroke-linecap: square"/>
     </g>
     <g id="line2d_14">
      <defs>
       <path id="m11326b7b62" d="M 0 0 
L -3.5 0 
" style="stroke: #000000; stroke-width: 0.8"/>
      </defs>
      <g>
       <use xlink:href="#m11326b7b62" x="31.371875" y="355.464375" style="stroke: #000000; stroke-width: 0.8"/>
      </g>
     </g>
     <g id="text_7">
      <text style="font: 10px 'STHeiti', 'DejaVu Sans', 'Arial Unicode MS', sans-serif; text-anchor: end" x="24.371875" y="359.444063" transform="rotate(-0 24.371875 359.444063)">-1.5</text>
     </g>
    </g>
    <g id="ytick_2">
     <g id="line2d_15">
      <path d="M 31.371875 300.024375 
L 589.371875 300.024375 
" clip-path="url(#p6578faed22)" style="fill: none; stroke: #b0b0b0; stroke-opacity: 0.3; stroke-width: 0.8; stroke-linecap: square"/>
     </g>
     <g id="line2d_16">
      <g>
       <use xlink:href="#m11326b7b62" x="31.371875" y="300.024375" style="stroke: #000000; stroke-width: 0.8"/>
      </g>
     </g>
     <g id="text_8">
      <text style="font: 10px 'STHeiti', 'DejaVu Sans', 'Arial Unicode MS', sans-serif; text-anchor: end" x="24.371875" y="304.004063" transform="rotate(-0 24.371875 304.004063)">-1.0</text>
     </g>
    </g>
    <g id="ytick_3">
     <g id="line2d_17">
      <path d="M 31.371875 244.584375 
L 589.371875 244.584375 
" clip-path="url(#p6578faed22)" style="fill: none; stroke: #b0b0b0; stroke-opacity: 0.3; stroke-width: 0.8; stroke-linecap: square"/>
     </g>
     <g id="line2d_18">
      <g>
       <use xlink:href="#m11326b7b62" x="31.371875" y="244.584375" style="stroke: #000000; stroke-width: 0.8"/>
      </g>
     </g>
     <g id="text_9">
      <text style="font: 10px 'STHeiti', 'DejaVu Sans', 'Arial Unicode MS', sans-serif; text-anchor: end" x="24.371875" y="248.564063" transform="rotate(-0 24.371875 248.564063)">-0.5</text>
     </g>
    </g>
    <g id="ytick_4">
     <g id="line2d_19">
      <path d="M 31.371875 189.144375 
L 589.371875 189.144375 
" clip-path="url(#p6578faed22)" style="fill: none; stroke: #b0b0b0; stroke-opacity: 0.3; stroke-width: 0.8; stroke-linecap: square"/>
     </g>
     <g id="line2d_20">
      <g>
       <use xlink:href="#m11326b7b62" x="31.371875" y="189.144375" style="stroke: #000000; stroke-width: 0.8"/>
      </g>
     </g>
     <g id="text_10">
      <text style="font: 10px 'STHeiti', 'DejaVu Sans', 'Arial Unicode MS', sans-serif; text-anchor: end" x="24.371875" y="193.124063" transform="rotate(-0 24.371875 193.124063)">0.0</text>
     </g>
    </g>
    <g id="ytick_5">
     <g id="line2d_21">
      <path d="M 31.371875 133.704375 
L 589.371875 133.704375 
" clip-path="url(#p6578faed22)" style="fill: none; stroke: #b0b0b0; stroke-opacity: 0.3; stroke-width: 0.8; stroke-linecap: square"/>
     </g>
     <g id="line2d_22">
      <g>
       <use xlink:href="#m11326b7b62" x="31.371875" y="133.704375" style="stroke: #000000; stroke-width: 0.8"/>
      </g>
     </g>
     <g id="text_11">
      <text style="font: 10px 'STHeiti', 'DejaVu Sans', 'Arial Unicode MS', sans-serif; text-anchor: end" x="24.371875" y="137.684063" transform="rotate(-0 24.371875 137.684063)">0.5</text>
     </g>
    </g>
    <g id="ytick_6">
     <g id="line2d_23">
      <path d="M 31.371875 78.264375 
L 589.371875 78.264375 
" clip-path="url(#p6578faed22)" style="fill: none; stroke: #b0b0b0; stroke-opacity: 0.3; stroke-width: 0.8; stroke-linecap: square"/>
     </g>
     <g id="line2d_24">
      <g>
       <use xlink:href="#m11326b7b62" x="31.371875" y="78.264375" style="stroke: #000000; stroke-width: 0.8"/>
      </g>
     </g>
     <g id="text_12">
      <text style="font: 10px 'STHeiti', 'DejaVu Sans', 'Arial Unicode MS', sans-serif; text-anchor: end" x="24.371875" y="82.244062" transform="rotate(-0 24.371875 82.244062)">1.0</text>
     </g>
    </g>
    <g id="ytick_7">
     <g id="line2d_25">
      <path d="M 31.371875 22.824375 
L 589.371875 22.824375 
" clip-path="url(#p6578faed22)" style="fill: none; stroke: #b0b0b0; stroke-opacity: 0.3; stroke-width: 0.8; stroke-linecap: square"/>
     </g>
     <g id="line2d_26">
      <g>
       <use xlink:href="#m11326b7b62" x="31.371875" y="22.824375" style="stroke: #000000; stroke-width: 0.8"/>
      </g>
     </g>
     <g id="text_13">
      <text style="font: 10px 'STHeiti', 'DejaVu Sans', 'Arial Unicode MS', sans-serif; text-anchor: end" x="24.371875" y="26.804062" transform="rotate(-0 24.371875 26.804062)">1.5</text>
     </g>
    </g>
   </g>
   <g id="line2d_27">
    <path d="M 56.735511 189.144375 
L 61.859478 182.111931 
L 66.983445 175.107804 
L 72.107412 168.160197 
L 77.231379 161.297086 
L 82.355346 154.546107 
L 87.479313 147.934442 
L 92.60328 141.488715 
L 97.727247 135.234881 
L 102.851214 129.198121 
L 107.975181 123.402744 
L 113.099148 117.872085 
L 118.223115 112.628414 
L 123.347082 107.692846 
L 128.471049 103.085255 
L 133.595015 98.824193 
L 138.718982 94.926819 
L 143.842949 91.408826 
L 148.966916 88.284379 
L 154.090883 85.56606 
L 159.21485 83.264814 
L 164.338817 81.389908 
L 169.462784 79.948891 
L 174.586751 78.947566 
L 179.710718 78.389964 
L 184.834685 78.278332 
L 189.958652 78.613117 
L 195.082619 79.392974 
L 200.206586 80.61476 
L 205.330553 82.273556 
L 210.45452 84.362684 
L 215.578487 86.873731 
L 220.702454 89.796585 
L 225.82642 93.119478 
L 230.950387 96.82903 
L 236.074354 100.910302 
L 241.198321 105.346862 
L 246.322288 110.120845 
L 251.446255 115.213028 
L 256.570222 120.602907 
L 261.694189 126.268777 
L 266.818156 132.187826 
L 271.942123 138.336218 
L 277.06609 144.689197 
L 282.190057 151.221182 
L 287.314024 157.905869 
L 292.437991 164.716343 
L 297.561958 171.62518 
L 302.685925 178.604561 
L 307.809892 185.626382 
L 312.933858 192.662368 
L 318.057825 199.684189 
L 323.181792 206.66357 
L 328.305759 213.572407 
L 333.429726 220.382881 
L 338.553693 227.067568 
L 343.67766 233.599553 
L 348.801627 239.952532 
L 353.925594 246.100924 
L 359.049561 252.019973 
L 364.173528 257.685843 
L 369.297495 263.075722 
L 374.421462 268.167905 
L 379.545429 272.941888 
L 384.669396 277.378448 
L 389.793363 281.45972 
L 394.91733 285.169272 
L 400.041296 288.492165 
L 405.165263 291.415019 
L 410.28923 293.926066 
L 415.413197 296.015194 
L 420.537164 297.67399 
L 425.661131 298.895776 
L 430.785098 299.675633 
L 435.909065 300.010418 
L 441.033032 299.898786 
L 446.156999 299.341184 
L 451.280966 298.339859 
L 456.404933 296.898842 
L 461.5289 295.023936 
L 466.652867 292.72269 
L 471.776834 290.004371 
L 476.900801 286.879924 
L 482.024768 283.361931 
L 487.148735 279.464557 
L 492.272701 275.203495 
L 497.396668 270.595904 
L 502.520635 265.660336 
L 507.644602 260.416665 
L 512.768569 254.886006 
L 517.892536 249.090629 
L 523.016503 243.053869 
L 528.14047 236.800035 
L 533.264437 230.354308 
L 538.388404 223.742643 
L 543.512371 216.991664 
L 548.636338 210.128553 
L 553.760305 203.180946 
L 558.884272 196.176819 
L 564.008239 189.144375 
" clip-path="url(#p6578faed22)" style="fill: none; stroke-dasharray: 5.55,2.4; stroke-dashoffset: 0; stroke: #008000; stroke-width: 1.5"/>
   </g>
   <g id="line2d_28">
    <path d="M 56.735511 177.886435 
L 61.859478 202.301843 
L 66.983445 197.010579 
L 72.107412 179.242989 
L 77.231379 158.842306 
L 82.355346 140.77777 
L 87.479313 126.960551 
L 92.60328 117.522046 
L 97.727247 111.683956 
L 102.851214 108.324084 
L 107.975181 106.320392 
L 113.099148 104.738001 
L 118.223115 102.909061 
L 123.347082 100.443336 
L 128.471049 97.197525 
L 133.595015 93.223506 
L 138.718982 88.70946 
L 143.842949 83.923048 
L 148.966916 79.162125 
L 154.090883 74.715772 
L 159.21485 70.836494 
L 164.338817 67.723106 
L 169.462784 65.512993 
L 174.586751 64.281988 
L 179.710718 64.049943 
L 184.834685 64.790062 
L 189.958652 66.440295 
L 195.082619 68.9153 
L 200.206586 72.117798 
L 205.330553 75.948476 
L 210.45452 80.313873 
L 215.578487 85.131975 
L 220.702454 90.335485 
L 225.82642 95.872922 
L 230.950387 101.707834 
L 236.074354 107.816535 
L 241.198321 114.184798 
L 246.322288 120.803976 
L 251.446255 127.666972 
L 256.570222 134.76446 
L 261.694189 142.081669 
L 266.818156 149.595974 
L 271.942123 157.275443 
L 277.06609 165.078409 
L 282.190057 172.954032 
L 287.314024 180.843786 
L 292.437991 188.683688 
L 297.561958 196.407088 
L 302.685925 203.947785 
L 307.809892 211.243229 
L 312.933858 218.237571 
L 318.057825 224.884347 
L 323.181792 231.148607 
L 328.305759 237.008353 
L 333.429726 242.455196 
L 338.553693 247.494191 
L 343.67766 252.142882 
L 348.801627 256.42962 
L 353.925594 260.391283 
L 359.049561 264.070558 
L 364.173528 267.512968 
L 369.297495 270.763853 
L 374.421462 273.865491 
L 379.545429 276.854565 
L 384.669396 279.760114 
L 389.793363 282.602091 
L 394.91733 285.390599 
L 400.041296 288.125791 
L 405.165263 290.798398 
L 410.28923 293.390757 
L 415.413197 295.878176 
L 420.537164 298.230431 
L 425.661131 300.413159 
L 430.785098 302.38894 
L 435.909065 304.117842 
L 441.033032 305.557341 
L 446.156999 306.661519 
L 451.280966 307.379682 
L 456.404933 307.65458 
L 461.5289 307.420672 
L 466.652867 306.603001 
L 471.776834 305.117412 
L 476.900801 302.872987 
L 482.024768 299.777603 
L 487.148735 295.747467 
L 492.272701 290.721205 
L 497.396668 284.678678 
L 502.520635 277.663802 
L 507.644602 269.809581 
L 512.768569 261.361656 
L 517.892536 252.694447 
L 523.016503 244.310656 
L 528.14047 236.810717 
L 533.264437 230.813396 
L 538.388404 226.801911 
L 543.512371 224.861403 
L 548.636338 224.263042 
L 553.760305 222.837279 
L 558.884272 216.06303 
L 564.008239 195.780965 
" clip-path="url(#p6578faed22)" style="fill: none; stroke: #ff0000; stroke-width: 1.5; stroke-linecap: square"/>
   </g>
   <g id="line2d_29">
    <path d="M 56.735511 188.974435 
L 61.859478 213.278963 
L 66.983445 207.879015 
L 72.107412 190.004872 
L 77.231379 169.499705 
L 82.355346 151.332693 
L 87.479313 137.414951 
L 92.60328 127.87782 
L 97.727247 121.942947 
L 102.851214 118.488084 
L 107.975181 116.391145 
L 113.099148 114.717201 
L 118.223115 112.798359 
L 123.347082 110.244336 
L 128.471049 106.911791 
L 133.595015 102.852559 
L 138.718982 98.254782 
L 143.842949 93.386083 
L 148.966916 88.544279 
L 154.090883 84.018416 
L 159.21485 80.060965 
L 164.338817 76.870706 
L 169.462784 74.584993 
L 174.586751 73.279628 
L 179.710718 72.974431 
L 184.834685 73.642578 
L 189.958652 75.221991 
L 195.082619 77.6273 
L 200.206586 80.761199 
L 205.330553 84.524351 
L 210.45452 88.823269 
L 215.578487 93.575913 
L 220.702454 98.714966 
L 225.82642 104.188923 
L 230.950387 109.961309 
L 236.074354 116.008417 
L 241.198321 122.316 
L 246.322288 128.875391 
L 251.446255 135.679473 
L 256.570222 142.718901 
L 261.694189 149.978887 
L 266.818156 157.436788 
L 271.942123 165.060655 
L 277.06609 172.808804 
L 282.190057 180.63038 
L 287.314024 188.466842 
L 292.437991 196.254192 
L 297.561958 203.925768 
L 302.685925 211.415357 
L 307.809892 218.660396 
L 312.933858 225.605027 
L 318.057825 232.202777 
L 323.181792 238.418687 
L 328.305759 244.230756 
L 333.429726 249.630591 
L 338.553693 254.623247 
L 343.67766 259.226271 
L 348.801627 263.468018 
L 353.925594 267.385378 
L 359.049561 271.021054 
L 364.173528 274.420591 
L 369.297495 277.629359 
L 374.421462 280.689673 
L 379.545429 283.638266 
L 384.669396 286.504236 
L 389.793363 289.307614 
L 394.91733 292.058592 
L 400.041296 294.757436 
L 405.165263 297.395013 
L 410.28923 299.953823 
L 415.413197 302.409368 
L 420.537164 304.731655 
L 425.661131 306.886597 
L 430.785098 308.837097 
L 435.909065 310.543609 
L 441.033032 311.964054 
L 446.156999 313.053044 
L 451.280966 313.760499 
L 456.404933 314.029884 
L 461.5289 313.796497 
L 466.652867 312.986345 
L 471.776834 311.516393 
L 476.900801 309.297022 
L 482.024768 306.237597 
L 487.148735 302.256044 
L 492.272701 297.292967 
L 497.396668 291.330489 
L 502.520635 284.415123 
L 507.644602 276.682834 
L 512.768569 268.382643 
L 517.892536 259.892834 
L 523.016503 251.720491 
L 528.14047 244.47103 
L 533.264437 238.76887 
L 538.388404 235.103634 
L 543.512371 233.567697 
L 548.636338 233.440418 
L 553.760305 232.56149 
L 558.884272 226.420207 
L 564.008239 206.868971 
" clip-path="url(#p6578faed22)" style="fill: none; stroke: #00bfbf; stroke-width: 1.5; stroke-linecap: square"/>
   </g>
   <g id="patch_3">
    <path d="M 31.371875 355.464375 
L 31.371875 22.824375 
" style="fill: none; stroke: #000000; stroke-width: 0.8; stroke-linejoin: miter; stroke-linecap: square"/>
   </g>
   <g id="patch_4">
    <path d="M 589.371875 355.464375 
L 589.371875 22.824375 
" style="fill: none; stroke: #000000; stroke-width: 0.8; stroke-linejoin: miter; stroke-linecap: square"/>
   </g>
   <g id="patch_5">
    <path d="M 31.371875 355.464375 
L 589.371875 355.464375 
" style="fill: none; stroke: #000000; stroke-width: 0.8; stroke-linejoin: miter; stroke-linecap: square"/>
   </g>
   <g id="patch_6">
    <path d="M 31.371875 22.824375 
L 589.371875 22.824375 
" style="fill: none; stroke: #000000; stroke-width: 0.8; stroke-linejoin: miter; stroke-linecap: square"/>
   </g>
   <g id="text_14">
    <text style="font: 12px 'STHeiti', 'DejaVu Sans', 'Arial Unicode MS', sans-serif; text-anchor: middle" x="310.371875" y="16.824375" transform="rotate(-0 310.371875 16.824375)">L1正则化效果演示</text>
   </g>
   <g id="legend_1">
    <g id="patch_7">
     <path d="M 458.4375 88.305625 
L 582.371875 88.305625 
Q 584.371875 88.305625 584.371875 86.305625 
L 584.371875 29.824375 
Q 584.371875 27.824375 582.371875 27.824375 
L 458.4375 27.824375 
Q 456.4375 27.824375 456.4375 29.824375 
L 456.4375 86.305625 
Q 456.4375 88.305625 458.4375 88.305625 
z
" style="fill: #ffffff; opacity: 0.8; stroke: #cccccc; stroke-linejoin: miter"/>
    </g>
    <g id="PathCollection_2">
     <g>
      <use xlink:href="#maab0d3e6f2" x="470.4375" y="37.15875" style="fill: #0000ff; stroke: #0000ff"/>
     </g>
    </g>
    <g id="text_15">
     <text style="font: 10px 'STHeiti', 'DejaVu Sans', 'Arial Unicode MS', sans-serif; text-anchor: start" x="488.4375" y="39.78375" transform="rotate(-0 488.4375 39.78375)">数据点</text>
    </g>
    <g id="line2d_30">
     <path d="M 460.4375 50.58375 
L 470.4375 50.58375 
L 480.4375 50.58375 
" style="fill: none; stroke-dasharray: 5.55,2.4; stroke-dashoffset: 0; stroke: #008000; stroke-width: 1.5"/>
    </g>
    <g id="text_16">
     <text style="font: 10px 'STHeiti', 'DejaVu Sans', 'Arial Unicode MS', sans-serif; text-anchor: start" x="488.4375" y="54.08375" transform="rotate(-0 488.4375 54.08375)">真实函数</text>
    </g>
    <g id="line2d_31">
     <path d="M 460.4375 64.88375 
L 470.4375 64.88375 
L 480.4375 64.88375 
" style="fill: none; stroke: #ff0000; stroke-width: 1.5; stroke-linecap: square"/>
    </g>
    <g id="text_17">
     <text style="font: 10px 'STHeiti', 'DejaVu Sans', 'Arial Unicode MS', sans-serif; text-anchor: start" x="488.4375" y="68.38375" transform="rotate(-0 488.4375 68.38375)">无正则化</text>
    </g>
    <g id="line2d_32">
     <path d="M 460.4375 79.465 
L 470.4375 79.465 
L 480.4375 79.465 
" style="fill: none; stroke: #00bfbf; stroke-width: 1.5; stroke-linecap: square"/>
    </g>
    <g id="text_18">
     <text style="font: 10px 'STHeiti', 'DejaVu Sans', 'Arial Unicode MS', sans-serif; text-anchor: start" x="488.4375" y="82.965" transform="rotate(-0 488.4375 82.965)">L1正则化 (λ=0.1000)</text>
    </g>
   </g>
  </g>
 </g>
 <defs>
  <clipPath id="p6578faed22">
   <rect x="31.371875" y="22.824375" width="558" height="332.64"/>
  </clipPath>
 </defs>
</svg>
