<svg xmlns:xlink="http://www.w3.org/1999/xlink" width="596.571875pt" height="378.964375pt" viewBox="0 0 596.571875 378.964375" xmlns="http://www.w3.org/2000/svg" version="1.1">
 <metadata>
  <rdf:RDF xmlns:dc="http://purl.org/dc/elements/1.1/" xmlns:cc="http://creativecommons.org/ns#" xmlns:rdf="http://www.w3.org/1999/02/22-rdf-syntax-ns#">
   <cc:Work>
    <dc:type rdf:resource="http://purl.org/dc/dcmitype/StillImage"/>
    <dc:date>2025-03-04T10:32:05.939811</dc:date>
    <dc:format>image/svg+xml</dc:format>
    <dc:creator>
     <cc:Agent>
      <dc:title>Matplotlib v3.7.1, https://matplotlib.org/</dc:title>
     </cc:Agent>
    </dc:creator>
   </cc:Work>
  </rdf:RDF>
 </metadata>
 <defs>
  <style type="text/css">*{stroke-linejoin: round; stroke-linecap: butt}</style>
 </defs>
 <g id="figure_1">
  <g id="patch_1">
   <path d="M 0 378.964375 
L 596.571875 378.964375 
L 596.571875 0 
L 0 0 
z
" style="fill: #ffffff"/>
  </g>
  <g id="axes_1">
   <g id="patch_2">
    <path d="M 31.371875 355.464375 
L 589.371875 355.464375 
L 589.371875 22.824375 
L 31.371875 22.824375 
z
" style="fill: #ffffff"/>
   </g>
   <g id="PathCollection_1">
    <defs>
     <path id="m6e0ff4662b" d="M 0 3 
C 0.795609 3 1.55874 2.683901 2.12132 2.12132 
C 2.683901 1.55874 3 0.795609 3 0 
C 3 -0.795609 2.683901 -1.55874 2.12132 -2.12132 
C 1.55874 -2.683901 0.795609 -3 0 -3 
C -0.795609 -3 -1.55874 -2.683901 -2.12132 -2.12132 
C -2.683901 -1.55874 -3 -0.795609 -3 0 
C -3 0.795609 -2.683901 1.55874 -2.12132 2.12132 
C -1.55874 2.683901 -0.795609 3 0 3 
z
" style="stroke: #0000ff"/>
    </defs>
    <g clip-path="url(#pad644eeb01)">
     <use xlink:href="#m6e0ff4662b" x="56.735511" y="178.129242" style="fill: #0000ff; stroke: #0000ff"/>
     <use xlink:href="#m6e0ff4662b" x="74.227674" y="168.374602" style="fill: #0000ff; stroke: #0000ff"/>
     <use xlink:href="#m6e0ff4662b" x="91.719837" y="128.22393" style="fill: #0000ff; stroke: #0000ff"/>
     <use xlink:href="#m6e0ff4662b" x="109.212" y="88.267948" style="fill: #0000ff; stroke: #0000ff"/>
     <use xlink:href="#m6e0ff4662b" x="126.704163" y="109.828432" style="fill: #0000ff; stroke: #0000ff"/>
     <use xlink:href="#m6e0ff4662b" x="144.196326" y="96.372781" style="fill: #0000ff; stroke: #0000ff"/>
     <use xlink:href="#m6e0ff4662b" x="161.688489" y="47.285328" style="fill: #0000ff; stroke: #0000ff"/>
     <use xlink:href="#m6e0ff4662b" x="179.180652" y="61.408358" style="fill: #0000ff; stroke: #0000ff"/>
     <use xlink:href="#m6e0ff4662b" x="196.672815" y="90.136114" style="fill: #0000ff; stroke: #0000ff"/>
     <use xlink:href="#m6e0ff4662b" x="214.164978" y="74.107625" style="fill: #0000ff; stroke: #0000ff"/>
     <use xlink:href="#m6e0ff4662b" x="231.657141" y="107.64697" style="fill: #0000ff; stroke: #0000ff"/>
     <use xlink:href="#m6e0ff4662b" x="249.149304" y="123.220282" style="fill: #0000ff; stroke: #0000ff"/>
     <use xlink:href="#m6e0ff4662b" x="266.641467" y="126.614008" style="fill: #0000ff; stroke: #0000ff"/>
     <use xlink:href="#m6e0ff4662b" x="284.13363" y="196.169124" style="fill: #0000ff; stroke: #0000ff"/>
     <use xlink:href="#m6e0ff4662b" x="301.625793" y="215.407916" style="fill: #0000ff; stroke: #0000ff"/>
     <use xlink:href="#m6e0ff4662b" x="319.117957" y="213.6019" style="fill: #0000ff; stroke: #0000ff"/>
     <use xlink:href="#m6e0ff4662b" x="336.61012" y="247.009072" style="fill: #0000ff; stroke: #0000ff"/>
     <use xlink:href="#m6e0ff4662b" x="354.102283" y="239.340238" style="fill: #0000ff; stroke: #0000ff"/>
     <use xlink:href="#m6e0ff4662b" x="371.594446" y="285.532833" style="fill: #0000ff; stroke: #0000ff"/>
     <use xlink:href="#m6e0ff4662b" x="389.086609" y="312.237778" style="fill: #0000ff; stroke: #0000ff"/>
     <use xlink:href="#m6e0ff4662b" x="406.578772" y="259.647087" style="fill: #0000ff; stroke: #0000ff"/>
     <use xlink:href="#m6e0ff4662b" x="424.070935" y="303.570515" style="fill: #0000ff; stroke: #0000ff"/>
     <use xlink:href="#m6e0ff4662b" x="441.563098" y="298.364254" style="fill: #0000ff; stroke: #0000ff"/>
     <use xlink:href="#m6e0ff4662b" x="459.055261" y="327.578014" style="fill: #0000ff; stroke: #0000ff"/>
     <use xlink:href="#m6e0ff4662b" x="476.547424" y="299.180422" style="fill: #0000ff; stroke: #0000ff"/>
     <use xlink:href="#m6e0ff4662b" x="494.039587" y="271.193084" style="fill: #0000ff; stroke: #0000ff"/>
     <use xlink:href="#m6e0ff4662b" x="511.53175" y="281.770526" style="fill: #0000ff; stroke: #0000ff"/>
     <use xlink:href="#m6e0ff4662b" x="529.023913" y="227.370199" style="fill: #0000ff; stroke: #0000ff"/>
     <use xlink:href="#m6e0ff4662b" x="546.516076" y="226.300061" style="fill: #0000ff; stroke: #0000ff"/>
     <use xlink:href="#m6e0ff4662b" x="564.008239" y="195.612976" style="fill: #0000ff; stroke: #0000ff"/>
    </g>
   </g>
   <g id="matplotlib.axis_1">
    <g id="xtick_1">
     <g id="line2d_1">
      <path d="M 56.735511 355.464375 
L 56.735511 22.824375 
" clip-path="url(#pad644eeb01)" style="fill: none; stroke: #b0b0b0; stroke-opacity: 0.3; stroke-width: 0.8; stroke-linecap: square"/>
     </g>
     <g id="line2d_2">
      <defs>
       <path id="mdfdd8219bc" d="M 0 0 
L 0 3.5 
" style="stroke: #000000; stroke-width: 0.8"/>
      </defs>
      <g>
       <use xlink:href="#mdfdd8219bc" x="56.735511" y="355.464375" style="stroke: #000000; stroke-width: 0.8"/>
      </g>
     </g>
     <g id="text_1">
      <!-- 0.0 -->
      <g transform="translate(49.80973 370.42375) scale(0.1 -0.1)">
       <defs>
        <path id="STHeiti-30" d="M 1747 269 
Q 1005 269 605 880 
Q 205 1491 205 2681 
Q 205 3872 605 4483 
Q 1005 5094 1741 5094 
Q 2477 5094 2909 4470 
Q 3341 3846 3341 2681 
Q 3341 1517 2905 893 
Q 2470 269 1747 269 
z
M 1760 4659 
Q 1229 4659 934 4147 
Q 640 3635 640 2669 
Q 640 685 1760 685 
Q 2304 685 2608 1206 
Q 2912 1728 2912 2681 
Q 2912 3635 2598 4147 
Q 2285 4659 1760 4659 
z
" transform="scale(0.015625)"/>
        <path id="STHeiti-2e" d="M 582 685 
Q 582 845 697 957 
Q 813 1069 969 1069 
Q 1126 1069 1238 957 
Q 1350 845 1350 681 
Q 1350 518 1238 406 
Q 1126 294 969 294 
Q 813 294 697 409 
Q 582 525 582 685 
z
" transform="scale(0.015625)"/>
       </defs>
       <use xlink:href="#STHeiti-30"/>
       <use xlink:href="#STHeiti-2e" x="55.399994"/>
       <use xlink:href="#STHeiti-30" x="83.099991"/>
      </g>
     </g>
    </g>
    <g id="xtick_2">
     <g id="line2d_3">
      <path d="M 158.190057 355.464375 
L 158.190057 22.824375 
" clip-path="url(#pad644eeb01)" style="fill: none; stroke: #b0b0b0; stroke-opacity: 0.3; stroke-width: 0.8; stroke-linecap: square"/>
     </g>
     <g id="line2d_4">
      <g>
       <use xlink:href="#mdfdd8219bc" x="158.190057" y="355.464375" style="stroke: #000000; stroke-width: 0.8"/>
      </g>
     </g>
     <g id="text_2">
      <!-- 0.2 -->
      <g transform="translate(151.264276 370.42375) scale(0.1 -0.1)">
       <defs>
        <path id="STHeiti-32" d="M 742 3539 
L 301 3539 
Q 333 4243 768 4668 
Q 1203 5094 1820 5094 
Q 2438 5094 2844 4694 
Q 3251 4294 3251 3718 
Q 3251 3290 3024 2925 
Q 2797 2560 2336 2061 
L 1190 826 
L 3315 826 
L 3315 384 
L 192 384 
L 1946 2278 
Q 2406 2778 2604 3066 
Q 2803 3354 2803 3725 
Q 2803 4096 2512 4377 
Q 2221 4659 1789 4659 
Q 1357 4659 1072 4368 
Q 787 4077 742 3539 
z
" transform="scale(0.015625)"/>
       </defs>
       <use xlink:href="#STHeiti-30"/>
       <use xlink:href="#STHeiti-2e" x="55.399994"/>
       <use xlink:href="#STHeiti-32" x="83.099991"/>
      </g>
     </g>
    </g>
    <g id="xtick_3">
     <g id="line2d_5">
      <path d="M 259.644602 355.464375 
L 259.644602 22.824375 
" clip-path="url(#pad644eeb01)" style="fill: none; stroke: #b0b0b0; stroke-opacity: 0.3; stroke-width: 0.8; stroke-linecap: square"/>
     </g>
     <g id="line2d_6">
      <g>
       <use xlink:href="#mdfdd8219bc" x="259.644602" y="355.464375" style="stroke: #000000; stroke-width: 0.8"/>
      </g>
     </g>
     <g id="text_3">
      <!-- 0.4 -->
      <g transform="translate(252.718821 370.42375) scale(0.1 -0.1)">
       <defs>
        <path id="STHeiti-34" d="M 2726 5094 
L 2816 5094 
L 2816 1894 
L 3373 1894 
L 3373 1453 
L 2816 1453 
L 2816 384 
L 2362 384 
L 2362 1453 
L 160 1453 
L 2726 5094 
z
M 2362 1894 
L 2362 3808 
L 1005 1894 
L 2362 1894 
z
" transform="scale(0.015625)"/>
       </defs>
       <use xlink:href="#STHeiti-30"/>
       <use xlink:href="#STHeiti-2e" x="55.399994"/>
       <use xlink:href="#STHeiti-34" x="83.099991"/>
      </g>
     </g>
    </g>
    <g id="xtick_4">
     <g id="line2d_7">
      <path d="M 361.099148 355.464375 
L 361.099148 22.824375 
" clip-path="url(#pad644eeb01)" style="fill: none; stroke: #b0b0b0; stroke-opacity: 0.3; stroke-width: 0.8; stroke-linecap: square"/>
     </g>
     <g id="line2d_8">
      <g>
       <use xlink:href="#mdfdd8219bc" x="361.099148" y="355.464375" style="stroke: #000000; stroke-width: 0.8"/>
      </g>
     </g>
     <g id="text_4">
      <!-- 0.6 -->
      <g transform="translate(354.173366 370.42375) scale(0.1 -0.1)">
       <defs>
        <path id="STHeiti-36" d="M 2349 5094 
L 2726 4851 
L 1485 2970 
Q 1747 3059 1984 3059 
Q 2496 3059 2880 2652 
Q 3264 2246 3264 1660 
Q 3264 1075 2845 672 
Q 2426 269 1827 269 
Q 1229 269 829 678 
Q 429 1088 429 1677 
Q 429 1958 537 2256 
Q 646 2554 954 3014 
L 2349 5094 
z
M 2810 1683 
Q 2810 2086 2528 2368 
Q 2246 2650 1843 2650 
Q 1440 2650 1158 2368 
Q 877 2086 877 1683 
Q 877 1280 1161 998 
Q 1446 717 1843 717 
Q 2240 717 2525 998 
Q 2810 1280 2810 1683 
z
" transform="scale(0.015625)"/>
       </defs>
       <use xlink:href="#STHeiti-30"/>
       <use xlink:href="#STHeiti-2e" x="55.399994"/>
       <use xlink:href="#STHeiti-36" x="83.099991"/>
      </g>
     </g>
    </g>
    <g id="xtick_5">
     <g id="line2d_9">
      <path d="M 462.553693 355.464375 
L 462.553693 22.824375 
" clip-path="url(#pad644eeb01)" style="fill: none; stroke: #b0b0b0; stroke-opacity: 0.3; stroke-width: 0.8; stroke-linecap: square"/>
     </g>
     <g id="line2d_10">
      <g>
       <use xlink:href="#mdfdd8219bc" x="462.553693" y="355.464375" style="stroke: #000000; stroke-width: 0.8"/>
      </g>
     </g>
     <g id="text_5">
      <!-- 0.8 -->
      <g transform="translate(455.627912 370.42375) scale(0.1 -0.1)">
       <defs>
        <path id="STHeiti-38" d="M 2458 2906 
Q 3328 2477 3328 1702 
Q 3328 1088 2896 678 
Q 2464 269 1763 269 
Q 1062 269 640 678 
Q 218 1088 218 1664 
Q 218 2470 1107 2906 
Q 435 3264 435 3898 
Q 435 4371 828 4732 
Q 1222 5094 1779 5094 
Q 2336 5094 2726 4742 
Q 3117 4390 3117 3885 
Q 3117 3270 2458 2906 
z
M 2656 3904 
Q 2656 4211 2416 4432 
Q 2176 4653 1789 4653 
Q 1402 4653 1152 4432 
Q 902 4211 902 3897 
Q 902 3584 1174 3337 
Q 1446 3091 1792 3091 
Q 2138 3091 2397 3334 
Q 2656 3578 2656 3904 
z
M 2867 1696 
Q 2867 2086 2550 2380 
Q 2234 2675 1782 2675 
Q 1331 2675 1004 2371 
Q 678 2067 678 1654 
Q 678 1242 979 973 
Q 1280 704 1766 704 
Q 2253 704 2560 992 
Q 2867 1280 2867 1696 
z
" transform="scale(0.015625)"/>
       </defs>
       <use xlink:href="#STHeiti-30"/>
       <use xlink:href="#STHeiti-2e" x="55.399994"/>
       <use xlink:href="#STHeiti-38" x="83.099991"/>
      </g>
     </g>
    </g>
    <g id="xtick_6">
     <g id="line2d_11">
      <path d="M 564.008239 355.464375 
L 564.008239 22.824375 
" clip-path="url(#pad644eeb01)" style="fill: none; stroke: #b0b0b0; stroke-opacity: 0.3; stroke-width: 0.8; stroke-linecap: square"/>
     </g>
     <g id="line2d_12">
      <g>
       <use xlink:href="#mdfdd8219bc" x="564.008239" y="355.464375" style="stroke: #000000; stroke-width: 0.8"/>
      </g>
     </g>
     <g id="text_6">
      <!-- 1.0 -->
      <g transform="translate(557.082457 370.42375) scale(0.1 -0.1)">
       <defs>
        <path id="STHeiti-31" d="M 1184 4979 
L 2086 4979 
L 2086 384 
L 1632 384 
L 1632 4531 
L 909 4531 
L 1184 4979 
z
" transform="scale(0.015625)"/>
       </defs>
       <use xlink:href="#STHeiti-31"/>
       <use xlink:href="#STHeiti-2e" x="55.399994"/>
       <use xlink:href="#STHeiti-30" x="83.099991"/>
      </g>
     </g>
    </g>
   </g>
   <g id="matplotlib.axis_2">
    <g id="ytick_1">
     <g id="line2d_13">
      <path d="M 31.371875 355.464375 
L 589.371875 355.464375 
" clip-path="url(#pad644eeb01)" style="fill: none; stroke: #b0b0b0; stroke-opacity: 0.3; stroke-width: 0.8; stroke-linecap: square"/>
     </g>
     <g id="line2d_14">
      <defs>
       <path id="m189e885c5a" d="M 0 0 
L -3.5 0 
" style="stroke: #000000; stroke-width: 0.8"/>
      </defs>
      <g>
       <use xlink:href="#m189e885c5a" x="31.371875" y="355.464375" style="stroke: #000000; stroke-width: 0.8"/>
      </g>
     </g>
     <g id="text_7">
      <!-- -1.5 -->
      <g transform="translate(7.2 359.444063) scale(0.1 -0.1)">
       <defs>
        <path id="STHeiti-2d" d="M 205 2304 
L 1920 2304 
L 1920 1920 
L 205 1920 
L 205 2304 
z
" transform="scale(0.015625)"/>
        <path id="STHeiti-35" d="M 3149 4979 
L 3149 4544 
L 1510 4544 
L 1280 3290 
Q 1587 3379 1856 3379 
Q 2458 3379 2861 2953 
Q 3264 2528 3264 1862 
Q 3264 1197 2825 733 
Q 2387 269 1664 269 
Q 1114 269 726 598 
Q 339 928 262 1498 
L 730 1498 
Q 813 1114 1075 909 
Q 1338 704 1683 704 
Q 2138 704 2467 1043 
Q 2797 1382 2797 1888 
Q 2797 2349 2509 2646 
Q 2221 2944 1757 2944 
Q 1293 2944 730 2701 
L 1158 4979 
L 3149 4979 
z
" transform="scale(0.015625)"/>
       </defs>
       <use xlink:href="#STHeiti-2d"/>
       <use xlink:href="#STHeiti-31" x="33.199997"/>
       <use xlink:href="#STHeiti-2e" x="88.599991"/>
       <use xlink:href="#STHeiti-35" x="116.299988"/>
      </g>
     </g>
    </g>
    <g id="ytick_2">
     <g id="line2d_15">
      <path d="M 31.371875 300.024375 
L 589.371875 300.024375 
" clip-path="url(#pad644eeb01)" style="fill: none; stroke: #b0b0b0; stroke-opacity: 0.3; stroke-width: 0.8; stroke-linecap: square"/>
     </g>
     <g id="line2d_16">
      <g>
       <use xlink:href="#m189e885c5a" x="31.371875" y="300.024375" style="stroke: #000000; stroke-width: 0.8"/>
      </g>
     </g>
     <g id="text_8">
      <!-- -1.0 -->
      <g transform="translate(7.2 304.004063) scale(0.1 -0.1)">
       <use xlink:href="#STHeiti-2d"/>
       <use xlink:href="#STHeiti-31" x="33.199997"/>
       <use xlink:href="#STHeiti-2e" x="88.599991"/>
       <use xlink:href="#STHeiti-30" x="116.299988"/>
      </g>
     </g>
    </g>
    <g id="ytick_3">
     <g id="line2d_17">
      <path d="M 31.371875 244.584375 
L 589.371875 244.584375 
" clip-path="url(#pad644eeb01)" style="fill: none; stroke: #b0b0b0; stroke-opacity: 0.3; stroke-width: 0.8; stroke-linecap: square"/>
     </g>
     <g id="line2d_18">
      <g>
       <use xlink:href="#m189e885c5a" x="31.371875" y="244.584375" style="stroke: #000000; stroke-width: 0.8"/>
      </g>
     </g>
     <g id="text_9">
      <!-- -0.5 -->
      <g transform="translate(7.2 248.564063) scale(0.1 -0.1)">
       <use xlink:href="#STHeiti-2d"/>
       <use xlink:href="#STHeiti-30" x="33.199997"/>
       <use xlink:href="#STHeiti-2e" x="88.599991"/>
       <use xlink:href="#STHeiti-35" x="116.299988"/>
      </g>
     </g>
    </g>
    <g id="ytick_4">
     <g id="line2d_19">
      <path d="M 31.371875 189.144375 
L 589.371875 189.144375 
" clip-path="url(#pad644eeb01)" style="fill: none; stroke: #b0b0b0; stroke-opacity: 0.3; stroke-width: 0.8; stroke-linecap: square"/>
     </g>
     <g id="line2d_20">
      <g>
       <use xlink:href="#m189e885c5a" x="31.371875" y="189.144375" style="stroke: #000000; stroke-width: 0.8"/>
      </g>
     </g>
     <g id="text_10">
      <!-- 0.0 -->
      <g transform="translate(10.520313 193.124063) scale(0.1 -0.1)">
       <use xlink:href="#STHeiti-30"/>
       <use xlink:href="#STHeiti-2e" x="55.399994"/>
       <use xlink:href="#STHeiti-30" x="83.099991"/>
      </g>
     </g>
    </g>
    <g id="ytick_5">
     <g id="line2d_21">
      <path d="M 31.371875 133.704375 
L 589.371875 133.704375 
" clip-path="url(#pad644eeb01)" style="fill: none; stroke: #b0b0b0; stroke-opacity: 0.3; stroke-width: 0.8; stroke-linecap: square"/>
     </g>
     <g id="line2d_22">
      <g>
       <use xlink:href="#m189e885c5a" x="31.371875" y="133.704375" style="stroke: #000000; stroke-width: 0.8"/>
      </g>
     </g>
     <g id="text_11">
      <!-- 0.5 -->
      <g transform="translate(10.520313 137.684063) scale(0.1 -0.1)">
       <use xlink:href="#STHeiti-30"/>
       <use xlink:href="#STHeiti-2e" x="55.399994"/>
       <use xlink:href="#STHeiti-35" x="83.099991"/>
      </g>
     </g>
    </g>
    <g id="ytick_6">
     <g id="line2d_23">
      <path d="M 31.371875 78.264375 
L 589.371875 78.264375 
" clip-path="url(#pad644eeb01)" style="fill: none; stroke: #b0b0b0; stroke-opacity: 0.3; stroke-width: 0.8; stroke-linecap: square"/>
     </g>
     <g id="line2d_24">
      <g>
       <use xlink:href="#m189e885c5a" x="31.371875" y="78.264375" style="stroke: #000000; stroke-width: 0.8"/>
      </g>
     </g>
     <g id="text_12">
      <!-- 1.0 -->
      <g transform="translate(10.520313 82.244062) scale(0.1 -0.1)">
       <use xlink:href="#STHeiti-31"/>
       <use xlink:href="#STHeiti-2e" x="55.399994"/>
       <use xlink:href="#STHeiti-30" x="83.099991"/>
      </g>
     </g>
    </g>
    <g id="ytick_7">
     <g id="line2d_25">
      <path d="M 31.371875 22.824375 
L 589.371875 22.824375 
" clip-path="url(#pad644eeb01)" style="fill: none; stroke: #b0b0b0; stroke-opacity: 0.3; stroke-width: 0.8; stroke-linecap: square"/>
     </g>
     <g id="line2d_26">
      <g>
       <use xlink:href="#m189e885c5a" x="31.371875" y="22.824375" style="stroke: #000000; stroke-width: 0.8"/>
      </g>
     </g>
     <g id="text_13">
      <!-- 1.5 -->
      <g transform="translate(10.520313 26.804062) scale(0.1 -0.1)">
       <use xlink:href="#STHeiti-31"/>
       <use xlink:href="#STHeiti-2e" x="55.399994"/>
       <use xlink:href="#STHeiti-35" x="83.099991"/>
      </g>
     </g>
    </g>
   </g>
   <g id="line2d_27">
    <path d="M 56.735511 189.144375 
L 61.859478 182.111931 
L 66.983445 175.107804 
L 72.107412 168.160197 
L 77.231379 161.297086 
L 82.355346 154.546107 
L 87.479313 147.934442 
L 92.60328 141.488715 
L 97.727247 135.234881 
L 102.851214 129.198121 
L 107.975181 123.402744 
L 113.099148 117.872085 
L 118.223115 112.628414 
L 123.347082 107.692846 
L 128.471049 103.085255 
L 133.595015 98.824193 
L 138.718982 94.926819 
L 143.842949 91.408826 
L 148.966916 88.284379 
L 154.090883 85.56606 
L 159.21485 83.264814 
L 164.338817 81.389908 
L 169.462784 79.948891 
L 174.586751 78.947566 
L 179.710718 78.389964 
L 184.834685 78.278332 
L 189.958652 78.613117 
L 195.082619 79.392974 
L 200.206586 80.61476 
L 205.330553 82.273556 
L 210.45452 84.362684 
L 215.578487 86.873731 
L 220.702454 89.796585 
L 225.82642 93.119478 
L 230.950387 96.82903 
L 236.074354 100.910302 
L 241.198321 105.346862 
L 246.322288 110.120845 
L 251.446255 115.213028 
L 256.570222 120.602907 
L 261.694189 126.268777 
L 266.818156 132.187826 
L 271.942123 138.336218 
L 277.06609 144.689197 
L 282.190057 151.221182 
L 287.314024 157.905869 
L 292.437991 164.716343 
L 297.561958 171.62518 
L 302.685925 178.604561 
L 307.809892 185.626382 
L 312.933858 192.662368 
L 318.057825 199.684189 
L 323.181792 206.66357 
L 328.305759 213.572407 
L 333.429726 220.382881 
L 338.553693 227.067568 
L 343.67766 233.599553 
L 348.801627 239.952532 
L 353.925594 246.100924 
L 359.049561 252.019973 
L 364.173528 257.685843 
L 369.297495 263.075722 
L 374.421462 268.167905 
L 379.545429 272.941888 
L 384.669396 277.378448 
L 389.793363 281.45972 
L 394.91733 285.169272 
L 400.041296 288.492165 
L 405.165263 291.415019 
L 410.28923 293.926066 
L 415.413197 296.015194 
L 420.537164 297.67399 
L 425.661131 298.895776 
L 430.785098 299.675633 
L 435.909065 300.010418 
L 441.033032 299.898786 
L 446.156999 299.341184 
L 451.280966 298.339859 
L 456.404933 296.898842 
L 461.5289 295.023936 
L 466.652867 292.72269 
L 471.776834 290.004371 
L 476.900801 286.879924 
L 482.024768 283.361931 
L 487.148735 279.464557 
L 492.272701 275.203495 
L 497.396668 270.595904 
L 502.520635 265.660336 
L 507.644602 260.416665 
L 512.768569 254.886006 
L 517.892536 249.090629 
L 523.016503 243.053869 
L 528.14047 236.800035 
L 533.264437 230.354308 
L 538.388404 223.742643 
L 543.512371 216.991664 
L 548.636338 210.128553 
L 553.760305 203.180946 
L 558.884272 196.176819 
L 564.008239 189.144375 
" clip-path="url(#pad644eeb01)" style="fill: none; stroke-dasharray: 5.55,2.4; stroke-dashoffset: 0; stroke: #008000; stroke-width: 1.5"/>
   </g>
   <g id="line2d_28">
    <path d="M 56.735511 177.886435 
L 61.859478 202.301843 
L 66.983445 197.010579 
L 72.107412 179.242989 
L 77.231379 158.842306 
L 82.355346 140.77777 
L 87.479313 126.960551 
L 92.60328 117.522046 
L 97.727247 111.683956 
L 102.851214 108.324084 
L 107.975181 106.320392 
L 113.099148 104.738001 
L 118.223115 102.909061 
L 123.347082 100.443336 
L 128.471049 97.197525 
L 133.595015 93.223506 
L 138.718982 88.70946 
L 143.842949 83.923048 
L 148.966916 79.162125 
L 154.090883 74.715772 
L 159.21485 70.836494 
L 164.338817 67.723106 
L 169.462784 65.512993 
L 174.586751 64.281988 
L 179.710718 64.049943 
L 184.834685 64.790062 
L 189.958652 66.440295 
L 195.082619 68.9153 
L 200.206586 72.117798 
L 205.330553 75.948476 
L 210.45452 80.313873 
L 215.578487 85.131975 
L 220.702454 90.335485 
L 225.82642 95.872922 
L 230.950387 101.707834 
L 236.074354 107.816535 
L 241.198321 114.184798 
L 246.322288 120.803976 
L 251.446255 127.666972 
L 256.570222 134.76446 
L 261.694189 142.081669 
L 266.818156 149.595974 
L 271.942123 157.275443 
L 277.06609 165.078409 
L 282.190057 172.954032 
L 287.314024 180.843786 
L 292.437991 188.683688 
L 297.561958 196.407088 
L 302.685925 203.947785 
L 307.809892 211.243229 
L 312.933858 218.237571 
L 318.057825 224.884347 
L 323.181792 231.148607 
L 328.305759 237.008353 
L 333.429726 242.455196 
L 338.553693 247.494191 
L 343.67766 252.142882 
L 348.801627 256.42962 
L 353.925594 260.391283 
L 359.049561 264.070558 
L 364.173528 267.512968 
L 369.297495 270.763853 
L 374.421462 273.865491 
L 379.545429 276.854565 
L 384.669396 279.760114 
L 389.793363 282.602091 
L 394.91733 285.390599 
L 400.041296 288.125791 
L 405.165263 290.798398 
L 410.28923 293.390757 
L 415.413197 295.878176 
L 420.537164 298.230431 
L 425.661131 300.413159 
L 430.785098 302.38894 
L 435.909065 304.117842 
L 441.033032 305.557341 
L 446.156999 306.661519 
L 451.280966 307.379682 
L 456.404933 307.65458 
L 461.5289 307.420672 
L 466.652867 306.603001 
L 471.776834 305.117412 
L 476.900801 302.872987 
L 482.024768 299.777603 
L 487.148735 295.747467 
L 492.272701 290.721205 
L 497.396668 284.678678 
L 502.520635 277.663802 
L 507.644602 269.809581 
L 512.768569 261.361656 
L 517.892536 252.694447 
L 523.016503 244.310656 
L 528.14047 236.810717 
L 533.264437 230.813396 
L 538.388404 226.801911 
L 543.512371 224.861403 
L 548.636338 224.263042 
L 553.760305 222.837279 
L 558.884272 216.06303 
L 564.008239 195.780965 
" clip-path="url(#pad644eeb01)" style="fill: none; stroke: #ff0000; stroke-width: 1.5; stroke-linecap: square"/>
   </g>
   <g id="line2d_29">
    <path d="M 56.735511 113.490888 
L 61.859478 114.362772 
L 66.983445 115.255641 
L 72.107412 116.169933 
L 77.231379 117.106096 
L 82.355346 118.064586 
L 87.479313 119.04587 
L 92.60328 120.050426 
L 97.727247 121.078739 
L 102.851214 122.131307 
L 107.975181 123.208637 
L 113.099148 124.311246 
L 118.223115 125.439661 
L 123.347082 126.59442 
L 128.471049 127.776072 
L 133.595015 128.985175 
L 138.718982 130.222299 
L 143.842949 131.488023 
L 148.966916 132.782937 
L 154.090883 134.107641 
L 159.21485 135.462745 
L 164.338817 136.848868 
L 169.462784 138.26664 
L 174.586751 139.716698 
L 179.710718 141.199689 
L 184.834685 142.716269 
L 189.958652 144.267099 
L 195.082619 145.852849 
L 200.206586 147.474193 
L 205.330553 149.131813 
L 210.45452 150.826392 
L 215.578487 152.558617 
L 220.702454 154.329174 
L 225.82642 156.138752 
L 230.950387 157.988034 
L 236.074354 159.877699 
L 241.198321 161.80842 
L 246.322288 163.780858 
L 251.446255 165.795661 
L 256.570222 167.85346 
L 261.694189 169.954864 
L 266.818156 172.100455 
L 271.942123 174.290786 
L 277.06609 176.52637 
L 282.190057 178.807675 
L 287.314024 181.135118 
L 292.437991 183.509056 
L 297.561958 185.929774 
L 302.685925 188.397476 
L 307.809892 190.912272 
L 312.933858 193.474166 
L 318.057825 196.083038 
L 323.181792 198.738628 
L 328.305759 201.440518 
L 333.429726 204.188107 
L 338.553693 206.980592 
L 343.67766 209.816936 
L 348.801627 212.695843 
L 353.925594 215.615718 
L 359.049561 218.574636 
L 364.173528 221.5703 
L 369.297495 224.599989 
L 374.421462 227.660513 
L 379.545429 230.748154 
L 384.669396 233.8586 
L 389.793363 236.986878 
L 394.91733 240.127277 
L 400.041296 243.273257 
L 405.165263 246.417357 
L 410.28923 249.551089 
L 415.413197 252.66482 
L 420.537164 255.747643 
L 425.661131 258.787236 
L 430.785098 261.769703 
L 435.909065 264.679401 
L 441.033032 267.49875 
L 446.156999 270.208024 
L 451.280966 272.785117 
L 456.404933 275.205291 
L 461.5289 277.440898 
L 466.652867 279.461071 
L 471.776834 281.231393 
L 476.900801 282.713525 
L 482.024768 283.864808 
L 487.148735 284.637817 
L 492.272701 284.979885 
L 497.396668 284.832571 
L 502.520635 284.131089 
L 507.644602 282.803681 
L 512.768569 280.77093 
L 517.892536 277.945017 
L 523.016503 274.228906 
L 528.14047 269.515465 
L 533.264437 263.686502 
L 538.388404 256.611718 
L 543.512371 248.147578 
L 548.636338 238.136074 
L 553.760305 226.403392 
L 558.884272 212.758462 
L 564.008239 196.991386 
" clip-path="url(#pad644eeb01)" style="fill: none; stroke: #00bfbf; stroke-width: 1.5; stroke-linecap: square"/>
   </g>
   <g id="patch_3">
    <path d="M 31.371875 355.464375 
L 31.371875 22.824375 
" style="fill: none; stroke: #000000; stroke-width: 0.8; stroke-linejoin: miter; stroke-linecap: square"/>
   </g>
   <g id="patch_4">
    <path d="M 589.371875 355.464375 
L 589.371875 22.824375 
" style="fill: none; stroke: #000000; stroke-width: 0.8; stroke-linejoin: miter; stroke-linecap: square"/>
   </g>
   <g id="patch_5">
    <path d="M 31.371875 355.464375 
L 589.371875 355.464375 
" style="fill: none; stroke: #000000; stroke-width: 0.8; stroke-linejoin: miter; stroke-linecap: square"/>
   </g>
   <g id="patch_6">
    <path d="M 31.371875 22.824375 
L 589.371875 22.824375 
" style="fill: none; stroke: #000000; stroke-width: 0.8; stroke-linejoin: miter; stroke-linecap: square"/>
   </g>
   <g id="text_14">
    <!-- L2正则化效果演示 -->
    <g transform="translate(262.275312 16.824375) scale(0.12 -0.12)">
     <defs>
      <path id="STHeiti-4c" d="M 557 4979 
L 1024 4979 
L 1024 826 
L 2790 826 
L 2790 384 
L 557 384 
L 557 4979 
z
" transform="scale(0.015625)"/>
      <path id="STHeiti-6b63" d="M 1453 378 
L 1453 2445 
Q 1453 3034 1414 3200 
Q 1811 3142 2099 3142 
Q 2170 3142 2170 3091 
Q 2170 3040 2096 2989 
Q 2022 2938 2022 2746 
L 2022 371 
L 3091 371 
L 3091 4160 
Q 1651 4160 941 4090 
L 941 4730 
Q 1728 4666 3280 4666 
Q 4832 4666 5619 4730 
L 5619 4090 
Q 4851 4154 3680 4160 
L 3680 2733 
L 4429 2733 
Q 5069 2733 5427 2797 
L 5427 2195 
Q 5094 2227 4435 2227 
L 3680 2227 
L 3680 371 
Q 5581 371 6010 448 
L 6010 -192 
Q 5651 -134 3232 -134 
Q 813 -134 499 -192 
L 499 448 
Q 909 384 1453 378 
z
" transform="scale(0.015625)"/>
      <path id="STHeiti-5219" d="M 5062 5171 
Q 5350 5114 5632 5107 
Q 5734 5101 5734 5056 
Q 5734 5011 5676 4960 
Q 5619 4909 5619 4787 
L 5619 186 
Q 5619 -83 5564 -201 
Q 5510 -320 5305 -390 
Q 5101 -461 4608 -525 
Q 4563 -128 4288 154 
Q 4589 122 4768 122 
Q 4947 122 5033 163 
Q 5120 205 5120 346 
L 5120 4128 
Q 5120 4838 5062 5171 
z
M 3398 1286 
L 2848 1286 
L 2848 4275 
L 1286 4275 
L 1286 1286 
L 736 1286 
Q 787 1760 787 2125 
L 787 3699 
Q 787 4288 742 4826 
Q 1101 4755 2067 4755 
Q 3034 4755 3392 4826 
Q 3347 4166 3347 3699 
L 3347 2125 
Q 3347 1690 3398 1286 
z
M 4499 813 
L 3904 813 
Q 3962 1165 3962 2029 
L 3962 3469 
Q 3962 4045 3891 4358 
Q 4006 4320 4156 4320 
Q 4307 4320 4384 4326 
L 4499 4339 
Q 4544 4339 4544 4307 
Q 4544 4275 4493 4230 
Q 4461 4198 4461 4051 
L 4461 2042 
Q 4461 1325 4499 813 
z
M 1811 3821 
Q 2099 3763 2368 3750 
Q 2470 3744 2470 3699 
Q 2470 3654 2422 3600 
Q 2374 3546 2348 3437 
Q 2323 3328 2329 3161 
Q 2336 2995 2336 2886 
Q 2336 1549 2083 931 
Q 1830 314 883 -384 
Q 723 -141 339 19 
Q 864 282 1203 566 
Q 1542 851 1689 1273 
Q 1837 1696 1837 2803 
Q 1837 3251 1811 3821 
z
M 3635 230 
L 3181 -218 
Q 2739 320 2227 698 
L 2611 1082 
Q 3053 723 3635 230 
z
" transform="scale(0.015625)"/>
      <path id="STHeiti-5316" d="M 1293 2912 
Q 1011 2464 730 2086 
Q 589 2336 314 2528 
Q 781 2912 1177 3696 
Q 1574 4480 1683 5274 
Q 2003 5120 2236 5072 
Q 2470 5024 2470 4963 
Q 2470 4902 2362 4845 
Q 2317 4819 2214 4636 
Q 2112 4454 1824 3859 
L 1824 -531 
L 1222 -531 
Q 1293 -6 1293 499 
L 1293 2912 
z
M 3283 1395 
Q 2995 1178 2534 858 
Q 2374 1139 2054 1312 
Q 2579 1485 3283 2035 
L 3283 4422 
Q 3283 4992 3232 5229 
Q 3584 5152 3917 5152 
Q 4019 5152 4019 5104 
Q 4019 5056 3964 5017 
Q 3910 4979 3868 4889 
Q 3827 4800 3827 4736 
L 3827 2522 
Q 4570 3245 5158 4307 
Q 5472 4045 5766 3891 
Q 5837 3853 5837 3817 
Q 5837 3782 5766 3772 
Q 5696 3763 5536 3625 
Q 5376 3488 5280 3366 
Q 4518 2445 3827 1843 
L 3827 448 
Q 3827 275 3868 201 
Q 3910 128 4048 105 
Q 4186 83 4544 83 
Q 4902 83 5065 134 
Q 5229 186 5315 371 
Q 5402 557 5472 1005 
Q 5709 685 6080 576 
Q 5882 -83 5754 -204 
Q 5626 -326 5437 -377 
Q 5248 -429 4589 -429 
Q 3930 -429 3680 -381 
Q 3430 -333 3356 -208 
Q 3283 -83 3283 198 
L 3283 1395 
z
" transform="scale(0.015625)"/>
      <path id="STHeiti-6548" d="M 2470 4544 
L 1818 4384 
Q 1747 4723 1568 5152 
L 2170 5306 
Q 2330 4851 2470 4544 
z
M 4064 3597 
Q 3878 3194 3686 2874 
Q 3469 3002 3200 3066 
Q 3917 4090 4096 5274 
Q 4467 5146 4730 5114 
Q 4806 5101 4806 5069 
Q 4806 5037 4739 4992 
Q 4672 4947 4589 4790 
Q 4506 4634 4275 4090 
Q 5741 4096 5997 4160 
L 5997 3558 
Q 5805 3584 5408 3597 
Q 5357 2566 5216 1936 
Q 5075 1306 4781 851 
Q 5395 288 6125 96 
Q 5830 -192 5683 -557 
Q 5120 -250 4480 435 
Q 3840 -269 2893 -685 
Q 2714 -422 2477 -243 
Q 3475 83 4179 845 
Q 3763 1568 3578 2592 
L 4070 2746 
Q 4096 2432 4214 1981 
Q 4333 1530 4474 1242 
Q 4832 1914 4877 3597 
L 4064 3597 
z
M 3290 3693 
Q 2701 3744 1917 3744 
Q 1133 3744 448 3686 
L 448 4282 
Q 954 4218 1782 4218 
Q 2611 4218 3290 4282 
L 3290 3693 
z
M 1261 3533 
Q 1606 3283 1734 3251 
Q 1792 3238 1792 3209 
Q 1792 3181 1715 3130 
Q 1562 3034 691 1926 
Q 499 2138 262 2298 
Q 973 2842 1261 3533 
z
M 3379 2682 
L 2995 2278 
Q 2528 2893 2035 3226 
L 2445 3533 
Q 2848 3104 3379 2682 
z
M 1978 1587 
Q 2195 2003 2285 2451 
Q 2675 2176 2745 2157 
Q 2816 2138 2816 2109 
Q 2816 2080 2768 2057 
Q 2720 2035 2569 1737 
Q 2419 1440 2323 1267 
Q 2797 813 3072 486 
L 2650 122 
Q 2426 461 2054 864 
Q 1453 13 762 -486 
Q 614 -230 282 -77 
Q 1062 288 1722 1197 
Q 1254 1651 890 1869 
L 1248 2214 
Q 1613 1933 1978 1587 
z
" transform="scale(0.015625)"/>
      <path id="STHeiti-679c" d="M 2874 1363 
Q 2003 218 762 -397 
Q 589 -70 256 96 
Q 1510 467 2381 1363 
Q 1005 1357 499 1306 
L 499 1818 
Q 954 1773 2982 1766 
L 2982 2317 
Q 1574 2317 1107 2272 
Q 1152 2534 1152 2880 
L 1152 4339 
Q 1152 4762 1107 4947 
Q 1786 4870 3251 4870 
Q 4717 4870 5370 4947 
Q 5325 4704 5325 4339 
L 5325 2874 
Q 5325 2515 5370 2272 
Q 4883 2317 3488 2317 
L 3488 1766 
Q 5293 1766 5939 1818 
L 5939 1306 
Q 5280 1363 3955 1363 
Q 4333 896 4819 662 
Q 5306 429 6061 384 
Q 5798 102 5728 -288 
Q 4883 -45 4422 297 
Q 3962 640 3610 1363 
L 3488 1363 
L 3488 589 
Q 3488 -32 3539 -653 
L 2925 -653 
Q 2982 -32 2982 589 
L 2982 1363 
L 2874 1363 
z
M 2982 3776 
L 2982 4461 
L 1658 4461 
L 1658 3776 
L 2982 3776 
z
M 4819 3776 
L 4819 4461 
L 3488 4461 
L 3488 3776 
L 4819 3776 
z
M 3488 3386 
L 3488 2720 
L 4819 2720 
L 4819 3386 
L 3488 3386 
z
M 1658 3386 
L 1658 2720 
L 2982 2720 
L 2982 3386 
L 1658 3386 
z
" transform="scale(0.015625)"/>
      <path id="STHeiti-6f14" d="M 4166 4634 
Q 5440 4634 5811 4698 
L 5811 3469 
L 5293 3469 
L 5293 4218 
L 2413 4218 
L 2413 3347 
L 1901 3347 
L 1901 4698 
Q 2310 4640 3590 4634 
Q 3526 4928 3418 5139 
L 4045 5235 
Q 4083 4973 4166 4634 
z
M 1843 4429 
L 1446 4013 
Q 1082 4486 685 4736 
L 1082 5178 
Q 1542 4794 1843 4429 
z
M 4026 3277 
L 4026 2848 
Q 4787 2854 5446 2906 
Q 5414 2496 5414 1769 
Q 5414 1043 5446 640 
Q 4838 691 3859 691 
Q 2880 691 2138 653 
Q 2182 1043 2182 1750 
Q 2182 2458 2138 2906 
Q 2650 2854 3546 2848 
L 3546 3277 
Q 2976 3270 2656 3232 
L 2656 3744 
Q 3059 3699 3865 3699 
Q 4672 3699 5062 3744 
L 5062 3232 
Q 4698 3277 4026 3277 
z
M 3546 1952 
L 3546 2470 
L 2656 2470 
L 2656 1952 
L 3546 1952 
z
M 4026 2470 
L 4026 1952 
L 4934 1952 
L 4934 2470 
L 4026 2470 
z
M 4026 1600 
L 4026 1069 
L 4934 1069 
L 4934 1600 
L 4026 1600 
z
M 3546 1069 
L 3546 1600 
L 2656 1600 
L 2656 1069 
L 3546 1069 
z
M 1632 2976 
L 1267 2464 
Q 864 2842 307 3098 
L 634 3597 
Q 1133 3328 1632 2976 
z
M 1587 1594 
Q 1286 608 1082 -518 
Q 736 -269 435 -147 
Q 653 288 854 912 
Q 1056 1536 1114 1933 
Q 1312 1702 1587 1594 
z
M 5830 -224 
L 5466 -659 
Q 4787 -141 4077 243 
L 4461 595 
Q 5082 275 5830 -224 
z
M 3085 582 
Q 3290 371 3507 230 
Q 3571 192 3571 166 
Q 3571 141 3488 141 
Q 3360 141 2921 -115 
Q 2483 -371 1862 -640 
Q 1702 -390 1427 -250 
Q 2227 -13 3085 582 
z
" transform="scale(0.015625)"/>
      <path id="STHeiti-793a" d="M 5312 4205 
Q 4640 4250 3264 4250 
Q 1888 4250 1203 4205 
L 1203 4813 
Q 1907 4768 3273 4768 
Q 4640 4768 5312 4813 
L 5312 4205 
z
M 2995 2726 
Q 1286 2726 435 2682 
L 435 3277 
Q 1344 3232 3203 3232 
Q 5062 3232 5965 3277 
L 5965 2682 
Q 4934 2726 3578 2726 
L 3578 32 
Q 3578 -179 3501 -291 
Q 3424 -403 3174 -483 
Q 2925 -563 2374 -653 
Q 2330 -250 2080 77 
Q 2355 26 2554 26 
Q 2995 26 2995 269 
L 2995 2726 
z
M 1690 2163 
Q 1952 1958 2330 1843 
Q 2406 1818 2406 1779 
Q 2406 1741 2266 1702 
Q 2170 1670 1952 1331 
Q 1824 1152 1523 761 
Q 1222 371 941 38 
Q 749 262 365 333 
Q 742 634 1104 1139 
Q 1466 1645 1690 2163 
z
M 6035 397 
L 5491 6 
Q 4941 877 4154 1722 
L 4627 2022 
Q 5446 1222 6035 397 
z
" transform="scale(0.015625)"/>
     </defs>
     <use xlink:href="#STHeiti-4c"/>
     <use xlink:href="#STHeiti-32" x="46.199997"/>
     <use xlink:href="#STHeiti-6b63" x="101.599991"/>
     <use xlink:href="#STHeiti-5219" x="201.599976"/>
     <use xlink:href="#STHeiti-5316" x="301.59996"/>
     <use xlink:href="#STHeiti-6548" x="401.599945"/>
     <use xlink:href="#STHeiti-679c" x="501.59993"/>
     <use xlink:href="#STHeiti-6f14" x="601.599915"/>
     <use xlink:href="#STHeiti-793a" x="701.599899"/>
    </g>
   </g>
   <g id="legend_1">
    <g id="patch_7">
     <path d="M 458.4375 88.305625 
L 582.371875 88.305625 
Q 584.371875 88.305625 584.371875 86.305625 
L 584.371875 29.824375 
Q 584.371875 27.824375 582.371875 27.824375 
L 458.4375 27.824375 
Q 456.4375 27.824375 456.4375 29.824375 
L 456.4375 86.305625 
Q 456.4375 88.305625 458.4375 88.305625 
z
" style="fill: #ffffff; opacity: 0.8; stroke: #cccccc; stroke-linejoin: miter"/>
    </g>
    <g id="PathCollection_2">
     <g>
      <use xlink:href="#m6e0ff4662b" x="470.4375" y="37.15875" style="fill: #0000ff; stroke: #0000ff"/>
     </g>
    </g>
    <g id="text_15">
     <!-- 数据点 -->
     <g transform="translate(488.4375 39.78375) scale(0.1 -0.1)">
      <defs>
       <path id="STHeiti-6570" d="M 4640 480 
Q 4173 -51 3194 -467 
Q 3059 -237 2803 -26 
Q 3238 70 3673 323 
Q 4109 576 4365 890 
Q 3994 1549 3962 2835 
Q 3744 2458 3520 2176 
Q 3366 2419 3206 2522 
Q 3584 3040 3837 3747 
Q 4090 4454 4147 5171 
Q 4486 5062 4800 5037 
Q 4877 5030 4877 4988 
Q 4877 4947 4781 4896 
Q 4704 4858 4480 4128 
L 5216 4128 
Q 5747 4128 6003 4179 
L 6003 3661 
Q 5850 3680 5562 3699 
Q 5440 1773 4934 896 
Q 5254 518 6112 250 
Q 5856 6 5754 -365 
Q 4902 141 4640 480 
z
M 4627 1363 
Q 5018 2253 5088 3706 
L 4352 3706 
Q 4237 3328 3981 2874 
L 4384 2886 
Q 4384 1907 4627 1363 
z
M 1549 3526 
Q 1222 3520 589 3488 
L 589 3942 
Q 1158 3898 1850 3898 
L 1850 4499 
Q 1850 4800 1786 5165 
Q 2042 5139 2362 5139 
Q 2458 5139 2458 5094 
Q 2458 5050 2406 5030 
Q 2355 5011 2336 4976 
Q 2317 4941 2317 4845 
L 2317 3898 
Q 2758 3904 3507 3942 
L 3507 3488 
Q 2810 3526 2317 3533 
Q 2317 2970 2362 2515 
L 1805 2515 
Q 1850 3034 1850 3456 
Q 1632 3014 1401 2745 
Q 1171 2477 755 2189 
Q 608 2406 282 2573 
Q 1030 2816 1549 3526 
z
M 2861 4922 
Q 3155 4826 3386 4794 
Q 3462 4781 3462 4755 
Q 3462 4730 3388 4701 
Q 3315 4672 3228 4521 
Q 3142 4371 3014 4122 
Q 2835 4166 2560 4186 
Q 2746 4461 2861 4922 
z
M 1510 4230 
L 973 4154 
Q 966 4461 883 4806 
L 1389 4870 
Q 1459 4595 1510 4230 
z
M 3360 2790 
L 3046 2477 
Q 2765 2816 2464 3078 
L 2790 3328 
Q 3034 3117 3360 2790 
z
M 2899 755 
Q 3168 666 3450 525 
Q 3251 314 3168 128 
Q 2886 288 2637 390 
Q 2394 128 1984 -51 
Q 1574 -230 781 -410 
Q 627 -115 346 109 
Q 1619 134 2157 557 
Q 1709 691 1030 781 
Q 1248 1165 1408 1555 
Q 800 1549 531 1504 
L 531 1965 
Q 858 1939 1536 1926 
Q 1600 2118 1696 2458 
Q 1946 2355 2214 2336 
Q 2342 2323 2342 2294 
Q 2342 2266 2243 2198 
Q 2144 2131 2035 1926 
L 2899 1926 
Q 3162 1926 3341 1971 
Q 3123 1158 2899 755 
z
M 1862 1555 
L 1626 1043 
Q 2118 966 2470 883 
Q 2662 1165 2726 1555 
L 1862 1555 
z
" transform="scale(0.015625)"/>
       <path id="STHeiti-636e" d="M 1229 2176 
L 1229 3245 
Q 730 3245 448 3187 
L 448 3731 
Q 691 3680 1229 3680 
Q 1229 4454 1216 4681 
Q 1203 4909 1152 5114 
Q 1376 5069 1734 5069 
Q 1888 5069 1888 5021 
Q 1888 4973 1811 4915 
Q 1734 4858 1712 4810 
Q 1690 4762 1690 4678 
L 1690 3686 
Q 2016 3693 2208 3731 
L 2208 3187 
Q 1971 3232 1690 3238 
L 1690 2355 
Q 1971 2477 2240 2624 
Q 2234 2323 2310 2106 
Q 1990 2010 1690 1894 
L 1690 186 
Q 1690 -102 1635 -224 
Q 1581 -346 1395 -419 
Q 1210 -493 736 -576 
Q 723 -243 467 90 
Q 704 51 858 51 
Q 1229 51 1229 269 
L 1229 1696 
Q 794 1485 480 1242 
Q 454 1587 365 1920 
Q 838 2042 1229 2176 
z
M 4627 2214 
L 4627 1523 
Q 5510 1523 5722 1568 
Q 5683 1408 5683 1030 
L 5683 160 
Q 5683 -179 5728 -480 
L 5190 -480 
L 5190 -218 
L 3738 -218 
L 3738 -550 
L 3200 -550 
Q 3245 -307 3245 96 
L 3245 1030 
Q 3245 1357 3206 1568 
Q 3469 1530 4166 1523 
L 4166 2214 
Q 3494 2208 3098 2150 
L 3098 2669 
Q 3533 2618 4166 2611 
L 4166 3302 
L 3027 3302 
Q 3027 1690 2851 986 
Q 2675 282 2253 -474 
Q 2048 -307 1741 -282 
Q 2195 384 2368 1091 
Q 2541 1798 2541 2848 
Q 2541 3898 2496 4838 
Q 2778 4768 4067 4768 
Q 5357 4768 5741 4838 
Q 5696 4461 5696 4051 
Q 5696 3642 5741 3238 
Q 5434 3302 4627 3302 
L 4627 2611 
Q 5542 2611 6042 2669 
L 6042 2150 
Q 5574 2214 4627 2214 
z
M 3027 4378 
L 3027 3712 
L 5235 3712 
L 5235 4378 
L 3027 4378 
z
M 5190 205 
L 5190 1146 
L 3738 1146 
L 3738 205 
L 5190 205 
z
" transform="scale(0.015625)"/>
       <path id="STHeiti-70b9" d="M 3238 3962 
L 3238 3206 
Q 4749 3206 5120 3270 
Q 5082 2893 5082 2217 
Q 5082 1542 5120 1248 
Q 4621 1299 3136 1299 
Q 1651 1299 1216 1235 
Q 1280 1734 1280 2268 
Q 1280 2803 1216 3270 
Q 1658 3213 2662 3206 
L 2662 4224 
Q 2662 4922 2598 5229 
Q 3040 5133 3354 5133 
Q 3450 5133 3450 5104 
Q 3450 5075 3376 5030 
Q 3302 4986 3270 4934 
Q 3238 4883 3238 4755 
L 3238 4429 
L 4358 4429 
Q 4998 4429 5594 4486 
L 5594 3904 
Q 5114 3962 4365 3962 
L 3238 3962 
z
M 4557 1754 
L 4557 2752 
L 1779 2752 
L 1779 1754 
L 4557 1754 
z
M 6022 -141 
L 5389 -397 
Q 5184 230 4781 813 
L 5267 998 
Q 5613 435 6022 -141 
z
M 1478 704 
Q 1107 -83 909 -538 
L 275 -294 
Q 800 250 1005 896 
L 1478 704 
z
M 4320 -250 
L 3706 -333 
Q 3584 314 3405 762 
L 3923 890 
Q 4083 352 4320 -250 
z
M 2835 -358 
L 2214 -422 
Q 2227 154 2080 653 
L 2605 710 
Q 2714 64 2835 -358 
z
" transform="scale(0.015625)"/>
      </defs>
      <use xlink:href="#STHeiti-6570"/>
      <use xlink:href="#STHeiti-636e" x="99.999985"/>
      <use xlink:href="#STHeiti-70b9" x="199.999969"/>
     </g>
    </g>
    <g id="line2d_30">
     <path d="M 460.4375 50.58375 
L 470.4375 50.58375 
L 480.4375 50.58375 
" style="fill: none; stroke-dasharray: 5.55,2.4; stroke-dashoffset: 0; stroke: #008000; stroke-width: 1.5"/>
    </g>
    <g id="text_16">
     <!-- 真实函数 -->
     <g transform="translate(488.4375 54.08375) scale(0.1 -0.1)">
      <defs>
       <path id="STHeiti-771f" d="M 1555 922 
L 1555 3085 
Q 1555 3578 1510 3846 
Q 2080 3802 3002 3802 
Q 3034 4026 3040 4230 
Q 1427 4230 819 4186 
L 819 4685 
Q 1664 4627 3046 4627 
Q 3046 4890 3027 5216 
Q 3334 5146 3680 5146 
Q 3731 5146 3731 5123 
Q 3731 5101 3686 5065 
Q 3642 5030 3578 4627 
Q 4941 4627 5773 4685 
L 5773 4186 
Q 5165 4230 3533 4230 
Q 3501 3904 3488 3802 
Q 4486 3802 5075 3846 
Q 5043 3507 5043 3085 
L 5043 922 
Q 5677 922 6080 960 
L 6080 506 
Q 5779 550 3276 550 
Q 774 550 486 506 
L 486 960 
Q 928 922 1555 922 
z
M 4570 3059 
L 4570 3443 
L 2022 3443 
L 2022 3059 
L 4570 3059 
z
M 2022 2733 
L 2022 2342 
L 4570 2342 
L 4570 2733 
L 2022 2733 
z
M 2022 2016 
L 2022 1632 
L 4570 1632 
L 4570 2016 
L 2022 2016 
z
M 4570 922 
L 4570 1312 
L 2022 1312 
L 2022 922 
L 4570 922 
z
M 5709 -147 
L 5402 -614 
Q 4557 -96 3757 109 
L 4051 512 
Q 4806 262 5709 -147 
z
M 2470 480 
Q 2694 314 2800 259 
Q 2906 205 2906 169 
Q 2906 134 2803 102 
Q 2656 58 1082 -634 
Q 998 -333 774 -166 
Q 1261 -77 1587 54 
Q 1914 186 2470 480 
z
" transform="scale(0.015625)"/>
       <path id="STHeiti-5b9e" d="M 3027 4544 
Q 2931 4909 2810 5171 
L 3494 5293 
Q 3590 4928 3744 4544 
Q 5139 4550 5722 4582 
L 5722 3347 
L 5139 3347 
L 5139 4070 
L 1171 4070 
L 1171 3309 
L 634 3309 
L 634 4582 
Q 1222 4544 3027 4544 
z
M 3642 1261 
Q 3405 646 2768 185 
Q 2131 -275 1005 -659 
Q 806 -326 544 -83 
Q 1555 102 2153 422 
Q 2752 742 3040 1261 
Q 1344 1261 474 1197 
L 474 1811 
Q 1357 1747 3226 1747 
Q 3315 2278 3315 3315 
Q 3315 3590 3309 3757 
Q 3590 3718 3757 3718 
L 4013 3725 
Q 4058 3725 4058 3705 
Q 4058 3686 4016 3657 
Q 3974 3629 3942 3510 
Q 3910 3392 3898 3245 
Q 3846 2253 3776 1747 
Q 5101 1760 5843 1811 
L 5843 1184 
Q 4864 1254 3642 1261 
z
M 3008 3021 
L 2675 2592 
Q 2176 3034 1677 3302 
L 1990 3648 
Q 2566 3309 3008 3021 
z
M 2515 2208 
L 2067 1850 
Q 1715 2150 1082 2458 
L 1472 2816 
Q 2182 2438 2515 2208 
z
M 5734 -70 
L 5306 -602 
Q 4493 58 3584 512 
L 3891 928 
Q 4947 429 5734 -70 
z
" transform="scale(0.015625)"/>
       <path id="STHeiti-51fd" d="M 5498 4422 
Q 5120 4346 4864 4211 
L 3526 3526 
L 3526 1037 
Q 3526 851 3459 748 
Q 3392 646 3197 576 
Q 3002 506 2598 435 
Q 2554 749 2426 1024 
Q 2554 1005 2650 1005 
Q 3008 1005 3008 1248 
L 3008 3795 
L 4326 4416 
L 2355 4416 
Q 1510 4416 1024 4339 
L 1024 4845 
Q 1766 4832 3427 4832 
Q 5088 4832 5498 4858 
L 5498 4422 
z
M 2758 2886 
L 2304 2534 
Q 1888 3046 1459 3334 
L 1856 3642 
Q 2368 3264 2758 2886 
z
M 4640 3597 
Q 4864 3328 5082 3194 
Q 5146 3155 5146 3132 
Q 5146 3110 5123 3107 
Q 5101 3104 5021 3104 
Q 4941 3104 4752 2985 
Q 4563 2867 4045 2483 
Q 3910 2707 3674 2848 
Q 4262 3187 4640 3597 
z
M 5133 -154 
L 1907 -250 
Q 1043 -282 691 -326 
Q 749 77 749 595 
L 749 2374 
Q 749 2797 710 3142 
Q 1043 3091 1350 3091 
Q 1453 3091 1453 3056 
Q 1453 3021 1395 2982 
Q 1261 2886 1261 2694 
L 1261 205 
L 5133 301 
L 5133 2413 
Q 5133 2912 5101 3072 
Q 5478 3002 5766 3002 
Q 5862 3002 5862 2970 
Q 5862 2938 5818 2912 
Q 5651 2803 5651 2662 
L 5651 205 
Q 5651 -218 5677 -544 
L 5133 -544 
L 5133 -154 
z
M 2726 1792 
Q 2042 1293 1632 947 
Q 1498 1216 1331 1446 
Q 1933 1786 2560 2234 
Q 2618 1990 2726 1792 
z
M 5005 1427 
L 4614 986 
Q 4192 1427 3686 1811 
L 4000 2150 
Q 4506 1811 5005 1427 
z
" transform="scale(0.015625)"/>
      </defs>
      <use xlink:href="#STHeiti-771f"/>
      <use xlink:href="#STHeiti-5b9e" x="99.999985"/>
      <use xlink:href="#STHeiti-51fd" x="199.999969"/>
      <use xlink:href="#STHeiti-6570" x="299.999954"/>
     </g>
    </g>
    <g id="line2d_31">
     <path d="M 460.4375 64.88375 
L 470.4375 64.88375 
L 480.4375 64.88375 
" style="fill: none; stroke: #ff0000; stroke-width: 1.5; stroke-linecap: square"/>
    </g>
    <g id="text_17">
     <!-- 无正则化 -->
     <g transform="translate(488.4375 68.38375) scale(0.1 -0.1)">
      <defs>
       <path id="STHeiti-65e0" d="M 3181 3021 
Q 5050 3021 5856 3066 
L 5856 2496 
Q 5229 2534 4006 2534 
L 4006 512 
Q 4006 365 4096 313 
Q 4186 262 4547 262 
Q 4909 262 5075 304 
Q 5242 346 5306 499 
Q 5370 653 5446 1120 
Q 5818 749 6042 749 
Q 5901 237 5776 41 
Q 5651 -154 5382 -218 
Q 5114 -282 4474 -282 
Q 3834 -282 3648 -179 
Q 3462 -77 3462 352 
L 3462 2541 
L 3091 2541 
Q 2861 1421 2390 765 
Q 1920 109 890 -480 
Q 685 -205 397 13 
Q 1318 371 1833 976 
Q 2349 1581 2541 2541 
Q 1222 2528 602 2496 
L 602 3066 
Q 1235 3034 2618 3021 
Q 2682 3680 2688 4339 
Q 1651 4326 1165 4294 
L 1165 4870 
Q 1792 4826 3129 4826 
Q 4467 4826 5306 4870 
L 5306 4294 
Q 4698 4339 3277 4339 
Q 3277 3706 3181 3021 
z
" transform="scale(0.015625)"/>
      </defs>
      <use xlink:href="#STHeiti-65e0"/>
      <use xlink:href="#STHeiti-6b63" x="99.999985"/>
      <use xlink:href="#STHeiti-5219" x="199.999969"/>
      <use xlink:href="#STHeiti-5316" x="299.999954"/>
     </g>
    </g>
    <g id="line2d_32">
     <path d="M 460.4375 79.465 
L 470.4375 79.465 
L 480.4375 79.465 
" style="fill: none; stroke: #00bfbf; stroke-width: 1.5; stroke-linecap: square"/>
    </g>
    <g id="text_18">
     <!-- L2正则化 (λ=0.7700) -->
     <g transform="translate(488.4375 82.965) scale(0.1 -0.1)">
      <defs>
       <path id="STHeiti-20" transform="scale(0.015625)"/>
       <path id="STHeiti-28" d="M 1466 5370 
L 1978 5370 
Q 1651 4704 1475 3865 
Q 1299 3027 1299 2176 
Q 1299 506 1824 -762 
L 1338 -762 
Q 832 480 832 2118 
Q 832 3891 1466 5370 
z
" transform="scale(0.015625)"/>
       <path id="STHeiti-3bb" d="M 3354 384 
L 2886 384 
L 1754 3002 
L 582 384 
L 122 384 
L 1517 3526 
L 883 4979 
L 1344 4979 
L 3354 384 
z
" transform="scale(0.015625)"/>
       <path id="STHeiti-3d" d="M 3520 3584 
L 3520 3155 
L 358 3155 
L 358 3584 
L 3520 3584 
z
M 3520 2208 
L 3520 1779 
L 358 1779 
L 358 2208 
L 3520 2208 
z
" transform="scale(0.015625)"/>
       <path id="STHeiti-37" d="M 461 4979 
L 3373 4979 
L 915 269 
L 538 461 
L 2662 4544 
L 461 4544 
L 461 4979 
z
" transform="scale(0.015625)"/>
       <path id="STHeiti-29" d="M 896 5370 
Q 1530 3891 1530 2118 
Q 1530 480 1024 -762 
L 538 -762 
Q 1062 506 1062 2176 
Q 1062 3027 886 3865 
Q 710 4704 384 5370 
L 896 5370 
z
" transform="scale(0.015625)"/>
      </defs>
      <use xlink:href="#STHeiti-4c"/>
      <use xlink:href="#STHeiti-32" x="46.199997"/>
      <use xlink:href="#STHeiti-6b63" x="101.599991"/>
      <use xlink:href="#STHeiti-5219" x="201.599976"/>
      <use xlink:href="#STHeiti-5316" x="301.59996"/>
      <use xlink:href="#STHeiti-20" x="401.599945"/>
      <use xlink:href="#STHeiti-28" x="426.59993"/>
      <use xlink:href="#STHeiti-3bb" x="463.499924"/>
      <use xlink:href="#STHeiti-3d" x="517.099915"/>
      <use xlink:href="#STHeiti-30" x="577.699905"/>
      <use xlink:href="#STHeiti-2e" x="633.099899"/>
      <use xlink:href="#STHeiti-37" x="660.799896"/>
      <use xlink:href="#STHeiti-37" x="716.19989"/>
      <use xlink:href="#STHeiti-30" x="771.599884"/>
      <use xlink:href="#STHeiti-30" x="826.999878"/>
      <use xlink:href="#STHeiti-29" x="882.399872"/>
     </g>
    </g>
   </g>
  </g>
 </g>
 <defs>
  <clipPath id="pad644eeb01">
   <rect x="31.371875" y="22.824375" width="558" height="332.64"/>
  </clipPath>
 </defs>
</svg>
