<svg xmlns:xlink="http://www.w3.org/1999/xlink" width="502.158594pt" height="503.3525pt" viewBox="0 0 502.158594 503.3525" xmlns="http://www.w3.org/2000/svg" version="1.1">
 <metadata>
  <rdf:RDF xmlns:dc="http://purl.org/dc/elements/1.1/" xmlns:cc="http://creativecommons.org/ns#" xmlns:rdf="http://www.w3.org/1999/02/22-rdf-syntax-ns#">
   <cc:Work>
    <dc:type rdf:resource="http://purl.org/dc/dcmitype/StillImage"/>
    <dc:date>2025-03-04T10:43:02.258639</dc:date>
    <dc:format>image/svg+xml</dc:format>
    <dc:creator>
     <cc:Agent>
      <dc:title>Matplotlib v3.7.1, https://matplotlib.org/</dc:title>
     </cc:Agent>
    </dc:creator>
   </cc:Work>
  </rdf:RDF>
 </metadata>
 <defs>
  <style type="text/css">*{stroke-linejoin: round; stroke-linecap: butt}</style>
 </defs>
 <g id="figure_1">
  <g id="patch_1">
   <path d="M 0 503.3525 
L 502.158594 503.3525 
L 502.158594 0 
L 0 0 
z
" style="fill: #ffffff"/>
  </g>
  <g id="axes_1">
   <g id="patch_2">
    <path d="M 41.632813 466.27125 
L 488.032812 466.27125 
L 488.032812 22.75125 
L 41.632813 22.75125 
z
" style="fill: #ffffff"/>
   </g>
   <g id="matplotlib.axis_1">
    <g id="xtick_1">
     <g id="line2d_1">
      <path d="M 41.632813 466.27125 
L 41.632813 22.75125 
" clip-path="url(#pb7de3d5ad8)" style="fill: none; stroke: #b0b0b0; stroke-opacity: 0.3; stroke-width: 0.8; stroke-linecap: square"/>
     </g>
     <g id="line2d_2">
      <defs>
       <path id="m9e348e4757" d="M 0 0 
L 0 3.5 
" style="stroke: #000000; stroke-width: 0.8"/>
      </defs>
      <g>
       <use xlink:href="#m9e348e4757" x="41.632813" y="466.27125" style="stroke: #000000; stroke-width: 0.8"/>
      </g>
     </g>
     <g id="text_1">
      <!-- 0.0 -->
      <g transform="translate(34.707031 481.230625) scale(0.1 -0.1)">
       <defs>
        <path id="STHeiti-30" d="M 1747 269 
Q 1005 269 605 880 
Q 205 1491 205 2681 
Q 205 3872 605 4483 
Q 1005 5094 1741 5094 
Q 2477 5094 2909 4470 
Q 3341 3846 3341 2681 
Q 3341 1517 2905 893 
Q 2470 269 1747 269 
z
M 1760 4659 
Q 1229 4659 934 4147 
Q 640 3635 640 2669 
Q 640 685 1760 685 
Q 2304 685 2608 1206 
Q 2912 1728 2912 2681 
Q 2912 3635 2598 4147 
Q 2285 4659 1760 4659 
z
" transform="scale(0.015625)"/>
        <path id="STHeiti-2e" d="M 582 685 
Q 582 845 697 957 
Q 813 1069 969 1069 
Q 1126 1069 1238 957 
Q 1350 845 1350 681 
Q 1350 518 1238 406 
Q 1126 294 969 294 
Q 813 294 697 409 
Q 582 525 582 685 
z
" transform="scale(0.015625)"/>
       </defs>
       <use xlink:href="#STHeiti-30"/>
       <use xlink:href="#STHeiti-2e" x="55.399994"/>
       <use xlink:href="#STHeiti-30" x="83.099991"/>
      </g>
     </g>
    </g>
    <g id="xtick_2">
     <g id="line2d_3">
      <path d="M 130.912813 466.27125 
L 130.912813 22.75125 
" clip-path="url(#pb7de3d5ad8)" style="fill: none; stroke: #b0b0b0; stroke-opacity: 0.3; stroke-width: 0.8; stroke-linecap: square"/>
     </g>
     <g id="line2d_4">
      <g>
       <use xlink:href="#m9e348e4757" x="130.912813" y="466.27125" style="stroke: #000000; stroke-width: 0.8"/>
      </g>
     </g>
     <g id="text_2">
      <!-- 0.2 -->
      <g transform="translate(123.987031 481.230625) scale(0.1 -0.1)">
       <defs>
        <path id="STHeiti-32" d="M 742 3539 
L 301 3539 
Q 333 4243 768 4668 
Q 1203 5094 1820 5094 
Q 2438 5094 2844 4694 
Q 3251 4294 3251 3718 
Q 3251 3290 3024 2925 
Q 2797 2560 2336 2061 
L 1190 826 
L 3315 826 
L 3315 384 
L 192 384 
L 1946 2278 
Q 2406 2778 2604 3066 
Q 2803 3354 2803 3725 
Q 2803 4096 2512 4377 
Q 2221 4659 1789 4659 
Q 1357 4659 1072 4368 
Q 787 4077 742 3539 
z
" transform="scale(0.015625)"/>
       </defs>
       <use xlink:href="#STHeiti-30"/>
       <use xlink:href="#STHeiti-2e" x="55.399994"/>
       <use xlink:href="#STHeiti-32" x="83.099991"/>
      </g>
     </g>
    </g>
    <g id="xtick_3">
     <g id="line2d_5">
      <path d="M 220.192813 466.27125 
L 220.192813 22.75125 
" clip-path="url(#pb7de3d5ad8)" style="fill: none; stroke: #b0b0b0; stroke-opacity: 0.3; stroke-width: 0.8; stroke-linecap: square"/>
     </g>
     <g id="line2d_6">
      <g>
       <use xlink:href="#m9e348e4757" x="220.192813" y="466.27125" style="stroke: #000000; stroke-width: 0.8"/>
      </g>
     </g>
     <g id="text_3">
      <!-- 0.4 -->
      <g transform="translate(213.267031 481.230625) scale(0.1 -0.1)">
       <defs>
        <path id="STHeiti-34" d="M 2726 5094 
L 2816 5094 
L 2816 1894 
L 3373 1894 
L 3373 1453 
L 2816 1453 
L 2816 384 
L 2362 384 
L 2362 1453 
L 160 1453 
L 2726 5094 
z
M 2362 1894 
L 2362 3808 
L 1005 1894 
L 2362 1894 
z
" transform="scale(0.015625)"/>
       </defs>
       <use xlink:href="#STHeiti-30"/>
       <use xlink:href="#STHeiti-2e" x="55.399994"/>
       <use xlink:href="#STHeiti-34" x="83.099991"/>
      </g>
     </g>
    </g>
    <g id="xtick_4">
     <g id="line2d_7">
      <path d="M 309.472813 466.27125 
L 309.472813 22.75125 
" clip-path="url(#pb7de3d5ad8)" style="fill: none; stroke: #b0b0b0; stroke-opacity: 0.3; stroke-width: 0.8; stroke-linecap: square"/>
     </g>
     <g id="line2d_8">
      <g>
       <use xlink:href="#m9e348e4757" x="309.472813" y="466.27125" style="stroke: #000000; stroke-width: 0.8"/>
      </g>
     </g>
     <g id="text_4">
      <!-- 0.6 -->
      <g transform="translate(302.547031 481.230625) scale(0.1 -0.1)">
       <defs>
        <path id="STHeiti-36" d="M 2349 5094 
L 2726 4851 
L 1485 2970 
Q 1747 3059 1984 3059 
Q 2496 3059 2880 2652 
Q 3264 2246 3264 1660 
Q 3264 1075 2845 672 
Q 2426 269 1827 269 
Q 1229 269 829 678 
Q 429 1088 429 1677 
Q 429 1958 537 2256 
Q 646 2554 954 3014 
L 2349 5094 
z
M 2810 1683 
Q 2810 2086 2528 2368 
Q 2246 2650 1843 2650 
Q 1440 2650 1158 2368 
Q 877 2086 877 1683 
Q 877 1280 1161 998 
Q 1446 717 1843 717 
Q 2240 717 2525 998 
Q 2810 1280 2810 1683 
z
" transform="scale(0.015625)"/>
       </defs>
       <use xlink:href="#STHeiti-30"/>
       <use xlink:href="#STHeiti-2e" x="55.399994"/>
       <use xlink:href="#STHeiti-36" x="83.099991"/>
      </g>
     </g>
    </g>
    <g id="xtick_5">
     <g id="line2d_9">
      <path d="M 398.752813 466.27125 
L 398.752813 22.75125 
" clip-path="url(#pb7de3d5ad8)" style="fill: none; stroke: #b0b0b0; stroke-opacity: 0.3; stroke-width: 0.8; stroke-linecap: square"/>
     </g>
     <g id="line2d_10">
      <g>
       <use xlink:href="#m9e348e4757" x="398.752813" y="466.27125" style="stroke: #000000; stroke-width: 0.8"/>
      </g>
     </g>
     <g id="text_5">
      <!-- 0.8 -->
      <g transform="translate(391.827031 481.230625) scale(0.1 -0.1)">
       <defs>
        <path id="STHeiti-38" d="M 2458 2906 
Q 3328 2477 3328 1702 
Q 3328 1088 2896 678 
Q 2464 269 1763 269 
Q 1062 269 640 678 
Q 218 1088 218 1664 
Q 218 2470 1107 2906 
Q 435 3264 435 3898 
Q 435 4371 828 4732 
Q 1222 5094 1779 5094 
Q 2336 5094 2726 4742 
Q 3117 4390 3117 3885 
Q 3117 3270 2458 2906 
z
M 2656 3904 
Q 2656 4211 2416 4432 
Q 2176 4653 1789 4653 
Q 1402 4653 1152 4432 
Q 902 4211 902 3897 
Q 902 3584 1174 3337 
Q 1446 3091 1792 3091 
Q 2138 3091 2397 3334 
Q 2656 3578 2656 3904 
z
M 2867 1696 
Q 2867 2086 2550 2380 
Q 2234 2675 1782 2675 
Q 1331 2675 1004 2371 
Q 678 2067 678 1654 
Q 678 1242 979 973 
Q 1280 704 1766 704 
Q 2253 704 2560 992 
Q 2867 1280 2867 1696 
z
" transform="scale(0.015625)"/>
       </defs>
       <use xlink:href="#STHeiti-30"/>
       <use xlink:href="#STHeiti-2e" x="55.399994"/>
       <use xlink:href="#STHeiti-38" x="83.099991"/>
      </g>
     </g>
    </g>
    <g id="xtick_6">
     <g id="line2d_11">
      <path d="M 488.032812 466.27125 
L 488.032812 22.75125 
" clip-path="url(#pb7de3d5ad8)" style="fill: none; stroke: #b0b0b0; stroke-opacity: 0.3; stroke-width: 0.8; stroke-linecap: square"/>
     </g>
     <g id="line2d_12">
      <g>
       <use xlink:href="#m9e348e4757" x="488.032812" y="466.27125" style="stroke: #000000; stroke-width: 0.8"/>
      </g>
     </g>
     <g id="text_6">
      <!-- 1.0 -->
      <g transform="translate(481.107031 481.230625) scale(0.1 -0.1)">
       <defs>
        <path id="STHeiti-31" d="M 1184 4979 
L 2086 4979 
L 2086 384 
L 1632 384 
L 1632 4531 
L 909 4531 
L 1184 4979 
z
" transform="scale(0.015625)"/>
       </defs>
       <use xlink:href="#STHeiti-31"/>
       <use xlink:href="#STHeiti-2e" x="55.399994"/>
       <use xlink:href="#STHeiti-30" x="83.099991"/>
      </g>
     </g>
    </g>
    <g id="text_7">
     <!-- 假阳性率 (FPR) -->
     <g transform="translate(231.471875 494.811875) scale(0.1 -0.1)">
      <defs>
       <path id="STHeiti-5047" d="M 973 2918 
Q 787 2496 589 2138 
Q 467 2381 218 2566 
Q 627 3040 883 3792 
Q 1139 4544 1242 5178 
Q 1549 5050 1830 4992 
Q 1933 4973 1933 4944 
Q 1933 4915 1849 4851 
Q 1766 4787 1446 4032 
L 1446 -518 
L 909 -518 
Q 973 122 973 870 
L 973 2918 
z
M 5626 3117 
Q 5427 3149 4937 3149 
Q 4448 3149 4198 3110 
L 4198 3584 
L 5114 3584 
L 5114 4461 
L 4192 4461 
L 4192 4934 
Q 4442 4896 4902 4896 
Q 5363 4896 5619 4934 
Q 5606 4621 5606 4009 
Q 5606 3398 5626 3117 
z
M 2630 2464 
L 3155 2464 
Q 3430 2464 3661 2515 
L 3661 2016 
Q 3405 2067 3149 2067 
L 2630 2067 
L 2630 1325 
L 3110 1325 
Q 3411 1325 3686 1376 
L 3686 877 
Q 3398 928 3117 928 
L 2630 928 
L 2630 -448 
L 2106 -448 
Q 2163 45 2163 704 
L 2163 3955 
Q 2163 4602 2106 4858 
Q 2259 4826 2960 4826 
Q 3661 4826 3885 4858 
Q 3859 4557 3859 3977 
Q 3859 3398 3885 3066 
Q 3667 3098 3309 3098 
L 2630 3098 
L 2630 2464 
z
M 2630 4416 
L 2630 3514 
L 3405 3514 
L 3405 4416 
L 2630 4416 
z
M 4045 2144 
Q 3962 2144 3802 2125 
L 3802 2630 
Q 4090 2605 4746 2605 
Q 5402 2605 5722 2630 
Q 5555 1382 5030 646 
Q 5434 134 6074 -13 
Q 5811 -269 5670 -614 
Q 5165 -288 4742 294 
Q 4224 -230 3552 -570 
Q 3462 -326 3117 -141 
Q 3936 109 4474 634 
Q 4173 1248 4045 2144 
z
M 4499 2163 
Q 4550 1626 4762 960 
Q 5082 1434 5178 2163 
L 4499 2163 
z
" transform="scale(0.015625)"/>
       <path id="STHeiti-9633" d="M 2758 4902 
Q 2496 3891 2074 2816 
Q 2381 2374 2544 2006 
Q 2707 1638 2707 1427 
Q 2707 979 2425 742 
Q 2144 506 1542 442 
Q 1510 832 1286 1133 
Q 1517 1082 1683 1082 
Q 2157 1082 2157 1542 
Q 2157 2003 1536 2739 
Q 1907 3469 2099 4371 
L 1171 4371 
L 1171 826 
Q 1171 -70 1222 -659 
L 602 -659 
Q 672 -90 672 826 
L 672 3955 
Q 672 4480 621 4896 
Q 1005 4864 1670 4864 
Q 2336 4864 2758 4902 
z
M 3552 237 
L 3552 -346 
L 2995 -346 
Q 3046 192 3046 794 
L 3046 4077 
Q 3046 4538 3008 4902 
Q 3302 4858 4355 4858 
Q 5408 4858 5798 4902 
Q 5747 4621 5747 4077 
L 5747 666 
Q 5747 141 5798 -320 
L 5222 -320 
L 5222 237 
L 3552 237 
z
M 5222 2842 
L 5222 4365 
L 3552 4365 
L 3552 2842 
L 5222 2842 
z
M 3552 2349 
L 3552 717 
L 5222 717 
L 5222 2349 
L 3552 2349 
z
" transform="scale(0.015625)"/>
       <path id="STHeiti-6027" d="M 3277 3379 
Q 3187 2970 3066 2637 
Q 2912 2694 2768 2694 
Q 2624 2694 2528 2675 
Q 2938 3469 2995 4742 
Q 3302 4608 3552 4595 
Q 3686 4589 3686 4547 
Q 3686 4506 3610 4461 
Q 3494 4403 3373 3859 
L 4096 3859 
L 4096 4422 
Q 4096 4941 4070 5178 
Q 4320 5139 4678 5139 
Q 4749 5139 4749 5101 
Q 4749 5075 4688 5024 
Q 4627 4973 4627 4838 
L 4627 3866 
Q 5363 3872 5914 3910 
L 5914 3334 
Q 5382 3379 4627 3379 
L 4627 2202 
Q 5306 2208 5760 2266 
L 5760 1683 
Q 5325 1747 4627 1754 
L 4627 237 
Q 5453 243 6048 301 
L 6048 -326 
Q 5434 -256 4240 -256 
Q 3046 -256 2362 -333 
L 2362 294 
Q 2918 237 4096 237 
L 4096 1754 
Q 3328 1747 2861 1683 
L 2861 2266 
Q 3360 2208 4096 2202 
L 4096 3379 
L 3277 3379 
z
M 1190 5088 
Q 1434 5043 1811 5043 
Q 1971 5043 1971 4985 
Q 1971 4928 1891 4877 
Q 1811 4826 1776 4733 
Q 1741 4640 1741 4550 
L 1741 467 
Q 1741 58 1798 -595 
L 1190 -595 
Q 1235 -77 1235 474 
L 1235 4230 
Q 1235 4666 1190 5088 
z
M 2618 3174 
L 2157 2970 
Q 2067 3405 1843 3750 
L 2266 3949 
Q 2483 3552 2618 3174 
z
M 922 3750 
Q 877 3072 858 2163 
L 269 2202 
Q 442 2822 442 3494 
Q 442 3629 435 3770 
L 922 3750 
z
" transform="scale(0.015625)"/>
       <path id="STHeiti-7387" d="M 3066 4621 
Q 2970 4934 2867 5152 
L 3526 5254 
Q 3546 4902 3616 4621 
Q 5018 4627 5837 4685 
L 5837 4115 
Q 4941 4179 3277 4179 
Q 1613 4179 678 4115 
L 678 4685 
Q 1568 4621 3066 4621 
z
M 3046 2790 
L 2662 2739 
Q 2195 2675 2106 2637 
Q 2106 2854 2010 3059 
Q 2336 3155 2842 4128 
Q 3110 3955 3251 3913 
Q 3392 3872 3392 3846 
Q 3392 3821 3251 3769 
Q 3110 3718 2944 3497 
Q 2778 3277 2573 3085 
L 3373 3142 
Q 3686 3501 3859 3770 
Q 4077 3546 4307 3443 
Q 4397 3405 4397 3360 
Q 4397 3315 4307 3308 
Q 4218 3302 3965 3126 
Q 3712 2950 3411 2636 
Q 3110 2323 2624 1952 
L 3808 2035 
Q 3661 2278 3552 2413 
L 3942 2656 
Q 4211 2176 4595 1600 
L 4141 1389 
Q 4109 1466 4000 1683 
L 3456 1651 
L 3456 1018 
Q 5126 1018 5990 1075 
L 5990 518 
Q 5126 576 3456 576 
Q 3469 -160 3520 -691 
L 2886 -691 
Q 2944 -70 2944 576 
Q 1325 563 506 518 
L 506 1075 
Q 1331 1030 2950 1018 
L 2950 1613 
Q 2419 1574 2093 1491 
Q 2048 1786 1933 1965 
Q 2157 1965 2377 2147 
Q 2598 2330 3046 2790 
z
M 5248 3898 
Q 5453 3629 5709 3475 
Q 5760 3443 5760 3414 
Q 5760 3386 5677 3386 
Q 5594 3386 5389 3296 
Q 5184 3206 4755 2803 
Q 4595 3002 4384 3117 
Q 4934 3482 5248 3898 
z
M 1958 3238 
L 1587 2848 
Q 1261 3219 877 3507 
L 1222 3859 
Q 1517 3558 1958 3238 
z
M 5811 1933 
L 5414 1485 
Q 5030 1920 4461 2291 
L 4826 2675 
Q 5242 2317 5811 1933 
z
M 2003 2170 
Q 1824 2099 1024 1350 
Q 890 1645 704 1888 
Q 1018 2003 1357 2272 
Q 1696 2541 1798 2662 
Q 1830 2413 2003 2170 
z
" transform="scale(0.015625)"/>
       <path id="STHeiti-20" transform="scale(0.015625)"/>
       <path id="STHeiti-28" d="M 1466 5370 
L 1978 5370 
Q 1651 4704 1475 3865 
Q 1299 3027 1299 2176 
Q 1299 506 1824 -762 
L 1338 -762 
Q 832 480 832 2118 
Q 832 3891 1466 5370 
z
" transform="scale(0.015625)"/>
       <path id="STHeiti-46" d="M 557 4979 
L 2861 4979 
L 2861 4525 
L 1018 4525 
L 1018 3091 
L 2861 3091 
L 2861 2637 
L 1018 2637 
L 1018 384 
L 557 384 
L 557 4979 
z
" transform="scale(0.015625)"/>
       <path id="STHeiti-50" d="M 557 4979 
L 1472 4979 
Q 2285 4979 2534 4915 
Q 2784 4851 2992 4691 
Q 3200 4531 3315 4291 
Q 3430 4051 3430 3757 
Q 3430 3283 3174 2982 
Q 2918 2682 2531 2602 
Q 2144 2522 1344 2522 
L 1018 2522 
L 1018 384 
L 557 384 
L 557 4979 
z
M 1018 4531 
L 1018 2963 
L 1792 2963 
Q 2490 2950 2720 3190 
Q 2950 3430 2950 3757 
Q 2950 4531 1830 4531 
L 1018 4531 
z
" transform="scale(0.015625)"/>
       <path id="STHeiti-52" d="M 582 4979 
L 1498 4979 
Q 2266 4979 2547 4912 
Q 2829 4845 3030 4691 
Q 3232 4538 3347 4294 
Q 3462 4051 3462 3757 
Q 3462 3168 3046 2832 
Q 2630 2496 1869 2522 
L 3526 384 
L 2957 384 
L 1306 2522 
L 1043 2522 
L 1043 384 
L 582 384 
L 582 4979 
z
M 1043 4531 
L 1043 2970 
L 1837 2970 
Q 2426 2963 2704 3152 
Q 2982 3341 2982 3750 
Q 2982 4160 2707 4345 
Q 2432 4531 1856 4531 
L 1043 4531 
z
" transform="scale(0.015625)"/>
       <path id="STHeiti-29" d="M 896 5370 
Q 1530 3891 1530 2118 
Q 1530 480 1024 -762 
L 538 -762 
Q 1062 506 1062 2176 
Q 1062 3027 886 3865 
Q 710 4704 384 5370 
L 896 5370 
z
" transform="scale(0.015625)"/>
      </defs>
      <use xlink:href="#STHeiti-5047"/>
      <use xlink:href="#STHeiti-9633" x="99.999985"/>
      <use xlink:href="#STHeiti-6027" x="199.999969"/>
      <use xlink:href="#STHeiti-7387" x="299.999954"/>
      <use xlink:href="#STHeiti-20" x="399.999939"/>
      <use xlink:href="#STHeiti-28" x="424.999924"/>
      <use xlink:href="#STHeiti-46" x="461.899918"/>
      <use xlink:href="#STHeiti-50" x="510.399902"/>
      <use xlink:href="#STHeiti-52" x="569.599899"/>
      <use xlink:href="#STHeiti-29" x="630.299896"/>
     </g>
    </g>
   </g>
   <g id="matplotlib.axis_2">
    <g id="ytick_1">
     <g id="line2d_13">
      <path d="M 41.632813 466.27125 
L 488.032812 466.27125 
" clip-path="url(#pb7de3d5ad8)" style="fill: none; stroke: #b0b0b0; stroke-opacity: 0.3; stroke-width: 0.8; stroke-linecap: square"/>
     </g>
     <g id="line2d_14">
      <defs>
       <path id="m1f9fb01e3d" d="M 0 0 
L -3.5 0 
" style="stroke: #000000; stroke-width: 0.8"/>
      </defs>
      <g>
       <use xlink:href="#m1f9fb01e3d" x="41.632813" y="466.27125" style="stroke: #000000; stroke-width: 0.8"/>
      </g>
     </g>
     <g id="text_8">
      <!-- 0.0 -->
      <g transform="translate(20.78125 470.250937) scale(0.1 -0.1)">
       <use xlink:href="#STHeiti-30"/>
       <use xlink:href="#STHeiti-2e" x="55.399994"/>
       <use xlink:href="#STHeiti-30" x="83.099991"/>
      </g>
     </g>
    </g>
    <g id="ytick_2">
     <g id="line2d_15">
      <path d="M 41.632813 377.56725 
L 488.032812 377.56725 
" clip-path="url(#pb7de3d5ad8)" style="fill: none; stroke: #b0b0b0; stroke-opacity: 0.3; stroke-width: 0.8; stroke-linecap: square"/>
     </g>
     <g id="line2d_16">
      <g>
       <use xlink:href="#m1f9fb01e3d" x="41.632813" y="377.56725" style="stroke: #000000; stroke-width: 0.8"/>
      </g>
     </g>
     <g id="text_9">
      <!-- 0.2 -->
      <g transform="translate(20.78125 381.546937) scale(0.1 -0.1)">
       <use xlink:href="#STHeiti-30"/>
       <use xlink:href="#STHeiti-2e" x="55.399994"/>
       <use xlink:href="#STHeiti-32" x="83.099991"/>
      </g>
     </g>
    </g>
    <g id="ytick_3">
     <g id="line2d_17">
      <path d="M 41.632813 288.86325 
L 488.032812 288.86325 
" clip-path="url(#pb7de3d5ad8)" style="fill: none; stroke: #b0b0b0; stroke-opacity: 0.3; stroke-width: 0.8; stroke-linecap: square"/>
     </g>
     <g id="line2d_18">
      <g>
       <use xlink:href="#m1f9fb01e3d" x="41.632813" y="288.86325" style="stroke: #000000; stroke-width: 0.8"/>
      </g>
     </g>
     <g id="text_10">
      <!-- 0.4 -->
      <g transform="translate(20.78125 292.842937) scale(0.1 -0.1)">
       <use xlink:href="#STHeiti-30"/>
       <use xlink:href="#STHeiti-2e" x="55.399994"/>
       <use xlink:href="#STHeiti-34" x="83.099991"/>
      </g>
     </g>
    </g>
    <g id="ytick_4">
     <g id="line2d_19">
      <path d="M 41.632813 200.15925 
L 488.032812 200.15925 
" clip-path="url(#pb7de3d5ad8)" style="fill: none; stroke: #b0b0b0; stroke-opacity: 0.3; stroke-width: 0.8; stroke-linecap: square"/>
     </g>
     <g id="line2d_20">
      <g>
       <use xlink:href="#m1f9fb01e3d" x="41.632813" y="200.15925" style="stroke: #000000; stroke-width: 0.8"/>
      </g>
     </g>
     <g id="text_11">
      <!-- 0.6 -->
      <g transform="translate(20.78125 204.138937) scale(0.1 -0.1)">
       <use xlink:href="#STHeiti-30"/>
       <use xlink:href="#STHeiti-2e" x="55.399994"/>
       <use xlink:href="#STHeiti-36" x="83.099991"/>
      </g>
     </g>
    </g>
    <g id="ytick_5">
     <g id="line2d_21">
      <path d="M 41.632813 111.45525 
L 488.032812 111.45525 
" clip-path="url(#pb7de3d5ad8)" style="fill: none; stroke: #b0b0b0; stroke-opacity: 0.3; stroke-width: 0.8; stroke-linecap: square"/>
     </g>
     <g id="line2d_22">
      <g>
       <use xlink:href="#m1f9fb01e3d" x="41.632813" y="111.45525" style="stroke: #000000; stroke-width: 0.8"/>
      </g>
     </g>
     <g id="text_12">
      <!-- 0.8 -->
      <g transform="translate(20.78125 115.434937) scale(0.1 -0.1)">
       <use xlink:href="#STHeiti-30"/>
       <use xlink:href="#STHeiti-2e" x="55.399994"/>
       <use xlink:href="#STHeiti-38" x="83.099991"/>
      </g>
     </g>
    </g>
    <g id="ytick_6">
     <g id="line2d_23">
      <path d="M 41.632813 22.75125 
L 488.032812 22.75125 
" clip-path="url(#pb7de3d5ad8)" style="fill: none; stroke: #b0b0b0; stroke-opacity: 0.3; stroke-width: 0.8; stroke-linecap: square"/>
     </g>
     <g id="line2d_24">
      <g>
       <use xlink:href="#m1f9fb01e3d" x="41.632813" y="22.75125" style="stroke: #000000; stroke-width: 0.8"/>
      </g>
     </g>
     <g id="text_13">
      <!-- 1.0 -->
      <g transform="translate(20.78125 26.730937) scale(0.1 -0.1)">
       <use xlink:href="#STHeiti-31"/>
       <use xlink:href="#STHeiti-2e" x="55.399994"/>
       <use xlink:href="#STHeiti-30" x="83.099991"/>
      </g>
     </g>
    </g>
    <g id="text_14">
     <!-- 真阳性率 (TPR) -->
     <g transform="translate(15.440625 277.576875) rotate(-90) scale(0.1 -0.1)">
      <defs>
       <path id="STHeiti-771f" d="M 1555 922 
L 1555 3085 
Q 1555 3578 1510 3846 
Q 2080 3802 3002 3802 
Q 3034 4026 3040 4230 
Q 1427 4230 819 4186 
L 819 4685 
Q 1664 4627 3046 4627 
Q 3046 4890 3027 5216 
Q 3334 5146 3680 5146 
Q 3731 5146 3731 5123 
Q 3731 5101 3686 5065 
Q 3642 5030 3578 4627 
Q 4941 4627 5773 4685 
L 5773 4186 
Q 5165 4230 3533 4230 
Q 3501 3904 3488 3802 
Q 4486 3802 5075 3846 
Q 5043 3507 5043 3085 
L 5043 922 
Q 5677 922 6080 960 
L 6080 506 
Q 5779 550 3276 550 
Q 774 550 486 506 
L 486 960 
Q 928 922 1555 922 
z
M 4570 3059 
L 4570 3443 
L 2022 3443 
L 2022 3059 
L 4570 3059 
z
M 2022 2733 
L 2022 2342 
L 4570 2342 
L 4570 2733 
L 2022 2733 
z
M 2022 2016 
L 2022 1632 
L 4570 1632 
L 4570 2016 
L 2022 2016 
z
M 4570 922 
L 4570 1312 
L 2022 1312 
L 2022 922 
L 4570 922 
z
M 5709 -147 
L 5402 -614 
Q 4557 -96 3757 109 
L 4051 512 
Q 4806 262 5709 -147 
z
M 2470 480 
Q 2694 314 2800 259 
Q 2906 205 2906 169 
Q 2906 134 2803 102 
Q 2656 58 1082 -634 
Q 998 -333 774 -166 
Q 1261 -77 1587 54 
Q 1914 186 2470 480 
z
" transform="scale(0.015625)"/>
       <path id="STHeiti-54" d="M 102 4531 
L 102 4979 
L 2624 4979 
L 2624 4531 
L 1600 4531 
L 1600 384 
L 1133 384 
L 1133 4531 
L 102 4531 
z
" transform="scale(0.015625)"/>
      </defs>
      <use xlink:href="#STHeiti-771f"/>
      <use xlink:href="#STHeiti-9633" x="99.999985"/>
      <use xlink:href="#STHeiti-6027" x="199.999969"/>
      <use xlink:href="#STHeiti-7387" x="299.999954"/>
      <use xlink:href="#STHeiti-20" x="399.999939"/>
      <use xlink:href="#STHeiti-28" x="424.999924"/>
      <use xlink:href="#STHeiti-54" x="461.899918"/>
      <use xlink:href="#STHeiti-50" x="504.499908"/>
      <use xlink:href="#STHeiti-52" x="563.699905"/>
      <use xlink:href="#STHeiti-29" x="624.399902"/>
     </g>
    </g>
   </g>
   <g id="line2d_25">
    <path d="M 41.632813 466.27125 
L 488.032812 22.75125 
" clip-path="url(#pb7de3d5ad8)" style="fill: none; stroke-dasharray: 5.55,2.4; stroke-dashoffset: 0; stroke: #000000; stroke-width: 1.5"/>
   </g>
   <g id="line2d_26">
    <path d="M 41.632813 466.27125 
L 46.141903 444.427503 
L 50.650994 423.659579 
L 55.160085 403.914494 
L 59.669176 385.141871 
L 64.178267 367.293817 
L 68.687358 350.324795 
L 73.196449 334.191512 
L 77.70554 318.852807 
L 82.214631 304.269547 
L 86.723722 290.404525 
L 91.232813 277.222367 
L 95.741903 264.689442 
L 100.250994 252.773775 
L 104.760085 241.444965 
L 109.269176 230.674109 
L 113.778267 220.433726 
L 118.287358 210.697692 
L 122.796449 201.441165 
L 127.30554 192.640531 
L 131.814631 184.273336 
L 136.323722 176.318232 
L 140.832813 168.754924 
L 145.341903 161.564116 
L 149.850994 154.727461 
L 154.360085 148.227517 
L 158.869176 142.047701 
L 163.378267 136.172247 
L 167.887358 130.586164 
L 172.396449 125.2752 
L 176.90554 120.225806 
L 181.414631 115.425099 
L 185.923722 110.860831 
L 190.432813 106.521357 
L 194.941903 102.395606 
L 199.450994 98.473052 
L 203.960085 94.743687 
L 208.469176 91.197997 
L 212.978267 87.826935 
L 217.487358 84.621901 
L 221.996449 81.574717 
L 226.50554 78.67761 
L 231.014631 75.923188 
L 235.523722 73.304424 
L 240.032813 70.814636 
L 244.541903 68.447472 
L 249.050994 66.196893 
L 253.560085 64.057157 
L 258.069176 62.022805 
L 262.578267 60.088647 
L 267.087358 58.249747 
L 271.596449 56.501415 
L 276.10554 54.83919 
L 280.614631 53.258831 
L 285.123722 51.756306 
L 289.632812 50.327782 
L 294.141903 48.969614 
L 298.650994 47.678336 
L 303.160085 46.450656 
L 307.669176 45.283439 
L 312.178267 44.173709 
L 316.687358 43.118634 
L 321.196449 42.115523 
L 325.70554 41.161816 
L 330.214631 40.255079 
L 334.723722 39.393 
L 339.232813 38.57338 
L 343.741903 37.794126 
L 348.250994 37.053251 
L 352.760085 36.348865 
L 357.269176 35.679171 
L 361.778267 35.042459 
L 366.287358 34.437106 
L 370.796449 33.861568 
L 375.30554 33.314375 
L 379.814631 32.794132 
L 384.323722 32.299511 
L 388.832812 31.829251 
L 393.341903 31.382151 
L 397.850994 30.957072 
L 402.360085 30.552928 
L 406.869176 30.168689 
L 411.378267 29.803373 
L 415.887358 29.45605 
L 420.396449 29.125833 
L 424.90554 28.811879 
L 429.414631 28.513388 
L 433.923722 28.229597 
L 438.432813 27.959784 
L 442.941903 27.703259 
L 447.450994 27.459368 
L 451.960085 27.22749 
L 456.469176 27.007031 
L 460.978267 26.79743 
L 465.487358 26.598152 
L 469.996449 26.408689 
L 474.50554 26.228557 
L 479.014631 26.057296 
L 483.523722 25.894471 
L 488.032812 25.739664 
" clip-path="url(#pb7de3d5ad8)" style="fill: none; stroke: #008000; stroke-width: 1.5; stroke-linecap: square"/>
   </g>
   <g id="line2d_27">
    <path d="M 41.632813 466.27125 
L 46.141903 457.401149 
L 50.650994 448.708443 
L 55.160085 440.189586 
L 59.669176 431.841101 
L 64.178267 423.659579 
L 68.687358 415.641683 
L 73.196449 407.784138 
L 77.70554 400.08374 
L 82.214631 392.537344 
L 86.723722 385.141871 
L 91.232813 377.894303 
L 95.741903 370.791681 
L 100.250994 363.831107 
L 104.760085 357.009739 
L 109.269176 350.324795 
L 113.778267 343.773544 
L 118.287358 337.353315 
L 122.796449 331.061485 
L 127.30554 324.895488 
L 131.814631 318.852807 
L 136.323722 312.930975 
L 140.832813 307.127576 
L 145.341903 301.440241 
L 149.850994 295.866649 
L 154.360085 290.404525 
L 158.869176 285.051639 
L 163.378267 279.805808 
L 167.887358 274.66489 
L 172.396449 269.626787 
L 176.90554 264.689442 
L 181.414631 259.850842 
L 185.923722 255.109009 
L 190.432813 250.462011 
L 194.941903 245.907949 
L 199.450994 241.444965 
L 203.960085 237.071238 
L 208.469176 232.784983 
L 212.978267 228.584449 
L 217.487358 224.467924 
L 221.996449 220.433726 
L 226.50554 216.48021 
L 231.014631 212.605761 
L 235.523722 208.808799 
L 240.032813 205.087773 
L 244.541903 201.441165 
L 249.050994 197.867487 
L 253.560085 194.365281 
L 258.069176 190.933116 
L 262.578267 187.569591 
L 267.087358 184.273336 
L 271.596449 181.043003 
L 276.10554 177.877274 
L 280.614631 174.774858 
L 285.123722 171.734488 
L 289.632812 168.754924 
L 294.141903 165.834949 
L 298.650994 162.973371 
L 303.160085 160.169023 
L 307.669176 157.42076 
L 312.178267 154.727461 
L 316.687358 152.088025 
L 321.196449 149.501377 
L 325.70554 146.96646 
L 330.214631 144.482239 
L 334.723722 142.047701 
L 339.232813 139.661853 
L 343.741903 137.323719 
L 348.250994 135.032347 
L 352.760085 132.786801 
L 357.269176 130.586164 
L 361.778267 128.429538 
L 366.287358 126.316044 
L 370.796449 124.244817 
L 375.30554 122.215014 
L 379.814631 120.225806 
L 384.323722 118.276381 
L 388.832812 116.365942 
L 393.341903 114.493712 
L 397.850994 112.658924 
L 402.360085 110.860831 
L 406.869176 109.098699 
L 411.378267 107.371808 
L 415.887358 105.679454 
L 420.396449 104.020946 
L 424.90554 102.395606 
L 429.414631 100.802773 
L 433.923722 99.241795 
L 438.432813 97.712036 
L 442.941903 96.21287 
L 447.450994 94.743687 
L 451.960085 93.303887 
L 456.469176 91.892882 
L 460.978267 90.510096 
L 465.487358 89.154965 
L 469.996449 87.826935 
L 474.50554 86.525465 
L 479.014631 85.250024 
L 483.523722 84.00009 
L 488.032812 82.775155 
" clip-path="url(#pb7de3d5ad8)" style="fill: none; stroke: #0000ff; stroke-width: 1.5; stroke-linecap: square"/>
   </g>
   <g id="line2d_28">
    <path d="M 41.632813 466.27125 
L 46.141903 460.904301 
L 50.650994 455.555452 
L 55.160085 450.224705 
L 59.669176 444.912058 
L 64.178267 439.617513 
L 68.687358 434.341068 
L 73.196449 429.082725 
L 77.70554 423.842482 
L 82.214631 418.620341 
L 86.723722 413.416301 
L 91.232813 408.230361 
L 95.741903 403.062523 
L 100.250994 397.912785 
L 104.760085 392.781149 
L 109.269176 387.667614 
L 113.778267 382.572179 
L 118.287358 377.494846 
L 122.796449 372.435614 
L 127.30554 367.394482 
L 131.814631 362.371452 
L 136.323722 357.366523 
L 140.832813 352.379694 
L 145.341903 347.410967 
L 149.850994 342.460341 
L 154.360085 337.527816 
L 158.869176 332.613391 
L 163.378267 327.717068 
L 167.887358 322.838846 
L 172.396449 317.978725 
L 176.90554 313.136705 
L 181.414631 308.312785 
L 185.923722 303.506967 
L 190.432813 298.71925 
L 194.941903 293.949634 
L 199.450994 289.198119 
L 203.960085 284.464705 
L 208.469176 279.749391 
L 212.978267 275.052179 
L 217.487358 270.373068 
L 221.996449 265.712058 
L 226.50554 261.069149 
L 231.014631 256.444341 
L 235.523722 251.837634 
L 240.032813 247.249028 
L 244.541903 242.678523 
L 249.050994 238.126119 
L 253.560085 233.591816 
L 258.069176 229.075614 
L 262.578267 224.577513 
L 267.087358 220.097513 
L 271.596449 215.635614 
L 276.10554 211.191816 
L 280.614631 206.766119 
L 285.123722 202.358523 
L 289.632812 197.969028 
L 294.141903 193.597634 
L 298.650994 189.244341 
L 303.160085 184.909149 
L 307.669176 180.592058 
L 312.178267 176.293068 
L 316.687358 172.012179 
L 321.196449 167.749391 
L 325.70554 163.504705 
L 330.214631 159.278119 
L 334.723722 155.069634 
L 339.232813 150.87925 
L 343.741903 146.706967 
L 348.250994 142.552785 
L 352.760085 138.416705 
L 357.269176 134.298725 
L 361.778267 130.198846 
L 366.287358 126.117068 
L 370.796449 122.053391 
L 375.30554 118.007816 
L 379.814631 113.980341 
L 384.323722 109.970967 
L 388.832812 105.979694 
L 393.341903 102.006523 
L 397.850994 98.051452 
L 402.360085 94.114482 
L 406.869176 90.195614 
L 411.378267 86.294846 
L 415.887358 82.412179 
L 420.396449 78.547614 
L 424.90554 74.701149 
L 429.414631 70.872785 
L 433.923722 67.062523 
L 438.432813 63.270361 
L 442.941903 59.496301 
L 447.450994 55.740341 
L 451.960085 52.002482 
L 456.469176 48.282725 
L 460.978267 44.581068 
L 465.487358 40.897513 
L 469.996449 37.232058 
L 474.50554 33.584705 
L 479.014631 29.955452 
L 483.523722 26.344301 
L 488.032812 22.75125 
" clip-path="url(#pb7de3d5ad8)" style="fill: none; stroke: #bfbf00; stroke-width: 1.5; stroke-linecap: square"/>
   </g>
   <g id="patch_3">
    <path d="M 41.632813 466.27125 
L 41.632813 22.75125 
" style="fill: none; stroke: #000000; stroke-width: 0.8; stroke-linejoin: miter; stroke-linecap: square"/>
   </g>
   <g id="patch_4">
    <path d="M 488.032812 466.27125 
L 488.032812 22.75125 
" style="fill: none; stroke: #000000; stroke-width: 0.8; stroke-linejoin: miter; stroke-linecap: square"/>
   </g>
   <g id="patch_5">
    <path d="M 41.632813 466.27125 
L 488.032812 466.27125 
" style="fill: none; stroke: #000000; stroke-width: 0.8; stroke-linejoin: miter; stroke-linecap: square"/>
   </g>
   <g id="patch_6">
    <path d="M 41.632813 22.75125 
L 488.032812 22.75125 
" style="fill: none; stroke: #000000; stroke-width: 0.8; stroke-linejoin: miter; stroke-linecap: square"/>
   </g>
   <g id="text_15">
    <!-- ROC曲线比较 -->
    <g transform="translate(227.098437 16.75125) scale(0.12 -0.12)">
     <defs>
      <path id="STHeiti-4f" d="M 358 2662 
Q 358 3328 678 3891 
Q 998 4454 1555 4774 
Q 2112 5094 2768 5094 
Q 3424 5094 3990 4777 
Q 4557 4461 4880 3901 
Q 5203 3341 5203 2685 
Q 5203 2029 4883 1469 
Q 4563 909 4003 589 
Q 3443 269 2787 269 
Q 2131 269 1568 585 
Q 1005 902 681 1459 
Q 358 2016 358 2662 
z
M 4723 2682 
Q 4723 3507 4150 4076 
Q 3578 4646 2771 4646 
Q 1946 4646 1392 4073 
Q 838 3501 838 2678 
Q 838 1856 1408 1286 
Q 1978 717 2784 717 
Q 3590 717 4156 1273 
Q 4723 1830 4723 2682 
z
" transform="scale(0.015625)"/>
      <path id="STHeiti-43" d="M 4838 4128 
L 4480 3853 
Q 3840 4646 2835 4646 
Q 2016 4646 1424 4070 
Q 832 3494 832 2659 
Q 832 1824 1411 1264 
Q 1990 704 2861 704 
Q 3834 704 4480 1459 
L 4838 1184 
Q 4499 736 3980 502 
Q 3462 269 2835 269 
Q 1741 269 1043 960 
Q 346 1651 346 2707 
Q 346 3360 669 3913 
Q 992 4467 1565 4780 
Q 2138 5094 2797 5094 
Q 3456 5094 3981 4844 
Q 4506 4595 4838 4128 
z
" transform="scale(0.015625)"/>
      <path id="STHeiti-66f2" d="M 2771 4006 
L 3603 4006 
Q 3603 4928 3565 5242 
Q 3731 5203 4173 5203 
Q 4256 5203 4256 5174 
Q 4256 5146 4198 5101 
Q 4109 5037 4109 4730 
L 4109 4006 
Q 5178 4006 5504 4038 
Q 5472 3834 5472 3469 
L 5472 634 
Q 5472 13 5504 -422 
L 4986 -422 
L 4986 77 
L 1427 77 
L 1427 -608 
L 902 -608 
Q 934 -186 934 448 
L 934 3469 
Q 934 3846 902 4038 
Q 1222 4006 2285 4006 
Q 2285 4864 2246 5165 
Q 2426 5133 2624 5133 
L 2842 5139 
Q 2918 5139 2918 5113 
Q 2918 5088 2844 5030 
Q 2771 4973 2771 4672 
L 2771 4006 
z
M 2285 3571 
L 1427 3571 
L 1427 2374 
L 2285 2374 
L 2285 3571 
z
M 3603 3571 
L 2771 3571 
L 2771 2374 
L 3603 2374 
L 3603 3571 
z
M 4986 2374 
L 4986 3571 
L 4109 3571 
L 4109 2374 
L 4986 2374 
z
M 3603 1926 
L 2771 1926 
L 2771 525 
L 3603 525 
L 3603 1926 
z
M 1427 1926 
L 1427 525 
L 2285 525 
L 2285 1926 
L 1427 1926 
z
M 4986 525 
L 4986 1926 
L 4109 1926 
L 4109 525 
L 4986 525 
z
" transform="scale(0.015625)"/>
      <path id="STHeiti-7ebf" d="M 1549 2829 
L 979 2726 
Q 755 2688 467 2605 
Q 467 2694 419 2851 
Q 371 3008 307 3104 
Q 538 3206 893 3833 
Q 1248 4461 1491 5235 
Q 1786 5056 2074 4998 
Q 2163 4979 2163 4924 
Q 2163 4870 2093 4838 
Q 1939 4774 1734 4473 
Q 1530 4173 947 3130 
L 1798 3258 
Q 2067 3731 2150 4058 
Q 2470 3866 2733 3795 
Q 2810 3776 2810 3721 
Q 2810 3667 2720 3644 
Q 2630 3622 2509 3462 
Q 2906 3462 3405 3565 
L 3366 5203 
Q 3482 5178 3622 5162 
Q 3763 5146 3853 5146 
L 3994 5152 
Q 4083 5152 4083 5088 
Q 4083 5050 4051 5021 
Q 4019 4992 3971 4883 
Q 3923 4774 3917 4589 
L 3891 3661 
Q 4890 3872 5670 4083 
L 5773 3590 
Q 5254 3526 3904 3245 
Q 3936 2771 3974 2528 
Q 5645 2893 5856 2957 
L 5958 2464 
Q 5933 2483 4045 2112 
Q 4147 1568 4346 1152 
Q 4838 1619 5107 2067 
Q 5363 1856 5606 1734 
Q 5664 1702 5664 1664 
Q 5664 1626 5600 1619 
Q 5536 1613 5344 1453 
Q 5152 1293 4998 1113 
Q 4845 934 4602 717 
Q 4787 474 5033 275 
Q 5280 77 5363 77 
Q 5446 77 5488 272 
Q 5530 467 5555 742 
Q 5779 429 6125 371 
Q 5978 -122 5850 -362 
Q 5722 -602 5546 -602 
Q 5370 -602 4947 -320 
Q 4525 -38 4230 403 
Q 3443 -205 2778 -531 
Q 2650 -269 2387 -70 
Q 2797 38 3110 227 
Q 3424 416 3962 832 
Q 3706 1325 3558 2003 
Q 2925 1862 2637 1773 
L 2534 2278 
Q 2963 2342 3482 2438 
Q 3430 2861 3418 3136 
Q 2912 3014 2586 2912 
L 2464 3405 
Q 2253 3130 1254 1626 
Q 1946 1677 2509 1830 
Q 2483 1728 2483 1625 
Q 2483 1523 2502 1382 
L 1325 1184 
Q 685 1069 646 1037 
Q 646 1325 480 1626 
Q 755 1728 1001 2022 
Q 1248 2317 1549 2829 
z
M 5331 4352 
L 4826 4064 
Q 4621 4442 4384 4717 
L 4883 4966 
Q 5210 4506 5331 4352 
z
M 2547 864 
Q 2528 794 2528 662 
Q 2528 531 2566 384 
Q 1082 70 576 -224 
Q 538 96 384 410 
Q 979 410 2547 864 
z
" transform="scale(0.015625)"/>
      <path id="STHeiti-6bd4" d="M 4000 2291 
L 4000 467 
Q 4000 314 4041 253 
Q 4083 192 4217 173 
Q 4352 154 4681 154 
Q 5011 154 5142 205 
Q 5274 256 5354 438 
Q 5434 621 5555 1107 
Q 5773 826 6144 717 
Q 5971 198 5811 -22 
Q 5651 -243 5382 -316 
Q 5114 -390 4570 -390 
Q 4026 -390 3808 -329 
Q 3590 -269 3526 -99 
Q 3462 70 3462 461 
L 3462 4301 
Q 3462 4934 3424 5222 
Q 3712 5171 3869 5177 
Q 4026 5184 4096 5184 
Q 4166 5184 4166 5155 
Q 4166 5126 4105 5036 
Q 4045 4947 4022 4828 
Q 4000 4710 4000 4499 
L 4000 2842 
Q 4864 3386 5421 3936 
Q 5632 3610 5888 3443 
Q 5939 3411 5939 3379 
Q 5939 3347 5830 3318 
Q 5722 3290 5190 2998 
Q 4659 2707 4000 2291 
z
M 1485 2835 
L 1485 346 
L 2938 1286 
Q 2925 1203 2925 1114 
Q 2925 864 3034 691 
L 1715 -122 
Q 1344 -346 1139 -538 
Q 960 -192 749 -13 
Q 851 58 896 147 
Q 941 237 941 506 
L 941 3949 
Q 941 4768 915 5011 
Q 1126 4979 1286 4979 
L 1549 4979 
Q 1613 4979 1613 4950 
Q 1613 4922 1581 4870 
Q 1485 4730 1485 4224 
L 1485 3309 
Q 2368 3309 2970 3347 
L 2970 2790 
Q 2381 2829 1485 2835 
z
" transform="scale(0.015625)"/>
      <path id="STHeiti-8f83" d="M 4704 4634 
L 4070 4429 
Q 3987 4710 3789 5075 
L 4390 5280 
Q 4518 4941 4704 4634 
z
M 1658 2470 
Q 1658 3341 1619 3405 
Q 1818 3360 2208 3360 
Q 2266 3360 2266 3331 
Q 2266 3302 2198 3273 
Q 2131 3245 2131 3104 
L 2131 2470 
Q 2470 2477 2726 2522 
L 2726 2035 
Q 2547 2054 2131 2054 
L 2131 1178 
Q 2752 1254 2989 1338 
Q 2925 1082 2938 755 
Q 2720 768 2131 691 
Q 2131 -70 2182 -621 
L 1606 -621 
Q 1658 -96 1658 627 
Q 870 518 486 429 
Q 454 787 378 1056 
Q 685 1043 1658 1133 
L 1658 2054 
Q 851 2035 518 1933 
Q 474 2221 384 2470 
Q 589 2470 1037 3885 
Q 646 3872 442 3840 
L 442 4384 
Q 691 4352 1165 4339 
Q 1267 4774 1325 5165 
Q 1683 5062 1939 5043 
Q 2022 5037 2022 5005 
Q 2022 4973 1952 4941 
Q 1882 4909 1677 4333 
Q 2400 4333 2726 4384 
L 2726 3840 
Q 2387 3891 1517 3891 
L 1018 2470 
L 1658 2470 
z
M 5914 3866 
Q 5306 3917 4432 3917 
Q 3558 3917 2982 3859 
L 2982 4422 
Q 3411 4358 4361 4358 
Q 5312 4358 5914 4422 
L 5914 3866 
z
M 3642 3750 
Q 3904 3539 4109 3443 
Q 4166 3418 4166 3382 
Q 4166 3347 4083 3321 
Q 4000 3296 3142 2349 
Q 2976 2522 2714 2630 
Q 3283 3027 3642 3750 
z
M 6067 2733 
L 5645 2381 
Q 5050 3072 4666 3366 
L 5075 3693 
Q 5626 3219 6067 2733 
z
M 4269 1005 
Q 4576 1491 4749 2406 
Q 5062 2304 5325 2266 
Q 5376 2259 5376 2214 
Q 5376 2170 5325 2138 
Q 5254 2093 5075 1625 
Q 4896 1158 4614 678 
Q 5242 230 6131 26 
Q 5875 -237 5747 -576 
Q 4845 -205 4275 262 
Q 3802 -211 3085 -595 
Q 2899 -371 2566 -186 
Q 3475 173 3942 634 
Q 3558 1178 3302 2157 
L 3834 2234 
Q 3968 1440 4269 1005 
z
" transform="scale(0.015625)"/>
     </defs>
     <use xlink:href="#STHeiti-52"/>
     <use xlink:href="#STHeiti-4f" x="60.699997"/>
     <use xlink:href="#STHeiti-43" x="147.599991"/>
     <use xlink:href="#STHeiti-66f2" x="228.899979"/>
     <use xlink:href="#STHeiti-7ebf" x="328.899963"/>
     <use xlink:href="#STHeiti-6bd4" x="428.899948"/>
     <use xlink:href="#STHeiti-8f83" x="528.899933"/>
    </g>
   </g>
   <g id="legend_1">
    <g id="patch_7">
     <path d="M 342.679688 461.27125 
L 481.032812 461.27125 
Q 483.032812 461.27125 483.032812 459.27125 
L 483.032812 401.94625 
Q 483.032812 399.94625 481.032812 399.94625 
L 342.679688 399.94625 
Q 340.679688 399.94625 340.679688 401.94625 
L 340.679688 459.27125 
Q 340.679688 461.27125 342.679688 461.27125 
z
" style="fill: #ffffff; opacity: 0.8; stroke: #cccccc; stroke-linejoin: miter"/>
    </g>
    <g id="line2d_29">
     <path d="M 344.679688 408.686875 
L 354.679688 408.686875 
L 364.679688 408.686875 
" style="fill: none; stroke-dasharray: 5.55,2.4; stroke-dashoffset: 0; stroke: #000000; stroke-width: 1.5"/>
    </g>
    <g id="text_16">
     <!-- 随机猜测 (AUC = 0.5) -->
     <g transform="translate(372.679688 412.186875) scale(0.1 -0.1)">
      <defs>
       <path id="STHeiti-968f" d="M 3885 4000 
Q 3558 3994 3290 3955 
L 3290 4467 
Q 3712 4422 4115 4416 
Q 4384 4928 4429 5242 
Q 4832 5082 4992 5056 
Q 5069 5043 5069 5001 
Q 5069 4960 4976 4918 
Q 4883 4877 4790 4742 
Q 4698 4608 4595 4416 
Q 5632 4416 5888 4467 
L 5888 3955 
Q 5453 4019 4378 4006 
Q 4262 3802 4013 3469 
L 4461 3469 
Q 5389 3469 5677 3533 
Q 5645 3270 5645 2970 
L 5645 960 
Q 5645 762 5587 659 
Q 5530 557 5360 493 
Q 5190 429 4832 378 
Q 4813 653 4672 877 
Q 4845 845 4957 845 
Q 5069 845 5123 902 
Q 5178 960 5178 1139 
L 5178 1312 
L 4058 1312 
L 4058 467 
L 3546 467 
Q 3603 1184 3603 1376 
L 3603 2963 
Q 3533 2880 3405 2739 
Q 3264 2938 2982 3014 
Q 3507 3366 3885 4000 
z
M 5178 2554 
L 5178 3066 
L 4058 3066 
L 4058 2554 
L 5178 2554 
z
M 4058 2163 
L 4058 1722 
L 5178 1722 
L 5178 2163 
L 4058 2163 
z
M 2368 4883 
L 1734 2758 
Q 1984 2426 2118 2102 
Q 2253 1779 2253 1606 
Q 2253 1190 2083 956 
Q 1914 723 1338 608 
Q 1325 928 1120 1267 
Q 1306 1242 1456 1242 
Q 1606 1242 1680 1347 
Q 1754 1453 1754 1696 
Q 1754 2112 1280 2720 
L 1754 4442 
L 1050 4442 
L 1050 -576 
L 544 -576 
Q 589 198 589 902 
L 589 3827 
Q 589 4544 544 4883 
Q 890 4845 1498 4845 
Q 2106 4845 2368 4883 
z
M 3149 3520 
L 2714 3373 
Q 2547 4058 2349 4442 
L 2765 4595 
Q 2982 4083 3149 3520 
z
M 5997 154 
Q 5805 -192 5792 -467 
Q 4538 -435 4026 -355 
Q 3514 -275 3200 -58 
Q 2970 109 2851 109 
Q 2733 109 2601 -22 
Q 2470 -154 2259 -448 
Q 2093 -218 1856 -58 
Q 2285 326 2579 467 
L 2579 2438 
Q 2278 2438 2182 2413 
L 2182 2886 
Q 2445 2848 2640 2848 
Q 2835 2848 3104 2886 
Q 3046 2554 3046 2106 
L 3046 506 
Q 3213 461 3450 282 
Q 3776 45 4576 45 
Q 5139 45 5997 154 
z
" transform="scale(0.015625)"/>
       <path id="STHeiti-673a" d="M 1254 2323 
Q 998 1530 576 800 
Q 467 1062 256 1389 
Q 595 1754 819 2205 
Q 1043 2656 1254 3379 
L 1254 3462 
Q 710 3456 352 3411 
L 352 3917 
Q 634 3872 1254 3866 
Q 1254 4787 1197 5171 
Q 1402 5146 1562 5146 
L 1824 5158 
Q 1901 5158 1901 5113 
Q 1901 5069 1830 5005 
Q 1760 4941 1760 4826 
L 1760 3866 
Q 2394 3878 2669 3917 
L 2669 3411 
Q 2310 3456 1760 3462 
L 1760 672 
Q 1760 96 1818 -531 
L 1184 -531 
Q 1254 122 1254 672 
L 1254 2323 
z
M 6221 563 
Q 6099 102 6009 -70 
Q 5920 -243 5766 -294 
Q 5613 -346 5277 -346 
Q 4941 -346 4809 -301 
Q 4678 -256 4617 -89 
Q 4557 77 4563 435 
L 4608 4339 
L 3578 4339 
Q 3590 3949 3590 3264 
Q 3590 2579 3542 1865 
Q 3494 1152 3276 566 
Q 3059 -19 2547 -621 
Q 2304 -384 1939 -269 
Q 2656 275 2867 992 
Q 3078 1709 3078 2880 
Q 3078 3475 3014 4858 
Q 3437 4806 4137 4806 
Q 4838 4806 5210 4851 
Q 5139 4576 5133 4026 
L 5088 442 
Q 5088 288 5149 221 
Q 5210 154 5395 154 
Q 5542 154 5596 310 
Q 5651 467 5658 960 
Q 5837 640 6221 563 
z
M 2803 1818 
L 2355 1568 
Q 2202 1984 1850 2522 
L 2240 2720 
Q 2509 2330 2803 1818 
z
" transform="scale(0.015625)"/>
       <path id="STHeiti-731c" d="M 3840 4211 
Q 2874 4198 2490 4147 
L 2490 4659 
Q 2880 4608 3840 4595 
Q 3840 5056 3821 5216 
Q 3955 5190 4141 5190 
L 4371 5203 
Q 4416 5203 4416 5171 
Q 4416 5139 4361 5088 
Q 4307 5037 4307 4870 
L 4307 4589 
Q 5427 4602 5856 4659 
L 5856 4147 
Q 5427 4205 4307 4218 
L 4307 3789 
Q 5344 3821 5670 3859 
L 5670 3360 
Q 5210 3411 4307 3424 
L 4307 2995 
Q 5626 3014 6080 3066 
L 6080 2560 
Q 5536 2624 4201 2624 
Q 2867 2624 2336 2560 
L 2336 3066 
Q 2739 3014 3840 3002 
L 3840 3424 
Q 2874 3398 2611 3360 
L 2611 3859 
Q 3046 3814 3840 3795 
L 3840 4211 
z
M 1286 3533 
Q 1024 3251 736 3002 
Q 576 3264 410 3398 
Q 774 3629 1043 3891 
Q 787 4250 410 4640 
L 762 4934 
Q 1056 4659 1376 4256 
Q 1715 4672 1894 5050 
Q 2157 4806 2387 4678 
Q 2426 4659 2426 4636 
Q 2426 4614 2358 4601 
Q 2291 4589 2150 4457 
Q 2010 4326 1626 3904 
Q 1997 3232 1997 1760 
Q 1997 1254 1968 764 
Q 1939 275 1875 86 
Q 1811 -102 1673 -230 
Q 1536 -358 1315 -435 
Q 1094 -512 768 -538 
Q 730 -205 525 128 
Q 813 96 941 96 
Q 1216 96 1325 246 
Q 1434 397 1488 889 
Q 1542 1382 1542 1696 
Q 1542 2010 1536 2157 
Q 1088 1530 570 1088 
Q 474 1344 269 1581 
Q 973 2112 1485 2765 
Q 1414 3251 1286 3533 
z
M 4960 378 
L 3187 378 
L 3187 -557 
L 2643 -557 
Q 2682 -38 2682 378 
L 2682 1702 
Q 2682 2093 2662 2259 
Q 3046 2240 4080 2240 
Q 5114 2240 5504 2259 
Q 5485 2106 5485 1702 
L 5485 147 
Q 5485 -211 5433 -355 
Q 5382 -499 5216 -553 
Q 5050 -608 4608 -646 
Q 4602 -371 4384 -83 
Q 4512 -90 4595 -90 
Q 4838 -90 4899 -3 
Q 4960 83 4960 378 
z
M 3187 1485 
L 4960 1485 
L 4960 1875 
L 3187 1875 
L 3187 1485 
z
M 3187 736 
L 4960 736 
L 4960 1126 
L 3187 1126 
L 3187 736 
z
" transform="scale(0.015625)"/>
       <path id="STHeiti-6d4b" d="M 5254 5158 
Q 5370 5126 5766 5126 
Q 5862 5126 5862 5078 
Q 5862 5030 5801 4985 
Q 5741 4941 5741 4800 
L 5741 141 
Q 5741 -147 5693 -262 
Q 5645 -378 5462 -448 
Q 5280 -518 4794 -608 
Q 4736 -282 4538 51 
Q 4768 26 4950 26 
Q 5133 26 5219 102 
Q 5306 179 5306 435 
L 5306 4166 
Q 5306 4723 5254 5158 
z
M 1664 4525 
L 1338 4077 
Q 992 4403 544 4646 
L 845 5037 
Q 1267 4794 1664 4525 
z
M 3974 1235 
L 3482 1235 
L 3482 4282 
L 2227 4282 
L 2227 1152 
L 1741 1152 
Q 1792 1619 1792 2163 
L 1792 3834 
Q 1792 4288 1754 4794 
Q 2022 4723 2832 4723 
Q 3642 4723 3962 4794 
Q 3923 4352 3923 3834 
L 3923 2195 
Q 3923 1715 3974 1235 
z
M 4813 1005 
L 4269 1005 
Q 4333 1491 4333 1990 
L 4333 3584 
Q 4333 4006 4262 4499 
Q 4403 4467 4570 4467 
L 4806 4480 
Q 4851 4480 4851 4448 
Q 4851 4416 4809 4377 
Q 4768 4339 4768 4186 
L 4768 1997 
Q 4768 1530 4813 1005 
z
M 2605 3789 
Q 2739 3757 2944 3757 
L 3110 3770 
Q 3168 3770 3168 3731 
Q 3168 3693 3123 3638 
Q 3078 3584 3078 2854 
Q 3078 2125 3046 1680 
Q 3014 1235 2921 931 
Q 2829 627 2595 272 
Q 2362 -83 1958 -486 
Q 1741 -262 1427 -141 
Q 1965 230 2227 614 
Q 2490 998 2563 1408 
Q 2637 1818 2637 2362 
Q 2637 2906 2605 3789 
z
M 1510 2976 
L 1210 2464 
Q 832 2752 307 2976 
L 602 3469 
Q 1152 3181 1510 2976 
z
M 1485 1632 
L 1190 538 
Q 1030 -45 934 -538 
Q 685 -339 346 -192 
Q 819 659 1043 1875 
Q 1210 1690 1485 1632 
z
M 4346 166 
L 3949 -230 
Q 3482 435 3072 749 
L 3418 1094 
Q 3962 634 4346 166 
z
" transform="scale(0.015625)"/>
       <path id="STHeiti-41" d="M 2438 5165 
L 4582 384 
L 4090 384 
L 3366 1952 
L 1382 1952 
L 666 384 
L 154 384 
L 2323 5165 
L 2438 5165 
z
M 2381 4147 
L 1594 2419 
L 3162 2419 
L 2381 4147 
z
" transform="scale(0.015625)"/>
       <path id="STHeiti-55" d="M 576 4979 
L 1037 4979 
L 1037 2208 
Q 1037 1779 1059 1561 
Q 1082 1344 1213 1142 
Q 1344 941 1581 822 
Q 1818 704 2090 704 
Q 2362 704 2566 803 
Q 2771 902 2912 1081 
Q 3053 1261 3107 1475 
Q 3162 1690 3162 2208 
L 3162 4979 
L 3616 4979 
L 3616 2208 
Q 3616 1510 3475 1139 
Q 3334 768 2979 518 
Q 2624 269 2144 269 
Q 1760 269 1453 393 
Q 1146 518 941 742 
Q 736 966 656 1241 
Q 576 1517 576 2208 
L 576 4979 
z
" transform="scale(0.015625)"/>
       <path id="STHeiti-3d" d="M 3520 3584 
L 3520 3155 
L 358 3155 
L 358 3584 
L 3520 3584 
z
M 3520 2208 
L 3520 1779 
L 358 1779 
L 358 2208 
L 3520 2208 
z
" transform="scale(0.015625)"/>
       <path id="STHeiti-35" d="M 3149 4979 
L 3149 4544 
L 1510 4544 
L 1280 3290 
Q 1587 3379 1856 3379 
Q 2458 3379 2861 2953 
Q 3264 2528 3264 1862 
Q 3264 1197 2825 733 
Q 2387 269 1664 269 
Q 1114 269 726 598 
Q 339 928 262 1498 
L 730 1498 
Q 813 1114 1075 909 
Q 1338 704 1683 704 
Q 2138 704 2467 1043 
Q 2797 1382 2797 1888 
Q 2797 2349 2509 2646 
Q 2221 2944 1757 2944 
Q 1293 2944 730 2701 
L 1158 4979 
L 3149 4979 
z
" transform="scale(0.015625)"/>
      </defs>
      <use xlink:href="#STHeiti-968f"/>
      <use xlink:href="#STHeiti-673a" x="99.999985"/>
      <use xlink:href="#STHeiti-731c" x="199.999969"/>
      <use xlink:href="#STHeiti-6d4b" x="299.999954"/>
      <use xlink:href="#STHeiti-20" x="399.999939"/>
      <use xlink:href="#STHeiti-28" x="424.999924"/>
      <use xlink:href="#STHeiti-41" x="461.899918"/>
      <use xlink:href="#STHeiti-55" x="535.899902"/>
      <use xlink:href="#STHeiti-43" x="601.399887"/>
      <use xlink:href="#STHeiti-20" x="682.699875"/>
      <use xlink:href="#STHeiti-3d" x="707.69986"/>
      <use xlink:href="#STHeiti-20" x="768.29985"/>
      <use xlink:href="#STHeiti-30" x="793.299835"/>
      <use xlink:href="#STHeiti-2e" x="848.699829"/>
      <use xlink:href="#STHeiti-35" x="876.399826"/>
      <use xlink:href="#STHeiti-29" x="931.79982"/>
     </g>
    </g>
    <g id="line2d_30">
     <path d="M 344.679688 423.268125 
L 354.679688 423.268125 
L 364.679688 423.268125 
" style="fill: none; stroke: #008000; stroke-width: 1.5; stroke-linecap: square"/>
    </g>
    <g id="text_17">
     <!-- 优秀模型 (AUC ≈ 0.95) -->
     <g transform="translate(372.679688 426.768125) scale(0.1 -0.1)">
      <defs>
       <path id="STHeiti-4f18" d="M 4013 3027 
L 3763 3027 
Q 3654 1811 3324 1001 
Q 2995 192 2330 -461 
Q 2106 -224 1792 -109 
Q 2490 422 2822 1161 
Q 3155 1901 3258 3027 
Q 2566 3021 2003 2963 
L 2003 3578 
Q 2451 3520 3290 3507 
Q 3309 3827 3309 4291 
Q 3309 4755 3245 5197 
Q 3494 5133 3981 5133 
Q 4051 5133 4051 5085 
Q 4051 5037 3994 5005 
Q 3885 4947 3878 4672 
L 3795 3507 
L 4339 3507 
Q 5254 3501 5856 3578 
L 5856 2963 
Q 5267 3027 4518 3027 
L 4518 518 
Q 4518 333 4544 259 
Q 4570 186 4659 160 
Q 4749 134 4966 134 
Q 5184 134 5280 182 
Q 5376 230 5427 400 
Q 5478 570 5530 979 
Q 5786 685 6112 659 
Q 5965 147 5856 -48 
Q 5747 -243 5555 -300 
Q 5363 -358 4912 -358 
Q 4461 -358 4288 -316 
Q 4115 -275 4064 -150 
Q 4013 -26 4013 307 
L 4013 3027 
z
M 1722 4064 
L 1722 -627 
L 1133 -627 
Q 1210 45 1210 781 
L 1210 2963 
Q 973 2522 634 2016 
Q 499 2304 269 2477 
Q 736 3014 1059 3731 
Q 1382 4448 1504 5178 
Q 1843 5030 2067 4979 
Q 2170 4947 2170 4912 
Q 2170 4877 2067 4793 
Q 1965 4710 1722 4064 
z
M 5434 4211 
L 5050 3757 
Q 4621 4230 4198 4531 
L 4576 4890 
Q 5024 4582 5434 4211 
z
" transform="scale(0.015625)"/>
       <path id="STHeiti-79c0" d="M 3014 4314 
Q 2074 4262 1216 4243 
Q 1165 4480 992 4742 
Q 1523 4717 2137 4717 
Q 2752 4717 3609 4803 
Q 4467 4890 5043 5056 
Q 5094 4928 5187 4765 
Q 5280 4602 5325 4554 
Q 5370 4506 5370 4474 
Q 5370 4422 5254 4441 
Q 5139 4461 5030 4461 
Q 4922 4461 4448 4422 
L 3520 4346 
L 3520 3750 
Q 5146 3763 5888 3802 
L 5888 3264 
Q 5254 3302 3981 3315 
Q 4691 2515 6125 2310 
Q 5894 2074 5798 1709 
Q 4947 1971 4444 2339 
Q 3942 2707 3571 3315 
L 3520 3315 
L 3520 2970 
Q 3520 2413 3558 2106 
L 2976 2106 
Q 3014 2419 3014 2970 
L 3014 3315 
L 2970 3315 
Q 2426 2496 1696 2035 
Q 2054 2003 3107 2003 
Q 4160 2003 4544 2035 
Q 4499 1958 4442 1715 
L 4307 1171 
L 4973 1171 
Q 5261 1171 5440 1203 
L 5146 6 
Q 5088 -198 4960 -320 
Q 4832 -442 4595 -502 
Q 4358 -563 3955 -576 
Q 3923 -262 3763 13 
Q 4019 -6 4147 -6 
Q 4499 -6 4585 166 
Q 4672 339 4742 742 
L 4077 742 
Q 3840 742 3674 717 
L 3891 1581 
L 2918 1581 
Q 2861 672 2413 192 
Q 1965 -288 947 -570 
Q 806 -269 531 -38 
Q 1466 83 1920 464 
Q 2374 845 2406 1574 
Q 2029 1574 1638 1530 
L 1638 1990 
Q 1254 1754 723 1536 
Q 589 1747 320 1990 
Q 806 2086 1404 2444 
Q 2003 2803 2534 3315 
Q 1363 3322 544 3264 
L 544 3802 
Q 1523 3750 3014 3750 
L 3014 4314 
z
" transform="scale(0.015625)"/>
       <path id="STHeiti-6a21" d="M 4909 4461 
Q 5683 4461 6048 4512 
L 6048 4019 
Q 5626 4077 4909 4077 
L 4909 3546 
Q 5376 3558 5600 3578 
Q 5574 3238 5574 2640 
Q 5574 2042 5600 1626 
Q 5165 1651 4218 1651 
Q 4198 1440 4147 1216 
Q 5440 1216 6035 1280 
L 6035 781 
Q 5523 845 4416 845 
Q 4941 102 6086 38 
Q 5798 -243 5786 -570 
Q 4461 -198 4038 826 
Q 3859 352 3449 32 
Q 3040 -288 2278 -550 
Q 2170 -275 1952 -51 
Q 2662 102 3036 310 
Q 3411 518 3565 845 
Q 2822 845 2157 781 
L 2157 1280 
Q 2605 1222 3674 1216 
Q 3706 1440 3706 1651 
Q 3085 1651 2682 1632 
Q 2701 2099 2701 2627 
Q 2701 3155 2682 3578 
Q 3053 3552 3315 3546 
L 3315 4077 
Q 2656 4051 2426 4019 
L 2426 4512 
Q 2714 4474 3315 4461 
Q 3315 4851 3277 5114 
Q 3610 5075 3808 5075 
Q 3872 5075 3872 5043 
Q 3872 5011 3817 4979 
Q 3763 4947 3763 4851 
L 3763 4461 
L 4461 4461 
Q 4461 4858 4422 5114 
Q 4755 5075 4954 5075 
Q 5018 5075 5018 5043 
Q 5018 5011 4963 4979 
Q 4909 4947 4909 4851 
L 4909 4461 
z
M 4461 4077 
L 3763 4077 
L 3763 3546 
L 4461 3546 
L 4461 4077 
z
M 5120 2784 
L 5120 3181 
L 3149 3181 
L 3149 2784 
L 5120 2784 
z
M 3149 2419 
L 3149 2016 
L 5120 2016 
L 5120 2419 
L 3149 2419 
z
M 1190 2317 
Q 934 1510 614 992 
Q 506 1248 218 1408 
Q 550 1760 768 2205 
Q 986 2650 1184 3373 
Q 800 3366 480 3322 
L 480 3814 
Q 723 3770 1190 3763 
Q 1190 4755 1139 5094 
Q 1338 5069 1485 5069 
L 1734 5082 
Q 1818 5082 1818 5037 
Q 1818 4992 1744 4925 
Q 1670 4858 1670 4749 
L 1670 3763 
Q 2157 3770 2400 3814 
L 2400 3322 
Q 2067 3366 1670 3366 
L 1670 659 
Q 1670 160 1734 -544 
L 1126 -544 
Q 1190 160 1190 659 
L 1190 2317 
z
M 2048 2771 
Q 2317 2304 2522 1850 
L 2106 1632 
Q 1984 2093 1690 2566 
L 2048 2771 
z
" transform="scale(0.015625)"/>
       <path id="STHeiti-578b" d="M 5114 5146 
Q 5267 5114 5414 5114 
L 5683 5114 
Q 5766 5114 5766 5069 
Q 5766 5024 5712 4969 
Q 5658 4915 5658 4787 
L 5658 2272 
Q 5658 2010 5584 1885 
Q 5510 1760 5318 1702 
Q 5126 1645 4710 1600 
Q 4698 1952 4474 2202 
Q 4659 2163 4794 2163 
Q 5165 2163 5165 2438 
L 5165 4102 
Q 5165 4742 5114 5146 
z
M 1421 4474 
Q 966 4480 723 4429 
L 723 4928 
Q 1062 4883 2240 4883 
Q 3418 4883 3622 4928 
L 3622 4429 
Q 3443 4454 3091 4467 
L 3091 3469 
Q 3590 3482 3744 3507 
L 3744 3014 
Q 3488 3040 3091 3040 
Q 3085 2586 3136 1965 
L 2573 1965 
Q 2630 2502 2618 3046 
L 1888 3046 
Q 1760 2086 723 1466 
Q 595 1734 371 1850 
Q 1306 2451 1402 3046 
Q 755 3046 493 3014 
L 493 3507 
Q 819 3469 1421 3469 
L 1421 4474 
z
M 2618 4474 
L 1907 4474 
L 1907 3469 
L 2618 3469 
L 2618 4474 
z
M 4013 4762 
Q 4250 4710 4557 4710 
Q 4627 4710 4627 4668 
Q 4627 4627 4579 4595 
Q 4531 4563 4531 4416 
L 4531 3290 
Q 4531 2842 4563 2483 
L 4032 2483 
Q 4064 2861 4064 3290 
L 4064 4058 
Q 4064 4506 4013 4762 
z
M 3021 832 
Q 1632 832 1133 787 
L 1133 1312 
Q 1645 1267 3021 1267 
Q 3008 1664 2982 1824 
Q 3258 1786 3571 1786 
Q 3667 1786 3667 1750 
Q 3667 1715 3619 1680 
Q 3571 1645 3542 1577 
Q 3514 1510 3514 1453 
L 3514 1267 
Q 4723 1267 5350 1312 
L 5350 787 
Q 4723 832 3514 832 
L 3514 122 
Q 5197 122 6048 166 
L 6048 -352 
Q 5139 -307 3388 -307 
Q 1638 -307 486 -352 
L 486 166 
Q 1299 122 3021 122 
L 3021 832 
z
" transform="scale(0.015625)"/>
       <path id="STHeiti-2248" d="M 5658 3219 
Q 5229 2765 4902 2541 
Q 4576 2317 4224 2317 
Q 3872 2317 3657 2403 
Q 3443 2490 3008 2752 
Q 2470 3085 2163 3085 
Q 1856 3085 1657 2979 
Q 1459 2874 1075 2515 
L 730 2733 
Q 1107 3110 1440 3315 
Q 1773 3520 2131 3520 
Q 2490 3520 2682 3456 
Q 2874 3392 3398 3072 
Q 3923 2752 4230 2752 
Q 4538 2752 4790 2947 
Q 5043 3142 5312 3437 
L 5658 3219 
z
M 5696 1901 
Q 5306 1530 4970 1315 
Q 4634 1101 4262 1101 
Q 3891 1101 3676 1187 
Q 3462 1274 3027 1536 
Q 2490 1869 2173 1869 
Q 1856 1869 1622 1696 
Q 1389 1523 1082 1152 
L 736 1370 
Q 1530 2304 2150 2304 
Q 2509 2304 2701 2240 
Q 2893 2176 3417 1856 
Q 3942 1536 4275 1536 
Q 4518 1536 4748 1651 
Q 4979 1766 5350 2118 
L 5696 1901 
z
" transform="scale(0.015625)"/>
       <path id="STHeiti-39" d="M 1229 269 
L 851 512 
L 2093 2394 
Q 1850 2310 1613 2310 
Q 1062 2310 688 2707 
Q 314 3104 314 3696 
Q 314 4288 730 4691 
Q 1146 5094 1750 5094 
Q 2355 5094 2748 4681 
Q 3142 4269 3142 3693 
Q 3142 3373 3011 3049 
Q 2880 2726 2624 2349 
L 1229 269 
z
M 762 3680 
Q 762 3277 1043 2995 
Q 1325 2714 1728 2714 
Q 2131 2714 2412 2998 
Q 2694 3283 2694 3680 
Q 2694 4077 2412 4361 
Q 2131 4646 1728 4646 
Q 1325 4646 1043 4364 
Q 762 4083 762 3680 
z
" transform="scale(0.015625)"/>
      </defs>
      <use xlink:href="#STHeiti-4f18"/>
      <use xlink:href="#STHeiti-79c0" x="99.999985"/>
      <use xlink:href="#STHeiti-6a21" x="199.999969"/>
      <use xlink:href="#STHeiti-578b" x="299.999954"/>
      <use xlink:href="#STHeiti-20" x="399.999939"/>
      <use xlink:href="#STHeiti-28" x="424.999924"/>
      <use xlink:href="#STHeiti-41" x="461.899918"/>
      <use xlink:href="#STHeiti-55" x="535.899902"/>
      <use xlink:href="#STHeiti-43" x="601.399887"/>
      <use xlink:href="#STHeiti-20" x="682.699875"/>
      <use xlink:href="#STHeiti-2248" x="707.69986"/>
      <use xlink:href="#STHeiti-20" x="807.699844"/>
      <use xlink:href="#STHeiti-30" x="832.699829"/>
      <use xlink:href="#STHeiti-2e" x="888.099823"/>
      <use xlink:href="#STHeiti-39" x="915.79982"/>
      <use xlink:href="#STHeiti-35" x="971.199814"/>
      <use xlink:href="#STHeiti-29" x="1026.599808"/>
     </g>
    </g>
    <g id="line2d_31">
     <path d="M 344.679688 437.849375 
L 354.679688 437.849375 
L 364.679688 437.849375 
" style="fill: none; stroke: #0000ff; stroke-width: 1.5; stroke-linecap: square"/>
    </g>
    <g id="text_18">
     <!-- 良好模型 (AUC ≈ 0.8) -->
     <g transform="translate(372.679688 441.349375) scale(0.1 -0.1)">
      <defs>
       <path id="STHeiti-826f" d="M 3392 4653 
L 2771 4474 
Q 2688 4800 2470 5165 
L 3091 5338 
Q 3302 4934 3392 4653 
z
M 3776 864 
Q 4736 1504 4954 1830 
Q 5197 1600 5504 1472 
Q 5574 1446 5574 1401 
Q 5574 1357 5485 1344 
Q 5280 1312 4058 627 
Q 4608 256 5946 134 
Q 5696 -134 5626 -506 
Q 4192 -179 3542 374 
Q 2893 928 2496 1933 
L 1472 1933 
L 1472 237 
Q 2144 589 2502 838 
L 2694 371 
L 1702 -186 
Q 1197 -461 1037 -640 
Q 915 -371 666 -122 
Q 832 -6 893 147 
Q 954 301 954 595 
L 954 3891 
Q 954 4198 934 4486 
Q 1664 4429 2902 4429 
Q 4141 4429 4941 4486 
Q 4928 4307 4928 3910 
L 4928 2694 
Q 4928 2131 4941 1914 
Q 4666 1933 2976 1933 
Q 3181 1440 3776 864 
z
M 4416 3405 
L 4416 4000 
L 1472 4000 
L 1472 3405 
L 4416 3405 
z
M 4416 2362 
L 4416 2976 
L 1472 2976 
L 1472 2362 
L 4416 2362 
z
" transform="scale(0.015625)"/>
       <path id="STHeiti-597d" d="M 1146 3392 
Q 781 3386 474 3341 
L 474 3872 
Q 691 3834 1216 3827 
Q 1325 4557 1338 5197 
Q 1728 5069 2029 5050 
Q 2144 5043 2144 5011 
Q 2144 4979 2038 4892 
Q 1933 4806 1722 3827 
Q 2618 3827 2918 3872 
Q 2707 1754 2323 1037 
Q 2694 794 3008 563 
Q 2726 339 2547 64 
Q 2342 339 2061 582 
Q 1498 -224 781 -698 
Q 595 -390 243 -205 
Q 1242 243 1677 883 
Q 1261 1178 659 1491 
Q 973 2406 1146 3392 
z
M 1907 1299 
Q 2227 2003 2323 3392 
L 1626 3392 
Q 1395 2394 1254 1683 
Q 1594 1498 1907 1299 
z
M 4781 2547 
Q 5658 2554 6138 2611 
L 6138 2010 
Q 5658 2067 4781 2074 
L 4781 58 
Q 4781 -339 4521 -464 
Q 4262 -589 3693 -653 
Q 3693 -512 3613 -310 
Q 3533 -109 3398 70 
Q 3738 26 3914 26 
Q 4090 26 4170 77 
Q 4250 128 4250 294 
L 4250 2074 
Q 3418 2067 2976 2010 
L 2976 2611 
Q 3424 2554 4250 2547 
L 4250 3437 
Q 4736 3834 5101 4256 
L 3731 4256 
Q 3360 4256 3078 4237 
L 3078 4774 
Q 3494 4736 4595 4736 
Q 5696 4736 5939 4774 
L 5939 4237 
Q 5536 4096 4781 3328 
L 4781 2547 
z
" transform="scale(0.015625)"/>
      </defs>
      <use xlink:href="#STHeiti-826f"/>
      <use xlink:href="#STHeiti-597d" x="99.999985"/>
      <use xlink:href="#STHeiti-6a21" x="199.999969"/>
      <use xlink:href="#STHeiti-578b" x="299.999954"/>
      <use xlink:href="#STHeiti-20" x="399.999939"/>
      <use xlink:href="#STHeiti-28" x="424.999924"/>
      <use xlink:href="#STHeiti-41" x="461.899918"/>
      <use xlink:href="#STHeiti-55" x="535.899902"/>
      <use xlink:href="#STHeiti-43" x="601.399887"/>
      <use xlink:href="#STHeiti-20" x="682.699875"/>
      <use xlink:href="#STHeiti-2248" x="707.69986"/>
      <use xlink:href="#STHeiti-20" x="807.699844"/>
      <use xlink:href="#STHeiti-30" x="832.699829"/>
      <use xlink:href="#STHeiti-2e" x="888.099823"/>
      <use xlink:href="#STHeiti-38" x="915.79982"/>
      <use xlink:href="#STHeiti-29" x="971.199814"/>
     </g>
    </g>
    <g id="line2d_32">
     <path d="M 344.679688 452.430625 
L 354.679688 452.430625 
L 364.679688 452.430625 
" style="fill: none; stroke: #bfbf00; stroke-width: 1.5; stroke-linecap: square"/>
    </g>
    <g id="text_19">
     <!-- 一般模型 (AUC ≈ 0.6) -->
     <g transform="translate(372.679688 455.930625) scale(0.1 -0.1)">
      <defs>
       <path id="STHeiti-4e00" d="M 5926 2067 
Q 5011 2131 3196 2131 
Q 1382 2131 467 2067 
L 467 2797 
Q 1389 2733 3200 2733 
Q 5011 2733 5926 2797 
L 5926 2067 
z
" transform="scale(0.015625)"/>
       <path id="STHeiti-822c" d="M 1325 2010 
Q 1318 1139 1206 579 
Q 1094 19 774 -563 
Q 627 -320 314 -141 
Q 672 320 765 806 
Q 858 1293 864 2010 
Q 589 2003 365 1952 
L 365 2451 
Q 550 2426 864 2426 
L 864 3846 
Q 864 4339 838 4518 
Q 1152 4486 1504 4486 
Q 1562 4685 1562 4899 
Q 1562 5114 1523 5293 
Q 1683 5248 1788 5238 
Q 1894 5229 2163 5229 
Q 2259 5229 2259 5193 
Q 2259 5158 2195 5116 
Q 2131 5075 1933 4480 
Q 2528 4480 2950 4518 
Q 2925 4333 2925 3834 
L 2925 115 
Q 2925 -96 2870 -205 
Q 2816 -314 2640 -387 
Q 2464 -461 2080 -531 
Q 2054 -211 1875 45 
Q 2259 38 2361 83 
Q 2464 128 2464 269 
L 2464 2010 
L 1325 2010 
z
M 2464 2426 
L 2464 4070 
L 1325 4070 
L 1325 2426 
L 2464 2426 
z
M 2080 3674 
Q 2074 3213 2112 2771 
L 1670 2771 
Q 1690 2944 1690 3197 
Q 1690 3450 1664 3654 
L 2080 3674 
z
M 5421 4890 
Q 5350 4685 5321 4237 
Q 5293 3789 5293 3609 
Q 5293 3430 5350 3369 
Q 5408 3309 5549 3309 
Q 5690 3309 6035 3366 
Q 5958 3123 5958 2976 
Q 5958 2829 5971 2765 
Q 5728 2752 5472 2752 
Q 5216 2752 5059 2800 
Q 4902 2848 4857 2937 
Q 4813 3027 4813 3200 
L 4813 4416 
L 4096 4416 
Q 4102 3725 3961 3321 
Q 3821 2918 3482 2618 
Q 3290 2848 3034 2938 
Q 3341 3142 3462 3414 
Q 3584 3686 3584 4086 
Q 3584 4486 3552 4890 
Q 3802 4864 4493 4864 
Q 5184 4864 5421 4890 
z
M 3424 1997 
Q 3206 1984 3072 1965 
L 3072 2458 
Q 3558 2426 4259 2426 
Q 4960 2426 5683 2458 
Q 5286 1101 4806 512 
Q 5274 205 6080 128 
Q 5888 -122 5811 -512 
Q 4902 -173 4474 173 
Q 3936 -301 3360 -614 
Q 3238 -384 2938 -211 
Q 3469 -32 4141 486 
Q 3718 934 3424 1997 
z
M 3885 2003 
Q 4026 1286 4461 774 
Q 4794 1165 5018 2003 
L 3885 2003 
z
M 2061 1670 
Q 2048 1088 2112 730 
L 1658 730 
Q 1683 922 1683 1200 
Q 1683 1478 1651 1658 
L 2061 1670 
z
" transform="scale(0.015625)"/>
      </defs>
      <use xlink:href="#STHeiti-4e00"/>
      <use xlink:href="#STHeiti-822c" x="99.999985"/>
      <use xlink:href="#STHeiti-6a21" x="199.999969"/>
      <use xlink:href="#STHeiti-578b" x="299.999954"/>
      <use xlink:href="#STHeiti-20" x="399.999939"/>
      <use xlink:href="#STHeiti-28" x="424.999924"/>
      <use xlink:href="#STHeiti-41" x="461.899918"/>
      <use xlink:href="#STHeiti-55" x="535.899902"/>
      <use xlink:href="#STHeiti-43" x="601.399887"/>
      <use xlink:href="#STHeiti-20" x="682.699875"/>
      <use xlink:href="#STHeiti-2248" x="707.69986"/>
      <use xlink:href="#STHeiti-20" x="807.699844"/>
      <use xlink:href="#STHeiti-30" x="832.699829"/>
      <use xlink:href="#STHeiti-2e" x="888.099823"/>
      <use xlink:href="#STHeiti-36" x="915.79982"/>
      <use xlink:href="#STHeiti-29" x="971.199814"/>
     </g>
    </g>
   </g>
  </g>
 </g>
 <defs>
  <clipPath id="pb7de3d5ad8">
   <rect x="41.632813" y="22.75125" width="446.4" height="443.52"/>
  </clipPath>
 </defs>
</svg>
